<svg width="24" height="24" viewBox="0 0 24 24" fill="none" xmlns="http://www.w3.org/2000/svg">
<path d="M17.1162 1V1.75C19.9515 1.75 22.25 4.04851 22.25 6.88379H23H23.75C23.75 3.22009 20.7799 0.25 17.1162 0.25V1ZM23 6.88379H22.25V17.1162H23H23.75V6.88379H23ZM23 17.1162H22.25C22.25 19.9515 19.9515 22.25 17.1162 22.25V23V23.75C20.7799 23.75 23.75 20.7799 23.75 17.1162H23ZM17.1162 23V22.25H6.88379V23V23.75H17.1162V23ZM6.88379 23V22.25C4.04851 22.25 1.75 19.9515 1.75 17.1162H1H0.25C0.25 20.7799 3.22009 23.75 6.88379 23.75V23ZM1 17.1162H1.75V6.88379H1H0.25V17.1162H1ZM1 6.88379H1.75C1.75 4.04851 4.04851 1.75 6.88379 1.75V1V0.25C3.22009 0.25 0.25 3.22009 0.25 6.88379H1ZM6.88379 1V1.75H17.1162V1V0.25H6.88379V1Z" fill="#212121"/>
<path d="M12 6L12 18" stroke="#212121" stroke-width="1.5" stroke-linecap="round"/>
<path d="M6 12H18" stroke="#212121" stroke-width="1.5" stroke-linecap="round"/>
</svg>
