<svg width="24" height="24" viewBox="0 0 24 24" fill="none" xmlns="http://www.w3.org/2000/svg">
<path d="M9 3.25C10.297 3.25 11.3675 3.70718 12.29 4.09375C13.2425 4.49288 14.047 4.82129 15 4.82129C16.0358 4.82129 16.686 4.64132 17.0537 4.4873C17.238 4.41007 17.3555 4.33752 17.418 4.29395C17.446 4.27434 17.4631 4.25935 17.4707 4.25293C17.4698 4.25376 17.4689 4.25476 17.4678 4.25586C17.6796 4.04305 17.9996 3.9778 18.2793 4.08984C18.5636 4.20395 18.75 4.47976 18.75 4.78613V14.2139C18.75 14.4067 18.6761 14.5929 18.543 14.7324L18 14.2139C18.5425 14.7317 18.5424 14.733 18.542 14.7334H18.541L18.5391 14.7354C18.538 14.7365 18.5373 14.7381 18.5361 14.7393C18.5338 14.7417 18.5311 14.7443 18.5283 14.7471C18.5226 14.7528 18.5152 14.7595 18.5078 14.7666C18.4931 14.7806 18.4747 14.7968 18.4531 14.8154C18.4093 14.8532 18.3515 14.9004 18.2773 14.9521C18.1288 15.0559 17.9178 15.1798 17.6338 15.2988C17.0639 15.5376 16.2139 15.75 15 15.75C13.703 15.75 12.6325 15.2928 11.71 14.9062C10.7575 14.5071 9.95296 14.1787 9 14.1787C7.96417 14.1787 7.31396 14.3587 6.94629 14.5127C6.86928 14.545 6.80454 14.5776 6.75 14.6064V20C6.75 20.4142 6.41421 20.75 6 20.75C5.58579 20.75 5.25 20.4142 5.25 20V4.78613C5.25 4.59329 5.3239 4.40709 5.45703 4.26758L6 4.78613C5.45748 4.26828 5.45762 4.267 5.45801 4.2666H5.45898L5.46094 4.26465C5.46201 4.26353 5.46269 4.26194 5.46387 4.26074C5.46624 4.25831 5.46891 4.2557 5.47168 4.25293C5.47738 4.24723 5.48478 4.24045 5.49219 4.2334C5.50689 4.21941 5.52525 4.20323 5.54688 4.18457C5.59068 4.14678 5.64854 4.09962 5.72266 4.04785C5.87121 3.9441 6.08218 3.82021 6.36621 3.70117C6.9361 3.46236 7.78612 3.25 9 3.25ZM9 4.75C7.96389 4.75 7.3139 4.93092 6.94629 5.08496C6.86921 5.11726 6.80452 5.14989 6.75 5.17871V12.9902C7.29747 12.8147 8.03301 12.6787 9 12.6787C10.297 12.6787 11.3675 13.1359 12.29 13.5225C13.2425 13.9216 14.0471 14.25 15 14.25C16.0361 14.25 16.6861 14.0691 17.0537 13.915C17.131 13.8827 17.1954 13.8492 17.25 13.8203V6.00879C16.7025 6.18437 15.9672 6.32129 15 6.32129C13.703 6.32129 12.6325 5.86411 11.71 5.47754C10.7575 5.07842 9.95295 4.75 9 4.75Z" fill="#212121"/>
</svg>
