<svg width="24" height="24" viewBox="0 0 24 24" fill="none" xmlns="http://www.w3.org/2000/svg">
<path d="M11.0977 2.41541C11.693 2.29633 12.307 2.29633 12.9023 2.41541C14.225 2.68007 15.3644 3.51262 16.0195 4.69177L22.2061 15.8265C22.5628 16.4688 22.75 17.1914 22.75 17.9261C22.75 20.3142 20.8138 22.2504 18.4258 22.2504H5.57422C3.18619 22.2504 1.25 20.3142 1.25 17.9261C1.25001 17.1914 1.43718 16.4688 1.79395 15.8265L7.98047 4.69177C8.63559 3.51262 9.77497 2.68007 11.0977 2.41541ZM12 15.2504C11.5858 15.2504 11.25 15.5862 11.25 16.0004V16.5004C11.2501 16.9145 11.5859 17.2504 12 17.2504C12.4141 17.2504 12.7499 16.9145 12.75 16.5004V16.0004C12.75 15.5862 12.4142 15.2504 12 15.2504ZM12 8.25037C11.5858 8.25037 11.25 8.58615 11.25 9.00037V13.0004C11.2501 13.4145 11.5859 13.7504 12 13.7504C12.4141 13.7504 12.7499 13.4145 12.75 13.0004V9.00037C12.75 8.58615 12.4142 8.25037 12 8.25037Z" fill="#212121"/>
</svg>
