<svg width="24" height="24" viewBox="0 0 24 24" fill="none" xmlns="http://www.w3.org/2000/svg">
<path fill-rule="evenodd" clip-rule="evenodd" d="M19 4.2H5C4.55817 4.2 4.2 4.55817 4.2 5V19C4.2 19.4418 4.55817 19.8 5 19.8H19C19.4418 19.8 19.8 19.4418 19.8 19V5C19.8 4.55817 19.4418 4.2 19 4.2ZM5 3C3.89543 3 3 3.89543 3 5V19C3 20.1046 3.89543 21 5 21H19C20.1046 21 21 20.1046 21 19V5C21 3.89543 20.1046 3 19 3H5Z" fill="#8D8D8D"/>
<path fill-rule="evenodd" clip-rule="evenodd" d="M19 4.2H5C4.55817 4.2 4.2 4.55817 4.2 5V19C4.2 19.4418 4.55817 19.8 5 19.8H19C19.4418 19.8 19.8 19.4418 19.8 19V5C19.8 4.55817 19.4418 4.2 19 4.2ZM5 3C3.89543 3 3 3.89543 3 5V19C3 20.1046 3.89543 21 5 21H19C20.1046 21 21 20.1046 21 19V5C21 3.89543 20.1046 3 19 3H5Z" fill="black" fill-opacity="0.2"/>
</svg>
