<svg width="24" height="24" viewBox="0 0 24 24" fill="none" xmlns="http://www.w3.org/2000/svg">
<path d="M15 7C15 8.65685 13.6569 10 12 10C10.3431 10 9 8.65685 9 7C9 5.34315 10.3431 4 12 4C13.6569 4 15 5.34315 15 7Z" fill="#0BC7F2"/>
<path fill-rule="evenodd" clip-rule="evenodd" d="M12 4.5C10.6193 4.5 9.5 5.61929 9.5 7C9.5 8.38071 10.6193 9.5 12 9.5C13.3807 9.5 14.5 8.38071 14.5 7C14.5 5.61929 13.3807 4.5 12 4.5ZM8.5 7C8.5 5.067 10.067 3.5 12 3.5C13.933 3.5 15.5 5.067 15.5 7C15.5 8.933 13.933 10.5 12 10.5C10.067 10.5 8.5 8.933 8.5 7Z" fill="#0BC7F2"/>
<path d="M4 17C4 14.7909 5.79086 13 8 13H16C18.2091 13 20 14.7909 20 17V18C20 19.1046 19.1046 20 18 20H6C4.89543 20 4 19.1046 4 18V17Z" fill="#0BC7F2"/>
<path fill-rule="evenodd" clip-rule="evenodd" d="M3.5 17C3.5 14.5147 5.51472 12.5 8 12.5H16C18.4853 12.5 20.5 14.5147 20.5 17V18C20.5 19.3807 19.3807 20.5 18 20.5H6C4.61929 20.5 3.5 19.3807 3.5 18V17ZM8 13.5C6.067 13.5 4.5 15.067 4.5 17V18C4.5 18.8284 5.17157 19.5 6 19.5H18C18.8284 19.5 19.5 18.8284 19.5 18V17C19.5 15.067 17.933 13.5 16 13.5H8Z" fill="#0BC7F2"/>
</svg>
