<svg width="24" height="24" viewBox="0 0 24 24" fill="none" xmlns="http://www.w3.org/2000/svg">
<circle cx="3" cy="3" r="3" transform="matrix(-1 0 0 1 15 9)" stroke="#212121" stroke-width="1.5"/>
<path d="M12.0002 2L12.0003 1.25H12.0002V2ZM16.5002 4.9375L16.1252 5.58702L16.1253 5.58705L16.5002 4.9375ZM16.5002 19.0625L16.1253 18.413L16.1252 18.413L16.5002 19.0625ZM12.0002 22V22.75H12.0003L12.0002 22ZM7.50024 19.0625L7.87535 18.413L7.87524 18.413L7.50024 19.0625ZM7.50024 4.9375L7.87524 5.58702L7.87532 5.58698L7.50024 4.9375ZM8.91957 3.01535L8.18871 2.84699L8.91957 3.01535ZM2.90747 9.68646L3.38452 9.10774L2.90747 9.68646ZM4.40874 18.5048L4.97799 18.0165L4.40874 18.5048ZM9.53496 21.6935L9.35058 22.4205L9.53496 21.6935ZM8.91946 20.9838L9.65028 20.8153L8.91946 20.9838ZM15.0792 20.9838L14.3485 20.8149L15.0792 20.9838ZM14.4635 21.6935L14.2791 20.9665L14.4635 21.6935ZM19.5897 18.505L19.0205 18.0166L19.5897 18.505ZM21.4417 8.70679L22.1499 8.45987L21.4417 8.70679ZM21.0921 9.68652L21.5693 10.2651L21.0921 9.68652ZM2.90734 14.3127L2.43038 13.7339L2.90734 14.3127ZM19.5908 5.49417L19.0215 5.9825L19.5908 5.49417ZM4.40872 5.49421L3.83948 5.00588L4.40872 5.49421ZM21.4417 15.2921L22.1499 15.539L21.4417 15.2921ZM15.0791 3.01539L14.3484 3.18414L15.0791 3.01539ZM12.0002 2L12.0002 2.75C12.7876 2.75003 13.551 2.84818 14.2792 3.03261L14.4633 2.30557L14.6475 1.57853C13.7998 1.36383 12.9128 1.25004 12.0003 1.25L12.0002 2ZM15.0791 3.01539L14.3484 3.18414C14.5736 4.1595 15.1876 5.04568 16.1252 5.58702L16.5002 4.9375L16.8752 4.28798C16.3135 3.96368 15.9457 3.43468 15.8099 2.84665L15.0791 3.01539ZM16.5002 4.9375L16.1253 5.58705C16.986 6.08386 17.9616 6.1982 18.8557 5.98729L18.6835 5.25733L18.5113 4.52736C17.9725 4.65446 17.3904 4.58534 16.8752 4.28795L16.5002 4.9375ZM19.5908 5.49417L19.0215 5.9825C19.7651 6.84927 20.3502 7.85424 20.7335 8.9537L21.4417 8.70679L22.1499 8.45987C21.7038 7.18047 21.0234 6.01231 20.16 5.00583L19.5908 5.49417ZM21.0921 9.68652L20.6149 9.1079C19.783 9.79398 19.2502 10.8345 19.2502 12H20.0002H20.7502C20.7502 11.3017 21.0677 10.6788 21.5693 10.2651L21.0921 9.68652ZM20.0002 12H19.2502C19.2502 13.1656 19.7834 14.2055 20.6151 14.8913L21.0922 14.3126L21.5693 13.7339C21.0677 13.3203 20.7502 12.698 20.7502 12H20.0002ZM21.4417 15.2921L20.7336 15.0452C20.3502 16.1447 19.7646 17.1496 19.0205 18.0166L19.5897 18.505L20.1588 18.9935C21.0226 17.987 21.7036 16.8189 22.1499 15.539L21.4417 15.2921ZM18.6826 18.742L18.8545 18.0119C17.9606 17.8015 16.9854 17.9164 16.1253 18.413L16.5002 19.0625L16.8752 19.712C17.3904 19.4146 17.9723 19.3453 18.5108 19.472L18.6826 18.742ZM16.5002 19.0625L16.1252 18.413C15.1879 18.9542 14.5739 19.8398 14.3485 20.8149L15.0792 20.9838L15.81 21.1527C15.9458 20.565 16.3136 20.0363 16.8752 19.712L16.5002 19.0625ZM14.4635 21.6935L14.2791 20.9665C13.5507 21.1513 12.7874 21.25 12.0002 21.25L12.0002 22L12.0003 22.75C12.9133 22.75 13.8004 22.6355 14.6479 22.4205L14.4635 21.6935ZM12.0002 22V21.25C11.2124 21.25 10.4483 21.1514 9.71933 20.9665L9.53496 21.6935L9.35058 22.4205C10.1988 22.6356 11.0868 22.75 12.0002 22.75V22ZM8.91946 20.9838L9.65028 20.8153C9.42551 19.8406 8.81291 18.9545 7.87535 18.413L7.50024 19.0625L7.12513 19.712C7.68612 20.036 8.05305 20.5644 8.18865 21.1524L8.91946 20.9838ZM7.50024 19.0625L7.87524 18.413C7.01475 17.9162 6.03864 17.8011 5.14417 18.0118L5.31612 18.7418L5.48807 19.4718C6.02692 19.3449 6.60973 19.4144 7.12524 19.712L7.50024 19.0625ZM4.40874 18.5048L4.97799 18.0165C4.23435 17.1496 3.64921 16.1447 3.26595 15.0452L2.55775 15.2921L1.84954 15.539C2.29559 16.8186 2.9761 17.9866 3.83949 18.9931L4.40874 18.5048ZM2.90734 14.3127L3.3843 14.8915C4.21622 14.2059 4.75024 13.166 4.75024 12H4.00024H3.25024C3.25024 12.6977 2.93248 13.3201 2.43038 13.7339L2.90734 14.3127ZM4.00024 12H4.75024C4.75024 10.8341 4.21657 9.7936 3.38452 9.10774L2.90747 9.68646L2.43042 10.2652C2.93244 10.679 3.25024 11.302 3.25024 12H4.00024ZM2.55784 8.70676L3.26603 8.95368C3.64936 7.85426 4.23441 6.8493 4.97796 5.98253L4.40872 5.49421L3.83948 5.00588C2.97609 6.01234 2.29572 7.18048 1.84966 8.45984L2.55784 8.70676ZM5.31609 5.25738L5.14385 5.98733C6.03812 6.19834 7.01434 6.08406 7.87524 5.58702L7.50024 4.9375L7.12524 4.28798C6.60999 4.58546 6.02739 4.65462 5.48833 4.52742L5.31609 5.25738ZM7.50024 4.9375L7.87532 5.58698C8.81329 5.0453 9.42583 4.15867 9.65043 3.18371L8.91957 3.01535L8.18871 2.84699C8.05318 3.43533 7.68623 3.96401 7.12517 4.28802L7.50024 4.9375ZM9.53512 2.30557L9.71926 3.03261C10.4479 2.84807 11.2122 2.75 12.0002 2.75V2V1.25C11.0873 1.25 10.1994 1.36366 9.35099 1.57852L9.53512 2.30557ZM8.91957 3.01535L9.65043 3.18371C9.6659 3.11656 9.69219 3.06922 9.71257 3.04443C9.73005 3.02316 9.73311 3.0291 9.71926 3.03261L9.53512 2.30557L9.35099 1.57852C8.6601 1.7535 8.30315 2.35019 8.18871 2.84699L8.91957 3.01535ZM2.90747 9.68646L3.38452 9.10774C3.32385 9.05772 3.28861 9.00364 3.27448 8.96748C3.2626 8.93708 3.27135 8.93844 3.26603 8.95368L2.55784 8.70676L1.84966 8.45984C1.58426 9.22103 1.9954 9.9066 2.43042 10.2652L2.90747 9.68646ZM5.31612 18.7418L5.14417 18.0118C5.07729 18.0275 5.02333 18.0249 4.99208 18.0176C4.9652 18.0113 4.9689 18.0059 4.97799 18.0165L4.40874 18.5048L3.83949 18.9931C4.30202 19.5323 4.99265 19.5885 5.48807 19.4718L5.31612 18.7418ZM9.53496 21.6935L9.71933 20.9665C9.73311 20.97 9.72999 20.9759 9.71247 20.9546C9.69207 20.9298 9.66577 20.8824 9.65028 20.8153L8.91946 20.9838L8.18865 21.1524C8.30318 21.649 8.66008 22.2454 9.35058 22.4205L9.53496 21.6935ZM15.0792 20.9838L14.3485 20.8149C14.3329 20.8822 14.3066 20.9296 14.2861 20.9545C14.2685 20.9759 14.2654 20.97 14.2791 20.9665L14.4635 21.6935L14.6479 22.4205C15.3384 22.2454 15.6952 21.649 15.81 21.1527L15.0792 20.9838ZM19.5897 18.505L19.0205 18.0166C19.0296 18.006 19.0333 18.0115 19.0064 18.0178C18.9752 18.025 18.9213 18.0277 18.8545 18.0119L18.6826 18.742L18.5108 19.472C19.0061 19.5886 19.6964 19.5323 20.1588 18.9935L19.5897 18.505ZM21.4417 8.70679L20.7335 8.9537C20.7282 8.93846 20.7369 8.9371 20.725 8.96753C20.7109 9.00371 20.6756 9.05784 20.6149 9.1079L21.0921 9.68652L21.5693 10.2651C22.0041 9.90655 22.4153 9.22104 22.1499 8.45987L21.4417 8.70679ZM2.55775 15.2921L3.26595 15.0452C3.27126 15.0605 3.26252 15.0619 3.27438 15.0315C3.28849 14.9954 3.32369 14.9414 3.3843 14.8915L2.90734 14.3127L2.43038 13.7339C1.99526 14.0924 1.58424 14.7779 1.84954 15.539L2.55775 15.2921ZM18.6835 5.25733L18.8557 5.98729C18.9225 5.97154 18.9763 5.97415 19.0075 5.98142C19.0343 5.98767 19.0306 5.99311 19.0215 5.9825L19.5908 5.49417L20.16 5.00583C19.6975 4.46667 19.0068 4.41046 18.5113 4.52736L18.6835 5.25733ZM4.40872 5.49421L4.97796 5.98253C4.96886 5.99314 4.96515 5.9877 4.99197 5.98145C5.02317 5.97418 5.07706 5.97157 5.14385 5.98733L5.31609 5.25738L5.48833 4.52742C4.99275 4.41048 4.30204 4.46667 3.83948 5.00588L4.40872 5.49421ZM21.0922 14.3126L20.6151 14.8913C20.6758 14.9413 20.711 14.9953 20.7251 15.0315C20.737 15.0618 20.7282 15.0604 20.7336 15.0452L21.4417 15.2921L22.1499 15.539C22.4153 14.7779 22.0042 14.0925 21.5693 13.7339L21.0922 14.3126ZM14.4633 2.30557L14.2792 3.03261C14.2654 3.0291 14.2685 3.02318 14.286 3.04453C14.3065 3.0694 14.3328 3.11685 14.3484 3.18414L15.0791 3.01539L15.8099 2.84665C15.6953 2.35019 15.3384 1.75352 14.6475 1.57853L14.4633 2.30557Z" fill="#212121"/>
</svg>
