<svg width="163" height="65" viewBox="0 0 163 65" fill="none" xmlns="http://www.w3.org/2000/svg">
<g clip-path="url(#clip0_1416_25016)">
<path d="M76.0468 39.6065C75.9587 39.2043 75.8064 38.77 75.6221 38.3919C75.4458 38.0219 75.1813 37.7645 74.989 37.5795C74.9329 37.5232 74.8688 37.4669 74.8207 37.4026C74.7726 37.3463 74.7406 37.2739 74.7005 37.2095C74.5642 36.9682 74.3799 36.6465 74.0514 36.381C73.7068 36.0995 73.3301 36.011 73.0576 35.9386C72.9935 35.9225 72.9214 35.9065 72.8653 35.8904L72.681 35.7938C72.4246 35.6571 72.104 35.4962 71.7113 35.4078C71.6312 35.3917 71.551 35.3595 71.4709 35.3354C71.2145 35.2469 70.8619 35.1343 70.4612 35.1343C70.0605 35.1343 69.7239 35.2388 69.4514 35.3273C69.3713 35.3515 69.2911 35.3756 69.211 35.3997C68.8023 35.4962 68.5058 35.6973 68.2814 35.8421C68.2173 35.8823 68.1612 35.9306 68.0971 35.9628C68.041 35.9869 67.9689 36.003 67.9047 36.0191C67.6403 36.0915 67.2716 36.1799 66.9351 36.4534L66.871 36.5017C66.5905 36.7269 66.2699 36.9763 66.0055 37.3221C65.7089 37.6921 65.6368 38.1023 65.5807 38.3758C65.5727 38.4321 65.5647 38.4965 65.5807 38.4804C65.5487 38.5206 65.5086 38.5608 65.4685 38.6011C65.2762 38.8102 64.9877 39.1319 64.8755 39.6145C64.7633 40.1132 64.9156 40.5315 65.0117 40.813C65.0278 40.8613 65.0518 40.9176 65.0598 40.8935C65.0598 41.2313 65.0759 41.6415 65.18 42.1C65.1961 42.1724 65.1961 42.2448 65.1961 42.3172C65.2121 42.5826 65.2281 42.9526 65.4285 43.3709C65.5887 43.7007 65.765 44.0787 66.0455 44.4246C66.2459 44.6739 66.5504 45.0359 66.9271 45.3416C67.2236 45.5829 67.5842 45.8563 67.9849 46.0494C68.3375 46.2183 68.6981 46.2907 68.9866 46.347L69.211 46.3953C69.5796 46.4757 69.9322 46.4837 70.2528 46.4837C70.2929 46.4837 70.3249 46.4837 70.365 46.4837H70.4692C70.926 46.4837 71.3267 46.4435 71.7113 46.355C71.7915 46.339 71.8796 46.3229 71.9678 46.3148C72.2482 46.2746 72.5928 46.2263 72.9455 46.0494C73.3702 45.8483 73.7308 45.6231 74.0353 45.3737C74.3879 45.0922 74.6845 44.7463 74.9169 44.4487C75.1493 44.1511 75.3737 43.7891 75.582 43.3628C75.7663 42.9848 75.7904 42.6228 75.8144 42.3494C75.8144 42.2689 75.8224 42.1885 75.8385 42.1161C75.8545 42.0437 75.8865 41.9713 75.9106 41.8989C76.0067 41.6496 76.127 41.3037 76.127 40.8854V40.6924C76.127 40.3626 76.135 39.9926 76.0548 39.6065H76.0468Z" fill="#E2E9F1"/>
<path d="M161.362 62.2573C161.21 62.2573 161.169 62.2493 161.049 62.209C160.801 62.1367 160.536 62.0723 160.096 62.0723C159.815 62.0723 159.671 62.0643 159.535 62.0562C159.358 62.0482 159.182 62.0321 158.829 62.0321C158.1 62.0321 157.675 62.4182 157.435 62.6595C157.187 62.5227 156.882 62.386 156.425 62.3699C156.217 62.1769 155.784 61.7908 155.039 61.7908C154.454 61.7908 154.109 61.9677 153.901 62.0723C153.877 62.0884 153.853 62.0964 153.773 62.1125C153.532 62.1125 153.412 62.0964 153.292 62.0803C153.1 62.0562 152.899 62.0321 152.515 62.0321C151.954 62.0321 151.609 62.1849 151.409 62.2814C151.385 62.2975 151.353 62.3056 151.248 62.3217C150.992 62.3217 150.864 62.3056 150.735 62.2975C150.551 62.2814 150.359 62.2573 149.99 62.2573C149.493 62.2573 149.205 62.3538 149.012 62.4101C148.948 62.4343 148.908 62.4423 148.86 62.4503C148.644 62.2493 148.211 61.8551 147.466 61.8551C146.785 61.8551 146.368 62.1769 146.135 62.386C145.919 62.2412 145.542 62.0321 144.941 62.0321C144.461 62.0321 144.164 62.1286 143.908 62.2251C143.795 62.2654 143.787 62.2734 143.675 62.2734C143.122 62.2734 142.786 62.4182 142.585 62.5067C142.521 62.5335 142.465 62.5469 142.417 62.5469C142.161 62.5469 142.032 62.5308 141.904 62.5227C141.72 62.4986 141.528 62.4825 141.151 62.4825C140.654 62.4825 140.358 62.579 140.165 62.6434C140.109 62.6595 140.069 62.6756 140.029 62.6836C139.813 62.4664 139.38 62.0723 138.627 62.0723C138.194 62.0723 137.945 62.1206 137.769 62.1608C137.641 62.1849 137.569 62.201 137.368 62.201C137.136 62.201 136.952 62.2412 136.783 62.2895C136.823 62.2412 136.863 62.193 136.896 62.1447C137.032 61.9677 137.168 61.7827 137.328 61.6299C137.585 61.3725 137.793 61.1392 137.969 60.8416C138.186 60.4716 138.33 60.2062 138.402 59.9166C138.466 59.6834 138.498 59.426 138.506 59.0721C138.498 59.0158 138.49 58.9514 138.49 58.8951C138.49 58.5894 138.546 58.3079 138.594 58.0907C138.619 57.9781 138.651 57.8012 138.651 57.7449C138.635 57.6162 138.627 57.4794 138.61 57.3507C138.586 57.0773 138.562 56.8199 138.514 56.5946C138.482 56.4579 138.45 56.3131 138.426 56.1683C138.378 55.9109 138.33 55.6616 138.258 55.4605C138.25 55.4605 138.154 55.3479 138.09 55.2835C137.913 55.0905 137.689 54.8492 137.537 54.5194C137.44 54.3264 137.368 54.1172 137.296 53.9161C137.232 53.7392 137.168 53.5622 137.104 53.4576C137.064 53.3853 136.936 53.2807 136.823 53.1681C136.663 53.0233 136.479 52.8544 136.303 52.6372C136.094 52.3798 135.974 52.1063 135.87 51.8892C135.83 51.7926 135.758 51.6479 135.726 51.6076C135.533 51.4146 135.293 51.2296 135.044 51.0285L134.86 50.8757C134.812 50.8354 134.652 50.7791 134.531 50.7309C134.323 50.6504 134.067 50.5539 133.818 50.3931C133.538 50.2161 133.233 50.0552 132.833 49.8541C132.464 49.6772 132.207 49.3956 132.023 49.1946C131.975 49.1383 131.927 49.082 131.871 49.0417L131.719 48.9854C131.414 48.8728 131.102 48.7602 130.821 48.7039C130.661 48.6717 130.452 48.6556 130.22 48.6476C130.028 48.6396 129.843 48.6315 129.659 48.6074C129.475 48.5913 129.242 48.5993 128.994 48.6074C128.906 48.6074 128.818 48.6074 128.721 48.6154C128.409 48.6798 128.064 48.6637 127.688 48.7119L127.359 48.7522C127.175 48.7763 126.99 48.7843 126.806 48.7924C126.582 48.8004 126.373 48.8165 126.213 48.8487C126.085 48.8809 125.917 48.9613 125.732 49.0417C125.54 49.1302 125.348 49.2187 125.155 49.2911C125.035 49.3313 124.891 49.4278 124.73 49.5243C124.546 49.637 124.362 49.7496 124.17 49.8461C123.817 50.015 123.456 50.0552 123.192 50.0874C123.104 50.0954 123.016 50.0954 122.935 50.1196C122.895 50.1517 122.759 50.2885 122.623 50.4252C122.471 50.5781 122.31 50.7309 122.142 50.8676C122.006 50.9802 121.862 51.0768 121.717 51.1813C121.525 51.3181 121.349 51.4468 121.228 51.5674C121.164 51.6318 121.068 51.7926 120.988 51.9374C120.868 52.1465 120.74 52.3557 120.595 52.5407L120.411 52.7659C120.219 52.9992 120.042 53.2244 119.898 53.4416C119.786 53.6266 119.682 53.8518 119.578 54.085C119.521 54.2137 119.465 54.3424 119.401 54.4631C119.297 54.6722 119.169 54.8733 119.041 55.0744C118.944 55.2192 118.848 55.364 118.808 55.4605C118.68 55.8225 118.576 56.1925 118.488 56.5705L118.432 56.8038C118.359 57.1255 118.287 57.4231 118.255 57.7046C118.215 58.0586 118.199 58.4527 118.199 58.8629C118.199 58.9755 118.183 59.0801 118.151 59.1847C118.183 59.3536 118.239 59.5386 118.287 59.7155L118.351 59.9488C118.4 60.1177 118.528 60.3349 118.672 60.5601C118.744 60.6727 118.808 60.7853 118.872 60.8899C118.912 60.9542 119.065 61.0829 119.193 61.1795C119.353 61.3082 119.513 61.4369 119.666 61.5897C119.842 61.7666 120.002 61.8953 120.163 62.016C119.898 62.1769 119.706 62.386 119.578 62.563C119.353 62.4343 119.009 62.2895 118.512 62.2895C118.215 62.2895 118.063 62.2895 117.919 62.2814C117.766 62.2814 117.606 62.2734 117.31 62.2734H117.294C117.197 62.193 117.069 62.1045 116.893 62.016C116.845 61.9356 116.797 61.8551 116.749 61.7747C116.54 61.4449 116.292 61.0347 116.156 60.536L116.1 60.3269C115.987 59.9166 115.843 59.4099 115.843 58.8629C115.843 58.7021 115.875 58.5492 115.931 58.4125C115.939 58.0747 115.963 57.7529 115.995 57.4473C116.043 57.029 116.132 56.6268 116.22 56.2729L116.268 56.0557C116.372 55.5972 116.5 55.1388 116.661 54.6964C116.789 54.3264 116.989 54.0287 117.149 53.7955C117.222 53.6909 117.302 53.5783 117.35 53.4657C117.398 53.3611 117.454 53.2485 117.502 53.1359C117.63 52.8544 117.774 52.5246 117.975 52.2109C118.191 51.8731 118.424 51.5835 118.648 51.31L118.816 51.1009C118.896 50.9963 118.961 50.8837 119.025 50.7711C119.169 50.5217 119.345 50.2161 119.626 49.9426C119.882 49.6852 120.163 49.4841 120.403 49.3152C120.515 49.2348 120.627 49.1543 120.732 49.0739C120.836 48.9935 120.932 48.8889 121.028 48.7924C121.236 48.5833 121.477 48.3419 121.797 48.1409C122.214 47.8754 122.647 47.8352 122.959 47.803C123.048 47.795 123.136 47.795 123.216 47.7709C123.312 47.7226 123.416 47.6502 123.528 47.5778C123.761 47.433 124.057 47.248 124.41 47.1193C124.538 47.0791 124.658 47.0148 124.779 46.9585C125.043 46.8298 125.348 46.693 125.716 46.6045C126.069 46.5241 126.405 46.508 126.702 46.4919C126.838 46.4919 126.974 46.4758 127.111 46.4678L127.407 46.4356C127.672 46.4034 127.968 46.3632 128.273 46.3552C128.473 46.315 128.689 46.3311 128.898 46.323C129.202 46.3069 129.547 46.2989 129.907 46.3391C130.044 46.3552 130.188 46.3632 130.324 46.3632C130.629 46.3793 130.965 46.3954 131.318 46.4758C131.326 46.4758 131.342 46.4758 131.35 46.4839C131.302 46.4276 131.254 46.3793 131.214 46.3311C131.182 46.2908 131.142 46.2587 131.11 46.2184C131.126 46.1702 131.142 46.1219 131.158 46.0737C131.262 45.776 131.39 45.4141 131.39 44.9717C131.39 44.6258 131.366 44.296 131.334 43.9582C131.318 43.8054 131.31 43.6525 131.294 43.4917C131.27 43.0573 131.126 42.7115 131.013 42.4219C130.989 42.3656 130.973 42.3093 130.949 42.261C130.981 42.2208 131.013 42.1806 131.045 42.1404C131.35 41.7543 131.807 41.1751 131.67 40.5075C131.67 40.4512 131.719 40.2984 131.743 40.2019C131.839 39.8399 131.975 39.3492 131.839 38.8103C131.743 38.4484 131.582 38.1266 131.446 37.8451C131.366 37.6842 131.286 37.5314 131.238 37.3786C131.021 36.727 130.452 36.4053 130.068 36.1962C130.004 36.164 129.939 36.1318 129.883 36.0916C129.851 35.987 129.835 35.8905 129.811 35.7859C129.747 35.4883 129.667 35.1505 129.499 34.7966C129.234 34.2335 128.713 33.9922 128.321 33.8394C128.489 33.3407 128.705 32.6409 128.289 31.9974C128.056 31.6435 127.752 31.3942 127.511 31.1931C127.391 31.0966 127.255 30.9839 127.199 30.9116C126.766 30.3405 126.109 30.2681 125.628 30.2359C125.636 29.7855 125.612 29.1902 125.187 28.7639C125.163 28.7157 125.115 28.5789 125.083 28.4824C124.963 28.1365 124.803 27.67 124.394 27.3C123.865 26.8335 123.2 26.8656 122.751 26.8898C122.671 26.8898 122.599 26.9059 122.519 26.8978C122.158 26.6726 121.789 26.6002 121.501 26.5439C121.405 26.5278 121.269 26.4956 121.252 26.4956C120.964 26.3026 120.684 26.1578 120.435 26.0372C120.291 25.9648 120.139 25.8924 119.986 25.7958C119.81 25.6913 119.642 25.6028 119.489 25.5224C119.177 25.3615 119.097 25.3132 119.025 25.2087C119.001 25.1685 119.009 24.9674 119.017 24.8145C119.025 24.6134 119.033 24.3963 119.017 24.171V24.0504C118.977 23.5919 118.953 23.1736 118.896 22.7715C118.896 22.7232 118.944 22.5865 118.977 22.498C119.081 22.1682 119.225 21.7178 119.129 21.1949C119.041 20.7204 118.808 20.3584 118.632 20.093C118.576 20.0045 118.488 19.8677 118.472 19.8275C118.456 19.7632 118.464 19.5943 118.472 19.4575C118.488 19.1438 118.504 18.7497 118.368 18.3234C118.255 17.9534 118.087 17.6638 117.943 17.4064C117.863 17.2697 117.782 17.1329 117.726 16.9801C117.606 16.6664 117.462 16.3768 117.318 16.0873C117.27 15.9907 117.222 15.9023 117.181 15.8057C117.197 15.7414 117.222 15.6771 117.238 15.6047C117.358 15.1864 117.534 14.5429 117.214 13.9477C117.197 13.8914 117.173 13.7225 117.165 13.6099C117.125 13.2559 117.077 12.8055 116.813 12.3872C116.468 11.8161 115.851 11.6231 115.45 11.4944C115.37 11.4703 115.29 11.4461 115.226 11.422C115.01 11.1485 114.761 10.9474 114.553 10.7866C114.457 10.7061 114.361 10.6337 114.296 10.5694C114.28 10.497 114.28 10.4246 114.272 10.3442C114.224 9.94199 114.168 9.40308 113.76 8.94459C113.383 8.52633 112.902 8.38154 112.541 8.27698C112.541 8.25285 112.541 8.22871 112.541 8.20458C112.59 7.62545 112.654 6.83718 112.045 6.29826C111.756 6.04087 111.436 5.87195 111.155 5.71913C110.987 5.6226 110.818 5.53412 110.722 5.46173C110.049 4.9389 109.256 5.20434 108.679 5.40543C108.599 5.42956 108.502 5.46173 108.414 5.49391C108.214 5.3813 108.03 5.30086 107.853 5.22042C107.797 5.19629 107.741 5.17216 107.685 5.13999C107.677 5.0676 107.661 4.98716 107.661 4.92281C107.589 4.32759 107.493 3.51519 106.747 3.1291C106.162 2.82344 105.585 3.0004 105.129 3.20149C105.016 2.57409 104.816 1.83409 104.079 1.55256C103.301 1.25495 102.62 1.72148 102.131 2.06735C102.123 2.06735 102.107 2.08344 102.099 2.09148C101.843 1.80191 101.498 1.43995 100.953 1.30321C100.32 1.14234 99.7834 1.43995 99.3907 1.6893C99.1262 1.24691 98.7255 0.66777 98.0364 0.587334C97.9803 0.571247 97.844 0.490811 97.7479 0.434506C97.4433 0.257548 97.0186 0.00819775 96.4977 -0.0239765C95.7364 -0.0561507 95.2636 0.466681 94.9029 0.933207C94.5583 0.55516 94.0855 0.128851 93.4044 0.177112C93.0598 0.201243 92.6991 0.249505 92.3465 0.305809C92.1862 0.32994 92.026 0.354071 91.8897 0.370158C91.7936 0.370158 91.6493 0.32994 91.5371 0.305809C91.1925 0.233417 90.7598 0.136895 90.287 0.225374C89.6218 0.354071 89.2371 0.860815 88.9567 1.23082C88.9006 1.30321 88.8525 1.3756 88.7964 1.43995C88.1633 1.6893 87.8748 2.30866 87.6825 2.72692C87.6744 2.75105 87.6584 2.77518 87.6504 2.80736C87.6424 2.80736 87.6344 2.80736 87.6264 2.80736C87.3218 2.76714 86.9131 2.71888 86.4644 2.85562C86.3922 2.83953 86.3201 2.8154 86.248 2.79931C85.8553 2.69475 85.2543 2.52583 84.6612 2.79931C83.8038 3.19345 83.6675 4.00585 83.6034 4.39194C83.4752 4.44824 83.387 4.48042 83.2909 4.51259C83.1066 4.57694 82.9302 4.64933 82.5776 4.80216L82.3613 4.89868C82.1208 5.01129 81.9926 5.0676 81.8724 5.09977C81.7121 4.74585 81.4397 4.23911 80.8306 3.96563C80.1655 3.65997 79.6366 3.79671 79.34 3.87715C79.2118 3.65193 78.9794 3.2578 78.4345 2.97627C78.3864 2.91192 78.3463 2.83149 78.3063 2.75909C78.0899 2.38909 77.7934 1.8743 77.2003 1.64908C76.7355 1.47213 76.2868 1.49626 75.9261 1.52039C75.8139 1.52039 75.6457 1.53647 75.6056 1.53647C75.1969 1.40778 74.8042 1.39973 74.4917 1.39973C74.3314 1.39973 74.1551 1.39973 74.0669 1.3756C73.5861 1.25495 73.1453 1.32734 72.8248 1.38365C72.7527 1.39973 72.6565 1.41582 72.5844 1.42386C72.5363 1.38365 72.4882 1.32734 72.4321 1.28712C72.1356 1.0056 71.7349 0.627552 71.1258 0.55516C70.9495 0.531029 70.7732 0.498855 70.5889 0.458637C70.2924 0.402332 69.9558 0.32994 69.6032 0.313853C69.0583 0.281679 68.6015 0.498855 68.2649 0.66777C68.1767 0.716031 68.0405 0.780379 68.0646 0.788423C67.4315 0.788423 66.9667 1.14234 66.6621 1.38365C66.598 1.43191 66.5419 1.48017 66.4858 1.52039C66.1573 1.55256 65.8768 1.62495 65.6283 1.69735C65.5722 1.71343 65.5242 1.72952 65.4681 1.74561C65.42 1.69735 65.3639 1.64104 65.3238 1.60082C64.9311 1.19864 64.3381 0.603421 63.5127 0.748205C63.1521 0.812554 62.8315 0.933207 62.543 1.04582C62.3747 1.11017 62.2144 1.17451 62.0542 1.21473C61.4211 1.36756 61.0765 1.8743 60.8441 2.27648C60.4033 2.01104 59.7782 1.67321 59.089 1.93865C58.504 2.15583 58.2316 2.67062 58.0633 3.12106C57.5103 2.75909 56.7971 2.373 56.0678 2.75105C55.4988 3.04866 55.2584 3.59563 55.0821 3.9978C55.0501 4.07824 55.018 4.16672 54.9779 4.23911C54.5051 4.57694 54.3208 5.09977 54.1926 5.45369C54.1685 5.52608 54.1445 5.59847 54.1205 5.66282C53.856 5.84782 53.6156 6.04087 53.3671 6.24196L53.0626 6.48326C52.6539 6.80501 52.4536 7.22327 52.3173 7.52088C52.2933 7.56914 52.2612 7.64154 52.2372 7.6898C52.1891 7.69784 52.133 7.70588 52.0769 7.71393C51.7083 7.77023 51.1553 7.85871 50.7146 8.28502C50.4341 8.56655 50.2498 8.8722 50.0975 9.12155C50.0093 9.26633 49.9292 9.41112 49.8491 9.4996C49.6087 9.76504 49.4323 10.0385 49.2801 10.2718C49.208 10.3844 49.1278 10.505 49.0477 10.6177C48.9836 10.6498 48.9114 10.6659 48.8393 10.69C48.4787 10.8107 47.9418 11.0037 47.5892 11.5024C47.2846 11.9368 47.2526 12.4275 47.2526 12.7975C47.2365 12.7975 47.2285 12.7975 47.2125 12.7975C46.5634 12.8296 45.6658 12.8779 45.2491 13.6662C44.8084 14.5027 45.3533 15.2749 45.7941 15.8942C45.7941 15.8942 45.7941 15.8942 45.7941 15.9023C45.4735 16.0953 45.1049 16.3849 44.9205 16.8755C44.6881 17.4949 44.8885 18.074 45.0247 18.4601C45.0327 18.4923 45.0488 18.5245 45.0568 18.5566C45.0327 18.5808 45.0087 18.6049 44.9847 18.621C44.7362 18.8623 44.3676 19.2323 44.2314 19.7793C44.1993 19.8999 44.1352 20.0527 44.0631 20.2136C43.9509 20.4791 43.8066 20.8088 43.7425 21.1708C43.7265 21.2191 43.6383 21.3558 43.5822 21.4443C43.3979 21.7258 43.1495 22.1199 43.0934 22.6267C43.0453 23.0128 43.0934 23.3667 43.1254 23.6723C43.1495 23.8574 43.1655 24.0263 43.1575 24.155C43.1575 24.2193 43.1575 24.2676 43.1495 24.3158V24.3319C43.0934 24.4043 43.0373 24.4847 42.9652 24.5974C42.8289 24.8065 42.7568 24.9674 42.6767 25.1363C42.6687 25.1363 42.6526 25.1524 42.6366 25.1604C42.5805 25.1845 42.4282 25.2087 42.3241 25.2248C41.9955 25.2811 41.5467 25.3535 41.138 25.635C41.0418 25.6993 40.8816 25.7717 40.7133 25.8441C40.4248 25.9728 40.0962 26.1176 39.7837 26.3589C39.7115 26.4152 39.5433 26.4956 39.391 26.56C39.1025 26.6887 38.7419 26.8576 38.4293 27.1391C37.8844 27.6298 37.8684 28.3376 37.8684 28.8363C37.4276 28.8765 36.8185 28.965 36.3858 29.4637C35.8809 30.0509 36.0332 30.7748 36.2335 31.362C35.7447 31.3942 35.1837 31.5148 34.8151 32.0135C34.743 32.0618 34.6548 32.102 34.5667 32.1503C34.2221 32.3353 33.7492 32.5846 33.4688 33.0833C33.1242 33.6946 33.2924 34.3381 33.4127 34.7966C33.4367 34.877 33.4607 34.9655 33.4768 35.0379C33.3325 35.4883 33.4207 35.9227 33.5489 36.2766C32.8357 36.3892 32.0022 36.5581 31.7297 37.3947C31.4973 38.0864 31.8339 38.7138 32.0583 39.1321C32.0904 39.1884 32.1224 39.2447 32.1465 39.2929C32.1144 39.3573 32.0743 39.4377 32.0423 39.5101C31.9061 39.7836 31.7297 40.1134 31.6576 40.5236C31.5615 41.0223 31.6817 41.4647 31.7698 41.7945C31.7939 41.8749 31.8179 41.9795 31.8339 42.0438C31.8019 42.1001 31.7458 42.1886 31.7057 42.253C31.5134 42.5506 31.2569 42.9608 31.2249 43.4917C31.1928 44.0467 31.4092 44.4891 31.5775 44.8108C31.5855 44.8269 31.5935 44.851 31.6095 44.8671C31.5855 44.8913 31.5695 44.9073 31.5454 44.9315C31.2249 45.2773 30.744 45.7921 30.7921 46.5241C30.8162 46.9424 30.9925 47.2802 31.1688 47.5537L31.321 47.4813C31.7538 47.2721 32.1705 47.0711 32.6273 46.9182C33.0921 46.7574 33.5248 46.8137 33.8374 46.8539C33.9255 46.8619 34.0057 46.878 34.0938 46.878C34.1099 46.8619 34.182 46.8056 34.2541 46.7574C34.5266 46.5884 34.8952 46.3471 35.3841 46.2989C35.7928 46.2587 36.1614 46.3311 36.4499 46.3954C36.5781 46.4195 36.7224 46.4517 36.8025 46.4517C36.9147 46.4517 37.0189 46.4678 37.1231 46.5C37.4677 46.5 37.8203 46.4919 38.1969 46.5321C38.5816 46.5724 38.9422 46.6608 39.2628 46.7413L39.5593 46.8137C39.9199 46.8941 40.2244 47.0308 40.4889 47.1515C40.6091 47.2078 40.7293 47.2641 40.8575 47.3043C40.9056 47.3204 41.0499 47.3285 41.146 47.3365C41.4425 47.3526 41.8432 47.3848 42.2439 47.5778C42.5805 47.7387 42.869 47.9398 43.1335 48.1167C43.2376 48.1891 43.3338 48.2535 43.438 48.3178C43.7826 48.535 44.015 48.8085 44.2073 49.0337C44.2875 49.1222 44.3596 49.2187 44.4477 49.2911C44.5038 49.3313 44.632 49.3956 44.7442 49.452C45.0087 49.5807 45.3373 49.7496 45.6338 50.0472C45.9383 50.3528 46.0986 50.6907 46.2268 50.9561C46.2829 51.0687 46.339 51.1974 46.3791 51.2457C46.6756 51.6157 46.94 51.9535 47.1965 52.3557C47.2205 52.3879 47.3247 52.4763 47.3968 52.5407C47.6292 52.7418 47.9418 53.0153 48.1421 53.4335C48.3024 53.7633 48.4066 54.1011 48.4947 54.3907C48.5348 54.5194 48.5749 54.6401 48.6149 54.7607C48.655 54.8814 48.7031 55.002 48.7512 55.1146C48.8634 55.4042 48.9916 55.734 49.0797 56.0959C49.1839 56.5544 49.1038 56.9646 49.0477 57.2623C49.0317 57.3507 48.9996 57.4875 49.0076 57.5357C49.0076 57.576 49.0637 57.7207 49.1038 57.8173C49.208 58.0907 49.3442 58.4607 49.3442 58.9031C49.3442 59.064 49.3121 59.2168 49.256 59.3536C49.208 59.6753 49.1038 59.9488 49.0236 60.1821C48.9836 60.2947 48.9435 60.3992 48.9195 60.5119C48.7592 61.1071 48.5108 61.5656 48.2703 61.9919C48.2223 62.0803 48.1742 62.1608 48.1261 62.2493C48.062 62.3699 47.9898 62.4906 47.9177 62.6112C47.7575 62.6112 47.6533 62.6032 47.5491 62.5951C47.3808 62.5871 47.2045 62.579 46.8599 62.579C46.5153 62.579 46.347 62.5871 46.1707 62.5951C46.0265 62.5951 45.8902 62.6112 45.6017 62.6112C45.3853 62.6112 45.3052 62.5951 45.169 62.571C45.0087 62.5388 44.8084 62.5067 44.5199 62.5147C44.624 62.4262 44.7362 62.3377 44.8645 62.2573C44.9847 62.193 45.0969 62.1286 45.2171 62.0643C45.4414 61.9436 45.6338 61.839 45.754 61.7264C45.8822 61.5977 45.9944 61.3966 46.1226 61.1553C46.1787 61.0508 46.2348 60.9462 46.2909 60.8416C46.5073 60.4716 46.6355 60.2142 46.7156 59.9166C46.7637 59.7477 46.8198 59.5788 46.8759 59.4099C46.9481 59.2088 47.0122 59.0158 47.0122 58.8951C47.0122 58.8468 47.0122 58.7986 47.0202 58.7503C47.0041 58.7021 46.9801 58.6538 46.9641 58.6055C46.8839 58.3803 46.7717 58.0988 46.7397 57.769C46.6996 57.399 46.7637 57.0773 46.8118 56.8118C46.8278 56.7233 46.8519 56.5866 46.8519 56.5464C46.8118 56.4016 46.7317 56.1764 46.6355 55.9431C46.5794 55.7983 46.5233 55.6455 46.4672 55.5007C46.4111 55.3479 46.363 55.1951 46.323 55.0422C46.2508 54.8009 46.1787 54.5757 46.0986 54.4068C46.0906 54.4068 45.9864 54.3103 45.9143 54.254C45.7139 54.085 45.4735 53.8679 45.2812 53.5622C45.0969 53.2726 44.8885 53.0072 44.6481 52.7016C44.4157 52.412 44.2875 52.1465 44.1913 51.9374C44.1432 51.8409 44.0711 51.6881 44.039 51.6479C44.007 51.6157 43.8467 51.5433 43.7505 51.487C43.5422 51.3824 43.2937 51.2618 43.0453 51.0607C42.8129 50.8757 42.6446 50.6746 42.5004 50.5057C42.4122 50.4011 42.3 50.2724 42.2439 50.2322C42.1157 50.1517 41.9955 50.0713 41.8753 49.9909C41.6589 49.8461 41.4586 49.7093 41.2742 49.6209C41.2502 49.6209 41.106 49.6048 41.0098 49.5967C40.7614 49.5807 40.4488 49.5565 40.1202 49.4439C39.9279 49.3796 39.7436 49.2991 39.5673 49.2106C39.375 49.1222 39.2147 49.0498 39.0784 49.0176L38.7499 48.9372C38.4774 48.8728 38.213 48.8085 37.9725 48.7763C37.7321 48.7522 37.4596 48.7522 37.1712 48.7602H36.8346C36.6823 48.7602 36.5461 48.7361 36.4098 48.6798C36.2656 48.6556 36.1294 48.6315 36.0091 48.6074C35.8969 48.5833 35.7126 48.543 35.6646 48.5511C35.6565 48.5672 35.5844 48.6235 35.5043 48.6717C35.2719 48.8246 34.9754 49.0096 34.5987 49.09C34.206 49.1785 33.8454 49.1302 33.5809 49.098C33.4928 49.09 33.4046 49.0659 33.3245 49.0739C33.06 49.1785 32.7074 49.3474 32.3388 49.5243L32.1545 49.6128C31.8419 49.7657 31.5454 49.9024 31.305 50.0633C31.2569 50.0954 31.1367 50.2402 31.0566 50.3368C30.9123 50.5137 30.728 50.7309 30.4956 50.9159C30.1991 51.1491 29.9106 51.4387 29.6622 51.6961C29.5981 51.7605 29.5099 51.9052 29.4218 52.0581C29.3015 52.2592 29.1813 52.4683 29.0291 52.6533C28.8928 52.8303 28.7326 52.9831 28.5723 53.144C28.4441 53.2726 28.3158 53.3933 28.2597 53.4898C28.1556 53.6587 28.0594 53.8679 27.9632 54.0931C27.8991 54.2298 27.843 54.3746 27.7709 54.5114C27.6587 54.7446 27.5706 55.002 27.4744 55.2835L27.3782 55.5651C27.2981 55.7903 27.25 56.0316 27.1939 56.3051L27.1218 56.659C27.0497 56.9968 26.9054 57.2623 26.7852 57.4875C26.7371 57.576 26.673 57.7047 26.657 57.7529L26.6329 57.9942C26.5929 58.316 26.5608 58.6136 26.5608 58.8871C26.5608 59.0238 26.5368 59.1525 26.4967 59.2731C26.5207 59.5225 26.5608 59.7718 26.6249 59.9971C26.649 60.0695 26.7852 60.2625 26.8814 60.3912C27.0096 60.5601 27.1378 60.7371 27.234 60.914C27.3862 61.1795 27.6267 61.4127 27.8991 61.6943C28.0754 61.8712 28.2357 62.008 28.388 62.1286C28.1716 62.2653 28.0113 62.4423 27.8991 62.579C27.6667 62.4423 27.2901 62.2895 26.7852 62.2814L26.7131 62.2412C26.4406 62.0964 26.104 61.9436 25.5511 61.9436H24.3009C23.6838 61.9436 23.2992 62.1849 23.0748 62.3538C22.8504 62.1688 22.4417 61.8873 21.7926 61.8873C20.9752 61.8873 20.5184 62.4101 20.302 62.6836C20.2058 62.6836 20.1417 62.6675 20.0696 62.6595C19.8933 62.6354 19.6769 62.6032 19.2762 62.6032C19.0679 62.6032 18.9877 62.5871 18.8515 62.563C18.6672 62.5308 18.4348 62.4906 18.018 62.4906C17.9646 62.4906 17.9032 62.4772 17.8337 62.4503C17.6334 62.3619 17.3048 62.2251 16.6958 62.2171C16.6637 62.209 16.6397 62.193 16.6156 62.1769C16.4153 62.0803 16.0707 61.9195 15.5017 61.9195C15.117 61.9195 14.9327 61.9436 14.7404 61.9677C14.6202 61.9838 14.492 61.9999 14.2435 61.9999C13.6745 61.9999 13.338 62.1608 13.1376 62.2493C13.1136 62.2653 13.0895 62.2734 12.9853 62.2895C12.809 62.2895 12.7529 62.2734 12.6327 62.2412C12.4003 62.1849 12.1519 62.1286 11.7352 62.1286C11.4467 62.1286 11.2944 62.1286 11.1502 62.1206C10.9819 62.1206 10.8136 62.1045 10.477 62.1045C10.4236 62.1045 10.3648 62.0911 10.3007 62.0643C10.1004 61.9758 9.77179 61.831 9.21884 61.831C8.53766 61.831 8.13697 62.1206 7.92861 62.2734L7.91258 62.2895C7.37565 62.2975 7.04709 62.4584 6.85475 62.5469C6.83071 62.563 6.80667 62.571 6.7105 62.5871C6.49413 62.5871 6.41399 62.571 6.28577 62.5469C6.10145 62.5147 5.86905 62.4745 5.46034 62.4745C5.41226 62.4745 5.35616 62.4611 5.29205 62.4343C5.09171 62.3458 4.75512 62.193 4.15408 62.193C4.12203 62.1849 4.09799 62.1688 4.07395 62.1527C3.86559 62.0482 3.52099 61.8793 2.94399 61.8793C2.71159 61.8793 2.5994 61.8632 2.4872 61.8471C2.3109 61.823 2.08651 61.7827 1.68582 61.7827C1.06074 61.7827 0.547852 62.2895 0.547852 62.9249C0.547852 63.5604 1.05272 64.0671 1.68582 64.0671C1.91021 64.0671 2.03041 64.0832 2.14261 64.0993C2.31891 64.1234 2.5433 64.1636 2.99208 64.1636C3.02413 64.1717 3.04817 64.1878 3.07221 64.2038C3.28058 64.3084 3.62517 64.4773 4.20217 64.4773C4.25025 64.4773 4.30635 64.4907 4.37046 64.5175C4.57081 64.606 4.90739 64.7589 5.46034 64.7589C5.67672 64.7589 5.75686 64.7749 5.89309 64.7991C6.07741 64.8312 6.30981 64.8715 6.71852 64.8715C7.2875 64.8715 7.6321 64.7106 7.83244 64.6141C7.85648 64.598 7.88053 64.5899 7.96868 64.5739C8.64985 64.5739 9.05055 64.2843 9.25891 64.1315H9.27494C9.27494 64.1315 9.33103 64.1315 9.39514 64.1636C9.59549 64.2521 9.92406 64.3969 10.477 64.3969C10.7655 64.3969 10.9178 64.3969 11.062 64.4049C11.2303 64.4049 11.3986 64.421 11.7352 64.421C11.9115 64.421 11.9676 64.4371 12.0878 64.4693C12.3202 64.5256 12.5686 64.5819 12.9853 64.5819C13.5543 64.5819 13.8909 64.421 14.0913 64.3325C14.1153 64.3165 14.1393 64.3084 14.2435 64.2923C14.6282 64.2923 14.8125 64.2682 15.0048 64.2441C15.125 64.228 15.2453 64.2119 15.5658 64.2199C15.5979 64.228 15.6219 64.2441 15.6459 64.2601C15.8463 64.3567 16.1909 64.5175 16.7599 64.5175C16.8133 64.5175 16.8747 64.531 16.9442 64.5578C17.1445 64.6462 17.4731 64.783 18.018 64.783C18.2264 64.783 18.3065 64.7991 18.4428 64.8232C18.6271 64.8554 18.8595 64.8956 19.2762 64.8956C19.5086 64.8956 19.6208 64.9117 19.741 64.9278C19.9173 64.9519 20.1337 64.9841 20.5344 64.9841C21.2156 64.9841 21.6483 64.6221 21.8968 64.3486C22.1372 64.5175 22.5138 64.7186 23.0507 64.7186C23.7399 64.7186 24.1406 64.421 24.349 64.2601L25.5751 64.236L25.6472 64.2762C25.9117 64.421 26.2403 64.5658 26.7692 64.5739L26.7932 64.5899C27.0016 64.7347 27.3943 65.0002 28.0594 65.0002C28.6845 65.0002 29.0932 64.6865 29.3576 64.413C29.6141 64.6462 29.9988 64.8876 30.5677 64.8876C30.8562 64.8876 30.9925 64.8876 31.1367 64.9036C31.305 64.9117 31.4813 64.9197 31.8179 64.9197C32.0663 64.9197 32.1865 64.9358 32.3148 64.9519C32.5071 64.976 32.6914 65.0002 33.0761 65.0002C33.8775 65.0002 34.3182 64.5175 34.5426 64.2601C34.7109 64.2601 34.8311 64.2601 34.9433 64.2601C35.1036 64.2601 35.2639 64.2601 35.6325 64.2601C35.6645 64.2682 35.6886 64.2843 35.7126 64.3004C35.921 64.4049 36.2576 64.5739 36.7865 64.5497L36.8506 64.5899C37.059 64.7267 37.4516 64.9841 38.1008 64.9841C38.9502 64.9841 39.407 64.4049 39.6234 64.1154H40.6091C40.9377 64.1154 41.0979 64.1154 41.2662 64.1154C41.4185 64.1154 41.5627 64.1154 41.9394 64.1154C41.9714 64.1234 41.9955 64.1395 42.0275 64.1556C42.2279 64.2441 42.5885 64.3969 43.0854 64.3808L43.1575 64.421C43.3659 64.5497 43.7425 64.783 44.3756 64.783C44.592 64.783 44.6721 64.7991 44.8003 64.8232C44.9847 64.8554 45.2171 64.8956 45.6258 64.8956C45.9704 64.8956 46.1387 64.8876 46.315 64.8795C46.4592 64.8795 46.5954 64.8634 46.8839 64.8634C47.1724 64.8634 47.3087 64.8634 47.4529 64.8795C47.6212 64.8876 47.7975 64.8956 48.1421 64.8956C48.9195 64.8956 49.3522 64.4532 49.5846 64.1878C49.6006 64.1878 49.6167 64.2038 49.6407 64.2119C49.8811 64.3004 50.1536 64.3888 50.5944 64.3969H50.6024C50.8187 64.5658 51.2194 64.8715 51.9166 64.8715C52.694 64.8715 53.1347 64.4291 53.3591 64.1797C53.3992 64.1797 53.4393 64.1958 53.4954 64.2119C53.7278 64.2762 53.9682 64.3325 54.3609 64.3406H54.3689C54.5853 64.5095 54.9859 64.8152 55.6832 64.8152C55.8274 64.8152 55.8595 64.8232 55.9797 64.8634C56.172 64.9197 56.4525 65.0082 56.9413 65.0082C57.4863 65.0082 57.8229 64.8554 58.0953 64.7106C58.1194 64.6945 58.1434 64.6865 58.1915 64.6784C58.5681 64.6784 58.7605 64.6543 58.9448 64.6382C59.073 64.6221 59.1932 64.606 59.4577 64.606L59.5298 64.6462C59.8023 64.7991 60.1469 64.9519 60.6998 64.9519C61.0284 64.9519 61.1887 64.9519 61.357 64.9519C61.5092 64.9519 61.6615 64.9519 61.958 64.9519C62.3988 64.9519 62.6552 64.8956 62.8395 64.8473C62.9677 64.8152 63.0238 64.8071 63.2082 64.8071C63.9775 64.8071 64.4102 64.3728 64.6346 64.1234C64.6507 64.1234 64.6667 64.1395 64.6907 64.1475C64.9472 64.2441 65.2357 64.3406 65.7165 64.3406C65.8207 64.3406 65.8207 64.3406 65.9329 64.3888C66.1893 64.4854 66.4858 64.5899 66.9667 64.5899C67.4475 64.5899 67.752 64.4934 67.9444 64.4291C68.0565 64.3888 68.0886 64.3808 68.2168 64.3808H69.475C69.9398 64.3808 70.2203 64.2923 70.4687 64.2119C70.5809 64.1717 70.6049 64.1636 70.7332 64.1636C70.9415 64.1636 71.0217 64.1797 71.1579 64.2038C71.3422 64.236 71.5746 64.2843 71.9433 64.2601L72.0154 64.3004C72.2237 64.4371 72.6084 64.6865 73.3136 64.6865C73.3457 64.6945 73.3697 64.7106 73.3938 64.7267C73.5941 64.8232 73.9387 64.9921 74.5157 64.9921C74.9805 64.9921 75.261 64.9117 75.5094 64.8232C75.6216 64.783 75.6457 64.7749 75.7739 64.7749C75.9101 64.7749 75.9422 64.783 76.0544 64.8232C76.2467 64.8875 76.5352 64.976 77.0321 64.976C77.3286 64.976 77.4728 64.976 77.6171 64.9841C77.7854 64.9841 77.9536 65.0002 78.2902 65.0002C79.0195 65.0002 79.4442 64.6382 79.6526 64.4612C79.7728 64.4612 79.8449 64.4773 79.9491 64.5015C80.1254 64.5417 80.3738 64.5899 80.8066 64.5899C81.3836 64.5899 81.7282 64.421 81.9365 64.3165C81.9606 64.3004 81.9846 64.2923 82.0648 64.2762C82.225 64.2762 82.2651 64.2923 82.3853 64.3245C82.6257 64.3888 82.8822 64.4532 83.3229 64.4532C83.6835 64.4532 83.8679 64.4371 84.0522 64.421C84.1884 64.413 84.3166 64.3969 84.5811 64.3969C85.1341 64.3969 85.4626 64.2521 85.663 64.1636C85.7271 64.1368 85.7859 64.1234 85.8393 64.1234C86.0717 64.1234 86.1839 64.1395 86.2961 64.1556C86.4563 64.1797 86.6487 64.2119 86.9612 64.2119C87.1696 64.413 87.6023 64.7991 88.3556 64.7991C88.9887 64.7991 89.3734 64.5658 89.5817 64.4371L89.6058 64.4049L89.6779 64.4452C89.9584 64.606 90.303 64.7749 90.872 64.7749C91.2887 64.7749 91.5371 64.7186 91.7775 64.6623C91.8978 64.6302 91.9538 64.6141 92.1301 64.6141C92.5228 64.6141 92.7392 64.5819 92.9155 64.5578C93.0357 64.5417 93.1479 64.5256 93.3883 64.5256C93.5726 64.5256 93.6368 64.5417 93.757 64.5658C93.9413 64.606 94.1977 64.6704 94.6465 64.6704C94.7106 64.6704 94.7801 64.6865 94.8549 64.7186C95.1193 64.8232 95.4158 64.9278 95.9047 64.9278C96.5778 64.9278 96.9785 64.6382 97.2029 64.4612C97.4113 64.598 97.7959 64.8232 98.421 64.8232C98.8377 64.8232 99.0701 64.783 99.2545 64.7428C99.3907 64.7186 99.4628 64.7025 99.6792 64.7025C100.408 64.7025 100.833 64.3486 101.042 64.1717C101.258 64.1717 101.378 64.1797 101.506 64.1878C101.683 64.1958 101.851 64.2119 102.204 64.2119C102.34 64.2119 102.372 64.2199 102.492 64.2601C102.684 64.3245 102.973 64.413 103.534 64.421C103.566 64.4291 103.59 64.4452 103.614 64.4612C103.814 64.5578 104.151 64.7106 104.72 64.7106C104.928 64.7106 105.008 64.7267 105.145 64.7508C105.329 64.783 105.561 64.8312 105.978 64.8312C106.627 64.8312 107.02 64.5658 107.244 64.3969C107.469 64.5578 107.861 64.8071 108.494 64.8071C108.855 64.8071 109.039 64.791 109.224 64.7749C109.36 64.7669 109.488 64.7508 109.761 64.7508C110.482 64.7508 110.915 64.3888 111.131 64.1878C111.147 64.1878 111.163 64.2038 111.187 64.2119C111.387 64.3004 111.724 64.4532 112.357 64.4612C112.389 64.4693 112.413 64.4854 112.437 64.5015C112.638 64.598 112.974 64.7508 113.543 64.7508C114.216 64.7508 114.617 64.4693 114.833 64.3165L114.857 64.3004C115.258 64.3004 115.499 64.2441 115.675 64.2119C115.787 64.1878 115.859 64.1717 116.011 64.1717H116.027C116.244 64.3406 116.645 64.6382 117.326 64.6382C117.622 64.6382 117.774 64.6382 117.919 64.6462C118.087 64.6462 118.247 64.6543 118.528 64.6382L118.6 64.6784C118.808 64.8152 119.193 65.0645 119.842 65.0645C120.716 65.0645 121.18 64.4452 121.381 64.1395C121.501 64.1395 121.589 64.1395 121.685 64.1475C121.854 64.1475 122.022 64.1636 122.358 64.1636C122.412 64.1636 122.471 64.177 122.535 64.2038C122.735 64.2923 123.064 64.4371 123.617 64.4371C124.097 64.4371 124.386 64.3406 124.642 64.2441C124.65 64.2441 124.666 64.2441 124.674 64.236C124.899 64.5095 125.348 64.9921 126.141 64.9921C126.429 64.9921 126.574 64.9921 126.726 65.0002C126.894 65.0002 127.063 65.0163 127.399 65.0163C127.76 65.0163 127.944 65.0002 128.12 64.9841C128.257 64.976 128.385 64.9599 128.649 64.9599C128.874 64.9599 128.994 64.976 129.106 64.9921C129.282 65.0163 129.507 65.0565 129.907 65.0565C130.677 65.0565 131.126 64.5899 131.358 64.2762C131.614 64.413 131.943 64.5417 132.424 64.5417C132.816 64.5417 133.033 64.5015 133.265 64.4612C133.393 64.4371 133.474 64.421 133.682 64.421C133.938 64.421 134.059 64.4371 134.187 64.4452C134.363 64.4612 134.539 64.4854 134.876 64.4854H134.884C135.1 64.6543 135.501 64.968 136.198 64.968C136.896 64.968 137.256 64.6945 137.473 64.5497L137.497 64.5336C137.905 64.5336 138.138 64.4854 138.314 64.4452C138.41 64.4291 138.474 64.413 138.57 64.4049C138.787 64.6141 139.22 65.0243 139.973 65.0243C140.47 65.0243 140.766 64.9278 140.959 64.8634C141.071 64.8232 141.103 64.8152 141.231 64.8152C141.487 64.8152 141.616 64.8312 141.744 64.8393C141.928 64.8554 142.121 64.8795 142.497 64.8795C143.05 64.8795 143.387 64.7347 143.587 64.6462C143.651 64.6194 143.707 64.606 143.755 64.606C144.236 64.606 144.533 64.5095 144.789 64.413C144.901 64.3728 144.909 64.3647 144.957 64.3406L145.03 64.3808C145.238 64.5175 145.631 64.7749 146.28 64.7749C146.897 64.7749 147.298 64.5095 147.538 64.3084C147.778 64.5175 148.179 64.783 148.804 64.783C149.301 64.783 149.589 64.6865 149.782 64.6301C149.902 64.5899 149.926 64.5819 150.062 64.5819C150.319 64.5819 150.447 64.598 150.575 64.606C150.759 64.6221 150.952 64.6462 151.32 64.6462C151.881 64.6462 152.226 64.4934 152.426 64.3969C152.45 64.3808 152.482 64.3728 152.587 64.3567C152.827 64.3567 152.947 64.3728 153.067 64.3888C153.26 64.413 153.46 64.4371 153.845 64.4371C154.43 64.4371 154.774 64.2602 154.983 64.1556C154.991 64.1556 154.999 64.1475 155.015 64.1395C155.231 64.3406 155.656 64.6865 156.361 64.6865H156.377L156.449 64.7267C156.73 64.8795 157.066 65.0484 157.627 65.0484C158.413 65.0484 158.853 64.606 159.07 64.3647C159.238 64.3647 159.342 64.3728 159.455 64.3808C159.631 64.3888 159.807 64.4049 160.16 64.4049C160.312 64.4049 160.352 64.413 160.472 64.4532C160.721 64.5256 160.985 64.5899 161.426 64.5899C162.051 64.5899 162.564 64.0832 162.564 63.4478C162.564 62.8123 162.059 62.3056 161.426 62.3056L161.362 62.2573ZM79.3481 41.9071L79.324 41.9554C79.324 41.9554 79.332 41.9875 79.34 42.0036C79.4122 42.261 79.5163 42.6471 79.4042 43.0975L79.3721 43.2343C79.3 43.5239 79.2198 43.8617 79.0996 44.1834L79.0115 44.4328C78.9313 44.6741 78.8352 44.9556 78.6909 45.221C78.5226 45.5347 78.3223 45.8243 78.146 46.0817L78.0899 46.1621C77.8655 46.4919 77.577 46.6769 77.3686 46.8137C77.3205 46.8458 77.2645 46.878 77.2244 46.9182C76.992 47.1756 76.7275 47.4169 76.4631 47.6582C76.3909 47.7226 76.3268 47.7869 76.2627 47.8593C76.1024 48.0202 75.9101 48.2293 75.6537 48.4063C75.5896 48.4546 75.5335 48.5109 75.4774 48.5672C75.3011 48.7361 75.0847 48.9452 74.7802 49.1061C74.5157 49.2509 74.2432 49.3393 74.0028 49.4198C73.9147 49.452 73.8265 49.4761 73.7384 49.5083C73.4418 49.6209 73.1534 49.6852 72.8889 49.7496L72.6725 49.7978C72.376 49.8702 72.1035 49.8863 71.8631 49.9024C71.767 49.9024 71.6708 49.9104 71.5746 49.9265C71.1018 49.9828 70.7091 49.8059 70.4767 49.7013C70.4447 49.6852 70.4206 49.6772 70.3966 49.6611C70.1321 49.6611 69.8997 49.6289 69.6833 49.6048C69.6833 49.6048 69.6753 49.6048 69.6673 49.6128C69.4429 49.7496 69.0663 49.9909 68.6015 49.9909C68.4973 49.9909 68.3851 49.9748 68.2649 49.9507C67.7841 49.83 67.4956 49.5083 67.3032 49.2509C67.0067 49.2991 66.598 49.3313 66.1813 49.1141C65.9088 48.9693 65.6844 48.7843 65.5001 48.6396C65.428 48.5752 65.3479 48.5189 65.2757 48.4626C64.867 48.173 64.6907 47.7628 64.5946 47.5054C64.3541 47.4169 63.9855 47.2802 63.681 46.9343C63.6569 46.9102 63.6008 46.878 63.5447 46.8458C63.3364 46.7091 63.0479 46.5161 62.8235 46.1863C62.5911 45.8565 62.527 45.5026 62.4709 45.2532C62.4629 45.1969 62.4468 45.1326 62.4308 45.0843C62.2946 44.8269 62.2305 44.5454 62.1744 44.3202C62.1664 44.2719 62.1583 44.2317 62.1423 44.1834C62.1263 44.1673 62.1103 44.1593 62.0942 44.1432C61.8859 43.9582 61.5333 43.6445 61.405 43.1378C61.2929 42.6793 61.405 42.2851 61.4772 42.0197C61.4772 42.0036 61.4852 41.9795 61.4932 41.9634C61.4852 41.9473 61.4772 41.9312 61.4611 41.9071C61.3489 41.6738 61.1807 41.328 61.1807 40.8936C61.1807 40.5236 61.2047 40.1214 61.2448 39.7675C61.2848 39.4216 61.405 39.1401 61.5012 38.9149C61.5333 38.8425 61.5653 38.7701 61.5894 38.6977C61.6134 38.6012 61.6294 38.5047 61.6455 38.4162C61.6935 38.1749 61.7416 37.9014 61.8538 37.6199C62.0622 37.0568 62.535 36.8155 62.8155 36.6627C62.8155 36.6627 62.8315 36.6144 62.8395 36.5903C62.9036 36.4133 62.9918 36.1962 63.128 35.971C63.128 35.9468 63.128 35.9146 63.136 35.8905C63.1681 35.617 63.2322 35.1586 63.5688 34.7644C63.8893 34.4025 64.282 34.2738 64.5385 34.1933C64.5705 34.1853 64.6026 34.1772 64.6346 34.1612C64.875 33.9681 65.1235 33.8555 65.2998 33.7751C65.3479 33.7509 65.3959 33.7348 65.444 33.7107C65.4601 33.6866 65.4761 33.6544 65.5001 33.6303C65.6444 33.4211 65.8607 33.0994 66.2614 32.8903C66.606 32.7133 66.9266 32.5605 67.2552 32.4398C67.3433 32.4077 67.4234 32.3674 67.5116 32.3353C67.736 32.2387 67.9844 32.1261 68.2809 32.0537C68.6816 31.9572 69.0342 32.0216 69.2666 32.0537C69.3067 32.0537 69.3388 32.0698 69.3788 32.0698C69.4109 32.0537 69.4429 32.0377 69.475 32.0296C69.6994 31.9331 70.0279 31.7803 70.4447 31.7803C70.9415 31.7803 71.3102 32.0135 71.5346 32.1503C71.5586 32.1663 71.5826 32.1824 71.5987 32.1905C71.9112 32.2307 72.1757 32.3031 72.4321 32.3674H72.4642C72.4642 32.3674 72.5283 32.3674 72.5683 32.3674C72.8248 32.3353 73.2094 32.279 73.6342 32.4398C73.6983 32.464 73.7624 32.464 73.8345 32.48C74.0669 32.5203 74.3875 32.5685 74.708 32.7374C74.7802 32.7777 74.8683 32.8018 74.9485 32.834C75.1728 32.9144 75.4533 33.019 75.7338 33.204C75.9983 33.389 76.1986 33.6142 76.3509 33.7911C76.415 33.8635 76.4711 33.9359 76.5352 33.9922C76.8397 34.2657 77.1042 34.5231 77.3205 34.7725C77.5209 35.0057 77.6812 35.247 77.8174 35.4562C77.8655 35.5286 77.9136 35.609 77.9617 35.6814C78.162 35.979 78.3624 36.3007 78.5306 36.6305C78.723 36.9925 78.747 37.3625 78.763 37.5957C78.763 37.6521 78.763 37.7084 78.7791 37.7647C78.7951 37.8049 78.8352 37.8934 78.8752 37.9738C78.9714 38.1749 79.0916 38.4323 79.1637 38.7379C79.2359 39.0355 79.2599 39.301 79.2759 39.5423C79.2759 39.6308 79.292 39.7273 79.3 39.8158C79.3 39.8319 79.332 39.8801 79.3561 39.9364C79.4522 40.1616 79.5885 40.4914 79.5885 40.9016C79.5885 41.344 79.4122 41.6899 79.3 41.9232L79.3481 41.9071ZM101.402 42.0036C101.474 42.261 101.57 42.6471 101.466 43.0975L101.442 43.2102C101.37 43.5078 101.29 43.8456 101.162 44.1754L101.074 44.4247C100.985 44.666 100.889 44.9476 100.753 45.213C100.585 45.5347 100.376 45.8324 100.192 46.0978C99.9276 46.4839 99.6391 46.6769 99.4228 46.8137C99.3747 46.8458 99.3186 46.878 99.2705 46.9182C99.0381 47.1837 98.7736 47.4169 98.5092 47.6582C98.4451 47.7145 98.381 47.7869 98.3088 47.8593C98.1486 48.0282 97.9562 48.2293 97.6998 48.4063C97.6357 48.4546 97.5796 48.5109 97.5235 48.5672C97.3472 48.7361 97.1308 48.9452 96.8343 49.1061C96.5698 49.2509 96.2973 49.3393 96.0569 49.4198C95.9688 49.452 95.8806 49.4761 95.7925 49.5083C95.496 49.6209 95.2075 49.6852 94.943 49.7496L94.7186 49.7978C94.4221 49.8702 94.1496 49.8863 93.9092 49.9024C93.8131 49.9024 93.7169 49.9104 93.6207 49.9265C93.1399 49.9828 92.7552 49.8059 92.5228 49.7013C92.4908 49.6852 92.4667 49.6772 92.4427 49.6611C92.1782 49.6611 91.9458 49.6289 91.7295 49.6048C91.7295 49.6048 91.7214 49.6048 91.7134 49.6048C91.489 49.7415 91.1124 49.9828 90.6476 49.9828C90.5434 49.9828 90.4312 49.9667 90.311 49.9426C89.8302 49.822 89.5417 49.5002 89.3493 49.2428C89.0448 49.2911 88.6361 49.3233 88.2274 49.1061C87.9549 48.9613 87.7305 48.7763 87.5462 48.6315C87.4741 48.5672 87.394 48.5109 87.3218 48.4546C86.9051 48.165 86.7368 47.7548 86.6407 47.4974C86.4002 47.4089 86.0316 47.2721 85.7351 46.9343C85.703 46.9102 85.655 46.878 85.5989 46.8458C85.3905 46.7091 85.102 46.5161 84.8776 46.1943C84.6452 45.8565 84.5731 45.5106 84.525 45.2532C84.509 45.1969 84.501 45.1326 84.4849 45.0763C84.3487 44.8189 84.2846 44.5373 84.2285 44.3121C84.2205 44.2639 84.2125 44.2236 84.1964 44.1754C84.1804 44.1593 84.1644 44.1512 84.1484 44.1352C83.94 43.9502 83.5874 43.6284 83.4592 43.1217C83.347 42.6712 83.4592 42.2691 83.5313 42.0036C83.5313 41.9875 83.5393 41.9634 83.5473 41.9473C83.5393 41.9312 83.5313 41.9151 83.5153 41.891C83.4031 41.6577 83.2348 41.3119 83.2348 40.8775C83.2348 40.4995 83.2588 40.1053 83.2989 39.7514C83.339 39.4055 83.4592 39.124 83.5553 38.8988C83.5874 38.8264 83.6194 38.754 83.6435 38.6816C83.6675 38.5851 83.6835 38.4966 83.6996 38.4001C83.7477 38.1588 83.7957 37.8853 83.9079 37.6038C84.1163 37.0407 84.5891 36.7994 84.8616 36.6466C84.8696 36.6225 84.8776 36.5984 84.8856 36.5742C84.9497 36.3973 85.0379 36.1801 85.1741 35.9549C85.1741 35.9307 85.1741 35.8986 85.1821 35.8744C85.2142 35.6009 85.2783 35.1425 85.6149 34.7483C85.9354 34.3864 86.3281 34.2577 86.5846 34.1772C86.6166 34.1692 86.6487 34.1612 86.6807 34.1451C86.9212 33.952 87.1696 33.8394 87.3459 33.759C87.394 33.7348 87.442 33.7188 87.4901 33.6946C87.5062 33.6705 87.5222 33.6383 87.5462 33.6142C87.6905 33.4051 87.9069 33.0833 88.3075 32.8742C88.6521 32.6972 88.9727 32.5444 89.3013 32.4237C89.3894 32.3916 89.4696 32.3513 89.5577 32.3192C89.7821 32.2227 90.0305 32.11 90.327 32.0377C90.7277 31.9411 91.0803 32.0055 91.3127 32.0377C91.3528 32.0377 91.3849 32.0537 91.4249 32.0537C91.457 32.0376 91.489 32.0216 91.5211 32.0135C91.7455 31.917 92.0741 31.7642 92.4908 31.7642C92.9876 31.7642 93.3563 31.9974 93.5807 32.1342C93.6047 32.1503 93.6287 32.1663 93.6448 32.1744C93.9573 32.2146 94.2218 32.287 94.4782 32.3513H94.5103C94.5103 32.3513 94.5824 32.3513 94.6144 32.3513C94.8709 32.3192 95.2555 32.2629 95.6803 32.4237C95.7444 32.4398 95.8085 32.4479 95.8806 32.464C96.113 32.5042 96.4336 32.5524 96.7541 32.7214C96.8263 32.7616 96.9144 32.7857 96.9946 32.8179C97.2189 32.8983 97.5074 33.0029 97.7799 33.1879C98.0444 33.3729 98.2447 33.5981 98.397 33.7751C98.4611 33.8475 98.5172 33.9198 98.5813 33.9762C98.8858 34.2416 99.1503 34.507 99.3747 34.7644C99.575 34.9896 99.7273 35.2309 99.8635 35.4401C99.9116 35.5205 99.9597 35.5929 100.016 35.6653C100.224 35.971 100.424 36.3007 100.585 36.6144C100.777 36.9764 100.801 37.3384 100.817 37.5797C100.817 37.636 100.817 37.6923 100.833 37.7486C100.857 37.7968 100.897 37.8773 100.929 37.9658C101.026 38.1668 101.146 38.4242 101.218 38.7299C101.29 39.0195 101.314 39.2929 101.33 39.5342C101.33 39.6227 101.346 39.7192 101.354 39.8077C101.354 39.8238 101.386 39.8721 101.41 39.9284C101.506 40.1536 101.643 40.4834 101.643 40.8936C101.643 41.336 101.466 41.6819 101.354 41.9151C101.354 41.9312 101.338 41.9473 101.33 41.9634C101.33 41.9795 101.338 41.9956 101.346 42.0117L101.402 42.0036ZM136.142 62.5871C136.142 62.5871 136.142 62.5871 136.134 62.5871C136.142 62.5871 136.15 62.5871 136.166 62.5871C136.166 62.5871 136.15 62.5951 136.142 62.6032V62.5871Z" fill="#E2E9F1"/>
<path d="M98.1171 39.6062C98.021 39.2041 97.8767 38.7697 97.6924 38.3917C97.5161 38.0217 97.2516 37.7643 97.0593 37.5712C97.0032 37.5149 96.9391 37.4586 96.891 37.3943C96.8429 37.338 96.8109 37.2656 96.7708 37.1932C96.6346 36.9519 96.4502 36.6301 96.1217 36.3647C95.7771 36.0912 95.4004 35.9947 95.128 35.9303C95.0638 35.9142 94.9917 35.8982 94.9356 35.8821L94.7513 35.7856C94.4949 35.6488 94.1663 35.4879 93.7816 35.3995C93.7015 35.3834 93.6214 35.3512 93.5412 35.3271C93.2848 35.2386 92.9322 35.126 92.5315 35.126C92.1308 35.126 91.7942 35.2305 91.5217 35.319C91.4416 35.3432 91.3614 35.3673 91.2813 35.3914C90.8726 35.4879 90.5681 35.689 90.3517 35.8338C90.2876 35.874 90.2315 35.9223 90.1674 35.9545C90.1113 35.9786 90.0392 35.9947 89.9751 36.0108C89.7106 36.0832 89.342 36.1716 89.0054 36.4451L88.9333 36.5014C88.6688 36.7106 88.3402 36.976 88.0758 37.3138C87.7793 37.6838 87.7071 38.0941 87.651 38.3675C87.643 38.4238 87.627 38.4801 87.651 38.4721C87.619 38.5123 87.5789 38.5525 87.5388 38.5928C87.3465 38.8019 87.05 39.1236 86.9458 39.6062C86.8336 40.1049 86.9859 40.5312 87.0821 40.8047C87.0981 40.853 87.1221 40.9093 87.1301 40.8852C87.1301 41.223 87.1462 41.6252 87.2503 42.0997C87.2664 42.1721 87.2664 42.2445 87.2664 42.3169C87.2824 42.5824 87.2984 42.9524 87.4988 43.3626C87.659 43.7004 87.8434 44.0785 88.1238 44.4324C88.3402 44.7059 88.6367 45.0517 89.0054 45.3493C89.3179 45.5987 89.6625 45.8641 90.0632 46.0572C90.4158 46.2261 90.7764 46.2985 91.0649 46.3548L91.2893 46.403C91.658 46.4835 92.0106 46.4915 92.3311 46.4915C92.3712 46.4915 92.4033 46.4915 92.4433 46.4915H92.5475C93.0043 46.4915 93.405 46.4513 93.7896 46.3628C93.8698 46.3467 93.9579 46.3307 94.0461 46.3226C94.3266 46.2824 94.6712 46.2341 95.0238 46.0572C95.4485 45.8561 95.8091 45.6309 96.1137 45.3815C96.4663 45.1 96.7548 44.7541 96.9952 44.4565C97.2356 44.1589 97.46 43.7889 97.6603 43.3706C97.8366 42.9926 97.8687 42.6306 97.8927 42.3652C97.8927 42.2847 97.9008 42.2043 97.9168 42.1239C97.9328 42.0515 97.9649 41.9791 97.9889 41.9067C98.0771 41.6573 98.2053 41.3115 98.2053 40.8932V40.7002C98.2053 40.3704 98.2133 40.0004 98.1332 39.6143L98.1171 39.6062Z" fill="#E2E9F1"/>
<path d="M137.698 13.666C137.161 13.3523 136.576 13.2477 136.023 13.3603C135.478 13.2638 134.917 13.3603 134.444 13.6258C133.899 13.9395 133.507 14.4382 133.338 15.0173C133.018 15.4275 132.85 15.9262 132.85 16.4812C132.85 17.0926 133.058 17.6476 133.435 18.0739C133.619 18.5806 133.98 19.0069 134.468 19.2965C134.965 19.5861 135.494 19.6987 136.007 19.6263C136.175 19.6665 136.352 19.6826 136.528 19.6826C136.945 19.6826 137.369 19.578 137.738 19.3608C138.235 19.0713 138.604 18.5967 138.78 18.0256C139.181 17.5832 139.397 17.0362 139.397 16.4812C139.397 15.9262 139.173 15.3712 138.78 14.9288C138.596 14.406 138.227 13.9636 137.706 13.666H137.698Z" fill="#E2E9F1"/>
<path d="M149.302 13.6177C148.773 13.3121 148.148 13.2236 147.563 13.3603C147.026 13.2719 146.489 13.3684 146.016 13.6419C145.552 13.9153 145.191 14.3417 145.007 14.8484C144.59 15.2988 144.35 15.886 144.35 16.4893C144.35 17.0282 144.55 17.5591 144.919 17.9854C145.095 18.5324 145.496 18.9989 146.041 19.3206C146.441 19.5539 146.874 19.6665 147.291 19.6665C147.427 19.6665 147.563 19.6504 147.699 19.6263C148.252 19.7228 148.829 19.6263 149.31 19.3448C149.807 19.0552 150.176 18.5967 150.36 18.0417C150.729 17.6154 150.937 17.0604 150.937 16.4812C150.937 15.9021 150.745 15.3471 150.4 14.9208C150.216 14.3738 149.831 13.8993 149.318 13.6017L149.302 13.6177Z" fill="#E2E9F1"/>
<path d="M161.956 14.9291C161.772 14.3821 161.387 13.9075 160.874 13.6099C160.346 13.3043 159.72 13.2158 159.135 13.3525C158.598 13.2641 158.062 13.3606 157.589 13.6341C157.124 13.9075 156.763 14.3338 156.579 14.8406C156.162 15.291 155.922 15.8782 155.922 16.4815C155.922 17.0204 156.122 17.5513 156.491 17.9776C156.667 18.5245 157.068 18.9911 157.613 19.3128C158.013 19.5461 158.446 19.6587 158.863 19.6587C158.999 19.6587 159.135 19.6426 159.272 19.6185C159.825 19.715 160.402 19.6185 160.882 19.3369C161.379 19.0474 161.748 18.5889 161.932 18.0339C162.301 17.6076 162.509 17.0526 162.509 16.4734C162.509 15.8943 162.317 15.3393 161.972 14.913L161.956 14.9291Z" fill="#E2E9F1"/>
</g>
<defs>
<clipPath id="clip0_1416_25016">
<rect width="162" height="65" fill="white" transform="translate(0.5)"/>
</clipPath>
</defs>
</svg>
