<svg width="163" height="113" viewBox="0 0 163 113" fill="none" xmlns="http://www.w3.org/2000/svg">
<g clip-path="url(#clip0_1416_24471)">
<path d="M65.0595 40.6783C65.0595 41.0144 65.0755 41.4225 65.1797 41.8787C65.1957 41.9507 65.1957 42.0227 65.1957 42.0948C65.2118 42.3589 65.2278 42.727 65.4281 43.1431C65.5884 43.4713 65.7647 43.8474 66.0452 44.1915C66.2455 44.4396 66.5501 44.8077 66.9267 45.1038C67.2232 45.3439 67.5758 45.616 67.9846 45.8081C68.3372 45.9761 68.6978 46.0482 68.9863 46.1042L69.2107 46.1522C69.5793 46.2322 69.9319 46.2402 70.2445 46.2402C70.2845 46.2402 70.3166 46.2402 70.3567 46.2402H70.4608C70.9176 46.2402 71.3183 46.2002 71.703 46.1122C71.7831 46.0962 71.8713 46.0802 71.9594 46.0722C72.2399 46.0322 72.5845 45.9842 72.9371 45.8081C73.3618 45.608 73.7305 45.3759 74.027 45.1439C74.3796 44.8638 74.6761 44.5196 74.9085 44.2235C75.1409 43.9274 75.3653 43.5673 75.5737 43.1431C75.758 42.767 75.782 42.4069 75.8061 42.1348C75.8061 42.0548 75.8141 41.9747 75.8301 41.9027C75.8461 41.8307 75.8782 41.7587 75.9022 41.6866C75.9984 41.4385 76.1186 41.0944 76.1186 40.6783V40.4862C76.1186 40.1581 76.1266 39.79 76.0465 39.4058C75.9583 39.0057 75.8061 38.5735 75.6218 38.1974C75.4454 37.8293 75.181 37.5732 74.9887 37.3811C74.9245 37.3251 74.8684 37.2691 74.8204 37.205C74.7723 37.149 74.7402 37.077 74.7002 37.005C74.5639 36.7649 74.3796 36.4448 74.051 36.1807C73.7064 35.9006 73.3298 35.8125 73.0493 35.7405C72.9852 35.7245 72.9131 35.7085 72.857 35.6925L72.6727 35.6045C72.4162 35.4684 72.0876 35.3084 71.695 35.2203C71.6148 35.2043 71.5347 35.1723 71.4545 35.1483C71.1981 35.0603 70.8455 34.9482 70.4448 34.9482C70.0441 34.9482 69.7075 35.0523 69.4351 35.1403C69.3549 35.1643 69.2748 35.1883 69.1946 35.2123C68.7859 35.3084 68.4814 35.5084 68.265 35.6525C68.2009 35.6925 68.1448 35.7405 68.0807 35.7725C68.0246 35.7965 67.9525 35.8126 67.8884 35.8286C67.6239 35.9006 67.2553 35.9886 66.9187 36.2607L66.8546 36.3087C66.5741 36.5328 66.2536 36.7809 65.9811 37.125C65.6846 37.4931 65.6125 37.9013 65.5644 38.1734C65.5564 38.2294 65.5483 38.2934 65.5644 38.2774C65.5323 38.3174 65.4922 38.3575 65.4522 38.3975C65.2598 38.6055 64.9713 38.9257 64.8591 39.4058C64.747 39.902 64.8992 40.3181 64.9954 40.5982C65.0114 40.6463 65.0355 40.7023 65.0435 40.6783H65.0595Z" fill="#E4EAF1"/>
<path d="M87.1298 40.6783C87.1298 41.0144 87.1458 41.4145 87.25 41.8867C87.266 41.9587 87.266 42.0308 87.266 42.1028C87.282 42.3669 87.2981 42.735 87.4984 43.1431C87.6587 43.4793 87.843 43.8554 88.1235 44.2075C88.3399 44.4796 88.6364 44.8237 89.005 45.1198C89.3175 45.3679 89.6621 45.632 90.0628 45.8241C90.4154 45.9922 90.7761 46.0642 91.0646 46.1202L91.289 46.1682C91.6576 46.2482 92.0102 46.2562 92.3227 46.2562C92.3628 46.2562 92.3949 46.2562 92.4349 46.2562H92.5391C92.9959 46.2562 93.3966 46.2162 93.7813 46.1282C93.8614 46.1122 93.9496 46.0962 94.0377 46.0882C94.3182 46.0482 94.6628 46.0002 95.0154 45.8241C95.4401 45.624 95.8008 45.3999 96.1053 45.1519C96.4579 44.8718 96.7464 44.5276 96.9868 44.2315C97.2192 43.9354 97.4436 43.5753 97.652 43.1431C97.8283 42.775 97.8603 42.4069 97.8763 42.1428C97.8763 42.0628 97.8844 41.9827 97.9004 41.9027C97.9164 41.8307 97.9485 41.7587 97.9725 41.6866C98.0607 41.4385 98.1889 41.0944 98.1889 40.6783V40.4942C98.1889 40.1661 98.1969 39.798 98.1087 39.4058C98.0126 39.0057 97.8683 38.5735 97.684 38.1974C97.5077 37.8293 97.2432 37.5732 97.0509 37.3811C96.9948 37.3251 96.9307 37.2691 96.8826 37.205C96.8345 37.149 96.8025 37.077 96.7624 37.005C96.6262 36.7649 96.4419 36.4448 96.1133 36.1807C95.7687 35.9006 95.392 35.8125 95.1196 35.7405C95.0555 35.7245 94.9833 35.7085 94.9272 35.6925L94.7429 35.6045C94.4865 35.4684 94.1579 35.3084 93.7652 35.2203C93.6851 35.2043 93.605 35.1723 93.5248 35.1483C93.2684 35.0603 92.9158 34.9482 92.5151 34.9482C92.1144 34.9482 91.7778 35.0523 91.5053 35.1403C91.4252 35.1643 91.3451 35.1883 91.2649 35.2123C90.8562 35.3084 90.5517 35.5084 90.3353 35.6525C90.2712 35.6925 90.2151 35.7405 90.151 35.7725C90.0949 35.7965 90.0228 35.8126 89.9587 35.8286C89.6942 35.9006 89.3256 35.9886 88.989 36.2607L88.9169 36.3167C88.6524 36.5248 88.3238 36.7889 88.0514 37.125C87.7548 37.4931 87.6827 37.9013 87.6266 38.1734C87.6186 38.2294 87.6106 38.2934 87.6266 38.2774C87.5946 38.3174 87.5545 38.3575 87.5144 38.3975C87.3221 38.6055 87.0256 38.9257 86.9214 39.4058C86.8092 39.91 86.9615 40.3261 87.0576 40.5982C87.0737 40.6463 87.0977 40.7023 87.1057 40.6783H87.1298Z" fill="#E4EAF1"/>
<path d="M40.361 54.3152C40.4652 54.6833 40.4732 54.9234 40.4732 55.1394C40.4732 55.2355 40.4732 55.2435 40.4972 55.3395L40.6335 55.8117C40.6495 55.8597 40.6655 55.9077 40.6816 55.9637C40.922 55.9237 41.1544 55.8917 41.3707 55.8677C41.507 55.8517 41.6352 55.8357 41.7714 55.8197C41.8997 55.8037 42.0279 55.7797 42.1561 55.7557C42.5087 55.6916 42.9094 55.6276 43.3502 55.6276C43.7909 55.6276 44.1836 55.6996 44.5362 55.7637C44.6644 55.7877 44.7927 55.8117 44.9289 55.8277C45.0651 55.8517 45.1853 55.8917 45.3055 55.9237L45.2895 55.8917C45.2414 55.7637 45.2254 55.7317 45.1693 55.6516C45.0651 55.4836 44.9529 55.3075 44.8327 54.9794C44.7045 54.6353 44.6725 54.4112 44.6484 54.2111C44.6404 54.1151 44.6324 54.0911 44.6003 53.987C44.4641 53.6189 44.432 53.3868 44.416 53.2268C44.416 53.1708 44.408 53.1387 44.392 53.0987C44.1596 52.9387 43.847 52.6826 43.6547 52.1704C43.5986 52.0103 43.5505 51.9383 43.5104 51.8663C43.4303 51.7142 43.3422 51.5702 43.23 51.2501L42.8693 50.3057C42.7251 49.9216 42.7091 49.6495 42.7091 49.4174L42.685 49.2894C42.6129 49.0893 42.5648 48.9933 42.5247 48.8972C42.4767 48.8012 42.4286 48.6972 42.3725 48.5371C41.9077 48.6812 41.5871 48.6572 41.3227 48.6331H41.2105C40.8498 48.7532 40.6415 48.7772 40.4732 48.8012C40.385 48.8092 40.3049 48.8252 40.1526 48.8652C39.9603 49.0973 39.6798 49.4014 39.1269 49.5695H39.1108C39.2551 49.7375 39.3993 49.9696 39.4875 50.2817C39.5676 50.5538 39.5997 50.6819 39.6317 50.8179C39.6638 50.93 39.6878 51.05 39.7519 51.2741C39.8161 51.4982 39.8481 51.6102 39.8882 51.7302C39.9283 51.8583 39.9683 51.9943 40.0485 52.2584C40.1366 52.5705 40.1607 52.7306 40.1847 52.8906C40.2007 52.9867 40.2168 53.0827 40.2648 53.2668C40.385 53.6829 40.369 53.971 40.345 54.2111V54.3072L40.361 54.3152Z" fill="#E4EAF1"/>
<path d="M40.9699 75.2425C41.3546 75.3545 41.7232 75.4666 42.0838 75.5146C42.5486 75.5786 42.9012 75.8107 43.1897 75.9867C43.2378 76.0188 43.31 76.0588 43.3661 76.0908C43.4302 76.0588 43.5023 76.0188 43.5584 75.9867C43.8389 75.8267 44.1835 75.6266 44.6162 75.5626C44.6803 75.5546 44.8566 75.4586 44.9768 75.3865C45.1932 75.2665 45.4577 75.1224 45.7782 75.0264C46.1629 74.9144 46.5155 74.9224 46.804 74.9304C46.9082 74.9304 47.0684 74.9304 47.1245 74.9304C47.1245 74.9144 47.2448 74.7863 47.3249 74.6983C47.5012 74.4982 47.7256 74.2501 48.0381 74.0501C48.3827 73.826 48.7433 73.738 49.0399 73.6739C49.12 73.6579 49.2242 73.6259 49.2963 73.6099C49.3284 73.5459 49.3684 73.4418 49.4005 73.3618C49.5127 73.0897 49.6489 72.7536 49.9134 72.4415C50.0576 72.2814 50.2099 72.1294 50.3621 71.9853C50.5384 71.8173 50.6827 71.6732 50.7789 71.5292C50.9151 71.3211 51.0754 71.121 51.2437 70.929C51.3799 70.7689 51.5081 70.6168 51.5642 70.5048C51.6524 70.3127 51.7565 70.1287 51.8607 69.9366C51.9809 69.7205 52.1011 69.5125 52.1492 69.3444C52.1973 69.1923 52.2053 68.9603 52.2214 68.7202C52.2294 68.4961 52.2454 68.272 52.2775 68.0479C52.2855 67.9839 52.2454 67.7838 52.2133 67.6318C52.1653 67.3917 52.1011 67.0956 52.1011 66.7675C52.1011 66.4074 52.1813 66.0872 52.2454 65.8312C52.2775 65.7111 52.3175 65.535 52.3175 65.471C52.2855 65.279 52.2774 65.0709 52.2614 64.8548C52.2454 64.6387 52.2294 64.4307 52.1973 64.2626C52.1412 64.2066 52.0771 64.1666 52.021 64.1105C51.7646 63.9025 51.42 63.6144 51.2196 63.1742C51.0834 62.8781 50.9071 62.606 50.7067 62.2939L50.5945 62.1178C50.5945 62.1178 50.5945 62.1178 50.5945 62.1098C50.5144 61.9818 50.4583 61.8537 50.4022 61.7257C50.3141 61.5016 50.258 61.2775 50.2179 61.0935C50.2019 61.0214 50.1858 60.9334 50.1618 60.8694C50.0977 60.8374 50.0095 60.8054 49.9374 60.7734C49.6569 60.6613 49.3123 60.5333 48.9998 60.2532C48.7033 59.9971 48.519 59.701 48.3747 59.4609C48.3186 59.3649 48.2305 59.2288 48.1904 59.1888C48.0542 59.1008 47.8939 58.9887 47.7336 58.8767C47.5413 58.7406 47.365 58.6046 47.2047 58.5246C47.1245 58.5246 47.0444 58.5406 46.9643 58.5566C46.6517 58.5966 46.227 58.6526 45.7782 58.5246C45.4977 58.4445 45.2653 58.3325 45.065 58.2365C44.8887 58.1564 44.7204 58.0764 44.6162 58.0604C44.4559 58.0364 44.3037 58.0124 44.1514 57.9804C43.5584 57.8763 43.1577 57.8763 42.5647 57.9804C42.4124 58.0044 42.2601 58.0364 42.1079 58.0524C41.9556 58.0684 41.7873 58.0924 41.6351 58.1084C41.3385 58.1404 41.0821 58.1724 40.8577 58.2365C40.465 58.3485 40.0884 58.3325 39.7919 58.3245C39.7278 58.3245 39.6556 58.3245 39.5835 58.3245C39.5595 58.3645 39.5354 58.4125 39.5194 58.4525C39.3511 58.7647 39.1267 59.1968 38.686 59.4769C38.2372 59.765 37.7483 59.789 37.3877 59.805C37.3156 59.805 37.2435 59.805 37.1713 59.813C36.9069 60.0611 36.6344 60.3652 36.378 60.6693L36.1456 60.9334C35.9372 61.1655 35.7288 61.4136 35.5686 61.6377C35.5525 61.6617 35.5285 61.6857 35.5125 61.7097C35.5125 61.7257 35.4884 61.9018 35.4804 62.0218C35.4484 62.3179 35.4003 62.686 35.24 63.0462C35.1679 63.1982 35.1118 63.3583 35.0557 63.5263C35.0156 63.6384 34.9836 63.7504 34.9515 63.8625C34.9515 63.8785 34.9435 63.8865 34.9435 63.9025C34.9194 63.9985 34.8874 64.0865 34.8553 64.1826C34.8233 64.3106 34.8393 64.4947 34.8553 64.6147C34.8794 64.8708 34.9114 65.1829 34.8553 65.535C34.8073 65.8552 34.7111 66.1353 34.631 66.3593C34.5749 66.5114 34.5107 66.6875 34.5107 66.7675C34.5107 66.9596 34.5588 67.1756 34.6149 67.4317C34.655 67.6238 34.6951 67.8159 34.7271 68.0159C34.7592 68.272 34.8473 68.5201 34.9355 68.8082C34.9755 68.9363 35.0236 69.0723 35.0637 69.2084C35.1278 69.4324 35.24 69.6405 35.3602 69.8966C35.4323 70.0406 35.5045 70.1847 35.5766 70.3367C35.7689 70.7609 35.7769 71.1851 35.7769 71.4892C35.7769 71.5692 35.7769 71.6812 35.7849 71.7452L35.9532 72.0093C36.1295 72.2894 36.2898 72.5535 36.4661 72.7536C36.6104 72.9137 36.7386 73.0977 36.8748 73.2818C37.0271 73.4899 37.1633 73.6819 37.2915 73.794C37.6121 74.0741 37.9888 74.3542 38.3574 74.5863C38.3814 74.5863 38.5497 74.6103 38.6699 74.6263C38.9584 74.6583 39.3271 74.7063 39.6877 74.8744C39.872 74.9624 40.1044 75.0184 40.3769 75.0824C40.5532 75.1224 40.7295 75.1705 40.9058 75.2185L41.01 75.2505L40.9699 75.2425Z" fill="#E4EAF1"/>
<path d="M56.6049 96.2819C56.3164 96.2819 56.1722 96.2819 56.0279 96.2659C55.8596 96.2659 55.6833 96.2499 55.3387 96.2499C55.0983 96.2499 54.9701 96.2339 54.8499 96.2179C54.6575 96.1939 54.4652 96.1698 54.0805 96.1698C53.8401 96.1698 53.7199 96.1538 53.6077 96.1378C53.4314 96.1138 53.215 96.0818 52.8224 96.0818C52.5339 96.0818 52.3816 96.0818 52.2374 96.0658C52.0691 96.0658 51.9008 96.0498 51.5562 96.0498C50.9311 96.0498 50.4182 96.554 50.4182 97.1862C50.4182 97.8184 50.9231 98.3226 51.5562 98.3226C51.8447 98.3226 51.9969 98.3226 52.1412 98.3386C52.3095 98.3386 52.4778 98.3546 52.8224 98.3546C53.0628 98.3546 53.175 98.3706 53.2952 98.3866C53.4715 98.4106 53.6879 98.4427 54.0805 98.4427C54.321 98.4427 54.4492 98.4587 54.5694 98.4747C54.7617 98.4987 54.9541 98.5227 55.3387 98.5227C55.6272 98.5227 55.7715 98.5227 55.9157 98.5387C56.084 98.5387 56.2603 98.5547 56.6049 98.5547C56.9976 98.5547 57.1899 98.5307 57.3823 98.4987C57.5025 98.4827 57.6227 98.4667 57.8631 98.4667C58.2958 98.4667 58.5443 98.4186 58.7206 98.3786C58.8488 98.3546 58.9209 98.3386 59.1213 98.3386C59.3697 98.3386 59.4899 98.3546 59.6181 98.3706C59.8104 98.3946 60.0028 98.4186 60.3874 98.4186H61.6456C61.9181 98.4186 62.0543 98.4347 62.1986 98.4427C62.3749 98.4587 62.5512 98.4667 62.9118 98.4667C63.3045 98.4667 63.4968 98.4427 63.6891 98.4186C63.8094 98.4026 63.9296 98.3866 64.17 98.3866C64.5066 98.3866 64.6749 98.3866 64.8351 98.3786C64.9794 98.3786 65.1316 98.3706 65.4282 98.3706C65.6686 98.3706 65.7888 98.3866 65.909 98.4026C66.1013 98.4266 66.3017 98.4587 66.6863 98.4587C66.9348 98.4587 67.055 98.4747 67.1832 98.4907C67.3755 98.5147 67.5679 98.5387 67.9525 98.5387C68.241 98.5387 68.3853 98.5387 68.5215 98.5547C68.6898 98.5627 68.8661 98.5707 69.2107 98.5707C69.4992 98.5707 69.6515 98.5707 69.7957 98.5867C69.964 98.5867 70.1323 98.6027 70.4689 98.6027C70.9417 98.6027 71.2302 98.5147 71.4786 98.4266C71.5908 98.3866 71.6068 98.3786 71.727 98.3786C71.9114 98.3786 71.9675 98.3946 72.0957 98.4266C72.28 98.4747 72.5364 98.5307 72.9852 98.5307C73.434 98.5307 73.6664 98.4827 73.8507 98.4427C73.9789 98.4186 74.0511 98.4026 74.2514 98.4026H75.5176C75.75 98.4026 75.8622 98.4186 75.9824 98.4347C76.1587 98.4587 76.3831 98.4907 76.7838 98.4907C76.9921 98.4907 77.0723 98.5067 77.2005 98.5307C77.4329 98.5787 77.6573 98.6107 78.05 98.6107C78.5388 98.6107 78.8273 98.5147 79.0918 98.4106C79.204 98.3706 79.212 98.3626 79.3162 98.3626C79.4444 98.3626 79.4684 98.3706 79.5886 98.4106C79.8371 98.4907 80.1175 98.5787 80.5823 98.5787C80.8869 98.5787 81.0472 98.5787 81.1994 98.5787C81.3597 98.5787 81.52 98.5787 81.8485 98.5787C82.1451 98.5787 82.2973 98.5787 82.4416 98.5867C82.6099 98.5867 82.7781 98.5947 83.1147 98.5947C83.5795 98.5947 83.86 98.5147 84.1084 98.4347C84.2287 98.3946 84.2527 98.3866 84.3809 98.3866H85.6391C85.8715 98.3866 85.9917 98.4026 86.1119 98.4186C86.2882 98.4427 86.5046 98.4747 86.9053 98.4747C87.1136 98.4747 87.2018 98.4907 87.33 98.5147C87.5143 98.5467 87.7467 98.5947 88.1715 98.5947C88.6603 98.5947 88.9568 98.4987 89.2133 98.3946C89.3255 98.3546 89.3335 98.3466 89.4296 98.3466H90.0627H91.962C92.2104 98.3466 92.3307 98.3626 92.4509 98.3786C92.6432 98.4026 92.8355 98.4266 93.2282 98.4266C93.4446 98.4266 93.5327 98.4427 93.669 98.4667C93.8533 98.4987 94.0777 98.5387 94.4944 98.5387C94.7829 98.5387 94.9271 98.5387 95.0714 98.5547C95.2477 98.5627 95.416 98.5707 95.7606 98.5707C96.0892 98.5707 96.2494 98.5707 96.4097 98.5707C96.562 98.5707 96.7222 98.5707 97.0268 98.5707C97.6519 98.5707 98.1647 98.0665 98.1647 97.4343C98.1647 96.8021 97.6599 96.2979 97.0268 96.2979C96.6982 96.2979 96.5379 96.2979 96.3777 96.2979C96.2254 96.2979 96.0651 96.2979 95.7606 96.2979C95.4721 96.2979 95.3278 96.2979 95.1836 96.2819C95.0073 96.2739 94.839 96.2659 94.4944 96.2659C94.278 96.2659 94.1899 96.2499 94.0536 96.2259C93.8693 96.1939 93.6449 96.1538 93.2282 96.1538C92.9798 96.1538 92.8596 96.1378 92.7394 96.1218C92.547 96.0978 92.3547 96.0738 91.962 96.0738H89.4296C88.9408 96.0738 88.6443 96.1779 88.3878 96.2739C88.2756 96.3139 88.2676 96.3219 88.1715 96.3219C87.9551 96.3219 87.875 96.3059 87.7467 96.2819C87.5624 96.2499 87.33 96.2019 86.9053 96.2019C86.6729 96.2019 86.5527 96.1859 86.4325 96.1698C86.2562 96.1458 86.0398 96.1138 85.6471 96.1138H84.3889C83.9241 96.1138 83.6436 96.1939 83.3952 96.2739C83.275 96.3139 83.251 96.3219 83.1227 96.3219C82.8262 96.3219 82.674 96.3219 82.5297 96.3139C82.3614 96.3139 82.1931 96.3059 81.8646 96.3059C81.56 96.3059 81.3998 96.3059 81.2475 96.3059C81.0872 96.3059 80.9269 96.3059 80.5984 96.3059C80.4702 96.3059 80.4461 96.2979 80.3259 96.2579C80.0775 96.1779 79.797 96.0898 79.3322 96.0898C78.8433 96.0898 78.5548 96.1859 78.2904 96.2899C78.1782 96.3299 78.1702 96.3379 78.066 96.3379C77.8576 96.3379 77.7775 96.3219 77.6493 96.2979C77.4169 96.2499 77.1925 96.2179 76.7998 96.2179C76.5674 96.2179 76.4552 96.2019 76.335 96.1859C76.1587 96.1618 75.9343 96.1298 75.5336 96.1298H74.2674C73.8347 96.1298 73.5863 96.1859 73.4019 96.2179C73.2737 96.2419 73.2016 96.2579 73.0012 96.2579C72.8169 96.2579 72.7608 96.2419 72.6326 96.2099C72.4403 96.1618 72.1838 96.1058 71.7351 96.1058C71.2622 96.1058 70.9737 96.1939 70.7253 96.2819C70.6131 96.3219 70.5971 96.3299 70.4769 96.3299C70.1884 96.3299 70.0361 96.3299 69.8919 96.3139C69.7236 96.3139 69.5553 96.2979 69.2187 96.2979C68.9302 96.2979 68.786 96.2979 68.6497 96.2819C68.4814 96.2739 68.3051 96.2659 67.9605 96.2659C67.7121 96.2659 67.5919 96.2499 67.4637 96.2339C67.2713 96.2099 67.079 96.1859 66.6943 96.1859C66.4539 96.1859 66.3337 96.1699 66.2135 96.1538C66.0212 96.1298 65.8208 96.0978 65.4362 96.0978C65.0996 96.0978 64.9313 96.0978 64.771 96.1058C64.6268 96.1058 64.4745 96.1138 64.178 96.1138C63.7853 96.1138 63.593 96.1378 63.4007 96.1618C63.2804 96.1779 63.1602 96.1939 62.9198 96.1939C62.6473 96.1939 62.5111 96.1859 62.3749 96.1779C62.1986 96.1618 62.0223 96.1538 61.6616 96.1538H60.4035C60.155 96.1538 60.0348 96.1298 59.9146 96.1138C59.7223 96.0898 59.53 96.0658 59.1453 96.0658C58.7125 96.0658 58.4721 96.1138 58.2878 96.1538C58.1596 96.1779 58.0875 96.1939 57.8871 96.1939C57.4944 96.1939 57.3021 96.2179 57.1098 96.2499C56.9896 96.2659 56.8694 96.2819 56.6289 96.2819H56.6049Z" fill="#E4EAF1"/>
<path d="M58.9292 92.449C59.0975 92.449 59.2658 92.457 59.5944 92.457C59.8428 92.457 59.963 92.473 60.0912 92.489C60.2836 92.513 60.4759 92.537 60.8526 92.537C61.101 92.537 61.2292 92.553 61.3574 92.561C61.5418 92.585 61.7341 92.601 62.1107 92.601C62.3992 92.601 62.5435 92.601 62.6877 92.617C62.856 92.617 63.0243 92.633 63.3609 92.633C63.7375 92.633 63.9299 92.609 64.1142 92.593C64.2344 92.577 64.3626 92.561 64.6111 92.561C65.0198 92.561 65.2522 92.521 65.4365 92.489C65.5727 92.465 65.6529 92.449 65.8612 92.449C66.1177 92.449 66.2379 92.465 66.3661 92.473C66.5504 92.489 66.7427 92.513 67.1114 92.513H68.3696C68.65 92.513 68.7863 92.529 68.9305 92.537C69.1068 92.545 69.2751 92.561 69.6277 92.561C70.0044 92.561 70.1967 92.537 70.381 92.521C70.5092 92.505 70.6295 92.489 70.8779 92.489C71.2065 92.489 71.3747 92.489 71.535 92.481C71.6793 92.481 71.8315 92.473 72.128 92.473C72.3765 92.473 72.5047 92.489 72.6249 92.505C72.8172 92.529 73.0016 92.545 73.3782 92.545C73.6347 92.545 73.7629 92.561 73.8911 92.569C74.0754 92.585 74.2677 92.609 74.6364 92.609C74.9249 92.609 75.0691 92.609 75.2134 92.625C75.3817 92.625 75.55 92.641 75.8946 92.641C76.1911 92.641 76.3353 92.641 76.4796 92.649C76.6479 92.649 76.8161 92.657 77.1447 92.657C77.6336 92.657 77.914 92.569 78.1064 92.513C78.2266 92.473 78.2586 92.465 78.3949 92.465C78.5952 92.465 78.6673 92.481 78.7956 92.505C78.9719 92.545 79.2203 92.593 79.653 92.593C80.0858 92.593 80.2942 92.553 80.4785 92.521C80.6147 92.497 80.6949 92.481 80.9032 92.481H82.1614C82.4018 92.481 82.522 92.497 82.6422 92.513C82.8346 92.537 83.0269 92.561 83.4115 92.561C83.6359 92.561 83.7401 92.577 83.8523 92.601C84.0366 92.633 84.261 92.665 84.6697 92.665C85.1265 92.665 85.407 92.585 85.6554 92.505C85.7676 92.465 85.7917 92.457 85.9279 92.457C86.0802 92.457 86.1202 92.465 86.2404 92.505C86.4889 92.577 86.7453 92.641 87.1781 92.641H88.4362C88.7327 92.641 88.885 92.649 89.0293 92.657C89.1975 92.657 89.3578 92.665 89.6944 92.665C90.1352 92.665 90.3916 92.601 90.632 92.529C90.7522 92.497 90.7923 92.481 90.9526 92.481H92.2108C92.4592 92.481 92.5794 92.497 92.6996 92.513C92.8919 92.537 93.0843 92.561 93.4689 92.561C93.6933 92.561 93.8055 92.577 93.9177 92.593C94.094 92.625 94.3184 92.657 94.7271 92.657C95.1919 92.657 95.4724 92.577 95.7208 92.497C95.841 92.457 95.8651 92.449 95.9933 92.449H97.2595C97.8846 92.449 98.3975 91.9448 98.3975 91.3126C98.3975 90.6803 97.8926 90.1762 97.2595 90.1762H95.9933C95.5285 90.1762 95.248 90.2562 94.9996 90.3362C94.8794 90.3762 94.8553 90.3842 94.7271 90.3842C94.5027 90.3842 94.3905 90.3682 94.2783 90.3522C94.102 90.3202 93.8776 90.2882 93.4689 90.2882C93.2205 90.2882 93.1003 90.2722 92.9721 90.2562C92.7797 90.2322 92.5874 90.2082 92.2108 90.2082H90.9526C90.5118 90.2082 90.2554 90.2722 90.015 90.3362C89.8948 90.3682 89.8547 90.3842 89.7024 90.3842C89.4059 90.3842 89.2536 90.3842 89.1094 90.3762C88.9411 90.3762 88.7808 90.3682 88.4523 90.3682H87.1941C87.0418 90.3682 87.0018 90.3522 86.8815 90.3122C86.6331 90.2402 86.3767 90.1762 85.9439 90.1762C85.5112 90.1762 85.2067 90.2562 84.9582 90.3362C84.846 90.3762 84.822 90.3842 84.6858 90.3842C84.4614 90.3842 84.3572 90.3682 84.245 90.3442C84.0607 90.3122 83.8363 90.2802 83.4276 90.2802C83.1872 90.2802 83.067 90.2642 82.9467 90.2482C82.7544 90.2242 82.5621 90.2002 82.1694 90.2002H80.9112C80.4945 90.2002 80.2701 90.2402 80.0858 90.2722C79.9496 90.2962 79.8694 90.3122 79.6611 90.3122C79.4607 90.3122 79.3886 90.2962 79.2604 90.2722C79.0841 90.2322 78.8356 90.1842 78.4029 90.1842C77.914 90.1842 77.6336 90.2722 77.4412 90.3282C77.321 90.3682 77.289 90.3762 77.1527 90.3762C76.8562 90.3762 76.712 90.3762 76.5677 90.3682C76.3994 90.3682 76.2311 90.3602 75.9026 90.3602C75.6141 90.3602 75.4698 90.3602 75.3256 90.3442C75.1573 90.3442 74.989 90.3282 74.6444 90.3282C74.388 90.3282 74.2597 90.3122 74.1315 90.3042C73.9472 90.2882 73.7549 90.2642 73.3862 90.2642C73.1378 90.2642 73.0096 90.2482 72.8894 90.2322C72.697 90.2082 72.5127 90.1922 72.1361 90.1922C71.8075 90.1922 71.6392 90.1922 71.4789 90.2002C71.3347 90.2002 71.1824 90.2082 70.8859 90.2082C70.5093 90.2082 70.3169 90.2322 70.1326 90.2482C70.0044 90.2642 69.8842 90.2802 69.6357 90.2802C69.3553 90.2802 69.219 90.2722 69.0748 90.2642C68.8985 90.2562 68.7222 90.2402 68.3776 90.2402H67.1194C66.8629 90.2402 66.7427 90.2242 66.6145 90.2082C66.4302 90.1922 66.2379 90.1682 65.8692 90.1682C65.4605 90.1682 65.2281 90.2082 65.0438 90.2402C64.9076 90.2642 64.8274 90.2802 64.6111 90.2802C64.2344 90.2802 64.0421 90.3042 63.8497 90.3202C63.7295 90.3362 63.6013 90.3522 63.3529 90.3522C63.0644 90.3522 62.9201 90.3522 62.7759 90.3362C62.6076 90.3362 62.4393 90.3202 62.1027 90.3202C61.8543 90.3202 61.7261 90.3042 61.5978 90.2962C61.4135 90.2722 61.2212 90.2562 60.8445 90.2562C60.5961 90.2562 60.4759 90.2402 60.3477 90.2242C60.1554 90.2002 59.963 90.1762 59.5864 90.1762C59.2899 90.1762 59.1456 90.1762 59.0014 90.1682C58.8331 90.1682 58.6648 90.1602 58.3362 90.1602C57.7111 90.1602 57.1982 90.6643 57.1982 91.2966C57.1982 91.9288 57.7031 92.433 58.3362 92.433C58.6327 92.433 58.777 92.433 58.9212 92.441L58.9292 92.449Z" fill="#E4EAF1"/>
<path d="M32.5313 62.3501C32.339 62.3261 32.1547 62.3021 31.77 62.3021C31.4815 62.3021 31.3373 62.3021 31.201 62.2861C31.0728 62.2861 30.9366 62.2701 30.7362 62.2701C30.5118 62.006 30.0791 61.5258 29.2697 61.5258C28.5324 61.5258 28.0997 61.95 27.8512 62.2461C27.6188 62.11 27.2502 61.966 26.7373 61.95L26.6652 61.91C26.3927 61.7659 26.0561 61.6059 25.5032 61.6059H24.245C23.6279 61.6059 23.2433 61.8459 23.0189 62.014C22.7945 61.8299 22.3858 61.5498 21.7367 61.5498C20.9193 61.5498 20.4625 62.07 20.2461 62.3421C20.1499 62.3421 20.0858 62.3261 20.0137 62.3181C19.8374 62.2941 19.621 62.2621 19.2203 62.2621C19.012 62.2621 18.9318 62.2461 18.7956 62.2221C18.6113 62.1901 18.3789 62.1501 17.9621 62.1501C17.9087 62.1501 17.8473 62.1367 17.7778 62.11C17.5775 62.022 17.2489 61.886 16.6399 61.878C16.6078 61.87 16.5838 61.8539 16.5597 61.8379C16.3594 61.7419 16.0148 61.5818 15.4458 61.5818C15.0611 61.5818 14.8768 61.6059 14.6845 61.6299C14.5643 61.6459 14.436 61.6619 14.1876 61.6619C13.6186 61.6619 13.2821 61.8219 13.0817 61.91C13.0577 61.926 13.0336 61.934 12.9294 61.95C12.7531 61.95 12.697 61.934 12.5768 61.902C12.3444 61.8459 12.096 61.7899 11.6793 61.7899C11.3908 61.7899 11.2385 61.7899 11.0943 61.7819C10.926 61.7819 10.7577 61.7659 10.4211 61.7659C10.3677 61.7659 10.3089 61.7526 10.2448 61.7259C10.0445 61.6379 9.71589 61.4938 9.16293 61.4938C8.48175 61.4938 8.08106 61.7819 7.8727 61.934L7.85667 61.95C7.31975 61.958 6.99118 62.118 6.79884 62.2061C6.7748 62.2221 6.75076 62.2301 6.6546 62.2461C6.43822 62.2461 6.35808 62.2301 6.22986 62.2061C6.04554 62.1741 5.81314 62.134 5.40443 62.134C5.35635 62.134 5.30025 62.1207 5.23614 62.094C5.0358 62.006 4.69922 61.8539 4.09818 61.8539C4.06612 61.8459 4.04208 61.8299 4.01804 61.8139C3.80968 61.7099 3.46508 61.5418 2.88809 61.5418C2.65568 61.5418 2.54349 61.5258 2.4313 61.5098C2.25499 61.4858 2.0306 61.4458 1.62991 61.4458C1.00483 61.4458 0.491943 61.95 0.491943 62.5822C0.491943 63.2144 0.996816 63.7186 1.62991 63.7186C1.86231 63.7186 1.97451 63.7346 2.0867 63.7506C2.263 63.7746 2.48739 63.8146 2.93617 63.8146C2.96822 63.8226 2.99227 63.8386 3.01631 63.8547C3.22467 63.9587 3.56926 64.1267 4.14626 64.1267C4.19434 64.1267 4.25044 64.1401 4.31455 64.1668C4.5149 64.2548 4.85148 64.4069 5.40443 64.4069C5.62081 64.4069 5.70095 64.4229 5.83718 64.4469C6.0215 64.4789 6.24589 64.5189 6.66261 64.5189C7.23159 64.5189 7.57619 64.3588 7.77653 64.2628C7.80058 64.2468 7.82462 64.2388 7.92078 64.2228C8.60196 64.2228 9.00265 63.9347 9.21101 63.7826H9.22704C9.22704 63.7826 9.28314 63.7826 9.34725 63.8146C9.5476 63.9027 9.87616 64.0467 10.4291 64.0467C10.7176 64.0467 10.8699 64.0467 11.0141 64.0547C11.1824 64.0547 11.3507 64.0707 11.6873 64.0707C11.8636 64.0707 11.9197 64.0867 12.0399 64.1188C12.2723 64.1748 12.5207 64.2308 12.9375 64.2308C13.5064 64.2308 13.843 64.0707 14.0434 63.9827C14.0674 63.9667 14.0914 63.9587 14.1956 63.9427C14.5803 63.9427 14.7646 63.9187 14.9569 63.8947C15.0772 63.8787 15.2134 63.8707 15.5179 63.8707C15.55 63.8787 15.574 63.8947 15.5981 63.9107C15.7984 64.0067 16.143 64.1668 16.712 64.1668C16.7654 64.1668 16.8268 64.1801 16.8963 64.2068C17.0966 64.2948 17.4252 64.4309 17.9702 64.4309C18.1785 64.4309 18.2587 64.4469 18.3949 64.4709C18.5792 64.5029 18.8116 64.5429 19.2283 64.5429C19.4607 64.5429 19.5729 64.5589 19.6931 64.5749C19.8694 64.5989 20.0858 64.6309 20.4865 64.6309C21.1677 64.6309 21.6004 64.2708 21.8489 63.9987C22.0893 64.1668 22.4659 64.3668 23.0029 64.3668C23.692 64.3668 24.0927 64.0707 24.3011 63.9107L25.5272 63.8867L25.5993 63.9267C25.8638 64.0707 26.1924 64.2148 26.7213 64.2308L26.7453 64.2468C26.9537 64.3908 27.3464 64.6549 28.0115 64.6549C28.6366 64.6549 29.0453 64.3428 29.3098 64.0707C29.5662 64.3028 29.9509 64.5429 30.5198 64.5429C30.8083 64.5429 30.9526 64.5429 31.0888 64.5589C31.2571 64.5669 31.4254 64.5749 31.77 64.5749C32.0184 64.5749 32.1386 64.5909 32.2669 64.6069C32.347 64.6149 32.4352 64.6229 32.5393 64.6309C32.5153 64.3348 32.5153 63.9987 32.6195 63.6226C32.7798 63.0784 32.6836 62.8543 32.908 62.3741H32.8198C32.6996 62.3741 32.6195 62.3581 32.5393 62.3501H32.5313Z" fill="#E4EAF1"/>
<path d="M161.362 61.9417C161.21 61.9417 161.17 61.9337 161.05 61.8937C160.801 61.8217 160.545 61.7576 160.096 61.7576C159.815 61.7576 159.671 61.7496 159.535 61.7416C159.359 61.7336 159.182 61.7176 158.83 61.7176C158.1 61.7176 157.676 62.1018 157.435 62.3419C157.187 62.2058 156.882 62.0778 156.426 62.0537C156.217 61.8617 155.784 61.4775 155.039 61.4775C154.454 61.4775 154.11 61.6536 153.901 61.7576C153.877 61.7736 153.853 61.7817 153.773 61.7977C153.533 61.7977 153.412 61.7817 153.292 61.7656C153.1 61.7416 152.899 61.7176 152.515 61.7176C151.954 61.7176 151.609 61.8697 151.409 61.9657C151.385 61.9817 151.353 61.9897 151.249 62.0057C150.992 62.0057 150.864 61.9897 150.736 61.9817C150.551 61.9657 150.359 61.9417 149.99 61.9417C149.494 61.9417 149.205 62.0377 149.013 62.0938C148.949 62.1178 148.909 62.1258 148.86 62.1338C148.644 61.9337 148.211 61.5496 147.466 61.5496C146.785 61.5496 146.368 61.8697 146.136 62.0778C145.911 61.9337 145.535 61.7256 144.942 61.7256C144.461 61.7256 144.164 61.8217 143.908 61.9177C143.796 61.9577 143.788 61.9657 143.676 61.9657C143.123 61.9657 142.786 62.1098 142.586 62.1978C142.522 62.2245 142.465 62.2378 142.417 62.2378C142.161 62.2378 142.033 62.2218 141.904 62.2138C141.72 62.1978 141.528 62.1738 141.151 62.1738C140.654 62.1738 140.358 62.2698 140.165 62.3338C140.101 62.3498 140.069 62.3659 140.029 62.3739C139.813 62.1578 139.38 61.7656 138.627 61.7656C138.194 61.7656 137.946 61.8137 137.769 61.8537C137.641 61.8777 137.569 61.8937 137.369 61.8937C136.736 61.8937 136.343 62.1418 136.126 62.2858C135.902 62.1178 135.509 61.8457 134.852 61.8457C134.596 61.8457 134.476 61.8297 134.347 61.8217C134.155 61.7977 133.971 61.7816 133.594 61.7816C133.169 61.7816 132.937 61.8297 132.753 61.8617C132.624 61.8857 132.544 61.9017 132.344 61.9097L132.272 61.8697C131.991 61.7096 131.647 61.5336 131.07 61.5336C130.22 61.5336 129.763 62.1098 129.547 62.3979C129.475 62.3979 129.411 62.3819 129.355 62.3739C129.178 62.3499 128.954 62.3098 128.553 62.3098C128.193 62.3098 128.008 62.3258 127.832 62.3419C127.696 62.3499 127.568 62.3659 127.303 62.3659C127.015 62.3659 126.87 62.3659 126.718 62.3579C126.59 62.3579 126.47 62.3499 126.277 62.3419C126.109 62.1258 125.765 61.7416 125.196 61.6056C125.228 61.4535 125.26 61.3015 125.284 61.1734C125.3 61.0934 125.308 61.0134 125.324 60.9333C125.524 60.7253 125.7 60.5012 125.885 60.2691C125.989 60.1411 126.093 60.013 126.197 59.885C126.55 59.4768 126.646 58.9967 126.718 58.6525C126.734 58.5725 126.742 58.5005 126.75 58.4525C126.814 58.4205 126.878 58.3884 126.951 58.3564C127.279 58.1964 127.736 57.9803 128.04 57.5161C128.105 57.4201 128.225 57.2921 128.345 57.164C128.561 56.9399 128.81 56.6838 129.002 56.3397C129.267 55.8676 129.267 55.3714 129.267 55.0112C129.267 54.9072 129.259 54.8112 129.251 54.7872C129.291 54.7071 129.395 54.5791 129.499 54.4591C129.675 54.243 129.892 53.9789 130.052 53.6428C130.116 53.5947 130.188 53.5467 130.26 53.4987C130.605 53.2586 131.07 52.9385 131.262 52.3463C131.486 51.6741 131.158 51.0739 130.893 50.6497C131.31 50.4016 131.855 50.0335 131.983 49.3613C132.063 48.9531 132.023 48.561 131.983 48.2489C131.967 48.0888 131.951 47.9047 131.959 47.8167C132.055 47.0564 131.543 46.5042 131.206 46.1361C131.174 46.0961 131.134 46.0641 131.102 46.0241C131.118 45.9761 131.134 45.928 131.15 45.88C131.254 45.5839 131.382 45.2238 131.382 44.7836C131.382 44.4395 131.358 44.1114 131.326 43.7753C131.31 43.6232 131.302 43.4712 131.286 43.3111C131.262 42.879 131.118 42.5348 131.006 42.2467C130.982 42.1907 130.966 42.1347 130.942 42.0867C130.974 42.0467 131.006 42.0066 131.038 41.9666C131.342 41.5825 131.799 41.0063 131.655 40.3421C131.655 40.286 131.703 40.134 131.727 40.038C131.823 39.6778 131.959 39.1897 131.823 38.6535C131.727 38.2933 131.567 37.9732 131.43 37.6851C131.35 37.5251 131.27 37.373 131.222 37.221C131.006 36.5727 130.437 36.2526 130.052 36.0445C129.988 36.0125 129.924 35.9805 129.868 35.9405C129.836 35.8365 129.82 35.7404 129.796 35.6364C129.731 35.3403 129.651 35.0042 129.483 34.652C129.219 34.0918 128.698 33.8518 128.305 33.6997C128.473 33.2035 128.69 32.5073 128.273 31.8671C128.04 31.5149 127.736 31.2668 127.496 31.0668C127.375 30.9707 127.239 30.8507 127.183 30.7867C126.75 30.2185 126.093 30.1465 125.612 30.1144C125.62 29.6663 125.596 29.0741 125.172 28.6499C125.147 28.6019 125.099 28.4659 125.067 28.3698C124.947 28.0257 124.787 27.5615 124.378 27.1934C123.849 26.7292 123.176 26.7613 122.735 26.7853C122.655 26.7853 122.567 26.8013 122.503 26.7933C122.142 26.5692 121.774 26.4972 121.485 26.4411C121.389 26.4251 121.253 26.3931 121.237 26.3931C120.948 26.2011 120.668 26.057 120.419 25.937C120.275 25.8649 120.123 25.7929 119.971 25.6969C119.794 25.5928 119.626 25.5048 119.474 25.4248C119.161 25.2647 119.081 25.2167 119.009 25.1127C118.985 25.0727 118.993 24.8726 119.001 24.7205C119.009 24.5205 119.017 24.3044 119.001 24.0803V23.9523C118.961 23.4961 118.937 23.08 118.881 22.6798C118.881 22.6318 118.929 22.4957 118.961 22.4077C119.065 22.0796 119.209 21.6314 119.113 21.1113C119.025 20.6391 118.793 20.279 118.616 20.0229C118.56 19.9348 118.472 19.7988 118.456 19.7508C118.44 19.6867 118.448 19.5187 118.456 19.3826C118.472 19.0705 118.488 18.6784 118.352 18.2542C118.24 17.8941 118.071 17.598 117.927 17.3419C117.847 17.2059 117.767 17.0698 117.711 16.9178C117.59 16.6057 117.446 16.3176 117.302 16.0295C117.254 15.9334 117.206 15.8454 117.166 15.7494C117.182 15.6853 117.206 15.6213 117.222 15.5493C117.342 15.1331 117.518 14.4929 117.198 13.9007C117.182 13.8447 117.158 13.6766 117.15 13.5646C117.11 13.2125 117.062 12.7643 116.797 12.3482C116.444 11.78 115.835 11.5879 115.435 11.4598C115.355 11.4358 115.282 11.4118 115.21 11.3878C114.994 11.1157 114.746 10.9156 114.537 10.7556C114.441 10.6756 114.345 10.6035 114.281 10.5395C114.265 10.4675 114.265 10.3955 114.257 10.3154C114.209 9.91529 114.152 9.3791 113.744 8.92294C113.367 8.50679 112.886 8.36274 112.526 8.2587C112.526 8.23469 112.526 8.21069 112.526 8.18668C112.574 7.61047 112.638 6.8262 112.029 6.29001C111.74 6.04192 111.42 5.86586 111.139 5.7138C110.971 5.61777 110.803 5.52974 110.707 5.45771C110.033 4.93753 109.24 5.20162 108.663 5.40169C108.583 5.4257 108.487 5.45771 108.399 5.48972C108.198 5.37768 108.014 5.29766 107.838 5.21763C107.781 5.19362 107.725 5.16961 107.669 5.1376C107.661 5.06557 107.645 4.98554 107.645 4.92152C107.573 4.32931 107.477 3.52103 106.732 3.13689C106.147 2.83278 105.57 3.00885 105.113 3.20892C105.001 2.58469 104.808 1.84843 104.063 1.56033C103.278 1.26423 102.605 1.72839 102.116 2.07251C102.108 2.07251 102.092 2.08852 102.084 2.09652C101.827 1.80842 101.483 1.44829 100.938 1.31224C100.305 1.16019 99.7676 1.44829 99.3749 1.69638C99.1105 1.25622 98.7098 0.68002 98.0206 0.599992C97.9645 0.583986 97.8283 0.503958 97.7321 0.447938C97.4276 0.271876 97.0028 0.023788 96.4819 -0.00822332C95.7527 -0.0562403 95.2478 0.479949 94.8872 0.944114C94.5426 0.567981 94.0778 0.143831 93.3886 0.191848C93.044 0.215856 92.6834 0.263873 92.3308 0.319893C92.1705 0.343901 92.0102 0.36791 91.874 0.383916C91.8339 0.383916 91.6336 0.343901 91.5214 0.319893C91.1768 0.247867 90.744 0.151833 90.2712 0.239865C89.6061 0.36791 89.2214 0.872088 88.9409 1.24022C88.8848 1.31224 88.8367 1.38427 88.7806 1.44829C88.1475 1.69638 87.859 2.3126 87.6667 2.72875C87.6587 2.75275 87.6427 2.77676 87.6347 2.80877C87.6266 2.80877 87.6186 2.80877 87.6106 2.80877C87.3061 2.76876 86.8974 2.72074 86.4486 2.85679C86.3765 2.84079 86.3044 2.81678 86.2322 2.80077C85.8396 2.69673 85.2385 2.52867 84.6455 2.80077C83.788 3.19291 83.6518 4.0012 83.5877 4.38533C83.4594 4.44135 83.3633 4.47336 83.2751 4.50537C83.0908 4.5694 82.9145 4.64142 82.5619 4.79348L82.3455 4.88951C82.1051 5.00155 81.9769 5.05757 81.8567 5.08958C81.6964 4.73746 81.4239 4.24128 80.8149 3.96118C80.1497 3.65707 79.6208 3.79312 79.3243 3.87315C79.1961 3.64907 78.9637 3.25693 78.4187 2.97683C78.3706 2.91281 78.3306 2.83278 78.2905 2.76076C78.0741 2.39263 77.7776 1.88045 77.1846 1.65637C76.7198 1.4803 76.271 1.50431 75.9104 1.52832C75.7982 1.52832 75.6219 1.54433 75.5898 1.54433C75.1811 1.41628 74.7885 1.40828 74.4759 1.40828C74.3156 1.40828 74.1393 1.40828 74.0592 1.38427C73.5784 1.26423 73.1376 1.33625 72.817 1.39227C72.7449 1.40828 72.6488 1.42428 72.5766 1.43229C72.5285 1.39227 72.4805 1.33625 72.4244 1.29624C72.1279 1.01614 71.7272 0.640006 71.1181 0.567981C70.9418 0.543972 70.7655 0.511961 70.5812 0.471947C70.2847 0.415927 69.9481 0.351904 69.6035 0.327896C69.0586 0.287882 68.6018 0.511961 68.2652 0.68002C68.177 0.728037 68.0408 0.79206 68.0648 0.800063C67.4317 0.800063 66.9669 1.15219 66.6624 1.39227C66.6063 1.44029 66.5422 1.48831 66.4861 1.52832C66.1575 1.56033 65.877 1.63236 65.6286 1.70438C65.5725 1.72039 65.5164 1.73639 65.4683 1.7524C65.4203 1.70438 65.3642 1.64836 65.3241 1.60835C64.9314 1.20821 64.3304 0.607995 63.513 0.760049C63.1523 0.824071 62.8318 0.944114 62.5433 1.05615C62.383 1.12018 62.2147 1.1842 62.0544 1.22421C61.4213 1.37627 61.0768 1.88045 60.8444 2.28059C60.4036 2.01649 59.7785 1.68037 59.0813 1.94447C58.4963 2.16855 58.2238 2.67273 58.0555 3.12088C57.5026 2.76876 56.7893 2.37662 56.0601 2.75275C55.4911 3.04886 55.2507 3.59305 55.0744 3.99319C55.0423 4.07322 55.0103 4.16125 54.9702 4.23328C54.4974 4.5694 54.3131 5.08958 54.1848 5.44171C54.1608 5.51373 54.1368 5.58576 54.1127 5.64978C53.8483 5.83385 53.6078 6.02591 53.3594 6.22598L53.0549 6.46607C52.6462 6.78618 52.4458 7.20233 52.3096 7.49843C52.2856 7.54645 52.2535 7.61848 52.2295 7.66649C52.1814 7.6745 52.1253 7.6825 52.0692 7.6905C51.7005 7.74652 51.1476 7.83455 50.7068 8.2587C50.4263 8.5388 50.242 8.84291 50.0898 9.091C50.0016 9.23505 49.9215 9.3791 49.8413 9.46713C49.6009 9.73123 49.4246 10.0033 49.2724 10.2354C49.2002 10.3474 49.1201 10.4675 49.0399 10.5795C48.9758 10.6115 48.9037 10.6275 48.8316 10.6516C48.479 10.7716 47.934 10.9637 47.5894 11.4598C47.2849 11.892 47.2529 12.3802 47.2529 12.7483C47.2368 12.7483 47.2288 12.7483 47.2128 12.7483C46.5637 12.7803 45.6661 12.8283 45.2494 13.6126C44.8086 14.4369 45.3536 15.2132 45.7943 15.8294C45.7943 15.8294 45.7943 15.8294 45.7943 15.8374C45.4738 16.0295 45.1051 16.3176 44.9208 16.8057C44.6884 17.4219 44.8888 17.9981 45.025 18.3823C45.033 18.4143 45.049 18.4463 45.0571 18.4783C45.033 18.5023 45.009 18.5263 44.9849 18.5423C44.7285 18.7984 44.3679 19.1506 44.2316 19.7028C44.1996 19.8228 44.1355 19.9749 44.0633 20.1349C43.9512 20.399 43.8069 20.7271 43.7428 21.0792C43.7268 21.1273 43.6386 21.2633 43.5825 21.3513C43.3982 21.6314 43.1498 22.0236 43.0937 22.5278C43.0456 22.9119 43.0937 23.264 43.1257 23.5681C43.1498 23.7522 43.1658 23.9202 43.1578 24.0483C43.1578 24.1123 43.1578 24.1603 43.1498 24.2083V24.2244C43.0937 24.2964 43.0376 24.3764 42.9655 24.4884C42.8292 24.6965 42.7571 24.8566 42.677 25.0246C42.6689 25.0246 42.6529 25.0406 42.6369 25.0486C42.5808 25.0727 42.4285 25.0967 42.3243 25.1127C41.9958 25.1687 41.547 25.2407 41.1383 25.5208C41.0421 25.5848 40.8818 25.6569 40.7136 25.7289C40.4251 25.8569 40.0885 26.001 39.7839 26.2411C39.7118 26.2971 39.5435 26.3771 39.3913 26.4411C39.1028 26.5692 38.7422 26.7372 38.4296 27.0173C37.8847 27.5055 37.8686 28.2098 37.8686 28.7059C37.4279 28.746 36.8188 28.834 36.3861 29.3302C35.8812 29.9144 36.0335 30.6346 36.2338 31.2188C35.745 31.2508 35.184 31.3709 34.8154 31.8671C34.7432 31.9151 34.6551 31.9551 34.5669 32.0031C34.2223 32.1872 33.7495 32.4353 33.469 32.9314C33.1244 33.5397 33.2927 34.1799 33.4129 34.636C33.437 34.7161 33.461 34.8041 33.4771 34.8761C33.3328 35.3243 33.421 35.7564 33.5492 36.1086C32.8359 36.2206 32.0025 36.3887 31.73 37.221C31.4976 37.9092 31.8342 38.5334 32.0586 38.9496C32.0907 39.0056 32.1227 39.0616 32.1468 39.1096C32.1147 39.1816 32.0746 39.2537 32.0426 39.3257C31.9063 39.5978 31.738 39.9259 31.6579 40.3341C31.5617 40.8302 31.6819 41.2784 31.7701 41.5985C31.7941 41.6705 31.8182 41.7826 31.8342 41.8466C31.8022 41.9026 31.7461 41.9906 31.706 42.0547C31.5137 42.3508 31.2572 42.7589 31.2252 43.2951C31.1931 43.8473 31.4095 44.2875 31.5778 44.6076C31.5858 44.6236 31.5938 44.6476 31.6098 44.6636C31.5858 44.6876 31.5698 44.7036 31.5457 44.7276C31.2252 45.0717 30.7443 45.5839 30.7924 46.3122C30.8245 46.8804 31.137 47.3045 31.3614 47.6166C31.4095 47.6887 31.4656 47.7527 31.5056 47.8247C31.5056 47.9367 31.5056 48.0728 31.4976 48.2248C31.4816 48.537 31.4656 48.8891 31.5377 49.2732C31.5537 49.3693 31.5537 49.5453 31.5457 49.7134C31.5457 50.0175 31.5297 50.4016 31.6339 50.8018C31.7541 51.2659 32.0185 51.602 32.2269 51.8741C32.299 51.9622 32.4032 52.0982 32.4192 52.1382C32.4673 52.2823 32.5154 52.4263 32.5555 52.5704C32.6436 52.8505 32.7237 53.1226 32.8279 53.3947C32.8119 53.4667 32.7798 53.5467 32.7638 53.6188C32.6276 54.0669 32.4433 54.6671 32.7398 55.2834C33.1565 56.1477 34.1502 56.1316 34.9436 56.1236C35.0478 56.1236 35.192 56.1236 35.3202 56.1236C35.4404 56.3317 35.5607 56.5318 35.6889 56.7399C35.6728 56.8039 35.6568 56.8679 35.6408 56.9319C35.5526 57.2841 35.4324 57.7722 35.5526 58.2524C35.6248 58.1884 35.6809 58.1164 35.753 58.0523C36.2418 57.6282 36.8429 57.6042 37.2436 57.5802C37.2997 57.5802 37.3558 57.5802 37.4119 57.5802C37.4359 57.5321 37.4599 57.4841 37.484 57.4361C37.6523 57.116 37.9167 56.6438 38.4136 56.3637C38.3895 56.2677 38.3575 56.1637 38.3094 55.9956C38.2052 55.6275 38.1972 55.3794 38.1972 55.1633C38.1972 55.0673 38.1972 55.0593 38.1732 54.9632C38.053 54.5471 38.069 54.259 38.093 54.0189V53.9229C37.9969 53.6108 37.9728 53.4507 37.9488 53.2906C37.9327 53.1946 37.9167 53.0986 37.8686 52.9145C37.8045 52.6824 37.7645 52.5704 37.7324 52.4584C37.6923 52.3303 37.6523 52.1943 37.5721 51.9302C37.5 51.6661 37.4679 51.53 37.4359 51.402C37.4118 51.3059 37.3878 51.2099 37.3477 51.0499C37.1234 50.8738 36.8188 50.5857 36.6666 50.0495C36.6425 49.9615 36.6105 49.8974 36.5784 49.8414C36.4342 49.5293 36.1296 48.8891 36.6265 48.0648C36.899 47.6086 37.4439 47.1205 38.4617 47.3846C38.654 47.1685 38.9265 46.9044 39.4313 46.7443C39.792 46.6323 40.0003 46.6003 40.1686 46.5763C40.2648 46.5603 40.3609 46.5523 40.5373 46.4962C41.0021 46.3522 41.3226 46.3762 41.5871 46.4002H41.6993C42.2682 45.9681 42.7891 45.912 43.4303 46.1841C44.0794 46.4562 44.3919 46.8884 44.432 47.5286C44.5121 47.7767 44.5522 47.8727 44.6003 47.9688C44.6644 48.1048 44.7205 48.2409 44.8247 48.513C44.9689 48.9051 44.9849 49.1772 44.9849 49.4013L45.009 49.5293L45.3696 50.4736C45.4257 50.6337 45.4738 50.7057 45.5139 50.7778C45.586 50.9058 45.6581 51.0419 45.7543 51.2819C45.9867 51.442 46.3072 51.6981 46.4996 52.2103C46.6358 52.5784 46.6678 52.8105 46.6839 52.9705C46.6919 53.0666 46.6999 53.0906 46.74 53.2026C46.8682 53.5467 46.9002 53.7708 46.9243 53.9709C46.9323 54.0669 46.9403 54.0909 46.9724 54.195C47.0205 54.323 47.0365 54.355 47.0926 54.435C47.1968 54.6031 47.309 54.7792 47.4292 55.1073L47.7898 56.0516C47.8379 56.1717 47.8539 56.2037 47.91 56.2837C47.9421 56.3237 47.9661 56.3717 47.9981 56.4198C48.0302 56.4358 48.0623 56.4358 48.0863 56.4518C48.479 56.6278 48.7995 56.8679 49.08 57.076C49.2002 57.164 49.3204 57.252 49.4406 57.3321C49.8814 57.6122 50.1218 58.0123 50.3061 58.3004C50.3622 58.3965 50.4504 58.5325 50.4905 58.5725C50.5225 58.5965 50.6668 58.6525 50.7629 58.6846C51.0915 58.8126 51.5403 58.9887 51.8929 59.3968C52.2535 59.813 52.3577 60.2931 52.4298 60.6372C52.4539 60.7333 52.4859 60.8853 52.5019 60.9333L52.6061 61.0854C52.7103 61.2455 52.8145 61.4135 52.9187 61.5816C53.0469 61.7896 53.1671 62.0057 53.2793 62.2538C53.2953 62.2538 53.3835 62.3178 53.4556 62.3739C53.4556 62.3739 53.4556 62.3739 53.4636 62.3819C53.5517 62.4539 53.6639 62.5499 53.7681 62.654C53.7761 62.662 53.7922 62.678 53.8002 62.686C53.9124 62.798 54.0246 62.9261 54.1207 63.0781C54.2169 63.2222 54.297 63.3742 54.3531 63.5583C54.4092 63.7503 54.4413 63.9344 54.4653 64.1185C54.6977 64.2785 55.0664 64.4786 55.6273 64.4786C55.7716 64.4786 55.8036 64.4866 55.9238 64.5266C56.1162 64.5826 56.4047 64.6707 56.8855 64.6707C57.4305 64.6707 57.767 64.5186 58.0395 64.3746C58.0635 64.3586 58.0876 64.3506 58.1357 64.3426C58.5123 64.3426 58.7047 64.3186 58.889 64.3025C59.0172 64.2865 59.1374 64.2705 59.4019 64.2705L59.474 64.3105C59.7465 64.4626 60.0911 64.6227 60.644 64.6227C60.9726 64.6227 61.1329 64.6227 61.3011 64.6227C61.4534 64.6227 61.6057 64.6227 61.9022 64.6227C62.3429 64.6227 62.5994 64.5666 62.7837 64.5186C62.9119 64.4866 62.968 64.4786 63.1523 64.4786C63.9217 64.4786 64.3544 64.0465 64.5788 63.7984C64.5948 63.7984 64.6109 63.8144 64.6349 63.8224C64.8913 63.9184 65.1798 64.0144 65.6607 64.0144C65.7649 64.0144 65.7649 64.0144 65.8771 64.0625C66.1335 64.1585 66.43 64.2625 66.9108 64.2625C67.3917 64.2625 67.6962 64.1665 67.8885 64.1025C68.0007 64.0625 68.0328 64.0545 68.161 64.0545H69.4192C69.884 64.0545 70.1645 63.9664 70.4129 63.8864C70.5251 63.8464 70.5491 63.8384 70.6773 63.8384C70.8857 63.8384 70.9658 63.8544 71.1021 63.8784C71.2864 63.9104 71.5188 63.9584 71.8874 63.9344L71.9596 63.9744C72.1679 64.1105 72.5526 64.3586 73.2578 64.3586C73.2899 64.3666 73.3139 64.3826 73.3379 64.3986C73.5383 64.4946 73.8829 64.6627 74.4599 64.6627C74.9247 64.6627 75.2052 64.5826 75.4536 64.4946C75.5738 64.4546 75.5898 64.4466 75.7181 64.4466C75.8543 64.4466 75.8863 64.4546 75.9985 64.4946C76.1909 64.5586 76.4794 64.6467 76.9762 64.6467C77.2727 64.6467 77.417 64.6467 77.5612 64.6547C77.7295 64.6547 77.8978 64.6707 78.2344 64.6707C78.9637 64.6707 79.3884 64.3105 79.5968 64.1345C79.717 64.1345 79.7891 64.1505 79.8933 64.1745C80.0696 64.2145 80.318 64.2625 80.7508 64.2625C81.3278 64.2625 81.6724 64.0945 81.8807 63.9904C81.9048 63.9744 81.9288 63.9664 82.0089 63.9504C82.1692 63.9504 82.2093 63.9664 82.3295 63.9984C82.5699 64.0625 82.8263 64.1265 83.2671 64.1265C83.6277 64.1265 83.812 64.1105 83.9964 64.0945C84.1326 64.0865 84.2608 64.0705 84.5253 64.0705C85.0782 64.0705 85.4068 63.9264 85.6072 63.8384C85.6713 63.8117 85.73 63.7984 85.7835 63.7984C86.0159 63.7984 86.1281 63.8144 86.2402 63.8304C86.4005 63.8544 86.5929 63.8864 86.9054 63.8864C87.1138 64.0865 87.5465 64.4706 88.2998 64.4706C88.9329 64.4706 89.3176 64.2385 89.5259 64.1105L89.55 64.0785L89.6221 64.1185C89.9026 64.2785 90.2472 64.4466 90.8162 64.4466C91.2329 64.4466 91.4813 64.3906 91.7217 64.3346C91.8419 64.3025 91.898 64.2865 92.0743 64.2865C92.467 64.2865 92.6834 64.2545 92.8597 64.2305C92.9799 64.2145 93.0921 64.1985 93.3325 64.1985C93.5168 64.1985 93.5809 64.2145 93.7011 64.2385C93.8855 64.2785 94.1419 64.3426 94.5907 64.3426C94.6548 64.3426 94.7242 64.3586 94.799 64.3906C95.0635 64.4946 95.36 64.5986 95.8489 64.5986C96.522 64.5986 96.9227 64.3105 97.1471 64.1345C97.3555 64.2705 97.7401 64.4946 98.3652 64.4946C98.7819 64.4946 99.0143 64.4546 99.1986 64.4146C99.3269 64.3906 99.407 64.3746 99.6154 64.3746C100.345 64.3746 100.769 64.0224 100.978 63.8464C101.194 63.8464 101.314 63.8544 101.443 63.8624C101.619 63.8704 101.787 63.8864 102.14 63.8864C102.276 63.8864 102.308 63.8944 102.428 63.9344C102.621 63.9984 102.909 64.0865 103.47 64.0945C103.502 64.1025 103.526 64.1185 103.55 64.1345C103.751 64.2305 104.087 64.3826 104.656 64.3826C104.864 64.3826 104.945 64.3986 105.081 64.4226C105.265 64.4546 105.498 64.5026 105.914 64.5026C106.563 64.5026 106.956 64.2385 107.18 64.0705C107.405 64.2305 107.798 64.4786 108.431 64.4786C108.791 64.4786 108.976 64.4626 109.152 64.4466C109.288 64.4386 109.416 64.4226 109.689 64.4226C110.41 64.4226 110.843 64.0625 111.059 63.8624C111.075 63.8624 111.091 63.8784 111.115 63.8864C111.316 63.9744 111.652 64.1265 112.277 64.1345C112.309 64.1425 112.333 64.1585 112.357 64.1745C112.558 64.2705 112.902 64.4226 113.463 64.4226C114.136 64.4226 114.537 64.1425 114.754 63.9904L114.778 63.9744C115.178 63.9744 115.419 63.9184 115.595 63.8864C115.707 63.8624 115.779 63.8464 115.932 63.8464H115.948C116.164 64.0144 116.565 64.3105 117.246 64.3105C117.542 64.3105 117.695 64.3105 117.839 64.3186C118.007 64.3186 118.167 64.3266 118.448 64.3105L118.52 64.3506C118.728 64.4866 119.113 64.7347 119.762 64.7347C120.636 64.7347 121.101 64.1185 121.301 63.8144C121.421 63.8144 121.509 63.8144 121.605 63.8224C121.774 63.8224 121.942 63.8384 122.279 63.8384C122.332 63.8384 122.391 63.8517 122.455 63.8784C122.655 63.9664 122.984 64.1105 123.537 64.1105C124.018 64.1105 124.306 64.0144 124.562 63.9264C124.57 63.9264 124.587 63.9264 124.595 63.9184C124.819 64.1905 125.268 64.6707 126.061 64.6707C126.35 64.6707 126.502 64.6707 126.646 64.6787C126.814 64.6787 126.983 64.6947 127.319 64.6947C127.68 64.6947 127.864 64.6787 128.049 64.6627C128.185 64.6547 128.313 64.6387 128.577 64.6387C128.802 64.6387 128.922 64.6547 129.034 64.6707C129.211 64.6947 129.435 64.7347 129.836 64.7347C130.605 64.7347 131.054 64.2625 131.286 63.9584C131.543 64.0945 131.871 64.2225 132.352 64.2225C132.777 64.2225 133.009 64.1745 133.193 64.1425C133.322 64.1185 133.402 64.1025 133.61 64.1025C133.867 64.1025 133.987 64.1185 134.115 64.1265C134.291 64.1425 134.468 64.1665 134.804 64.1665H134.812C135.029 64.3346 135.429 64.6467 136.126 64.6467C136.824 64.6467 137.184 64.3746 137.393 64.2305L137.417 64.2145C137.825 64.2145 138.066 64.1665 138.242 64.1265C138.338 64.1105 138.394 64.0945 138.499 64.0865C138.715 64.2945 139.148 64.7027 139.901 64.7027C140.398 64.7027 140.694 64.6067 140.887 64.5426C140.999 64.5026 141.031 64.4946 141.159 64.4946C141.416 64.4946 141.544 64.5106 141.672 64.5186C141.856 64.5426 142.049 64.5586 142.425 64.5586C142.978 64.5586 143.315 64.4146 143.515 64.3265C143.579 64.2999 143.635 64.2865 143.684 64.2865C144.164 64.2865 144.461 64.1905 144.717 64.0945C144.83 64.0545 144.838 64.0465 144.886 64.0224L144.958 64.0625C145.166 64.1985 145.559 64.4546 146.208 64.4546C146.825 64.4546 147.226 64.1905 147.466 63.9904C147.706 64.1985 148.107 64.4626 148.732 64.4626C149.229 64.4626 149.518 64.3666 149.71 64.3105C149.83 64.2705 149.854 64.2625 149.99 64.2625C150.247 64.2625 150.375 64.2785 150.503 64.2865C150.688 64.3025 150.88 64.3265 151.249 64.3265C151.81 64.3265 152.154 64.1745 152.355 64.0785C152.379 64.0625 152.411 64.0545 152.515 64.0384C152.755 64.0384 152.875 64.0545 152.996 64.0705C153.188 64.0945 153.388 64.1185 153.773 64.1185C154.358 64.1185 154.703 63.9424 154.911 63.8384C154.919 63.8384 154.927 63.8304 154.943 63.8224C155.159 64.0224 155.592 64.3666 156.313 64.3666L156.385 64.4066C156.666 64.5586 157.003 64.7267 157.564 64.7267C158.349 64.7267 158.79 64.2865 159.006 64.0464C159.174 64.0464 159.278 64.0545 159.391 64.0625C159.567 64.0705 159.743 64.0865 160.096 64.0865C160.248 64.0865 160.288 64.0945 160.408 64.1345C160.657 64.2065 160.913 64.2705 161.362 64.2705C161.987 64.2705 162.5 63.7664 162.5 63.1341C162.5 62.5019 161.995 61.9977 161.362 61.9977V61.9417ZM83.3152 39.5658C83.3553 39.2217 83.4755 38.9416 83.5716 38.7175C83.6037 38.6455 83.6438 38.5734 83.6598 38.4934C83.6838 38.4054 83.6999 38.3093 83.7159 38.2213C83.764 37.9812 83.812 37.7091 83.9242 37.421C84.1326 36.8608 84.6054 36.6207 84.8859 36.4687C84.8859 36.4687 84.9019 36.4207 84.9099 36.3967C84.9821 36.2206 85.0622 36.0045 85.1984 35.7804C85.1984 35.7564 85.1984 35.7244 85.2065 35.7004C85.2385 35.4283 85.3026 34.9642 85.6472 34.58C85.9598 34.2199 86.3605 34.0998 86.6169 34.0118C86.649 34.0038 86.681 33.9958 86.7131 33.9798C86.9535 33.7877 87.2019 33.6757 87.3782 33.5957C87.4263 33.5717 87.4744 33.5557 87.5225 33.5317C87.5385 33.5076 87.5545 33.4756 87.5786 33.4516C87.7228 33.2435 87.9392 32.9234 88.3399 32.7154C88.6845 32.5313 89.005 32.3872 89.3336 32.2672C89.4137 32.2352 89.5019 32.1952 89.582 32.1632C89.8064 32.0671 90.0548 31.9551 90.3514 31.8831C90.752 31.787 91.1047 31.8511 91.3371 31.8831C91.3771 31.8831 91.4092 31.8991 91.4492 31.8991C91.4813 31.8831 91.5134 31.8671 91.5454 31.8591C91.7698 31.763 92.0984 31.611 92.5151 31.611C93.012 31.611 93.3806 31.8431 93.605 31.9791C93.629 31.9951 93.6531 32.0111 93.6691 32.0191C93.9816 32.0671 94.2461 32.1312 94.5105 32.1952H94.5346C94.5346 32.1952 94.5987 32.1952 94.6388 32.1952C94.8952 32.1632 95.2799 32.1071 95.7046 32.2672C95.7607 32.2832 95.8328 32.2912 95.905 32.2992C96.1374 32.3392 96.4579 32.3872 96.7785 32.5553C96.8506 32.5953 96.9387 32.6193 97.0189 32.6513C97.2433 32.7314 97.5238 32.8354 97.7962 33.0195C98.0607 33.2035 98.261 33.4276 98.4213 33.6037C98.4854 33.6757 98.5415 33.7477 98.6056 33.8037C98.9101 34.0678 99.1746 34.3319 99.391 34.58C99.5913 34.8041 99.7436 35.0442 99.8798 35.2523C99.9279 35.3323 99.976 35.4043 100.032 35.4763C100.24 35.7804 100.441 36.1086 100.601 36.4207C100.793 36.7808 100.817 37.1409 100.833 37.381C100.833 37.437 100.833 37.493 100.849 37.5491C100.874 37.5971 100.914 37.6771 100.946 37.7571C101.042 37.9572 101.162 38.2133 101.234 38.5174C101.306 38.8055 101.33 39.0776 101.346 39.3177C101.346 39.4057 101.362 39.5018 101.37 39.5898C101.37 39.6058 101.402 39.6538 101.426 39.7098C101.523 39.9339 101.659 40.262 101.659 40.6702C101.659 41.1103 101.483 41.4545 101.37 41.6865C101.37 41.7025 101.354 41.7185 101.346 41.7346L101.362 41.7826C101.435 42.0387 101.539 42.4228 101.426 42.871L101.402 42.975C101.33 43.2711 101.25 43.6072 101.122 43.9353L101.034 44.1834C100.946 44.4315 100.849 44.7036 100.705 44.9757C100.537 45.2958 100.329 45.5919 100.144 45.856C99.8798 46.2401 99.5913 46.4242 99.383 46.5683C99.3349 46.6003 99.2788 46.6323 99.2387 46.6723C99.0063 46.9364 98.7419 47.1685 98.4774 47.4086C98.4053 47.4726 98.3412 47.5366 98.2771 47.6086C98.1168 47.7687 97.9244 47.9768 97.668 48.1528C97.6039 48.2008 97.5478 48.2569 97.4837 48.3129C97.3074 48.4809 97.091 48.689 96.7945 48.8411C96.522 48.9851 96.2576 49.0732 96.0171 49.1532C95.929 49.1852 95.8408 49.2092 95.7527 49.2412C95.4642 49.3532 95.1677 49.4173 94.9112 49.4813L94.6868 49.5373C94.3903 49.6093 94.1179 49.6253 93.8774 49.6413C93.7813 49.6413 93.6851 49.6494 93.589 49.6654C93.1081 49.7214 92.7235 49.5453 92.4911 49.4413C92.459 49.4253 92.435 49.4173 92.4109 49.4013C92.1465 49.4013 91.9141 49.3693 91.6977 49.3452C91.6977 49.3452 91.6897 49.3452 91.6816 49.3452C91.4573 49.4813 91.0806 49.7214 90.6158 49.7214C90.5116 49.7214 90.3994 49.7054 90.2792 49.6814C89.7984 49.5613 89.5099 49.2412 89.3176 48.9851C89.013 49.0331 88.6123 49.0651 88.1956 48.8491C87.9232 48.705 87.6988 48.521 87.5145 48.3769C87.4423 48.3129 87.3622 48.2569 87.2901 48.2008C86.8814 47.9127 86.705 47.5046 86.6089 47.2485C86.3685 47.1605 85.9998 47.0244 85.7033 46.6883C85.6713 46.6643 85.6232 46.6323 85.5671 46.6003C85.3587 46.4642 85.0702 46.2722 84.8458 45.952C84.6134 45.6159 84.5413 45.2718 84.4932 45.0157C84.4852 44.9597 84.4772 44.8957 84.4532 44.8477C84.3169 44.5916 84.2528 44.3115 84.1967 44.0874C84.1887 44.0394 84.1807 43.9994 84.1647 43.9513C84.1486 43.9353 84.1326 43.9273 84.1166 43.9113C83.9082 43.7273 83.5556 43.4071 83.4274 42.903C83.3152 42.4548 83.4274 42.0547 83.4995 41.7986C83.4995 41.7826 83.5075 41.7586 83.5155 41.7426C83.5075 41.7266 83.4995 41.7105 83.4835 41.6865C83.3713 41.4545 83.203 41.1103 83.203 40.6782C83.203 40.302 83.227 39.9099 83.2671 39.5578L83.3152 39.5658ZM61.245 39.5658C61.2851 39.2217 61.4053 38.9416 61.5015 38.7175C61.5335 38.6455 61.5656 38.5734 61.5896 38.5014C61.6137 38.4054 61.6297 38.3173 61.6457 38.2213C61.6938 37.9812 61.7419 37.7091 61.8541 37.421C62.0625 36.8688 62.5353 36.6207 62.8077 36.4767C62.8158 36.4527 62.8238 36.4287 62.8318 36.4047C62.8959 36.2286 62.9841 36.0125 63.1203 35.7884C63.1203 35.7644 63.1203 35.7324 63.1283 35.7084C63.1604 35.4363 63.2245 34.9802 63.5611 34.588C63.8816 34.2279 64.2743 34.0998 64.5387 34.0198C64.5708 34.0118 64.6028 33.9958 64.6349 33.9878C64.8753 33.7957 65.1237 33.6837 65.3001 33.6037C65.3481 33.5797 65.3962 33.5637 65.4443 33.5396C65.4603 33.5156 65.4764 33.4836 65.5004 33.4596C65.6446 33.2516 65.861 32.9314 66.2617 32.7234C66.6063 32.5393 66.9269 32.3952 67.2554 32.2752C67.3356 32.2432 67.4237 32.2032 67.5039 32.1712C67.7283 32.0751 67.9767 31.9631 68.2732 31.8911C68.6739 31.795 69.0265 31.8591 69.2589 31.8911C69.299 31.8911 69.331 31.9071 69.3711 31.9071C69.4031 31.8911 69.4352 31.8751 69.4673 31.8671C69.6916 31.771 70.0202 31.619 70.4369 31.619C70.9338 31.619 71.3024 31.8511 71.5268 31.9871C71.5509 32.0031 71.5749 32.0191 71.5909 32.0271C71.9035 32.0751 72.1679 32.1392 72.4324 32.2032H72.4564C72.4564 32.2032 72.5205 32.2032 72.5606 32.2032C72.817 32.1712 73.2017 32.1152 73.6264 32.2752C73.6906 32.2912 73.7547 32.2992 73.8268 32.3152C74.0592 32.3552 74.3797 32.4033 74.7003 32.5713C74.7724 32.6113 74.8606 32.6353 74.9407 32.6673C75.1651 32.7474 75.4456 32.8514 75.7261 33.0355C75.9905 33.2195 76.1909 33.4436 76.3431 33.6197C76.4072 33.6917 76.4633 33.7637 76.5275 33.8197C76.824 34.0838 77.0884 34.3479 77.3128 34.596C77.5132 34.8281 77.6734 35.0682 77.8097 35.2763C77.8578 35.3483 77.9058 35.4283 77.9539 35.5003C78.1543 35.7884 78.3546 36.1166 78.5229 36.4447C78.7152 36.8048 78.7393 37.1729 78.7553 37.405C78.7553 37.461 78.7553 37.5171 78.7713 37.5731C78.7874 37.6131 78.8274 37.7011 78.8675 37.7812C78.9637 37.9812 79.0839 38.2373 79.156 38.5414C79.2281 38.8375 79.2522 39.1016 79.2682 39.3417C79.2682 39.4297 79.2842 39.5258 79.2922 39.6138C79.2922 39.6298 79.3243 39.6778 79.3483 39.7338C79.4445 39.9579 79.5807 40.286 79.5807 40.6942C79.5807 41.1343 79.4044 41.4785 79.2922 41.7105C79.2922 41.7265 79.2762 41.7426 79.2682 41.7586L79.2842 41.8066C79.3563 42.0627 79.4525 42.4468 79.3483 42.895L79.3163 43.023C79.2442 43.3111 79.164 43.6472 79.0438 43.9673L78.9557 44.2074C78.8675 44.4555 78.7713 44.7276 78.6271 44.9997C78.4588 45.3118 78.2584 45.6079 78.0821 45.864L78.026 45.944C77.8017 46.2722 77.5132 46.4562 77.3048 46.5923C77.2567 46.6243 77.2006 46.6563 77.1525 46.6963C76.9201 46.9604 76.6557 47.1925 76.3912 47.4326C76.3271 47.4886 76.263 47.5606 76.1909 47.6246C76.0306 47.7927 75.8383 47.9928 75.5818 48.1688C75.5177 48.2088 75.4616 48.2729 75.4055 48.3289C75.2292 48.4969 75.0128 48.705 74.7083 48.8651C74.4439 49.0091 74.1714 49.0972 73.931 49.1772C73.8428 49.2092 73.7547 49.2332 73.6665 49.2652C73.378 49.3773 73.0815 49.4413 72.8251 49.5053L72.6007 49.5613C72.3042 49.6334 72.0317 49.6494 71.7913 49.6654C71.6951 49.6654 71.5989 49.6734 71.5028 49.6894C71.03 49.7454 70.6373 49.5693 70.3969 49.4653C70.3648 49.4493 70.3408 49.4413 70.3167 49.4253C70.0523 49.4253 69.8199 49.3933 69.6035 49.3693C69.6035 49.3693 69.5955 49.3693 69.5875 49.3773C69.3631 49.5133 68.9864 49.7534 68.5216 49.7534C68.4174 49.7534 68.3052 49.7374 68.185 49.7134C67.7042 49.5933 67.4157 49.2732 67.2234 49.0171C66.9189 49.0651 66.5101 49.0972 66.1014 48.8811C65.829 48.737 65.6046 48.553 65.4203 48.4089C65.3481 48.3449 65.268 48.2889 65.1959 48.2329C64.7872 47.9448 64.6109 47.5366 64.5147 47.2805C64.2743 47.1925 63.9056 47.0564 63.6011 46.7123C63.5771 46.6883 63.521 46.6563 63.4649 46.6243C63.2565 46.4882 62.968 46.2962 62.7436 45.9761C62.5112 45.6399 62.4471 45.2958 62.391 45.0477C62.383 44.9917 62.367 44.9277 62.351 44.8717C62.2147 44.6156 62.1506 44.3355 62.0945 44.1114C62.0865 44.0634 62.0785 44.0234 62.0625 43.9753C62.0464 43.9593 62.0304 43.9513 62.0144 43.9353C61.806 43.7513 61.4534 43.4392 61.3252 42.927C61.213 42.4708 61.3252 42.0787 61.3973 41.8146C61.3973 41.7986 61.4053 41.7746 61.4133 41.7586C61.4053 41.7426 61.3973 41.7266 61.3813 41.7025C61.2691 41.4705 61.1008 41.1263 61.1008 40.6942C61.1008 40.3261 61.1248 39.9259 61.1649 39.5738L61.245 39.5658Z" fill="#E4EAF1"/>
<path d="M118.953 109.631C118.993 109.423 119.025 109.198 119.009 108.83C118.993 108.446 118.937 108.23 118.905 108.07C118.881 107.99 118.865 107.902 118.857 107.734L118.801 106.638C118.785 106.253 118.728 106.037 118.688 105.877C118.664 105.797 118.648 105.709 118.64 105.549C118.632 105.333 118.64 105.229 118.64 105.125C118.648 104.957 118.664 104.789 118.64 104.453C118.64 104.405 118.648 104.354 118.664 104.301C118.72 104.125 118.817 103.829 118.793 103.348C118.793 103.228 118.793 103.204 118.817 103.1C118.865 102.884 118.913 102.636 118.897 102.244C118.881 101.86 118.825 101.636 118.785 101.476C118.76 101.364 118.744 101.308 118.736 101.148C118.728 100.98 118.736 100.891 118.752 100.803C118.776 100.643 118.809 100.427 118.785 100.043C118.776 99.7791 118.768 99.651 118.768 99.515C118.768 99.3709 118.768 99.2269 118.752 98.9388C118.728 98.4426 118.584 98.1385 118.424 97.8504C118.416 97.6423 118.424 97.5383 118.424 97.4343C118.432 97.2662 118.448 97.0901 118.432 96.754C118.416 96.3539 118.344 96.1138 118.272 95.8977C118.24 95.8017 118.232 95.7777 118.224 95.6656C118.216 95.4816 118.224 95.3935 118.24 95.2975C118.256 95.1374 118.28 94.9294 118.264 94.5612C118.248 94.2571 118.232 94.1051 118.216 93.953C118.208 93.833 118.191 93.7049 118.183 93.4649C118.167 93.0807 118.103 92.8566 118.039 92.6406C118.007 92.5365 117.999 92.5045 117.991 92.3685C117.983 92.1444 117.991 92.0323 117.991 91.9203C117.991 91.7603 118.007 91.5922 117.999 91.2561C118.087 91.064 118.264 90.7119 118.232 90.1517C118.208 89.7115 118.119 89.4554 118.023 89.2234C117.996 89.1647 117.983 89.1113 117.983 89.0633C117.983 88.9753 117.983 88.9673 118.007 88.8712C118.071 88.6391 118.135 88.3751 118.119 87.9509C118.103 87.5988 118.071 87.4147 118.031 87.2387C118.015 87.1426 117.991 87.0466 117.983 86.8465C117.983 86.8225 117.983 86.8065 118.007 86.7105C118.079 86.4384 118.272 85.7101 117.55 85.0059C116.837 84.3096 116.148 84.4937 115.851 84.5737C115.763 84.5977 115.739 84.6057 115.699 84.6057C115.563 84.6057 115.523 84.5977 115.419 84.5657C115.21 84.5097 114.986 84.4697 114.617 84.4617C114.136 84.4617 113.832 84.5737 113.535 84.7017C113.493 84.7017 113.445 84.6911 113.391 84.6697C113.223 84.6057 112.926 84.4937 112.454 84.4857C112.125 84.4857 111.949 84.4937 111.788 84.5177C111.684 84.5257 111.58 84.5337 111.372 84.5337C110.859 84.5337 110.57 84.6537 110.282 84.7898C110.033 84.7898 109.905 84.7818 109.777 84.7738C109.633 84.7738 109.488 84.7578 109.192 84.7578C109.024 84.7578 108.944 84.7418 108.855 84.7258C108.695 84.6938 108.479 84.6537 108.102 84.6457C107.982 84.6457 107.958 84.6377 107.854 84.6057C107.645 84.5417 107.405 84.4857 107.012 84.4777C106.844 84.4777 106.74 84.4697 106.652 84.4537C106.652 84.3496 106.66 84.3336 106.7 84.2456C106.78 84.0295 106.86 83.7894 106.884 83.3893C106.916 82.8771 106.78 82.541 106.684 82.3329C106.828 82.1408 107.044 81.8047 107.084 81.2365C107.108 80.8924 107.084 80.7163 107.084 80.5403C107.084 80.4442 107.068 80.3482 107.084 80.1561C107.116 79.628 106.964 79.2758 106.836 79.0357C106.836 79.0117 106.852 78.9717 106.852 78.9717C106.964 78.7476 107.092 78.4595 107.116 77.9954C107.116 77.9474 107.132 77.9153 107.156 77.8273C107.245 77.5312 107.453 76.835 106.74 76.1067C106.091 75.4425 105.626 75.4025 104.961 75.4105H104.856C104.239 75.4185 103.855 75.7066 103.606 75.9306C103.462 75.9306 103.358 75.9306 103.262 75.9306C103.117 75.9306 102.965 75.9306 102.677 75.9306C102.332 75.9306 102.164 75.9547 101.995 75.9787C101.891 75.9947 101.795 76.0027 101.587 76.0107C101.298 76.0107 101.154 76.0187 101.01 76.0267C100.882 76.0267 100.753 76.0347 100.497 76.0427C100.256 76.0427 100.136 76.0427 100.016 76.0427C99.8638 76.0427 99.7115 76.0267 99.407 76.0427C99.1586 76.0427 99.0304 76.0427 98.9102 76.0427C98.79 76.0427 98.6617 76.0427 98.4614 76.0427C98.253 75.8746 97.8363 75.5865 97.2192 75.5945C96.6503 75.6025 96.2816 75.8266 96.0492 75.9947C95.905 75.9947 95.8168 75.9867 95.7287 75.9787C95.5604 75.9627 95.3921 75.9467 95.0555 75.9467C94.5747 75.9467 94.2862 76.0747 93.9736 76.2107C93.7332 76.2107 93.613 76.2107 93.4928 76.2107C93.3405 76.2107 93.1883 76.1947 92.8837 76.2027C92.8116 76.2027 92.8116 76.2027 92.7235 76.1707C92.4911 76.0907 92.2186 76.0107 91.7859 76.0187C91.3771 76.0187 91.1367 76.0907 90.9204 76.1627C90.8242 76.1947 90.8082 76.1947 90.704 76.2027C90.4876 76.2027 90.3834 76.2027 90.2792 76.1867C90.111 76.1707 89.9427 76.1547 89.558 76.1387C89.3096 76.0267 88.997 75.8986 88.5242 75.9146C88.0514 75.9146 87.7629 76.0347 87.5866 76.0987C87.5332 76.12 87.4824 76.1307 87.4343 76.1307L87.3542 76.1067C87.1138 76.0027 86.8012 75.8826 86.3444 75.8986C85.7594 75.9066 85.3908 76.1467 85.1504 76.3308C85.0141 76.3308 84.926 76.3228 84.8459 76.3148C84.6856 76.2988 84.5333 76.2828 84.2448 76.2908C84.0525 76.1707 83.6999 75.9467 83.1149 75.9467C83.1068 75.9467 83.0908 75.9467 83.0828 75.9467C82.9225 75.9467 82.8744 75.9467 82.7703 75.9146C82.5699 75.8746 82.3455 75.8426 81.9929 75.8426C81.5922 75.8426 81.3518 75.9146 81.1354 75.9787C81.0393 76.0107 81.0232 76.0107 80.911 76.0187L80.8309 75.9947C80.5905 75.8906 80.286 75.7786 79.8212 75.7866C79.4926 75.7866 79.3243 75.8106 79.164 75.8266C79.0599 75.8426 78.9477 75.8506 78.7393 75.8506C78.2825 75.8506 77.994 75.9627 77.7616 76.0667L77.6574 76.0907C77.3529 76.0907 77.2006 76.1067 77.0484 76.1147C76.9282 76.1227 76.808 76.1307 76.5675 76.1387C76.1108 76.1387 75.8223 76.2508 75.5899 76.3548L75.4937 76.3788C75.3094 76.2748 74.9568 76.0907 74.3878 76.0987C74.0592 76.0987 73.8989 76.1227 73.7387 76.1387C73.6265 76.1467 73.5223 76.1627 73.3059 76.1627C72.9693 76.1627 72.777 76.1947 72.5766 76.2348C72.4965 76.2508 72.4084 76.2668 72.2481 76.2668C72.0638 76.1627 71.7272 75.9627 71.1342 75.9787C70.6133 75.9787 70.2847 76.1547 70.0923 76.2668C69.892 76.1387 69.5554 75.9307 68.9704 75.9547C68.4255 75.9547 68.0648 76.1787 67.8244 76.3708C67.6241 76.2668 67.3276 76.1067 66.8067 76.1387C66.2457 76.1387 65.9011 76.3468 65.6607 76.5068C65.3321 76.5149 65.1318 76.5549 64.9394 76.6029C64.8513 76.6269 64.8032 76.6349 64.699 76.6349C64.5067 76.5149 64.1701 76.2988 63.553 76.3148C63.0802 76.3148 62.7837 76.4348 62.6154 76.4988C62.562 76.5202 62.5139 76.5309 62.4712 76.5309C62.1266 76.5309 61.9583 76.5629 61.79 76.5869C61.6858 76.6029 61.5897 76.6189 61.3893 76.6189C61.3092 76.6189 61.3012 76.6189 61.213 76.5869C60.9886 76.5149 60.7322 76.4348 60.3074 76.4508C60.2193 76.4508 60.2113 76.4508 60.1151 76.4188C59.8907 76.3468 59.6503 76.2748 59.2176 76.2828C58.7447 76.2828 58.4482 76.4108 58.1758 76.5469C57.9754 76.4188 57.6308 76.2268 57.0779 76.2268C57.0698 76.2268 57.0538 76.2268 57.0458 76.2268C56.597 76.2268 56.3165 76.3308 56.0841 76.4268L55.9639 76.4588L55.8277 76.4348C55.6434 76.3628 55.419 76.2908 55.0984 76.2748C55.2427 76.4188 55.411 76.6429 55.5472 76.995C55.6995 77.4112 55.7075 77.6993 55.6995 77.9394L55.7075 78.0194C55.7716 78.1954 55.8197 78.2755 55.8598 78.3635C55.9078 78.4595 55.9639 78.5796 56.028 78.7316C56.4608 78.7236 56.7333 78.6276 56.9576 78.5316C56.9576 78.5316 56.9977 78.5236 57.0298 78.5156C57.2301 78.6436 57.5667 78.8837 58.1677 78.8437C58.6646 78.8437 58.9611 78.7076 59.2496 78.5636C59.3378 78.5636 59.3458 78.5636 59.4419 78.5956C59.6663 78.6676 59.9228 78.7396 60.3395 78.7316C60.4196 78.7316 60.4276 78.7316 60.5158 78.7636C60.7402 78.8357 60.9806 78.9077 61.4214 78.8997C61.766 78.8997 61.9343 78.8677 62.1025 78.8437C62.1987 78.8277 62.3029 78.8197 62.5032 78.8117C62.9841 78.8117 63.2726 78.6916 63.4409 78.6276C63.4889 78.6116 63.505 78.6036 63.537 78.5956C63.7294 78.7156 64.098 78.9397 64.683 78.9157C65.0516 78.9157 65.268 78.8677 65.4764 78.8197C65.5806 78.7957 65.6206 78.7877 65.7729 78.7797C66.2938 78.7797 66.6384 78.5956 66.8708 78.4435C67.0631 78.5476 67.4157 78.7236 67.9366 78.7076C68.4655 78.7076 68.8181 78.4996 69.0666 78.3075C69.2749 78.4275 69.5875 78.5956 70.1004 78.5716C70.6373 78.5716 70.9739 78.3875 71.1662 78.2755C71.3585 78.3795 71.6951 78.5876 72.2641 78.5556C72.6007 78.5556 72.793 78.5236 72.9934 78.4836C73.0815 78.4675 73.1697 78.4515 73.354 78.4515C73.6826 78.4515 73.8428 78.4275 74.0031 78.4115C74.1153 78.4035 74.2195 78.3875 74.4278 78.3955C74.6122 78.4996 74.9808 78.6916 75.5338 78.6756C75.9905 78.6756 76.279 78.5636 76.5114 78.4595L76.6156 78.4355C76.9202 78.4355 77.0724 78.4195 77.2247 78.4115C77.3449 78.4035 77.4651 78.3955 77.6975 78.3875C78.1543 78.3875 78.4428 78.2755 78.6752 78.1714L78.7794 78.1474C79.1079 78.1474 79.2682 78.1234 79.4365 78.1074C79.5407 78.0914 79.6529 78.0834 79.8693 78.0834L79.9494 78.1074C80.1898 78.2115 80.5023 78.3315 80.9591 78.3155C81.3598 78.3155 81.6083 78.2435 81.8246 78.1794C81.9208 78.1474 81.9368 78.1474 82.049 78.1394C82.1933 78.1394 82.2574 78.1394 82.3616 78.1714C82.5539 78.2115 82.7462 78.2435 83.0668 78.2435C83.2671 78.3715 83.6037 78.6036 84.2288 78.5876C84.4371 78.5876 84.5413 78.5876 84.6455 78.6036C84.8138 78.6196 84.9741 78.6436 85.3107 78.6276C85.8716 78.6276 86.2322 78.3955 86.4727 78.2195C86.7131 78.3235 87.0096 78.4275 87.4824 78.4275C87.9552 78.4275 88.2437 78.3075 88.42 78.2435C88.5002 78.2115 88.5002 78.2115 88.6284 78.2275C88.8768 78.3395 89.1974 78.4675 89.6622 78.4515C89.8786 78.4515 89.9827 78.4515 90.0869 78.4675C90.2552 78.4836 90.4235 78.4996 90.7521 78.4916C91.1528 78.4916 91.4012 78.4195 91.6176 78.3475C91.7137 78.3155 91.7298 78.3155 91.8339 78.3075C91.9061 78.3075 91.906 78.3075 91.9942 78.3395C92.2266 78.4195 92.475 78.4996 92.9318 78.4916C93.1722 78.4916 93.2924 78.4916 93.4127 78.4916C93.5649 78.4916 93.7172 78.5076 94.0217 78.4996C94.5025 78.4996 94.791 78.3715 95.1036 78.2355C95.3039 78.2355 95.4161 78.2355 95.5123 78.2515C95.6806 78.2675 95.8489 78.2835 96.1854 78.2835C96.6663 78.2835 96.9948 78.1154 97.2272 77.9634C97.4516 78.1314 97.8042 78.3395 98.3572 78.3235C98.6056 78.3235 98.7339 78.3235 98.8541 78.3235C99.0063 78.3235 99.1506 78.3315 99.4471 78.3235C99.6875 78.3235 99.8077 78.3235 99.9279 78.3235C100.08 78.3235 100.224 78.3395 100.537 78.3235C100.825 78.3235 100.97 78.3155 101.114 78.3075C101.242 78.3075 101.37 78.2995 101.627 78.2915C101.963 78.2915 102.14 78.2595 102.308 78.2435C102.412 78.2275 102.508 78.2115 102.717 78.2115C102.973 78.2115 103.101 78.2115 103.23 78.2115C103.374 78.2115 103.518 78.2115 103.807 78.2115C104.279 78.2115 104.608 78.0434 104.848 77.8673C104.848 77.8673 104.848 77.8753 104.848 77.8833L104.816 77.9714C104.704 78.1954 104.576 78.4836 104.552 78.9477C104.52 79.4919 104.68 79.844 104.8 80.0841C104.784 80.4042 104.8 80.5723 104.808 80.7403C104.808 80.8204 104.824 80.9084 104.808 81.0525C104.672 81.2365 104.424 81.5806 104.392 82.1729C104.36 82.717 104.512 83.0612 104.608 83.2692C104.608 83.3653 104.6 83.3813 104.56 83.4773C104.48 83.6934 104.4 83.9335 104.376 84.3336C104.352 84.7978 104.44 85.0939 104.528 85.334L104.544 85.422C104.528 85.7341 104.528 85.8942 104.528 86.0542C104.528 86.1663 104.528 86.2783 104.52 86.5024C104.52 86.5904 104.52 86.5904 104.48 86.6865C104.392 86.9025 104.303 87.1506 104.279 87.5668C104.255 87.9269 104.279 88.143 104.32 88.343C104.336 88.4471 104.344 88.4951 104.311 88.7112C104.191 88.9433 104.055 89.2314 104.023 89.7035L103.991 89.8156C103.887 90.0396 103.767 90.3117 103.743 90.7679L103.686 91.8403C103.654 92.3205 103.807 92.6726 103.959 92.9287C103.775 93.1447 103.566 93.4889 103.534 94.001C103.502 94.4892 103.614 94.8013 103.735 95.0974C103.71 95.4976 103.759 95.7457 103.807 95.9617C103.807 95.9938 103.823 96.0178 103.823 96.0418C103.63 96.2418 103.318 96.61 103.286 97.2422C103.246 97.8664 103.486 98.2666 103.654 98.5226C103.654 98.5467 103.654 98.5627 103.638 98.6187C103.574 98.8748 103.51 99.1869 103.606 99.6671C103.71 100.203 103.975 100.507 104.167 100.699C104.199 100.859 104.207 100.956 104.223 101.044C104.239 101.188 104.263 101.332 104.32 101.62C104.384 101.956 104.456 102.148 104.528 102.332C104.536 102.356 104.544 102.38 104.56 102.404C104.44 102.588 104.271 102.876 104.239 103.26C104.231 103.26 104.215 103.26 104.207 103.26C104.079 103.26 103.951 103.26 103.686 103.26C103.222 103.26 102.933 103.364 102.701 103.468C102.701 103.468 102.661 103.476 102.637 103.484C102.444 103.372 102.092 103.164 101.523 103.164C101.042 103.164 100.697 103.324 100.465 103.476C100.24 103.316 99.8878 103.116 99.3589 103.116C98.8861 103.116 98.5976 103.22 98.4293 103.284C98.3759 103.306 98.3251 103.316 98.2771 103.316C97.8123 103.316 97.4997 103.444 97.2914 103.548C97.075 103.372 96.6983 103.124 96.1133 103.124C95.5283 103.124 95.2158 103.308 95.0315 103.42C94.7189 103.42 94.5667 103.428 94.4144 103.444C94.2942 103.444 94.182 103.46 93.9496 103.46C93.5569 103.46 93.3245 103.516 93.1081 103.572C93.012 103.596 92.9799 103.604 92.8597 103.604C92.7395 103.604 92.7235 103.604 92.6193 103.572C92.4269 103.516 92.2106 103.468 91.882 103.46C91.6817 103.308 91.305 103.044 90.6799 103.044C90.135 103.044 89.7904 103.228 89.55 103.364C89.1012 103.364 88.8207 103.484 88.5483 103.604L88.4441 103.588C88.2037 103.476 87.9071 103.356 87.4183 103.356C87.1619 103.356 87.0336 103.356 86.9054 103.356C86.7612 103.356 86.6169 103.356 86.3284 103.356C86.2322 103.356 86.2242 103.356 86.1281 103.324C85.9037 103.252 85.6553 103.188 85.2465 103.188C84.934 103.188 84.7737 103.196 84.6215 103.212C84.5093 103.22 84.3891 103.228 84.1647 103.228C83.6838 103.228 83.3392 103.396 83.0988 103.556C82.8744 103.38 82.5138 103.188 81.9929 103.188C81.5281 103.188 81.1996 103.34 80.9591 103.492C80.7267 103.3 80.3581 103.084 79.8292 103.084C79.4926 103.084 79.3323 103.1 79.164 103.116C79.0599 103.124 78.9557 103.14 78.7473 103.14C78.3466 103.14 78.0982 103.204 77.8818 103.268C77.7856 103.3 77.7696 103.3 77.6735 103.3C77.3449 103.3 77.1766 103.316 77.0163 103.332C76.9121 103.34 76.808 103.356 76.5195 103.332C76.279 103.228 75.9825 103.108 75.5097 103.108C75.1651 103.108 74.9968 103.132 74.8205 103.148C74.7244 103.164 74.6202 103.172 74.4198 103.172C73.923 103.172 73.6265 103.3 73.3299 103.428C73.1456 103.332 72.809 103.148 72.2481 103.148C71.6871 103.148 71.3265 103.356 71.0861 103.516C71.022 103.516 70.9819 103.5 70.9098 103.484C70.7495 103.444 70.5011 103.38 70.0843 103.38C70.0042 103.38 69.9962 103.38 69.908 103.348C69.6836 103.268 69.4272 103.196 69.0025 103.196C68.4415 103.196 68.0969 103.396 67.8565 103.548C67.7924 103.548 67.7683 103.54 67.6882 103.516C67.4798 103.46 67.2474 103.396 66.8788 103.396C66.6865 103.284 66.3339 103.068 65.7408 103.068C65.2279 103.068 64.8833 103.252 64.6349 103.412C64.4266 103.276 64.0739 103.1 63.5691 103.1C63.2004 103.1 62.9921 103.14 62.7837 103.188C62.6795 103.212 62.6315 103.22 62.4872 103.22C61.9182 103.22 61.5576 103.428 61.3172 103.596C61.0527 103.596 60.9005 103.612 60.7562 103.628C60.644 103.636 60.5318 103.652 60.3155 103.652C60.1231 103.652 60.0189 103.636 59.9228 103.628C59.7465 103.604 59.5782 103.58 59.2256 103.58C58.9451 103.58 58.8008 103.58 58.6646 103.58C58.5364 103.58 58.4001 103.58 58.1357 103.58C57.7991 103.58 57.6308 103.596 57.4705 103.62C57.3824 103.628 57.2942 103.636 57.15 103.644C56.9577 103.5 56.573 103.244 55.9639 103.244C55.451 103.244 55.1225 103.404 54.8821 103.54C54.6817 103.412 54.3371 103.228 53.7842 103.228C53.5037 103.228 53.3594 103.228 53.2152 103.228C53.087 103.228 52.9507 103.228 52.6943 103.228C52.2535 103.228 51.965 103.332 51.6925 103.452C51.4762 103.292 51.1075 103.052 50.5225 103.052C50.0016 103.052 49.6731 103.212 49.4326 103.348C49.2323 103.236 48.8957 103.052 48.3428 103.052C47.7898 103.052 47.4612 103.22 47.2529 103.332C47.0044 103.332 46.8762 103.332 46.748 103.324C46.6038 103.324 46.4515 103.316 46.163 103.316C45.6661 103.316 45.3296 103.468 45.0972 103.604C44.8888 103.468 44.5362 103.268 43.9832 103.268L43.871 103.244C43.871 103.244 43.7989 103.212 43.7588 103.196C43.8069 103.108 43.847 103.012 43.8871 102.9C44.0553 102.452 44.0473 102.132 44.0233 101.868V101.78C44.1275 101.508 44.1756 101.364 44.2236 101.228C44.2637 101.108 44.3038 100.98 44.3919 100.739C44.5362 100.339 44.5602 100.083 44.5762 99.9071C44.5843 99.8031 44.5843 99.7711 44.6323 99.659C44.6484 99.611 44.6778 99.5657 44.7205 99.523C44.8808 99.3309 45.0491 99.1149 45.2013 98.6987C45.2174 98.656 45.2441 98.6107 45.2815 98.5627C45.4017 98.4186 45.602 98.1865 45.7703 97.7384C45.9707 97.1782 45.8665 96.73 45.7463 96.4179C45.9146 96.2338 46.1069 96.0018 46.2592 95.5776C46.2752 95.5349 46.3019 95.4922 46.3393 95.4496C46.4595 95.3055 46.6679 95.0734 46.8362 94.6173C47.0044 94.1691 46.9964 93.857 46.9964 93.6649C46.9964 93.6062 47.0044 93.5556 47.0205 93.5129L47.4051 92.4805C47.4853 92.2564 47.5334 92.1444 47.5814 92.0404C47.6456 91.8963 47.7097 91.7522 47.8138 91.4641C48.0062 90.936 47.9421 90.5438 47.886 90.2637C47.9421 90.1117 47.9902 90.0316 48.0302 89.9516C48.1104 89.7996 48.1985 89.6395 48.3347 89.3034C48.487 89.1673 48.7755 88.9032 48.9678 88.3831C49.0079 88.279 49.0159 88.255 49.08 88.175C49.2163 87.9909 49.3525 87.7828 49.4887 87.4067C49.6009 87.0866 49.641 86.8545 49.649 86.6544C49.6089 86.5984 49.5609 86.5424 49.4647 86.4544C49.3926 86.3823 49.3765 86.3663 49.2964 86.3263C49.1201 86.2223 48.9198 86.1022 48.6633 85.8382C48.4149 85.5901 48.2947 85.414 48.1905 85.2379C48.1424 85.1579 48.1264 85.1259 48.0382 85.0379L47.7497 84.7498C47.7016 84.9178 47.6696 85.0459 47.6456 85.1819C47.6295 85.27 47.6135 85.358 47.5494 85.534C47.4051 85.9422 47.3811 86.2143 47.3811 86.4544C47.3811 86.5184 47.3704 86.5771 47.349 86.6304C47.309 86.7345 47.301 86.7585 47.2368 86.8385C47.1006 87.0226 46.9644 87.2306 46.8041 87.6148C46.6518 87.7508 46.3633 88.0149 46.171 88.5351C46.1069 88.7192 46.0588 88.8072 46.0107 88.9032C45.9306 89.0633 45.8424 89.2154 45.7222 89.5435C45.5299 90.0717 45.594 90.4638 45.6501 90.7439C45.578 90.936 45.5379 91.032 45.4898 91.136C45.4257 91.2801 45.3616 91.4241 45.2574 91.7122L45.0731 92.2084C45.025 92.3445 44.9689 92.4725 44.8728 92.7446C44.7045 93.1928 44.7125 93.5049 44.7125 93.6889C44.7125 93.7476 44.7045 93.7983 44.6884 93.841C44.6724 93.8837 44.6457 93.9263 44.6083 93.969C44.4881 94.1131 44.2797 94.3452 44.1114 94.8013L44.0473 94.8974C43.871 95.0814 43.6787 95.3215 43.5184 95.7537C43.3101 96.3219 43.4303 96.77 43.5505 97.0901C43.5505 97.0901 43.5505 97.0901 43.5425 97.0981C43.4223 97.2422 43.2219 97.4743 43.0536 97.9224C43.0376 97.9705 43.0082 98.0158 42.9655 98.0585C42.8052 98.2505 42.6369 98.4666 42.4846 98.8828C42.3404 99.2829 42.3163 99.539 42.3003 99.7151C42.2923 99.8191 42.2923 99.8511 42.2442 99.9632C42.1481 100.235 42.1 100.371 42.0519 100.507C42.0118 100.627 41.9717 100.755 41.8836 100.996C41.7153 101.444 41.7233 101.764 41.7474 102.02C41.7474 102.02 41.7474 102.06 41.7474 102.084C41.5791 102.22 41.2665 102.484 41.0742 103.02C41.0662 103.052 41.0582 103.06 41.0101 103.124C40.5773 103.732 40.5773 104.333 41.0261 104.973C41.2826 105.341 41.6111 105.557 42.0038 105.613C42.4526 105.677 42.7972 105.477 43.0055 105.317C43.2219 105.405 43.4864 105.501 43.8951 105.509C44.0954 105.645 44.456 105.885 45.0651 105.885C45.6181 105.885 45.9626 105.701 46.2031 105.557C46.4194 105.557 46.5396 105.557 46.6598 105.565C46.8041 105.565 46.9564 105.573 47.2529 105.573C47.7738 105.573 48.1104 105.413 48.3187 105.309C48.511 105.421 48.8556 105.621 49.4246 105.621C49.9055 105.621 50.226 105.485 50.4584 105.357C50.6748 105.517 51.0434 105.741 51.5964 105.741C52.0852 105.741 52.3817 105.621 52.6783 105.485C52.9668 105.485 53.103 105.485 53.2472 105.485C53.3674 105.485 53.4877 105.485 53.712 105.485C53.9044 105.605 54.265 105.829 54.858 105.829C55.3469 105.829 55.6754 105.677 55.9158 105.549C56.1242 105.693 56.4848 105.901 57.0378 105.901C57.3744 105.901 57.5427 105.885 57.7029 105.861C57.8071 105.853 57.9113 105.837 58.1197 105.837C58.4001 105.837 58.5444 105.837 58.6806 105.837C58.8088 105.837 58.9451 105.837 59.2095 105.837C59.4019 105.837 59.5061 105.853 59.6022 105.861C59.7785 105.885 59.9468 105.909 60.2994 105.909C60.62 105.909 60.7803 105.893 60.9485 105.877C61.0607 105.869 61.1729 105.853 61.3893 105.853C61.9583 105.853 62.3189 105.645 62.5593 105.477C62.8719 105.477 63.0722 105.437 63.2645 105.389C63.3447 105.373 63.3928 105.357 63.4729 105.357C63.6652 105.493 64.0419 105.741 64.6429 105.741C65.1718 105.741 65.5325 105.549 65.7729 105.373C65.9812 105.493 66.3098 105.653 66.8147 105.653C66.9269 105.653 66.9429 105.653 67.0471 105.685C67.2635 105.749 67.5039 105.805 67.9046 105.805C68.4655 105.805 68.8101 105.605 69.0506 105.453C69.0826 105.453 69.1066 105.461 69.1627 105.485C69.1627 105.485 69.1627 105.485 69.1708 105.485C69.1708 105.845 69.291 106.133 69.3951 106.341C69.3631 106.461 69.3391 106.541 69.307 106.622C69.2589 106.774 69.2028 106.926 69.1307 107.238C69.1066 107.35 69.0906 107.366 69.0425 107.454C68.9303 107.646 68.8181 107.87 68.722 108.262C68.6899 108.39 68.6739 108.414 68.6258 108.51C68.5457 108.662 68.4255 108.886 68.3293 109.294C68.2812 109.503 68.2411 109.607 68.2091 109.703C68.153 109.863 68.0969 110.015 68.0168 110.343C67.9927 110.431 67.9607 110.487 67.9366 110.543C67.7924 110.855 67.4638 111.575 68.129 112.416C68.2251 112.544 68.6258 112.984 69.2349 112.984C69.5154 112.984 69.8519 112.888 70.2206 112.624C70.2206 112.624 70.2366 112.616 70.2446 112.608C70.2927 112.608 70.3248 112.624 70.3889 112.632C70.5491 112.672 70.7815 112.752 71.2143 112.728C71.4707 112.728 71.599 112.728 71.7272 112.728C71.8714 112.728 72.0157 112.728 72.2962 112.728C72.4805 112.728 72.5847 112.736 72.6728 112.752C72.8491 112.776 73.0174 112.808 73.378 112.792C73.7707 112.792 74.0111 112.728 74.2195 112.664C74.3156 112.632 74.3397 112.632 74.4599 112.624C74.7724 112.624 74.9247 112.608 75.085 112.592C75.1972 112.584 75.3174 112.576 75.5498 112.568C75.67 112.568 75.686 112.568 75.7902 112.6C76.0066 112.656 76.239 112.72 76.6397 112.704C76.7679 112.704 76.7999 112.704 76.9041 112.736C77.1205 112.784 77.3609 112.824 77.7296 112.832C77.9379 112.832 78.0421 112.832 78.1463 112.848C78.3146 112.864 78.4829 112.88 78.8114 112.872C79.0358 112.872 79.14 112.872 79.2522 112.888C79.4125 112.896 79.5727 112.912 79.8933 112.904C80.4382 112.904 80.7989 112.688 81.0393 112.512C81.2797 112.624 81.5441 112.736 82.057 112.736C82.5218 112.736 82.8183 112.616 83.0508 112.512L84.2208 112.472C84.3169 112.472 84.325 112.472 84.4211 112.504C84.6455 112.568 84.8859 112.624 85.3026 112.632L85.4228 112.656C85.6553 112.744 85.9598 112.84 86.3925 112.832C86.9134 112.832 87.258 112.632 87.4984 112.456C87.7148 112.584 88.0674 112.744 88.5643 112.744C88.8207 112.744 88.9489 112.744 89.0691 112.744C89.2134 112.744 89.3576 112.744 89.6461 112.744C89.8785 112.744 89.9907 112.744 90.111 112.752C90.2632 112.76 90.4235 112.768 90.728 112.768C91.297 112.768 91.6576 112.536 91.89 112.376H92.8918C93.0039 112.368 93.02 112.376 93.1161 112.4C93.3325 112.464 93.597 112.512 93.9816 112.512L94.1179 112.536C94.3503 112.624 94.5987 112.704 95.0715 112.704C95.6645 112.696 96.0412 112.44 96.2816 112.247H97.2433C97.5238 112.231 97.66 112.231 97.8042 112.223H98.3332C98.4534 112.215 98.4854 112.223 98.5896 112.24C98.7579 112.28 99.0063 112.336 99.423 112.336C99.4952 112.336 99.4952 112.336 99.5833 112.368C99.8157 112.448 100.08 112.544 100.513 112.52C100.721 112.52 100.833 112.52 100.938 112.536C101.106 112.552 101.266 112.568 101.603 112.56C101.891 112.56 102.036 112.552 102.18 112.544C102.308 112.544 102.436 112.536 102.693 112.528C102.949 112.528 103.077 112.528 103.206 112.528C103.35 112.528 103.494 112.528 103.783 112.528C104.352 112.528 104.704 112.312 104.945 112.143C105.041 112.143 105.089 112.151 105.177 112.175C105.385 112.215 105.602 112.256 105.962 112.247L106.042 112.272C106.283 112.376 106.579 112.48 107.052 112.48C107.613 112.48 107.958 112.272 108.198 112.111C108.334 112.111 108.415 112.127 108.487 112.135C108.687 112.167 108.879 112.199 109.216 112.183L109.304 112.207C109.545 112.312 109.817 112.408 110.314 112.416C110.474 112.416 110.57 112.424 110.658 112.44C110.819 112.464 111.027 112.512 111.404 112.496C111.812 112.496 112.061 112.424 112.285 112.352C112.381 112.32 112.389 112.32 112.494 112.32C112.806 112.32 112.958 112.304 113.119 112.288C113.239 112.28 113.351 112.272 113.584 112.264C113.68 112.264 113.688 112.264 113.784 112.296C114.008 112.36 114.233 112.424 114.681 112.424L115.771 112.4C116.116 112.4 116.292 112.368 116.469 112.344C116.565 112.328 116.669 112.312 116.869 112.312C116.957 112.312 117.029 112.312 117.086 112.312C117.727 112.336 118.103 112.175 118.6 111.647C119.105 111.111 119.209 110.543 118.913 109.895C118.913 109.751 118.913 109.703 118.937 109.599L118.953 109.631ZM116.717 109.23C116.677 109.439 116.645 109.663 116.661 110.031C116.661 110.047 116.661 110.063 116.661 110.079C116.436 110.087 116.292 110.111 116.156 110.127C116.06 110.143 115.956 110.159 115.763 110.159L114.673 110.183C114.577 110.183 114.569 110.183 114.473 110.151C114.249 110.079 113.976 110.023 113.584 110.023C113.271 110.023 113.119 110.039 112.958 110.055C112.838 110.063 112.726 110.071 112.494 110.079C112.085 110.079 111.836 110.151 111.612 110.223C111.516 110.255 111.508 110.255 111.404 110.255C111.235 110.255 111.147 110.247 111.059 110.231C110.899 110.207 110.683 110.167 110.314 110.175L110.234 110.151C110.001 110.055 109.713 109.943 109.264 109.943C109.248 109.943 109.24 109.943 109.224 109.943C109.056 109.943 108.96 109.935 108.863 109.919C108.663 109.887 108.479 109.863 108.134 109.871C107.565 109.871 107.213 110.087 106.972 110.247V110.215C106.732 110.111 106.435 110.015 105.962 110.007C105.818 110.007 105.762 110.007 105.658 109.975C105.449 109.935 105.233 109.887 104.872 109.903C104.303 109.903 103.951 110.119 103.71 110.287C103.51 110.287 103.39 110.287 103.278 110.287C103.133 110.287 102.989 110.287 102.701 110.287C102.412 110.287 102.268 110.295 102.124 110.303C101.995 110.303 101.867 110.311 101.619 110.319C101.418 110.319 101.298 110.319 101.194 110.303C101.026 110.287 100.866 110.271 100.529 110.279C100.457 110.279 100.457 110.279 100.369 110.247C100.136 110.167 99.8959 110.079 99.4391 110.095C99.3269 110.095 99.2868 110.095 99.1826 110.063C99.0143 110.023 98.7739 109.967 98.3492 109.967C98.0687 109.967 97.9325 109.967 97.7882 109.975L96.1774 109.999C95.5844 109.999 95.2078 110.263 94.9673 110.455V110.423C94.7349 110.343 94.4625 110.247 94.0057 110.255C93.9015 110.255 93.8775 110.255 93.7813 110.223C93.5649 110.159 93.3245 110.111 92.9158 110.111H91.8339C91.2649 110.127 90.9043 110.351 90.6719 110.511C90.5116 110.511 90.3914 110.511 90.2953 110.503C90.143 110.495 89.9827 110.487 89.6702 110.487C89.4137 110.487 89.2855 110.487 89.1653 110.487C89.0371 110.487 88.9089 110.487 88.6765 110.487C88.4841 110.359 88.0915 110.103 87.4984 110.127C86.9134 110.135 86.5448 110.383 86.3044 110.575V110.551C86.072 110.463 85.7835 110.375 85.3347 110.375C85.2385 110.375 85.2305 110.375 85.1343 110.343C84.91 110.279 84.6695 110.223 84.2528 110.215L83.171 110.231C82.7062 110.231 82.4096 110.351 82.1772 110.455H82.057C81.8086 110.343 81.472 110.223 81.0072 110.223C80.4302 110.223 80.0616 110.463 79.8212 110.647C79.6689 110.647 79.5727 110.647 79.4846 110.631C79.3243 110.623 79.172 110.607 78.8515 110.615C78.6431 110.615 78.539 110.615 78.4348 110.599C78.2665 110.583 78.1062 110.567 77.7696 110.575C77.6334 110.575 77.6013 110.575 77.5052 110.543C77.2888 110.487 77.0484 110.431 76.6797 110.447C76.5675 110.447 76.5435 110.447 76.4473 110.415C76.231 110.359 75.9825 110.303 75.5979 110.311C75.2853 110.311 75.1331 110.327 74.9728 110.343C74.8606 110.351 74.7404 110.359 74.508 110.367C74.1153 110.367 73.8749 110.431 73.6665 110.495C73.5704 110.527 73.5463 110.527 73.4261 110.535C73.2498 110.535 73.1456 110.527 73.0495 110.511C72.8732 110.487 72.7049 110.463 72.3442 110.471C72.0878 110.471 71.9596 110.471 71.8314 110.471C71.6871 110.471 71.5429 110.471 71.2624 110.471C71.1342 110.471 71.1021 110.471 71.0059 110.439C70.8857 110.407 70.7174 110.367 70.477 110.351C70.5171 110.223 70.5652 110.071 70.6293 109.831C70.6613 109.703 70.6774 109.679 70.7254 109.583C70.8056 109.431 70.9258 109.206 71.022 108.798C71.046 108.686 71.062 108.67 71.1101 108.582C71.2223 108.39 71.3345 108.166 71.4307 107.774C71.4868 107.558 71.5188 107.454 71.5509 107.35C71.599 107.198 71.6551 107.046 71.7272 106.734C71.8233 106.325 71.7753 105.997 71.6791 105.733C71.9676 105.669 72.192 105.549 72.3523 105.445C72.5446 105.541 72.8732 105.709 73.3941 105.709C73.8909 105.709 74.1874 105.581 74.4839 105.445C74.8285 105.445 74.9968 105.421 75.1731 105.405C75.2773 105.389 75.3735 105.381 75.6459 105.405C75.8864 105.509 76.1829 105.629 76.6557 105.629C76.9843 105.629 77.1526 105.613 77.3128 105.597C77.417 105.589 77.5212 105.573 77.7376 105.573C78.1383 105.573 78.3867 105.509 78.6031 105.445C78.6992 105.413 78.7153 105.413 78.8114 105.413C79.14 105.413 79.3083 105.397 79.4766 105.381C79.5407 105.381 79.6048 105.365 79.701 105.365C79.9093 105.565 80.318 105.893 80.9752 105.893C81.456 105.893 81.7926 105.733 82.033 105.573C82.2574 105.749 82.618 105.941 83.1389 105.941C83.7399 105.941 84.1166 105.685 84.365 105.493C84.5894 105.493 84.7256 105.477 84.8539 105.469C84.9661 105.461 85.0863 105.453 85.3107 105.453C85.4068 105.453 85.4148 105.453 85.511 105.485C85.7354 105.557 85.9838 105.621 86.3925 105.621C86.649 105.621 86.7772 105.621 86.9054 105.621C87.0497 105.621 87.1939 105.621 87.5385 105.653C87.7789 105.765 88.0754 105.885 88.5643 105.885C89.0531 105.885 89.3336 105.773 89.566 105.669L89.6461 105.645C90.127 105.645 90.4555 105.501 90.688 105.373C90.8963 105.525 91.2649 105.733 91.8179 105.733C91.9301 105.733 91.9541 105.733 92.0503 105.765C92.2667 105.821 92.5071 105.885 92.8998 105.885C93.2924 105.885 93.5248 105.829 93.7412 105.773C93.8374 105.749 93.8694 105.741 93.9897 105.741C94.3022 105.741 94.4545 105.733 94.6067 105.717C94.7269 105.717 94.8391 105.701 95.0715 105.701C95.5524 105.701 95.8649 105.565 96.0652 105.461C96.2816 105.637 96.6583 105.877 97.2433 105.877C97.7882 105.877 98.1248 105.709 98.3251 105.597C98.798 105.597 99.0865 105.493 99.2548 105.429C99.2708 105.429 99.2788 105.421 99.2868 105.421C99.4952 105.589 99.8798 105.853 100.489 105.853C101.018 105.853 101.37 105.661 101.611 105.501C101.811 105.621 102.148 105.781 102.661 105.781C103.125 105.781 103.414 105.677 103.646 105.573L103.743 105.549C104.023 105.549 104.167 105.549 104.311 105.549C104.432 105.549 104.544 105.549 104.76 105.549C104.792 105.565 104.816 105.581 104.84 105.597C105.898 106.181 106.563 105.685 106.86 105.341C107.124 105.045 107.253 104.677 107.221 104.309C107.188 103.853 106.94 103.54 106.724 103.34C106.86 103.076 106.988 102.7 106.892 102.212C106.828 101.876 106.756 101.684 106.684 101.5C106.652 101.428 106.627 101.364 106.595 101.22C106.555 101.004 106.539 100.891 106.523 100.779C106.507 100.635 106.483 100.491 106.427 100.203C106.331 99.6911 106.083 99.3869 105.89 99.1949C105.93 99.0348 105.994 98.7627 105.97 98.3626C105.946 97.9625 105.818 97.6663 105.698 97.4503C105.882 97.2342 106.115 96.8901 106.147 96.3539C106.171 95.9537 106.123 95.7056 106.075 95.4896C106.05 95.3935 106.051 95.3695 106.051 95.2655C106.075 94.8333 105.994 94.5452 105.89 94.2731C106.083 94.0651 106.355 93.7049 106.387 93.1207C106.419 92.5205 106.187 92.1284 106.002 91.8723L106.051 90.936L106.083 90.8239C106.187 90.5998 106.307 90.3277 106.355 89.8076C106.475 89.5755 106.611 89.2874 106.644 88.8152C106.668 88.4551 106.644 88.239 106.603 88.0389C106.587 87.9349 106.579 87.8869 106.587 87.7348C106.587 87.6468 106.587 87.6468 106.627 87.5508C106.708 87.3587 106.78 87.1266 106.812 86.7905C106.868 86.7905 106.932 86.7905 107.004 86.7905C107.124 86.7905 107.148 86.7985 107.253 86.8305C107.461 86.8945 107.701 86.9506 108.094 86.9586C108.262 86.9586 108.342 86.9746 108.431 86.9906C108.591 87.0226 108.807 87.0626 109.184 87.0706C109.432 87.0706 109.561 87.0786 109.689 87.0866C109.833 87.0866 109.977 87.1026 110.274 87.1026C110.795 87.1026 111.075 86.9826 111.364 86.8465C111.7 86.8545 111.861 86.8305 112.029 86.8145C112.125 86.8065 112.213 86.7985 112.381 86.7985C112.462 86.7985 112.486 86.7905 112.59 86.8305C112.758 86.8945 113.047 87.0066 113.527 87.0146C114.032 87.0226 114.313 86.9025 114.617 86.7745C114.754 86.7745 114.794 86.7825 114.898 86.8145C115.106 86.8705 115.331 86.9105 115.699 86.9185C115.707 86.9185 115.723 86.9185 115.731 86.9185C115.731 86.9425 115.731 86.9746 115.731 87.0066C115.747 87.3587 115.779 87.5428 115.819 87.7188C115.835 87.8149 115.859 87.9109 115.867 88.111C115.867 88.199 115.867 88.207 115.843 88.303C115.779 88.5351 115.715 88.7992 115.731 89.2234C115.755 89.6555 115.843 89.9196 115.94 90.1517C115.961 90.2104 115.969 90.2691 115.964 90.3277C115.875 90.5198 115.707 90.8639 115.731 91.4321C115.739 91.6562 115.731 91.7683 115.731 91.8803C115.731 92.0403 115.715 92.2084 115.731 92.5285C115.747 92.9127 115.811 93.1367 115.875 93.3528C115.908 93.4569 115.916 93.4889 115.924 93.6249C115.94 93.929 115.956 94.0811 115.972 94.2331C115.98 94.3532 115.996 94.4812 116.004 94.7213C116.012 94.9054 116.004 94.9934 115.988 95.0894C115.972 95.2495 115.948 95.4576 115.964 95.8257C115.98 96.2258 116.052 96.4659 116.124 96.682C116.156 96.778 116.164 96.802 116.172 96.9141C116.18 97.1221 116.172 97.2262 116.172 97.3302C116.164 97.4983 116.148 97.6743 116.164 98.0105C116.188 98.5146 116.332 98.8107 116.493 99.0989C116.501 99.3629 116.509 99.491 116.509 99.627C116.509 99.7711 116.509 99.9151 116.525 100.203C116.525 100.371 116.525 100.459 116.509 100.547C116.485 100.707 116.452 100.931 116.477 101.308C116.493 101.692 116.549 101.916 116.589 102.076C116.613 102.188 116.629 102.244 116.637 102.404C116.637 102.524 116.637 102.548 116.613 102.652C116.565 102.868 116.517 103.116 116.533 103.508C116.533 103.556 116.525 103.607 116.509 103.66C116.452 103.837 116.356 104.133 116.38 104.613C116.388 104.829 116.38 104.933 116.38 105.045C116.372 105.213 116.356 105.381 116.38 105.717C116.396 106.101 116.452 106.317 116.493 106.477C116.517 106.557 116.533 106.646 116.541 106.806L116.597 107.902C116.613 108.286 116.669 108.502 116.701 108.662C116.725 108.742 116.741 108.83 116.749 108.998C116.749 109.142 116.749 109.19 116.725 109.294L116.717 109.23Z" fill="#E4EAF1"/>
<path d="M54.2008 82.0529C54.1207 82.0609 54.0406 82.0769 53.8963 82.125C53.5277 82.253 53.2792 82.277 53.0549 82.293C52.9587 82.293 52.9346 82.293 52.8385 82.333C52.5259 82.4451 52.3657 82.4771 52.1974 82.5171C52.1012 82.5411 51.997 82.5651 51.8047 82.6291C51.5803 82.8452 51.3399 83.0613 50.8831 83.2293C50.4343 83.3894 50.1218 83.3734 49.8573 83.3574C49.7772 83.3814 49.7211 83.3974 49.657 83.4134L49.689 83.4454C49.9375 83.6935 50.0577 83.8696 50.1619 84.0456C50.2099 84.1257 50.226 84.1577 50.3141 84.2457C50.3862 84.3177 50.4023 84.3257 50.4824 84.3737C50.6587 84.4778 50.8591 84.6058 51.1155 84.8619C51.3479 85.094 51.4441 85.2221 51.5402 85.3501C51.5963 85.4221 51.6444 85.4861 51.7726 85.6142C51.989 85.8303 52.0852 85.9583 52.1894 86.0784C52.2535 86.1504 52.3096 86.2304 52.4458 86.3585L53.151 87.0707C53.2712 87.1907 53.3353 87.2388 53.4075 87.2948C53.5437 87.3988 53.6719 87.4949 53.9123 87.7349C54.0165 87.839 54.0967 87.927 54.1608 88.007C54.1608 87.959 54.1688 87.919 54.1768 87.879C54.1848 87.7669 54.2008 87.6629 54.2088 87.4468C54.2088 87.1907 54.2088 87.0627 54.2169 86.9347C54.2169 86.7986 54.2169 86.6546 54.2249 86.3745C54.2249 86.1504 54.2249 86.0463 54.2249 85.9343C54.2169 85.7742 54.2088 85.6222 54.2169 85.3101C54.2249 85.014 54.2329 84.8699 54.2489 84.7259C54.2569 84.6058 54.2649 84.4858 54.273 84.2457L54.305 83.1813C54.313 82.8692 54.3291 82.7172 54.3451 82.5571C54.3611 82.4451 54.3691 82.333 54.3771 82.117C54.3771 82.0849 54.3771 82.0689 54.3771 82.0449C54.313 82.0529 54.2569 82.0689 54.2088 82.0689L54.2008 82.0529Z" fill="#E4EAF1"/>
<path d="M53.4394 77.7637C53.2952 77.6437 53.0227 77.4036 52.8384 76.9074C52.7102 76.5633 52.6781 76.3312 52.6541 76.1231C52.6461 76.0271 52.638 76.0031 52.606 75.907C52.4858 75.5869 52.4537 75.4189 52.4137 75.2508C52.3976 75.1708 52.3816 75.0828 52.3175 74.9227C52.2454 74.7306 52.2053 74.6426 52.1572 74.5466C52.0931 74.4105 52.021 74.2665 51.9168 73.9864C51.8687 73.8663 51.8367 73.7943 51.8046 73.7383C51.7405 73.8023 51.6764 73.8583 51.6203 73.9303C51.5963 73.9704 51.5321 74.1144 51.4921 74.2185C51.3558 74.5386 51.1795 74.9867 50.7708 75.3308C50.3701 75.683 49.8973 75.795 49.5527 75.875C49.4485 75.899 49.2963 75.9391 49.2482 75.9631C49.2081 75.9871 49.0959 76.1151 49.0158 76.2112C48.7914 76.4592 48.4869 76.8034 48.0301 77.0114C47.5973 77.2115 47.1806 77.2115 46.8521 77.2115C46.9562 77.3796 47.0604 77.5796 47.1486 77.8998C47.2447 78.2359 47.2688 78.4359 47.2848 78.58C47.2928 78.66 47.3008 78.7481 47.3489 78.9081C47.421 79.1642 47.4531 79.3003 47.4851 79.4283C47.5172 79.5483 47.5412 79.6604 47.6134 79.8925C47.7175 80.2606 47.7256 80.5007 47.7256 80.7087C47.7256 80.8048 47.7256 80.8128 47.7496 80.9088C47.8618 81.0369 47.966 81.1889 48.0702 81.373L49.0478 81.0289C49.3444 80.9248 49.5046 80.8848 49.6569 80.8448C49.7611 80.8208 49.8653 80.7888 50.0736 80.7168C50.3862 80.6047 50.5544 80.5647 50.7147 80.5327C50.8109 80.5087 50.9151 80.4927 51.0994 80.4206C51.2196 80.3806 51.2436 80.3646 51.3238 80.3086C51.46 80.2126 51.6684 80.0765 52.053 79.9405L53.0548 79.5884C53.3192 79.4923 53.4875 79.4603 53.6318 79.4283C53.736 79.4043 53.776 79.3803 53.8241 79.3483C53.752 79.2202 53.6879 79.0762 53.5837 78.7961C53.4314 78.3799 53.4234 78.0918 53.4314 77.8517L53.4234 77.7717L53.4394 77.7637Z" fill="#E4EAF1"/>
</g>
<defs>
<clipPath id="clip0_1416_24471">
<rect width="162" height="113" fill="white" transform="translate(0.5)"/>
</clipPath>
</defs>
</svg>
