<svg width="24" height="24" viewBox="0 0 24 24" fill="none" xmlns="http://www.w3.org/2000/svg">
<path fill-rule="evenodd" clip-rule="evenodd" d="M12 20.6C16.7496 20.6 20.6 16.7496 20.6 12C20.6 7.25035 16.7496 3.4 12 3.4C7.25035 3.4 3.4 7.25035 3.4 12C3.4 16.7496 7.25035 20.6 12 20.6ZM12 22C17.5228 22 22 17.5228 22 12C22 6.47715 17.5228 2 12 2C6.47715 2 2 6.47715 2 12C2 17.5228 6.47715 22 12 22Z" fill="#222222"/>
<path fill-rule="evenodd" clip-rule="evenodd" d="M12 6.80005C12.3866 6.80005 12.7 7.11345 12.7 7.50005V12.2667L15.56 16.08C15.792 16.3893 15.7293 16.8281 15.42 17.06C15.1108 17.292 14.672 17.2293 14.44 16.92L11.3 12.7334V7.50005C11.3 7.11345 11.6134 6.80005 12 6.80005Z" fill="#222222"/>
</svg>
