<svg width="100" height="18" viewBox="0 0 100 18" fill="none" xmlns="http://www.w3.org/2000/svg">
<g clip-path="url(#clip0_201_948)">
<path d="M0 16.1521L0.599506 10.6732C2.73263 11.4803 6.23008 12.2142 7.95491 12.141C9.10413 12.0922 9.10413 11.2119 8.00271 11.09C2.56334 10.478 -0.0478011 9.37817 0.0478011 5.75739C0.143403 2.52897 2.82823 0.670805 7.453 0.524429C10.568 0.426845 13.6592 0.817182 15.7903 1.5511L15.1669 7.51797C13.3226 6.78406 10.1358 6.24531 8.65002 6.41811C7.5247 6.54009 7.5247 7.22522 8.65002 7.37159C14.665 8.10551 16.7244 9.08339 16.6288 12.4094C16.5332 15.6134 13.9699 17.4228 8.41101 17.496C5.17647 17.5448 2.22873 17.006 0 16.1501L0 16.1521Z" fill="#212121"/>
<path d="M17.9453 8.98577C17.9453 3.87479 21.4667 0.5 27.4099 0.5C33.3532 0.5 36.8746 3.87479 36.8746 8.98577C36.8746 14.0967 33.3532 17.4959 27.4099 17.4959C21.4667 17.4959 17.9453 14.0967 17.9453 8.98577ZM29.806 8.98577C29.806 6.9304 28.8719 5.97692 27.4099 5.97692C25.948 5.97692 25.0139 6.9304 25.0139 8.98577C25.0139 11.0411 25.948 12.019 27.4099 12.019C28.8719 12.019 29.806 11.0655 29.806 8.98577Z" fill="#212121"/>
<path d="M38.1875 8.98577C38.1875 3.87479 41.7108 0.5 47.6521 0.5C53.5934 0.5 57.1168 3.87479 57.1168 8.98577C57.1168 14.0967 53.5954 17.4959 47.6521 17.4959C41.7089 17.4959 38.1875 14.0967 38.1875 8.98577ZM50.0482 8.98577C50.0482 6.9304 49.114 5.97692 47.6521 5.97692C46.1902 5.97692 45.2561 6.9304 45.2561 8.98577C45.2561 11.0411 46.1902 12.019 47.6521 12.019C49.114 12.019 50.0482 11.0655 50.0482 8.98577Z" fill="#212121"/>
<path d="M69.5246 15.2474C68.2797 16.5689 66.3856 17.3496 64.3242 17.3496C57.6878 17.3496 58.0463 8.47141 58.8609 0.987915H65.4495C65.2105 8.86378 65.6427 10.232 66.8397 10.4536C67.7499 10.6244 68.5168 10.4292 69.3075 9.93924C69.2358 6.97918 69.2358 3.99676 69.3792 0.987915H76.4C76.8322 6.36928 76.6868 11.6266 76.0156 17.008H69.6421L69.5226 15.2474H69.5246Z" fill="#212121"/>
<path d="M85.8486 7.6907C85.3686 7.54432 84.9862 7.6663 84.6516 7.95905C84.6038 10.9435 84.5082 14.0723 84.4126 17.008H78.5908C77.9196 11.6266 77.7762 6.36924 78.2064 0.987875H84.5799L84.6277 2.28493C85.4662 1.25826 86.6154 0.597537 88.1251 0.646329C89.587 0.695122 90.7124 1.38024 91.3597 2.55329C92.3655 1.35382 93.9469 0.597537 95.7434 0.646329C100.655 0.76831 100.177 8.30263 99.7448 17.008H93.9708C94.2118 9.1321 94.1381 7.91026 93.2518 7.6663C92.7718 7.51992 92.3894 7.6419 92.0289 7.93466C92.1484 10.6487 92.005 13.7552 91.8616 17.008H86.4939C86.6851 9.1321 86.6851 7.91026 85.8466 7.6907H85.8486Z" fill="#212121"/>
</g>
<defs>
<clipPath id="clip0_201_948">
<rect width="100" height="17" fill="white" transform="translate(0 0.5)"/>
</clipPath>
</defs>
</svg>
