<svg width="24" height="24" viewBox="0 0 24 24" fill="none" xmlns="http://www.w3.org/2000/svg">
<g clip-path="url(#clip0_994_12864)">
<mask id="path-1-inside-1_994_12864" fill="white">
<path d="M13.8506 6.35718C14.61 5.04187 16.2921 4.59095 17.6074 5.35034L18.127 5.65015C18.3183 5.7606 18.3839 6.0057 18.2734 6.19702L17.9229 6.80347C17.8123 6.99435 17.5681 7.06006 17.377 6.94995L16.8574 6.64917C16.2596 6.30399 15.4946 6.50931 15.1494 7.10718L15.0244 7.323L16.1963 7.99976C17.1529 8.55204 17.48 9.77559 16.9277 10.7322L16.1621 12.0564C16.6963 13.0878 17 14.2581 17 15.4998C17 19.6419 13.6421 22.9998 9.5 22.9998C5.35786 22.9998 2 19.6419 2 15.4998C2.00013 11.4368 5.231 8.13047 9.26367 8.00562L10 6.73218C10.5523 5.77559 11.7758 5.44747 12.7324 5.99976L13.7256 6.573L13.8506 6.35718ZM23 6.99976C23.5522 6.99976 23.9999 7.44758 24 7.99976C24 8.55204 23.5523 8.99976 23 8.99976H22C21.4477 8.99976 21 8.55204 21 7.99976C21.0001 7.44758 21.4478 6.99976 22 6.99976H23ZM20.4141 2.20679C20.8045 1.81641 21.4376 1.81663 21.8281 2.20679C22.2186 2.5973 22.2186 3.23032 21.8281 3.62085L21.1211 4.32886C20.7306 4.71896 20.0974 4.71912 19.707 4.32886C19.3165 3.93833 19.3165 3.30434 19.707 2.91382L20.4141 2.20679ZM16 -0.000244141C16.5522 -0.000244141 16.9999 0.447583 17 0.999756V1.99976C17 2.55204 16.5523 2.99976 16 2.99976C15.4477 2.99976 15 2.55204 15 1.99976V0.999756C15.0001 0.447583 15.4478 -0.000244141 16 -0.000244141Z"/>
</mask>
<path d="M13.8506 6.35718C14.61 5.04187 16.2921 4.59095 17.6074 5.35034L18.127 5.65015C18.3183 5.7606 18.3839 6.0057 18.2734 6.19702L17.9229 6.80347C17.8123 6.99435 17.5681 7.06006 17.377 6.94995L16.8574 6.64917C16.2596 6.30399 15.4946 6.50931 15.1494 7.10718L15.0244 7.323L16.1963 7.99976C17.1529 8.55204 17.48 9.77559 16.9277 10.7322L16.1621 12.0564C16.6963 13.0878 17 14.2581 17 15.4998C17 19.6419 13.6421 22.9998 9.5 22.9998C5.35786 22.9998 2 19.6419 2 15.4998C2.00013 11.4368 5.231 8.13047 9.26367 8.00562L10 6.73218C10.5523 5.77559 11.7758 5.44747 12.7324 5.99976L13.7256 6.573L13.8506 6.35718ZM23 6.99976C23.5522 6.99976 23.9999 7.44758 24 7.99976C24 8.55204 23.5523 8.99976 23 8.99976H22C21.4477 8.99976 21 8.55204 21 7.99976C21.0001 7.44758 21.4478 6.99976 22 6.99976H23ZM20.4141 2.20679C20.8045 1.81641 21.4376 1.81663 21.8281 2.20679C22.2186 2.5973 22.2186 3.23032 21.8281 3.62085L21.1211 4.32886C20.7306 4.71896 20.0974 4.71912 19.707 4.32886C19.3165 3.93833 19.3165 3.30434 19.707 2.91382L20.4141 2.20679ZM16 -0.000244141C16.5522 -0.000244141 16.9999 0.447583 17 0.999756V1.99976C17 2.55204 16.5523 2.99976 16 2.99976C15.4477 2.99976 15 2.55204 15 1.99976V0.999756C15.0001 0.447583 15.4478 -0.000244141 16 -0.000244141Z" fill="#212121"/>
<path d="M13.8506 6.35718L15.1486 7.10896L15.1496 7.10718L13.8506 6.35718ZM17.6074 5.35034L16.8574 6.64938L16.8577 6.64954L17.6074 5.35034ZM18.127 5.65015L18.877 4.35111L18.8767 4.35095L18.127 5.65015ZM18.2734 6.19702L19.5721 6.94775L19.5725 6.94702L18.2734 6.19702ZM17.9229 6.80347L19.221 7.55502L19.2215 7.5542L17.9229 6.80347ZM17.377 6.94995L16.6254 8.24809L16.6282 8.24969L17.377 6.94995ZM16.8574 6.64917L17.609 5.35103L17.6074 5.35013L16.8574 6.64917ZM15.1494 7.10718L16.4474 7.85896L16.4485 7.85718L15.1494 7.10718ZM15.0244 7.323L13.7264 6.57121L12.9737 7.87086L14.2743 8.62195L15.0244 7.323ZM16.1963 7.99976L15.4461 9.29871L15.4463 9.29879L16.1963 7.99976ZM16.9277 10.7322L18.2263 11.483L18.2268 11.4822L16.9277 10.7322ZM16.1621 12.0564L14.8635 11.3056L14.4523 12.0168L14.8302 12.7463L16.1621 12.0564ZM17 15.4998H18.5V15.4997L17 15.4998ZM2 15.4998L0.5 15.4997V15.4998H2ZM9.26367 8.00562L9.31009 9.5049L10.1444 9.47907L10.5622 8.75646L9.26367 8.00562ZM10 6.73218L11.2985 7.48303L11.299 7.48218L10 6.73218ZM12.7324 5.99976L11.9824 7.29879L11.9826 7.29889L12.7324 5.99976ZM13.7256 6.573L12.9757 7.87213L14.2729 8.62085L15.0236 7.32478L13.7256 6.573ZM23 6.99976V5.49976V6.99976ZM24 7.99976H25.5V7.9994L24 7.99976ZM23 8.99976V10.4998V8.99976ZM22 8.99976V7.49976V8.99976ZM21 7.99976L19.5 7.9994V7.99976H21ZM22 6.99976V5.49976V6.99976ZM20.4141 2.20679L19.3534 1.14608L19.3534 1.14613L20.4141 2.20679ZM21.8281 2.20679L22.8888 1.14613L22.8883 1.14561L21.8281 2.20679ZM21.8281 3.62085L20.7674 2.56024L20.7667 2.56092L21.8281 3.62085ZM21.1211 4.32886L22.1812 5.39008L22.1825 5.38879L21.1211 4.32886ZM19.707 4.32886L18.6464 5.38952L18.6466 5.38972L19.707 4.32886ZM17 0.999756H18.5V0.999398L17 0.999756ZM15 0.999756L13.5 0.999398V0.999756H15ZM13.8506 6.35718L15.1496 7.10718C15.4949 6.50915 16.2597 6.3043 16.8574 6.64938L17.6074 5.35034L18.3574 4.0513C16.3245 2.8776 13.7251 3.5746 12.5515 5.60718L13.8506 6.35718ZM17.6074 5.35034L16.8577 6.64954L17.3772 6.94934L18.127 5.65015L18.8767 4.35095L18.3571 4.05114L17.6074 5.35034ZM18.127 5.65015L17.377 6.94918C16.8505 6.64526 16.6708 5.97285 16.9744 5.44702L18.2734 6.19702L19.5725 6.94702C20.097 6.03856 19.786 4.87595 18.877 4.35111L18.127 5.65015ZM18.2734 6.19702L16.9748 5.44629L16.6242 6.05274L17.9229 6.80347L19.2215 7.5542L19.5721 6.94775L18.2734 6.19702ZM17.9229 6.80347L16.6247 6.05191C16.9277 5.52862 17.5984 5.34643 18.1257 5.65021L17.377 6.94995L16.6282 8.24969C17.5377 8.77369 18.697 8.46007 19.221 7.55502L17.9229 6.80347ZM17.377 6.94995L18.1285 5.65181L17.609 5.35103L16.8574 6.64917L16.1059 7.94731L16.6254 8.24809L17.377 6.94995ZM16.8574 6.64917L17.6074 5.35013C16.2915 4.59037 14.6094 5.04252 13.8504 6.35718L15.1494 7.10718L16.4485 7.85718C16.3798 7.97611 16.2276 8.01762 16.1074 7.94821L16.8574 6.64917ZM15.1494 7.10718L13.8514 6.35539L13.7264 6.57121L15.0244 7.323L16.3224 8.07478L16.4474 7.85896L15.1494 7.10718ZM15.0244 7.323L14.2743 8.62195L15.4461 9.29871L16.1963 7.99976L16.9464 6.7008L15.7746 6.02404L15.0244 7.323ZM16.1963 7.99976L15.4463 9.29879C15.6846 9.43639 15.7672 9.74222 15.6287 9.98218L16.9277 10.7322L18.2268 11.4822C19.1928 9.80897 18.6211 7.66769 16.9463 6.70072L16.1963 7.99976ZM16.9277 10.7322L15.6292 9.98138L14.8635 11.3056L16.1621 12.0564L17.4607 12.8072L18.2263 11.483L16.9277 10.7322ZM16.1621 12.0564L14.8302 12.7463C15.2574 13.5711 15.5 14.5055 15.5 15.4998L17 15.4998L18.5 15.4997C18.5 14.0106 18.1353 12.6045 17.4941 11.3665L16.1621 12.0564ZM17 15.4998H15.5C15.5 18.8135 12.8137 21.4998 9.5 21.4998V22.9998V24.4998C14.4706 24.4998 18.5 20.4703 18.5 15.4998H17ZM9.5 22.9998V21.4998C6.18629 21.4998 3.5 18.8135 3.5 15.4998H2H0.5C0.5 20.4703 4.52944 24.4998 9.5 24.4998V22.9998ZM2 15.4998L3.5 15.4998C3.5001 12.2502 6.08432 9.60477 9.31009 9.5049L9.26367 8.00562L9.21725 6.50633C4.37768 6.65617 0.500155 10.6234 0.5 15.4997L2 15.4998ZM9.26367 8.00562L10.5622 8.75646L11.2985 7.48303L10 6.73218L8.70145 5.98133L7.96512 7.25477L9.26367 8.00562ZM10 6.73218L11.299 7.48218C11.4373 7.24272 11.7436 7.1609 11.9824 7.29879L12.7324 5.99976L13.4824 4.70072C11.8081 3.73404 9.66728 4.30847 8.70096 5.98218L10 6.73218ZM12.7324 5.99976L11.9826 7.29889L12.9757 7.87213L13.7256 6.573L14.4754 5.27387L13.4823 4.70063L12.7324 5.99976ZM13.7256 6.573L15.0236 7.32478L15.1486 7.10896L13.8506 6.35718L12.5526 5.60539L12.4276 5.82121L13.7256 6.573ZM23 6.99976V8.49976C22.7234 8.49976 22.5001 8.27573 22.5 8.00011L24 7.99976L25.5 7.9994C25.4997 6.61943 24.381 5.49976 23 5.49976V6.99976ZM24 7.99976H22.5C22.5 7.72361 22.7239 7.49976 23 7.49976V8.99976V10.4998C24.3807 10.4998 25.5 9.38047 25.5 7.99976H24ZM23 8.99976V7.49976H22V8.99976V10.4998H23V8.99976ZM22 8.99976V7.49976C22.2761 7.49976 22.5 7.72361 22.5 7.99976H21H19.5C19.5 9.38047 20.6193 10.4998 22 10.4998V8.99976ZM21 7.99976L22.5 8.00011C22.4999 8.27573 22.2766 8.49976 22 8.49976V6.99976V5.49976C20.619 5.49976 19.5003 6.61943 19.5 7.9994L21 7.99976ZM22 6.99976V8.49976H23V6.99976V5.49976H22V6.99976ZM20.4141 2.20679L21.4747 3.26749C21.2788 3.46331 20.9626 3.46243 20.768 3.26796L21.8281 2.20679L22.8883 1.14561C21.9125 0.170818 20.3301 0.169514 19.3534 1.14608L20.4141 2.20679ZM21.8281 2.20679L20.7675 3.26745C20.5721 3.07213 20.5722 2.75544 20.7674 2.56024L21.8281 3.62085L22.8888 4.68146C23.865 3.70521 23.8651 2.12247 22.8888 1.14613L21.8281 2.20679ZM21.8281 3.62085L20.7667 2.56092L20.0597 3.26893L21.1211 4.32886L22.1825 5.38879L22.8895 4.68078L21.8281 3.62085ZM21.1211 4.32886L20.061 3.26764C20.2558 3.07305 20.5718 3.07238 20.7675 3.268L19.707 4.32886L18.6466 5.38972C19.6231 6.36585 21.2054 6.36486 22.1812 5.39008L21.1211 4.32886ZM19.707 4.32886L20.7677 3.2682C20.963 3.46346 20.963 3.77922 20.7677 3.97448L19.707 2.91382L18.6464 1.85316C17.6701 2.82947 17.6701 4.41321 18.6464 5.38952L19.707 4.32886ZM19.707 2.91382L20.7677 3.97448L21.4747 3.26745L20.4141 2.20679L19.3534 1.14613L18.6464 1.85316L19.707 2.91382ZM16 -0.000244141V1.49976C15.7234 1.49976 15.5001 1.27573 15.5 1.00011L17 0.999756L18.5 0.999398C18.4997 -0.380565 17.381 -1.50024 16 -1.50024V-0.000244141ZM17 0.999756H15.5V1.99976H17H18.5V0.999756H17ZM17 1.99976H15.5C15.5 1.72361 15.7239 1.49976 16 1.49976V2.99976V4.49976C17.3807 4.49976 18.5 3.38047 18.5 1.99976H17ZM16 2.99976V1.49976C16.2761 1.49976 16.5 1.72361 16.5 1.99976H15H13.5C13.5 3.38047 14.6193 4.49976 16 4.49976V2.99976ZM15 1.99976H16.5V0.999756H15H13.5V1.99976H15ZM15 0.999756L16.5 1.00011C16.4999 1.27573 16.2766 1.49976 16 1.49976V-0.000244141V-1.50024C14.619 -1.50024 13.5003 -0.380565 13.5 0.999398L15 0.999756Z" fill="#212121" mask="url(#path-1-inside-1_994_12864)"/>
</g>
<defs>
<clipPath id="clip0_994_12864">
<rect width="24" height="24" fill="white"/>
</clipPath>
</defs>
</svg>
