<svg width="24" height="24" viewBox="0 0 24 24" fill="none" xmlns="http://www.w3.org/2000/svg">
<path fill-rule="evenodd" clip-rule="evenodd" d="M7.00005 5.70005C5.17751 5.70005 3.70005 7.17751 3.70005 9.00005V19.0619C3.70005 19.3056 3.97528 19.4476 4.17391 19.3064L7.69894 16.7997C8.15597 16.4747 8.70286 16.3 9.26366 16.3H18C19.2703 16.3 20.3 15.2703 20.3 14V8.00005C20.3 6.72979 19.2703 5.70005 18 5.70005H7.00005ZM2.30005 9.00005C2.30005 6.40431 4.40431 4.30005 7.00005 4.30005H18C20.0435 4.30005 21.7001 5.9566 21.7001 8.00005V14C21.7001 16.0435 20.0435 17.7 18 17.7H9.26366C8.99364 17.7 8.73033 17.7841 8.51028 17.9406L4.98524 20.4473C3.85971 21.2477 2.30005 20.443 2.30005 19.0619V9.00005Z" fill="#222222"/>
<path fill-rule="evenodd" clip-rule="evenodd" d="M12 7.30005C12.3866 7.30005 12.7 7.61345 12.7 8.00005V14C12.7 14.3866 12.3866 14.7 12 14.7C11.6134 14.7 11.3 14.3866 11.3 14V8.00005C11.3 7.61345 11.6134 7.30005 12 7.30005Z" fill="#222222"/>
<path fill-rule="evenodd" clip-rule="evenodd" d="M8.30005 11C8.30005 10.6134 8.61345 10.3 9.00005 10.3H15C15.3866 10.3 15.7 10.6134 15.7 11C15.7 11.3866 15.3866 11.7 15 11.7H9.00005C8.61345 11.7 8.30005 11.3866 8.30005 11Z" fill="#222222"/>
</svg>
