<svg width="24" height="24" viewBox="0 0 24 24" fill="none" xmlns="http://www.w3.org/2000/svg">
<path d="M12 2.25C14.6234 2.25 16.75 4.37665 16.75 7V8.30859C19.017 8.66816 20.75 10.6318 20.75 13V17C20.75 19.6234 18.6234 21.75 16 21.75H8C5.37665 21.75 3.25 19.6234 3.25 17V13C3.25 10.6318 4.98299 8.66816 7.25 8.30859V7C7.25 4.37665 9.37665 2.25 12 2.25ZM12 13.25C11.5858 13.25 11.25 13.5858 11.25 14V16C11.25 16.4142 11.5858 16.75 12 16.75C12.4142 16.75 12.75 16.4142 12.75 16V14C12.75 13.5858 12.4142 13.25 12 13.25ZM12 3.75C10.2051 3.75 8.75 5.20507 8.75 7V8.25H15.25V7C15.25 5.20507 13.7949 3.75 12 3.75Z" fill="#212121"/>
</svg>
