<svg width="24" height="24" viewBox="0 0 24 24" fill="none" xmlns="http://www.w3.org/2000/svg">
<path fill-rule="evenodd" clip-rule="evenodd" d="M4.30005 5.30005H19.7V19C19.7 20.4912 18.4912 21.7 17 21.7H7.00005C5.50888 21.7 4.30005 20.4912 4.30005 19V5.30005ZM5.70005 6.70005V19C5.70005 19.718 6.28208 20.3 7.00005 20.3H17C17.718 20.3 18.3 19.718 18.3 19V6.70005H5.70005Z" fill="#222222"/>
<path fill-rule="evenodd" clip-rule="evenodd" d="M3.30005 6.00005C3.30005 5.61345 3.61345 5.30005 4.00005 5.30005L20 5.30005C20.3867 5.30005 20.7001 5.61345 20.7001 6.00005C20.7001 6.38665 20.3867 6.70005 20 6.70005L4.00005 6.70005C3.61345 6.70005 3.30005 6.38665 3.30005 6.00005Z" fill="#222222"/>
<path fill-rule="evenodd" clip-rule="evenodd" d="M10 3.70005C9.28208 3.70005 8.70005 4.28208 8.70005 5.00005V5.30005H15.3V5.00005C15.3 4.28208 14.718 3.70005 14 3.70005H10ZM7.30005 5.00005C7.30005 3.50888 8.50888 2.30005 10 2.30005H14C15.4912 2.30005 16.7 3.50888 16.7 5.00005V6.70005H7.30005V5.00005Z" fill="#222222"/>
<path fill-rule="evenodd" clip-rule="evenodd" d="M10 10.3C10.3866 10.3 10.7 10.6134 10.7 11V16C10.7 16.3866 10.3866 16.7 10 16.7C9.61345 16.7 9.30005 16.3866 9.30005 16V11C9.30005 10.6134 9.61345 10.3 10 10.3Z" fill="#222222"/>
<path fill-rule="evenodd" clip-rule="evenodd" d="M14 10.3C14.3866 10.3 14.7 10.6134 14.7 11V16C14.7 16.3866 14.3866 16.7 14 16.7C13.6134 16.7 13.3 16.3866 13.3 16V11C13.3 10.6134 13.6134 10.3 14 10.3Z" fill="#222222"/>
</svg>
