<svg width="24" height="24" viewBox="0 0 24 24" fill="none" xmlns="http://www.w3.org/2000/svg">
<path d="M16.2422 6.34283C16.6327 5.95231 17.2667 5.95231 17.6572 6.34283C18.0475 6.73321 18.0472 7.36637 17.6572 7.7569L13.4141 11.9991L17.6572 16.2422C18.0477 16.6328 18.0477 17.2668 17.6572 17.6573C17.2667 18.0478 16.6327 18.0478 16.2422 17.6573L11.999 13.4141L7.75684 17.6573C7.36631 18.0474 6.73316 18.0476 6.34277 17.6573C5.95225 17.2668 5.95225 16.6328 6.34277 16.2422L10.585 11.9991L6.34277 7.7569C5.95265 7.36635 5.9524 6.73323 6.34277 6.34283C6.73317 5.95244 7.36628 5.95271 7.75684 6.34283L11.999 10.585L16.2422 6.34283Z" fill="#212121"/>
</svg>
