<svg width="16" height="16" viewBox="0 0 16 16" fill="none" xmlns="http://www.w3.org/2000/svg">
<g clip-path="url(#clip0_8052_7545)">
<path fill-rule="evenodd" clip-rule="evenodd" d="M16 8C16 12.4183 12.4183 16 8 16C3.58172 16 0 12.4183 0 8C0 3.58172 3.58172 0 8 0C12.4183 0 16 3.58172 16 8ZM12.2426 3.75736C12.503 4.0177 12.503 4.43981 12.2426 4.70016L8.94277 8.00002L12.2426 11.2998C12.5029 11.5602 12.5029 11.9823 12.2426 12.2426C11.9822 12.503 11.5601 12.503 11.2998 12.2426L7.99996 8.94283L4.70015 12.2426C4.4398 12.503 4.01769 12.503 3.75734 12.2426C3.49699 11.9823 3.49699 11.5602 3.75734 11.2998L7.05715 8.00002L3.75728 4.70015C3.49693 4.4398 3.49693 4.01769 3.75728 3.75734C4.01763 3.49699 4.43974 3.49699 4.70009 3.75734L7.99996 7.05721L11.2998 3.75736C11.5602 3.49701 11.9823 3.49701 12.2426 3.75736Z" fill="#B5B5B5"/>
</g>
<defs>
<clipPath id="clip0_8052_7545">
<rect width="16" height="16" fill="white"/>
</clipPath>
</defs>
</svg>
