<svg width="93" height="18" viewBox="0 0 93 18" fill="none" xmlns="http://www.w3.org/2000/svg">
<g clip-path="url(#clip0_508_3019)">
<path d="M7.63076 17.8749C5.1285 17.8749 2.15195 17.3998 0.95086 16.7247C0.300272 16.3496 0 15.7745 0 15.1994C0 14.0742 1.07597 12.949 2.50226 13.4241C3.85348 13.8741 5.3048 14.2492 7.30547 14.2492C9.30614 14.2492 10.8075 13.8741 10.8075 12.5739C10.8075 9.37442 0.750679 12.2988 0.750679 5.29865C0.750679 0.70005 5.07846 0.0499268 7.85597 0.0499268C10.2832 0.0499268 12.2338 0.625036 13.2097 1.12513C13.9103 1.4752 14.2356 2.10032 14.2356 2.72543C14.2356 3.6256 13.56 4.50077 12.434 4.50077C12.1837 4.50077 11.8835 4.45076 11.5832 4.35074C10.4322 3.95067 9.53135 3.67561 7.68081 3.67561C5.97927 3.67561 4.82937 3.90066 4.82937 5.15089C4.82937 8.40037 14.8612 5.35093 14.8612 12.4511C14.8612 17.2009 10.4083 17.876 7.63076 17.876V17.8749Z" fill="#0BC7F2"/>
<path d="M43.2835 18C38.2062 18 34.7178 14.8005 34.7178 9.02557C34.7178 3.25062 38.205 0 43.2835 0C48.3619 0 51.8719 3.22447 51.8719 9.02444C51.8719 14.8244 48.3619 17.9989 43.2835 17.9989V18ZM43.2835 3.74957C40.7448 3.74957 38.9125 5.54991 38.9125 9.02444C38.9125 12.499 40.7448 14.2493 43.2835 14.2493C45.8221 14.2493 47.6772 12.4239 47.6772 9.02444C47.6772 5.62493 45.8233 3.74957 43.2835 3.74957Z" fill="#0BC7F2"/>
<path d="M65.0303 2.25038C65.0303 1.00014 65.9311 0.25 67.1573 0.25C68.3834 0.25 69.2842 1.00014 69.2842 2.25038V10.3508C69.2842 15.3256 66.4327 18.0011 61.253 18.0011C56.0734 18.0011 53.2219 15.3256 53.2219 10.3508V2.25038C53.2219 1.00014 54.0977 0.25 55.3488 0.25C56.6 0.25 57.4758 1.00014 57.4758 2.25038V10.3758C57.4758 13.6003 59.4526 14.2504 61.253 14.2504C63.0535 14.2504 65.0303 13.6003 65.0303 10.3758V2.25038Z" fill="#0BC7F2"/>
<path d="M88.696 6.87514C88.696 5.09981 87.8953 4.12576 86.4189 4.12576C84.9426 4.12576 84.1419 5.10094 84.1419 6.87514V15.7496C84.1419 16.9498 83.3662 17.7499 81.9649 17.7499C80.6387 17.7499 79.838 16.9498 79.838 15.7496V6.87514C79.838 5.09981 79.0373 4.12576 77.5609 4.12576C76.0846 4.12576 75.2839 5.10094 75.2839 6.87514V15.7496C75.2839 16.9498 74.5582 17.7499 73.157 17.7499C71.7557 17.7499 70.98 16.9498 70.98 15.7496V6.87514C70.98 1.65029 73.5323 0.125 77.5598 0.125C79.3614 0.125 80.8867 0.700109 81.9877 2.2504C83.0887 0.700109 84.615 0.125 86.4155 0.125C90.5932 0.125 92.9953 2.12538 92.9953 6.87514V15.7496C92.9953 16.9498 92.2196 17.7499 90.8184 17.7499C89.4171 17.7499 88.6915 16.9498 88.6915 15.7496V6.87514H88.696Z" fill="#0BC7F2"/>
<path d="M28.7351 2.20947H20.6824C19.4512 2.20947 18.4531 3.20685 18.4531 4.43717V13.3934C18.4531 14.6237 19.4512 15.6211 20.6824 15.6211H28.7351C29.9663 15.6211 30.9644 14.6237 30.9644 13.3934V4.43717C30.9644 3.20685 29.9663 2.20947 28.7351 2.20947Z" stroke="#0BC7F2" stroke-width="3.86437" stroke-miterlimit="10"/>
</g>
<defs>
<clipPath id="clip0_508_3019">
<rect width="93" height="18" fill="white"/>
</clipPath>
</defs>
</svg>
