<svg width="24" height="24" viewBox="0 0 24 24" fill="none" xmlns="http://www.w3.org/2000/svg">
<path d="M17.1162 1C20.3657 1 23 3.6343 23 6.88379V17.1162C23 20.3657 20.3657 23 17.1162 23H6.88379C3.6343 23 1 20.3657 1 17.1162V6.88379C1 3.6343 3.6343 1 6.88379 1H17.1162ZM6 15.25C5.58579 15.25 5.25 15.5858 5.25 16C5.25 16.4142 5.58579 16.75 6 16.75H14C14.4142 16.75 14.75 16.4142 14.75 16C14.75 15.5858 14.4142 15.25 14 15.25H6ZM6 11.25C5.58579 11.25 5.25 11.5858 5.25 12C5.25 12.4142 5.58579 12.75 6 12.75H18C18.4142 12.75 18.75 12.4142 18.75 12C18.75 11.5858 18.4142 11.25 18 11.25H6ZM5.99512 7.25C5.5809 7.25 5.24512 7.58579 5.24512 8C5.24512 8.41421 5.5809 8.75 5.99512 8.75H17.9951C18.4093 8.75 18.7451 8.41421 18.7451 8C18.7451 7.58579 18.4093 7.25 17.9951 7.25H5.99512Z" fill="#212121"/>
</svg>
