<svg width="24" height="24" viewBox="0 0 24 24" fill="none" xmlns="http://www.w3.org/2000/svg">
<path d="M17.1104 2.00555C17.6591 2.06653 18.0549 2.56128 17.9941 3.11005L17.5615 6.99969H20C20.5522 6.99969 20.9998 7.44755 21 7.99969C21 8.55198 20.5523 8.99969 20 8.99969H17.3398L16.6729 14.9997H20C20.5522 14.9997 20.9998 15.4475 21 15.9997C21 16.552 20.5523 16.9997 20 16.9997H16.4512L15.9941 21.11C15.9332 21.6589 15.4385 22.0548 14.8896 21.9938C14.3408 21.9328 13.9449 21.4382 14.0059 20.8893L14.4385 16.9997H8.45117L7.99414 21.11C7.93316 21.6589 7.43851 22.0548 6.88965 21.9938C6.34084 21.9328 5.94494 21.4382 6.00586 20.8893L6.43848 16.9997H4C3.44772 16.9997 3 16.552 3 15.9997C3.00016 15.4475 3.44782 14.9997 4 14.9997H6.66016L7.32715 8.99969H4C3.44772 8.99969 3 8.55198 3 7.99969C3.00016 7.44755 3.44782 6.99969 4 6.99969H7.54883L8.00586 2.88934C8.06696 2.34064 8.56162 1.9447 9.11035 2.00555C9.65914 2.06653 10.0549 2.56128 9.99414 3.11005L9.56152 6.99969H15.5488L16.0059 2.88934C16.067 2.34064 16.5616 1.9447 17.1104 2.00555ZM9.33984 8.99969L8.67285 14.9997H14.6602L15.3271 8.99969H9.33984Z" fill="#212121"/>
</svg>
