<svg width="24" height="24" viewBox="0 0 24 24" fill="none" xmlns="http://www.w3.org/2000/svg">
<path d="M3.48429 13.0085C5.34961 17.2906 8.98804 19.7636 11.4501 20.8575C11.6891 20.9637 11.9595 20.9639 12.1982 20.857C14.6602 19.7544 18.2988 17.1956 20.1642 13.0085C21.5023 10.005 20.6548 7.00211 18.2019 5.5005C16.4176 4.59029 14.8767 5.00425 12.5465 6.89296C12.1346 7.22683 11.5373 7.20271 11.1433 6.84788C9.00138 4.91893 7.22403 4.59377 5.44686 5.50047C2.99393 7.00208 2.02052 8.99995 3.48429 13.0085Z" fill="#0BC7F2"/>
<path fill-rule="evenodd" clip-rule="evenodd" d="M2.55547 13.3801L2.54506 13.3516C1.77717 11.2487 1.58302 9.50364 2.04145 8.01936C2.50703 6.51193 3.58423 5.46836 4.92485 4.64767L4.95794 4.62742L4.9925 4.60979C6.06034 4.06498 7.18606 3.86855 8.37679 4.13503C9.53866 4.39504 10.6689 5.07489 11.8126 6.10488C11.8298 6.12037 11.8511 6.12861 11.8729 6.12936C11.8936 6.13008 11.9073 6.12405 11.917 6.11618C13.1198 5.14121 14.2239 4.45635 15.3355 4.17731C16.5023 3.88443 17.5809 4.06114 18.6564 4.6098L18.691 4.62744L18.7241 4.64771C21.6643 6.44762 22.5907 10.0196 21.0778 13.4156C19.0824 17.8945 15.2166 20.6011 12.607 21.7697C12.1078 21.9933 11.5413 21.9924 11.0441 21.7715C8.44104 20.6149 4.56543 17.9942 2.5676 13.408L2.55547 13.3801ZM3.48439 13.0086C2.02062 9.00003 2.99403 7.00216 5.44696 5.50055C7.22413 4.59385 9.00149 4.91901 11.1434 6.84796C11.5374 7.20279 12.1347 7.22691 12.5466 6.89304C14.8768 5.00434 16.4177 4.59037 18.202 5.50059C20.6549 7.00219 21.5024 10.0051 20.1643 13.0086C18.2989 17.1957 14.6603 19.7545 12.1983 20.857C11.9596 20.964 11.6892 20.9638 11.4502 20.8576C8.98815 19.7637 5.34972 17.2907 3.48439 13.0086Z" fill="#0BC7F2"/>
</svg>
