<svg width="24" height="24" viewBox="0 0 24 24" fill="none" xmlns="http://www.w3.org/2000/svg">
<path fill-rule="evenodd" clip-rule="evenodd" d="M7.27036 4.53089C6.37099 5.61267 5.99382 7.09806 5.99382 8.66672H5.29382H4.59382C4.59382 6.90204 5.01473 5.0541 6.19381 3.63587C7.39229 2.19432 9.2876 1.30005 12.0115 1.30005C14.7356 1.30005 16.6184 2.19471 17.8025 3.63971C18.9658 5.05943 19.3694 6.90727 19.3694 8.66672V13.5087C19.5627 13.9034 19.916 14.5417 20.2084 14.8589C20.4457 15.1163 20.5857 15.4531 20.6516 15.7745C20.7189 16.1031 20.721 16.4733 20.6267 16.8311C20.5315 17.1928 20.3318 17.5598 19.9845 17.8351C19.6334 18.1134 19.1849 18.2556 18.6694 18.2556H15.7783C15.759 18.9943 15.6784 19.8918 15.3444 20.6769C15.111 21.2255 14.7447 21.7456 14.1748 22.1234C13.6051 22.5011 12.887 22.7001 12.0115 22.7001C11.1359 22.7001 10.4178 22.5011 9.84819 22.1234C9.27823 21.7456 8.91199 21.2255 8.67857 20.6769C8.34452 19.8918 8.26396 18.9943 8.24462 18.2556H5.29387C4.7984 18.2556 4.36934 18.1028 4.03401 17.8275C3.70623 17.5584 3.50652 17.2044 3.40093 16.8557C3.2958 16.5085 3.27582 16.1421 3.32713 15.8086C3.37709 15.4837 3.50466 15.1303 3.75483 14.8589C3.9667 14.6291 4.19454 14.3029 4.37153 14.0043C4.45885 13.8569 4.52668 13.7282 4.57008 13.6341C4.58004 13.6125 4.58785 13.5946 4.59382 13.5802V8.66672H5.29382H5.99382V13.6667C5.99382 13.8124 5.952 13.9398 5.93355 13.9941C5.90805 14.069 5.87551 14.1464 5.8415 14.2202C5.77286 14.3691 5.68064 14.5413 5.57591 14.718C5.36877 15.0675 5.08446 15.4821 4.78421 15.8078C4.78457 15.8074 4.78113 15.8111 4.77523 15.8206C4.76934 15.83 4.76177 15.844 4.75363 15.863C4.73703 15.9019 4.72103 15.9553 4.71086 16.0214C4.69007 16.1566 4.69881 16.3111 4.74086 16.45C4.78245 16.5874 4.84839 16.6847 4.92238 16.7455C4.98882 16.8 5.09766 16.8556 5.29387 16.8556H18.6694C18.9222 16.8556 19.0498 16.7895 19.1149 16.738C19.1837 16.6834 19.2401 16.599 19.2729 16.4745C19.3067 16.3462 19.3088 16.1956 19.2801 16.0555C19.2499 15.9081 19.1979 15.8282 19.1791 15.8078C18.6884 15.2756 18.2065 14.3346 18.0337 13.9597L17.9694 13.8203V8.66672C17.9694 7.09283 17.6048 5.60733 16.7196 4.52706C15.8551 3.47205 14.4088 2.70005 12.0115 2.70005C9.61385 2.70005 8.15033 3.47245 7.27036 4.53089ZM9.64617 18.2556C9.66538 18.9129 9.73266 19.5784 9.96681 20.1288C10.1175 20.4829 10.3274 20.7614 10.6217 20.9565C10.9163 21.1518 11.3506 21.3001 12.0115 21.3001C12.6724 21.3001 13.1066 21.1518 13.4012 20.9565C13.6955 20.7614 13.9055 20.4829 14.0561 20.1288C14.2903 19.5784 14.3576 18.9129 14.3768 18.2556H9.64617Z" fill="#222222"/>
</svg>
