<svg width="24" height="24" viewBox="0 0 24 24" fill="none" xmlns="http://www.w3.org/2000/svg">
<path d="M9.11718 18.5556C7.20532 18.5556 6.85584 18.5556 5.47248 18.5556C4.08912 18.5556 3.93602 16.8889 4.44813 16.3333C4.96025 15.7778 5.47243 14.8519 5.47243 14.6667C5.47243 14.4815 5.47243 9.66667 5.47243 9.66667C5.47243 6.33333 7.06858 3 12.1901 3C17.3116 3 18.848 6.33333 18.848 9.66667V14.6667C19.0188 15.037 19.4626 15.8889 19.8723 16.3333C20.3845 16.8889 20.3845 18.5556 18.848 18.5556C18.3936 18.5556 17.3176 18.5556 15.263 18.5556M9.11718 18.5556C9.11718 20.2222 9.11718 23 12.1901 23C15.263 23 15.263 20.2222 15.263 18.5556M9.11718 18.5556C11.2207 18.5556 13.4278 18.5556 15.263 18.5556" stroke="black" stroke-width="2"/>
</svg>
