<svg width="24" height="24" viewBox="0 0 24 24" fill="none" xmlns="http://www.w3.org/2000/svg">
<path fill-rule="evenodd" clip-rule="evenodd" d="M18.3639 5.63615C18.7545 6.02668 18.7545 6.65984 18.3639 7.05037L7.05023 18.3641C6.6597 18.7546 6.02654 18.7546 5.63602 18.3641C5.24549 17.9736 5.24549 17.3404 5.63602 16.9499L16.9497 5.63615C17.3402 5.24563 17.9734 5.24563 18.3639 5.63615Z" fill="black"/>
<path fill-rule="evenodd" clip-rule="evenodd" d="M18.3638 18.3639C17.9733 18.7545 17.3402 18.7545 16.9496 18.3639L5.63592 7.05023C5.2454 6.6597 5.2454 6.02654 5.63592 5.63602C6.02645 5.24549 6.65961 5.24549 7.05014 5.63602L18.3638 16.9497C18.7544 17.3402 18.7544 17.9734 18.3638 18.3639Z" fill="black"/>
</svg>
