<svg width="24" height="24" viewBox="0 0 24 24" fill="none" xmlns="http://www.w3.org/2000/svg">
<path d="M12 1.25C12.1989 1.25 12.3896 1.32907 12.5303 1.46973L21.1221 10.0615C21.6341 10.5767 21.9219 11.2736 21.9219 12C21.9219 12.7264 21.6341 13.4233 21.1221 13.9385L13.9502 21.1104C13.6949 21.3659 13.3913 21.5687 13.0576 21.707C12.7239 21.8453 12.3661 21.917 12.0049 21.917C11.6436 21.917 11.2859 21.8453 10.9521 21.707C10.7019 21.6033 10.4684 21.4633 10.2598 21.292L10.0596 21.1104L1.46973 12.5303C1.32908 12.3896 1.25 12.1989 1.25 12V2C1.25 1.58579 1.58579 1.25 2 1.25H12ZM7 6C6.44772 6 6 6.44772 6 7C6 7.55228 6.44772 8 7 8H7.00977C7.56205 8 8.00977 7.55228 8.00977 7C8.00977 6.44772 7.56205 6 7.00977 6H7Z" fill="#212121"/>
</svg>
