<svg width="24" height="24" viewBox="0 0 24 24" fill="none" xmlns="http://www.w3.org/2000/svg">
<g clip-path="url(#clip0_233_234)">
<path d="M10.1109 4.43477C10.7335 2.64365 13.2665 2.64365 13.8891 4.43477L14.5995 6.47854C14.8742 7.26868 15.6116 7.80442 16.4479 7.82147L18.6112 7.86555C20.507 7.90419 21.2898 10.3133 19.7787 11.4589L18.0545 12.7661C17.3879 13.2715 17.1063 14.1383 17.3485 14.939L17.9751 17.01C18.5242 18.825 16.4749 20.3139 14.9184 19.2308L13.1424 17.9949C12.4557 17.5171 11.5443 17.5171 10.8576 17.9949L9.08161 19.2308C7.52512 20.3139 5.47583 18.825 6.02494 17.01L6.6515 14.939C6.89373 14.1383 6.61208 13.2715 5.94548 12.7661L4.22127 11.4589C2.71021 10.3133 3.49297 7.90419 5.38882 7.86555L7.55208 7.82147C8.38842 7.80442 9.12581 7.26868 9.40046 6.47854L10.1109 4.43477Z" stroke="black" stroke-width="2" stroke-linejoin="round"/>
</g>
<defs>
<clipPath id="clip0_233_234">
<rect width="24" height="24" fill="white"/>
</clipPath>
</defs>
</svg>
