<svg width="24" height="24" viewBox="0 0 24 24" fill="none" xmlns="http://www.w3.org/2000/svg">
<path fill-rule="evenodd" clip-rule="evenodd" d="M9.44977 4.20487C10.2903 1.78685 13.7099 1.78685 14.5504 4.20487L15.2608 6.24863C15.4393 6.76223 15.9186 7.11046 16.4623 7.12154L18.6255 7.16562C21.1849 7.21778 22.2417 10.47 20.2017 12.0166L18.4775 13.3238C18.0442 13.6523 17.8611 14.2158 18.0186 14.7362L18.6452 16.8072C19.3865 19.2575 16.6199 21.2675 14.5187 19.8053L12.7426 18.5694C12.2963 18.2589 11.7039 18.2589 11.2576 18.5694L9.48152 19.8053C7.38027 21.2675 4.61372 19.2575 5.35502 16.8072L5.98158 14.7362C6.13903 14.2158 5.95595 13.6523 5.52267 13.3238L3.79846 12.0166C1.75852 10.47 2.81525 7.21778 5.37464 7.16562L7.53791 7.12154C8.08153 7.11046 8.56083 6.76223 8.73936 6.24864L9.44977 4.20487ZM13.228 4.66453C12.8233 3.5003 11.1768 3.5003 10.7722 4.66453L10.0617 6.7083C9.69096 7.77499 8.69549 8.49824 7.56643 8.52125L5.40317 8.56533C4.17086 8.59044 3.66207 10.1563 4.64426 10.901L6.36847 12.2082C7.26838 12.8905 7.64861 14.0607 7.32159 15.1416L6.69503 17.2126C6.33811 18.3924 7.67016 19.3602 8.68187 18.6561L10.4579 17.4203C11.3849 16.7752 12.6153 16.7752 13.5423 17.4203L15.3183 18.6561C16.33 19.3602 17.6621 18.3924 17.3051 17.2126L16.6786 15.1416C16.3516 14.0607 16.7318 12.8905 17.6317 12.2082L19.3559 10.901C20.3381 10.1563 19.8293 8.59044 18.597 8.56533L16.4337 8.52125C15.3047 8.49824 14.3092 7.77499 13.9384 6.7083L13.228 4.66453Z" fill="#222222"/>
</svg>
