<svg width="24" height="24" viewBox="0 0 24 24" fill="none" xmlns="http://www.w3.org/2000/svg">
<path d="M12 1.5C16.9706 1.5 21 5.52944 21 10.5V19.5C21 21.1569 19.6569 22.5 18 22.5H13C12.4477 22.5 12 22.0523 12 21.5C12 20.9477 12.4477 20.5 13 20.5H18C18.5523 20.5 19 20.0523 19 19.5V19.3252C18.6869 19.436 18.3511 19.5 18 19.5H17C15.3431 19.5 14 18.1569 14 16.5V14.5C14 12.8431 15.3431 11.5 17 11.5H18C18.351 11.5 18.6869 11.5631 19 11.6738V10.5C19 6.63401 15.866 3.5 12 3.5C8.13401 3.5 5 6.63401 5 10.5V11.6738C5.31306 11.5631 5.649 11.5 6 11.5H7C8.65685 11.5 10 12.8431 10 14.5V16.5C10 18.1569 8.65685 19.5 7 19.5H6C4.34315 19.5 3 18.1569 3 16.5V10.5C3 5.52944 7.02944 1.5 12 1.5Z" fill="#212121"/>
</svg>
