<svg width="24" height="24" viewBox="0 0 24 24" fill="none" xmlns="http://www.w3.org/2000/svg">
<path d="M3.01462 13.18L3.01983 13.1943L3.02589 13.2082C4.95747 17.6424 8.71449 20.1892 11.247 21.3145C11.6151 21.478 12.0336 21.4785 12.4026 21.3133C14.9384 20.1777 18.6905 17.545 20.6209 13.212C22.0465 10.0123 21.1595 6.72482 18.4629 5.07406L18.4464 5.06393L18.4291 5.05511C17.4453 4.55323 16.4903 4.40284 15.4572 4.66218C14.4516 4.91461 13.4157 5.54487 12.2317 6.50453C12.0167 6.67876 11.6947 6.67157 11.4779 6.47634C10.3706 5.4791 9.31554 4.85742 8.26749 4.62288C7.20501 4.3851 6.19784 4.55601 5.21963 5.05509L5.20235 5.0639L5.1858 5.07403C3.90226 5.85977 2.93537 6.819 2.51908 8.16683C2.10636 9.50309 2.26473 11.1264 3.01462 13.18Z" fill="#0BC7F2" stroke="#0BC7F2"/>
</svg>
