<svg width="24" height="24" viewBox="0 0 24 24" fill="none" xmlns="http://www.w3.org/2000/svg">
<mask id="path-1-inside-1_707_6095" fill="white">
<path fill-rule="evenodd" clip-rule="evenodd" d="M10.7546 20.3903C9.15728 18.8757 6.45851 16.0217 5.42344 13.1676C5.00001 12 4.69375 9.77838 5.42344 8.08378C6 6 8.48813 3 11.9906 3C15.4932 3 18 6.46216 18.5579 8.08378C19.2875 9.62432 19 12 18.5579 13.1676C17.484 16.0033 14.8034 18.8608 13.2188 20.3818C12.5237 21.0489 11.4537 21.0532 10.7546 20.3903ZM12 11C13.1046 11 14 10.1046 14 9C14 7.89543 13.1046 7 12 7C10.8954 7 10 7.89543 10 9C10 10.1046 10.8954 11 12 11Z"/>
</mask>
<path fill-rule="evenodd" clip-rule="evenodd" d="M10.7546 20.3903C9.15728 18.8757 6.45851 16.0217 5.42344 13.1676C5.00001 12 4.69375 9.77838 5.42344 8.08378C6 6 8.48813 3 11.9906 3C15.4932 3 18 6.46216 18.5579 8.08378C19.2875 9.62432 19 12 18.5579 13.1676C17.484 16.0033 14.8034 18.8608 13.2188 20.3818C12.5237 21.0489 11.4537 21.0532 10.7546 20.3903ZM12 11C13.1046 11 14 10.1046 14 9C14 7.89543 13.1046 7 12 7C10.8954 7 10 7.89543 10 9C10 10.1046 10.8954 11 12 11Z" fill="#0BC7F2"/>
<path d="M5.42344 13.1676L6.36353 12.8266L5.42344 13.1676ZM10.7546 20.3903L10.0666 21.116H10.0666L10.7546 20.3903ZM5.42344 8.08378L6.34191 8.47928L6.36897 8.41642L6.38722 8.35045L5.42344 8.08378ZM18.5579 8.08378L17.6122 8.40909L17.6303 8.46163L17.6541 8.51185L18.5579 8.08378ZM18.5579 13.1676L19.493 13.5217L18.5579 13.1676ZM13.2188 20.3818L13.9112 21.1032L13.2188 20.3818ZM4.48335 13.5085C5.6062 16.6047 8.46683 19.5991 10.0666 21.116L11.4427 19.6647C9.84774 18.1523 7.31082 15.4388 6.36353 12.8266L4.48335 13.5085ZM4.50497 7.68829C4.06164 8.71785 3.94972 9.85921 3.9919 10.8652C4.0342 11.8742 4.23471 12.8229 4.48335 13.5085L6.36353 12.8266C6.18874 12.3447 6.02441 11.5988 5.99014 10.7814C5.95575 9.96106 6.05554 9.14431 6.34191 8.47928L4.50497 7.68829ZM11.9906 2C9.94066 2 8.21513 2.8796 6.94386 4.01448C5.68489 5.13837 4.80463 6.57031 4.45965 7.81711L6.38722 8.35045C6.61881 7.51347 7.2709 6.40352 8.27577 5.50647C9.26833 4.6204 10.5381 4 11.9906 4V2ZM19.5035 7.75848C19.1656 6.77622 18.3016 5.37128 17.0641 4.20581C15.8188 3.03303 14.0834 2 11.9906 2V4C13.4004 4 14.6696 4.69805 15.6929 5.66176C16.7239 6.63277 17.3923 7.76972 17.6122 8.40909L19.5035 7.75848ZM19.493 13.5217C19.7585 12.8207 19.9572 11.8257 19.9966 10.8041C20.0356 9.79086 19.9231 8.62997 19.4616 7.65572L17.6541 8.51185C17.9223 9.07813 18.0309 9.87535 17.998 10.727C17.9655 11.5702 17.7994 12.3469 17.6227 12.8134L19.493 13.5217ZM13.9112 21.1032C15.4988 19.5795 18.3322 16.5872 19.493 13.5217L17.6227 12.8134C16.6358 15.4193 14.108 18.1422 12.5263 19.6603L13.9112 21.1032ZM10.0666 21.116C11.154 22.1471 12.8317 22.1394 13.9112 21.1032L12.5263 19.6603C12.2157 19.9585 11.7535 19.9594 11.4427 19.6647L10.0666 21.116ZM13 9C13 9.55228 12.5523 10 12 10V12C13.6569 12 15 10.6569 15 9H13ZM12 8C12.5523 8 13 8.44772 13 9H15C15 7.34315 13.6569 6 12 6V8ZM11 9C11 8.44772 11.4477 8 12 8V6C10.3431 6 9 7.34315 9 9H11ZM12 10C11.4477 10 11 9.55228 11 9H9C9 10.6569 10.3431 12 12 12V10Z" fill="#0BC7F2" mask="url(#path-1-inside-1_707_6095)"/>
</svg>
