<svg width="24" height="24" viewBox="0 0 24 24" fill="none" xmlns="http://www.w3.org/2000/svg">
<path fill-rule="evenodd" clip-rule="evenodd" d="M12 4.70005C10.7298 4.70005 9.70005 5.72979 9.70005 7.00005C9.70005 8.2703 10.7298 9.30005 12 9.30005C13.2703 9.30005 14.3 8.2703 14.3 7.00005C14.3 5.72979 13.2703 4.70005 12 4.70005ZM8.30005 7.00005C8.30005 4.9566 9.9566 3.30005 12 3.30005C14.0435 3.30005 15.7 4.9566 15.7 7.00005C15.7 9.0435 14.0435 10.7 12 10.7C9.9566 10.7 8.30005 9.0435 8.30005 7.00005Z" fill="#222222"/>
<path fill-rule="evenodd" clip-rule="evenodd" d="M3.30005 17C3.30005 14.4043 5.40431 12.3 8.00005 12.3H16C18.5958 12.3 20.7001 14.4043 20.7001 17V18C20.7001 19.4912 19.4912 20.7 18 20.7H6.00005C4.50888 20.7 3.30005 19.4912 3.30005 18V17ZM8.00005 13.7C6.17751 13.7 4.70005 15.1775 4.70005 17V18C4.70005 18.718 5.28208 19.3 6.00005 19.3H18C18.718 19.3 19.3 18.718 19.3 18V17C19.3 15.1775 17.8226 13.7 16 13.7H8.00005Z" fill="#222222"/>
</svg>
