<svg width="24" height="24" viewBox="0 0 24 24" fill="none" xmlns="http://www.w3.org/2000/svg">
<path fill-rule="evenodd" clip-rule="evenodd" d="M10.38 3.34005C11.34 2.62005 12.66 2.62005 13.62 3.34005L19.62 7.84005C20.2999 8.34996 20.7001 9.1502 20.7001 10V18C20.7001 19.4912 19.4912 20.7001 18 20.7001H15C14.0612 20.7001 13.3 19.9389 13.3 19V16C13.3 15.2821 12.718 14.7 12 14.7C11.2821 14.7 10.7 15.2821 10.7 16V19C10.7 19.9389 9.93893 20.7001 9.00005 20.7001H6.00005C4.50888 20.7001 3.30005 19.4912 3.30005 18V10C3.30005 9.1502 3.70017 8.34996 4.38005 7.84005L10.38 3.34005ZM12.78 4.46005C12.3178 4.11338 11.6823 4.11338 11.22 4.46005L5.22005 8.96005C4.8927 9.20556 4.70005 9.59086 4.70005 10V18C4.70005 18.718 5.28208 19.3 6.00005 19.3H9.00005C9.16573 19.3 9.30005 19.1657 9.30005 19V16C9.30005 14.5089 10.5089 13.3 12 13.3C13.4912 13.3 14.7 14.5089 14.7 16V19C14.7 19.1657 14.8344 19.3 15 19.3H18C18.718 19.3 19.3 18.718 19.3 18V10C19.3 9.59086 19.1074 9.20556 18.78 8.96005L12.78 4.46005Z" fill="#222222"/>
</svg>
