<svg width="24" height="24" viewBox="0 0 24 24" fill="none" xmlns="http://www.w3.org/2000/svg">
<path d="M17.1162 1C20.3657 1 23 3.6343 23 6.88379V17.1162C23 20.3657 20.3657 23 17.1162 23H6.88379C3.6343 23 1 20.3657 1 17.1162V6.88379C1 3.6343 3.6343 1 6.88379 1H17.1162ZM12 5.25C11.5858 5.25 11.25 5.58579 11.25 6V11.25H6C5.58579 11.25 5.25 11.5858 5.25 12C5.25 12.4142 5.58579 12.75 6 12.75H11.25V18C11.25 18.4142 11.5858 18.75 12 18.75C12.4142 18.75 12.75 18.4142 12.75 18V12.75H18C18.4142 12.75 18.75 12.4142 18.75 12C18.75 11.5858 18.4142 11.25 18 11.25H12.75V6C12.75 5.58579 12.4142 5.25 12 5.25Z" fill="#212121"/>
</svg>
