<svg width="24" height="24" viewBox="0 0 24 24" fill="none" xmlns="http://www.w3.org/2000/svg">
<path fill-rule="evenodd" clip-rule="evenodd" d="M8.07602 5.28272C7.03304 6.2138 6.34673 7.37205 6.09813 8.2705L6.08536 8.31667L6.06641 8.36068C5.7565 9.08039 5.65489 9.94583 5.69045 10.794C5.72592 11.6401 5.89568 12.4164 6.08154 12.929C7.05517 15.6137 9.64065 18.3694 11.2363 19.8824C11.6636 20.2876 12.3081 20.2856 12.7341 19.8768C14.3167 18.3578 16.8903 15.5946 17.9033 12.9197C18.0933 12.418 18.2643 11.6086 18.2979 10.7386C18.3316 9.86273 18.2225 9.01096 17.9253 8.38348L17.9086 8.34833L17.896 8.31154C17.6583 7.62075 16.9606 6.4436 15.8986 5.44341C14.8421 4.44835 13.5029 3.70005 11.9907 3.70005C10.4486 3.70005 9.11039 4.35933 8.07602 5.28272ZM7.14369 4.23833C8.37315 3.14077 10.0303 2.30005 11.9907 2.30005C13.981 2.30005 15.6465 3.28283 16.8585 4.42425C18.0492 5.54573 18.8778 6.88972 19.207 7.81947C19.6259 8.72565 19.7345 9.81629 19.6968 10.7926C19.6585 11.7875 19.4647 12.7497 19.2125 13.4155C18.0778 16.412 15.2903 19.3639 13.7035 20.8869C12.7393 21.8123 11.2439 21.819 10.273 20.8983C8.67401 19.3821 5.86194 16.4299 4.76542 13.4063C4.52786 12.7512 4.33277 11.8329 4.29168 10.8527C4.25129 9.88925 4.35749 8.81472 4.76182 7.85106C5.09875 6.67609 5.93863 5.31409 7.14369 4.23833Z" fill="#222222"/>
<path d="M14 9C14 10.1046 13.1046 11 12 11C10.8954 11 10 10.1046 10 9C10 7.89543 10.8954 7 12 7C13.1046 7 14 7.89543 14 9Z" fill="#222222"/>
</svg>
