<svg width="24" height="24" viewBox="0 0 24 24" fill="none" xmlns="http://www.w3.org/2000/svg">
<path fill-rule="evenodd" clip-rule="evenodd" d="M20 5.70039C20 6.08699 19.602 6.40039 19.1111 6.40039L4.88889 6.40039C4.39797 6.40039 4 6.08699 4 5.70039C4 5.31379 4.39797 5.00039 4.88889 5.00039L19.1111 5.00039C19.602 5.00039 20 5.31379 20 5.70039Z" fill="#222222"/>
<path fill-rule="evenodd" clip-rule="evenodd" d="M20 11.7004C20 12.087 19.602 12.4004 19.1111 12.4004L4.88889 12.4004C4.39797 12.4004 4 12.087 4 11.7004C4 11.3138 4.39797 11.0004 4.88889 11.0004L19.1111 11.0004C19.602 11.0004 20 11.3138 20 11.7004Z" fill="#222222"/>
<path fill-rule="evenodd" clip-rule="evenodd" d="M20 17.7004C20 18.087 19.602 18.4004 19.1111 18.4004L4.88889 18.4004C4.39797 18.4004 4 18.087 4 17.7004C4 17.3138 4.39797 17.0004 4.88889 17.0004L19.1111 17.0004C19.602 17.0004 20 17.3138 20 17.7004Z" fill="#222222"/>
</svg>
