<svg width="24" height="24" viewBox="0 0 24 24" fill="none" xmlns="http://www.w3.org/2000/svg">
<path fill-rule="evenodd" clip-rule="evenodd" d="M11 5.70005C7.52065 5.70005 4.70005 8.52065 4.70005 12C4.70005 15.4794 7.52065 18.3 11 18.3C14.4794 18.3 17.3 15.4794 17.3 12C17.3 8.52065 14.4794 5.70005 11 5.70005ZM3.30005 12C3.30005 7.74746 6.74746 4.30005 11 4.30005C15.2526 4.30005 18.7 7.74746 18.7 12C18.7 16.2526 15.2526 19.7 11 19.7C6.74746 19.7 3.30005 16.2526 3.30005 12Z" fill="#3A3A3A"/>
<path fill-rule="evenodd" clip-rule="evenodd" d="M19.5051 21.4951L15.5051 17.4951L16.4951 16.5051L20.4951 20.5051C20.7684 20.7785 20.7684 21.2217 20.4951 21.4951C20.2217 21.7684 19.7785 21.7684 19.5051 21.4951Z" fill="#3A3A3A"/>
</svg>
