<svg width="24" height="24" viewBox="0 0 24 24" fill="none" xmlns="http://www.w3.org/2000/svg">
<path fill-rule="evenodd" clip-rule="evenodd" d="M20 5.6999C20 6.0865 19.602 6.3999 19.1111 6.3999L4.88889 6.3999C4.39797 6.3999 4 6.0865 4 5.6999C4 5.3133 4.39797 4.9999 4.88889 4.9999L19.1111 4.9999C19.602 4.9999 20 5.3133 20 5.6999Z" fill="#222222"/>
<path fill-rule="evenodd" clip-rule="evenodd" d="M20 11.6999C20 12.0865 19.602 12.3999 19.1111 12.3999L4.88889 12.3999C4.39797 12.3999 4 12.0865 4 11.6999C4 11.3133 4.39797 10.9999 4.88889 10.9999L19.1111 10.9999C19.602 10.9999 20 11.3133 20 11.6999Z" fill="#222222"/>
<path fill-rule="evenodd" clip-rule="evenodd" d="M20 17.6999C20 18.0865 19.602 18.3999 19.1111 18.3999L4.88889 18.3999C4.39797 18.3999 4 18.0865 4 17.6999C4 17.3133 4.39797 16.9999 4.88889 16.9999L19.1111 16.9999C19.602 16.9999 20 17.3133 20 17.6999Z" fill="#222222"/>
</svg>
