<svg width="24" height="24" viewBox="0 0 24 24" fill="none" xmlns="http://www.w3.org/2000/svg">
<path d="M17.5823 5.25C19.6085 5.25004 20.7648 7.56361 19.5491 9.18457C19.0304 9.87627 18.7503 10.7175 18.7502 11.582V18C18.7502 20.6233 16.6235 22.7498 14.0002 22.75H10.0002C7.37689 22.75 5.25024 20.6234 5.25024 18V11.582C5.25019 10.7174 4.96918 9.87631 4.45044 9.18457C3.2348 7.56372 4.39129 5.25033 6.41724 5.25H17.5823ZM10.0002 10.25C9.58603 10.25 9.25024 10.5858 9.25024 11L9.24927 17C9.24927 17.4141 9.58528 17.7497 9.99927 17.75C10.4135 17.75 10.7493 17.4142 10.7493 17L10.7502 11C10.7502 10.5859 10.4142 10.2503 10.0002 10.25ZM14.0002 10.25C13.586 10.25 13.2502 10.5858 13.2502 11L13.2493 17C13.2493 17.4141 13.5853 17.7497 13.9993 17.75C14.4135 17.75 14.7493 17.4142 14.7493 17L14.7502 11C14.7502 10.5859 14.4142 10.2503 14.0002 10.25Z" fill="#212121"/>
<path d="M16 6L15.4558 4.36754C15.1836 3.55086 14.4193 3 13.5585 3H10.4415C9.58066 3 8.81638 3.55086 8.54415 4.36754L8 6" stroke="#212121" stroke-width="1.5" stroke-linecap="round"/>
</svg>
