<svg width="24" height="24" viewBox="0 0 24 24" fill="none" xmlns="http://www.w3.org/2000/svg">
<path fill-rule="evenodd" clip-rule="evenodd" d="M12.0001 3.30005C12.1977 3.30005 12.3861 3.38357 12.5187 3.52999L19.5187 11.2541C19.7784 11.5406 19.7566 11.9833 19.4701 12.2429C19.1837 12.5025 18.741 12.4807 18.4814 12.1943L12.7001 5.81487V20C12.7001 20.3866 12.3867 20.7001 12.0001 20.7001C11.6135 20.7001 11.3001 20.3866 11.3001 20V5.81487L5.51874 12.1943C5.25914 12.4807 4.81646 12.5025 4.52999 12.2429C4.24353 11.9833 4.22175 11.5406 4.48136 11.2541L11.4814 3.52999C11.6141 3.38357 11.8025 3.30005 12.0001 3.30005Z" fill="#222222"/>
</svg>
