<svg width="201" height="231" viewBox="0 0 201 231" fill="none" xmlns="http://www.w3.org/2000/svg">
<g clip-path="url(#clip0_937_8830)">
<path d="M176.271 212.779C175.995 212.316 175.57 212.01 175.225 211.764C175.195 211.744 175.165 211.724 175.136 211.695C175.136 211.665 175.136 211.636 175.136 211.606C175.076 211.015 174.988 210.128 174.208 209.615C173.556 209.182 172.835 209.329 172.361 209.418C172.292 209.428 172.223 209.448 172.154 209.457C171.72 209.3 171.305 209.31 171.009 209.319C170.969 209.319 170.93 209.319 170.89 209.319C170.87 209.3 170.851 209.28 170.831 209.26C170.604 209.004 170.258 208.62 169.715 208.403C168.896 208.078 168.155 208.492 167.711 208.748C167.672 208.768 167.622 208.797 167.583 208.817C167.415 208.797 167.257 208.797 167.119 208.817C167 208.009 166.793 207.013 165.786 206.717C165.45 206.619 165.134 206.58 164.858 206.55C164.7 206.53 164.542 206.52 164.394 206.481C163.564 206.254 162.883 206.718 162.468 206.984C162.429 207.013 162.389 207.043 162.35 207.062C161.837 207.062 161.392 207.299 161.076 207.506C160.958 207.407 160.829 207.299 160.672 207.2C160.642 207.102 160.622 207.003 160.602 206.915C160.405 206.126 160.138 205.042 159.052 204.815C158.322 204.667 157.729 204.993 157.334 205.21C157.295 205.229 157.255 205.259 157.216 205.279C156.999 205.279 156.732 205.328 156.525 205.417C156.337 204.549 156.011 203.721 155.044 203.544C154.047 203.357 153.464 204.076 152.99 204.874C152.763 204.667 152.467 204.5 152.092 204.441C151.924 204.411 151.756 204.362 151.598 204.322C151.48 204.293 151.361 204.253 151.243 204.224C151.233 204.194 151.213 204.175 151.203 204.145C150.927 203.623 150.502 202.844 149.574 202.706C148.587 202.568 148.054 203.228 147.599 204.086C147.363 203.859 147.066 203.682 146.662 203.633C146.405 203.603 146.148 203.564 145.882 203.534L145.654 203.504C145.654 203.504 145.635 203.475 145.615 203.455C145.329 203.081 144.855 202.46 144.045 202.361C143.532 202.302 143.097 202.43 142.781 202.519C142.702 202.539 142.623 202.578 142.633 202.588C142.465 202.568 142.298 202.529 142.12 202.489C141.843 202.43 141.557 202.361 141.271 202.332C140.56 202.253 140.007 202.598 139.652 202.834C139.612 202.854 139.583 202.884 139.543 202.903C139.109 202.913 138.743 203.051 138.487 203.15C138.457 203.159 138.427 203.169 138.398 203.189C138.368 203.169 138.339 203.15 138.309 203.14C138.013 202.972 137.608 202.746 137.085 202.696C136.709 202.657 136.384 202.746 136.107 202.893C135.841 202.046 135.446 201.238 134.458 201.149C133.876 201.1 133.402 201.307 133.076 201.445C133.017 201.464 132.968 201.494 132.908 201.514H132.898C131.941 201.514 131.388 202.332 131.023 202.884C130.983 202.943 130.944 203.002 130.904 203.051C130.776 203.071 130.667 203.1 130.558 203.12C130.302 202.696 129.936 202.134 129.295 201.918C129.265 201.878 129.235 201.849 129.216 201.809C128.91 201.435 128.406 200.804 127.567 200.745C127.399 200.735 127.241 200.695 127.073 200.666C126.777 200.607 126.491 200.548 126.195 200.538C125.987 200.528 125.78 200.508 125.573 200.489C125.326 200.469 125.079 200.449 124.822 200.429C124.101 200.4 123.578 200.764 123.223 201.011C123.203 201.021 123.183 201.04 123.163 201.05C123.085 201.04 122.996 201.021 122.917 201.001C122.62 200.942 122.324 200.893 122.127 200.893C122.048 200.873 121.979 200.824 121.9 200.794C121.604 200.646 121.189 200.449 120.675 200.429C119.876 200.39 119.333 200.883 118.967 201.208C118.938 201.238 118.908 201.257 118.888 201.287C118.572 201.316 118.306 201.405 118.089 201.474C118 201.504 117.911 201.533 117.871 201.543C117.447 201.523 117.092 201.652 116.795 201.789C116.47 201.287 115.986 200.695 115.147 200.666C114.485 200.646 113.991 201.001 113.646 201.376C113.34 201.1 112.925 200.853 112.392 200.833C111.661 200.814 111.237 201.188 110.901 201.642C110.704 201.425 110.467 201.247 110.18 201.129C110.151 201.08 110.111 201.031 110.082 200.981C109.746 200.498 109.223 199.759 108.285 199.749C108.275 199.749 108.265 199.749 108.255 199.749C107.347 199.749 106.863 200.42 106.517 201.119C106.379 201.031 106.221 200.942 106.053 200.883C106.024 200.833 105.984 200.794 105.955 200.745C105.609 200.272 105.086 199.542 104.148 199.532H104.128C103.121 199.532 102.598 200.39 102.242 200.952C102.242 200.952 102.232 200.971 102.223 200.981C101.966 200.942 101.65 200.912 101.364 200.902C100.801 200.902 100.386 201.169 100.08 201.494C99.7543 201.04 99.3001 200.656 98.609 200.656C97.8389 200.656 97.3255 201.119 96.9898 201.435C96.9602 201.464 96.9306 201.494 96.901 201.514C96.7134 201.553 96.5357 201.612 96.3777 201.681C96.0223 200.873 95.5484 199.986 94.4919 199.986C94.4919 199.986 94.4821 199.986 94.4722 199.986C93.4553 199.996 92.9418 200.873 92.6062 201.445C92.5667 201.514 92.5272 201.583 92.4877 201.642C92.2409 201.74 92.0236 201.888 91.8459 202.046C91.5102 201.681 91.0462 201.326 90.3946 201.326C90.3847 201.326 90.365 201.326 90.3551 201.326C89.7824 201.336 89.3382 201.583 89.0321 201.76C88.7063 201.573 88.2719 201.297 87.6104 201.307C87.2845 201.307 86.9982 201.385 86.7514 201.464C86.396 200.873 85.8628 200.025 84.8755 200.025C84.8558 200.025 84.836 200.025 84.8163 200.025C84.2239 200.045 83.8092 200.351 83.5031 200.735C83.1674 200.321 82.7232 199.986 82.0617 200.015C80.8571 200.065 80.4918 201.208 80.166 202.322C79.9389 202.253 79.6921 202.203 79.4157 202.213C79.2774 202.213 79.1392 202.194 78.9911 202.174C78.7245 202.134 78.3987 202.085 78.0433 202.105C77.9939 202.105 77.836 202.065 77.7274 202.046C77.52 201.996 77.2831 201.947 77.0165 201.927C76.9869 201.908 76.9671 201.878 76.9375 201.858C76.5821 201.553 76.0391 201.08 75.2492 201.129C74.4396 201.178 73.9854 201.73 73.6794 202.302C73.3733 202.105 73.0179 201.957 72.5538 201.987C72.5045 201.987 72.3465 201.947 72.2478 201.927C72.0898 201.888 71.9121 201.849 71.7146 201.829C71.685 201.79 71.6554 201.75 71.6258 201.711C71.2407 201.218 70.6779 200.459 69.6906 200.538C68.5848 200.617 68.18 201.652 67.874 202.41C67.8444 202.489 67.8049 202.598 67.7654 202.686C67.5877 202.765 67.4297 202.844 67.3013 202.923C66.9656 202.657 66.4522 202.322 65.8204 202.332C65.7611 202.312 65.7019 202.282 65.6427 202.263C65.3267 202.134 64.8528 201.947 64.2999 201.996C64.2505 201.987 64.0827 201.967 63.984 201.947C63.6878 201.888 63.3225 201.829 62.9078 201.868C62.4043 201.918 62.039 202.164 61.7724 202.479C61.3873 201.957 60.8937 201.543 60.1236 201.622C59.2152 201.721 58.8104 202.44 58.5636 203.199C58.3069 203.051 57.991 202.962 57.6553 202.972C57.596 202.952 57.5467 202.933 57.4874 202.903C57.1912 202.785 56.7371 202.608 56.2138 202.637C56.1546 202.617 56.0953 202.598 56.046 202.568C55.7201 202.45 55.2364 202.263 54.6637 202.332C53.8048 202.44 53.4296 203.081 53.1926 203.82C52.8767 203.613 52.4916 203.485 52.0473 203.544C51.6425 203.603 51.3069 203.741 51.0304 203.849C50.9218 203.899 50.7638 203.958 50.7145 203.968C50.1023 204.056 49.7173 204.431 49.4507 204.835C49.115 204.559 48.6905 204.332 48.1771 204.362C48.1277 204.342 48.0783 204.322 48.029 204.303C47.6834 204.155 47.1503 203.928 46.5283 204.037C46.4592 204.047 46.2814 204.037 46.1432 204.037C45.8668 204.017 45.5113 203.997 45.1263 204.066C44.6524 204.155 44.2871 204.372 44.0205 204.559C43.6157 204.293 43.0332 203.948 42.3026 204.096C41.6016 204.234 41.2363 204.736 41.0191 205.288C40.6439 205.022 40.1897 204.855 39.6368 204.973C39.469 205.012 39.2814 205.032 39.1037 205.052C38.8075 205.081 38.5212 205.121 38.2447 205.19C37.8498 205.279 37.524 205.446 37.2673 205.574C37.1488 205.633 36.9908 205.712 36.9316 205.732C35.8061 206.018 35.6283 207.151 35.4802 208.068C35.4704 208.127 35.4605 208.206 35.4506 208.275C35.3519 208.304 35.263 208.334 35.1643 208.354L35.1051 208.314C34.7299 208.078 34.1276 207.713 33.4168 207.821C33.3674 207.802 33.3279 207.792 33.2785 207.772C32.8737 207.624 32.2616 207.417 31.6396 207.644C31.5409 207.664 31.4421 207.644 31.3434 207.644C30.9978 207.644 30.5733 207.644 30.1191 207.821C29.4675 208.078 29.1318 208.6 28.9047 208.955C28.885 208.984 28.8652 209.014 28.8455 209.044C28.7566 209.073 28.6678 209.093 28.5789 209.122C28.2827 209.201 27.947 209.29 27.6114 209.467C26.8807 209.852 26.6438 210.591 26.5056 211.034C26.5056 211.064 26.4858 211.094 26.4759 211.113C26.2291 211.301 26.0218 211.488 25.8539 211.655C25.7355 211.646 25.5972 211.626 25.4985 211.606C24.758 211.498 23.6325 211.34 23.05 212.306C22.6254 213.015 22.7242 213.912 22.8031 214.632C22.8229 214.77 22.8328 214.898 22.8426 214.987C22.8426 216.091 23.7411 216.465 24.4816 216.613C24.1064 217.382 23.8497 218.308 24.6494 219.038C25.3998 219.718 26.3278 219.412 26.9499 219.215C27.0387 219.185 27.1374 219.146 27.2263 219.126C27.5027 219.215 27.7792 219.215 28.0359 219.176C28.105 219.658 28.2531 220.191 28.6875 220.555C28.7073 220.605 28.7171 220.644 28.7369 220.693C28.9047 221.186 29.1812 221.994 30.0105 222.329C30.4746 222.517 30.9287 222.507 31.2545 222.497C31.3533 222.497 31.452 222.497 31.5014 222.497C32.2024 222.743 32.8145 222.497 33.2292 222.349C33.2687 222.329 33.3081 222.32 33.3476 222.3C33.5254 222.349 33.7129 222.398 33.9005 222.448C34.0783 222.497 34.2658 222.536 34.4436 222.596C34.878 222.724 35.2926 222.704 35.5888 222.694C35.6876 222.694 35.7863 222.674 35.8554 222.694C36.3392 222.822 36.7736 222.743 37.129 222.625C37.3463 223.009 37.6622 223.463 38.2151 223.67C38.2447 223.699 38.2743 223.739 38.304 223.768C38.5705 224.074 38.9852 224.537 39.6566 224.685C40.4859 224.872 41.0783 224.409 41.5325 223.926C41.6904 224.084 41.8681 224.232 42.0854 224.34C42.1051 224.379 42.1248 224.419 42.1545 224.458C42.4112 224.892 42.8258 225.621 43.6848 225.779C44.4253 225.917 44.9979 225.542 45.4225 225.188C45.6891 225.424 46.0346 225.661 46.4986 225.74C47.4168 225.897 48.029 225.306 48.4437 224.922C48.4831 224.892 48.5128 224.853 48.5523 224.823C48.9867 224.774 49.3421 224.596 49.6087 224.468C49.6284 224.458 49.6482 224.448 49.6679 224.439C49.7272 224.458 49.7864 224.488 49.8555 224.508C49.9937 224.557 50.1517 224.616 50.3294 224.675C50.3492 224.705 50.359 224.734 50.3788 224.764C50.6552 225.276 51.0798 226.045 52.0079 226.173C52.3929 226.232 52.7286 226.154 53.0149 226.055C53.2815 226.706 53.6863 227.445 54.6045 227.563C54.8612 227.593 55.1278 227.612 55.3943 227.632C55.5918 227.642 55.7893 227.652 55.9867 227.681C56.4508 227.74 56.8556 227.652 57.1518 227.583C57.2406 227.563 57.3393 227.533 57.3887 227.524C58.07 227.602 58.6031 227.297 58.9585 227.1C58.9882 227.08 59.0178 227.07 59.0375 227.05C59.1363 227.07 59.235 227.09 59.3337 227.119C59.4522 227.149 59.5805 227.179 59.699 227.198C59.7188 227.228 59.7286 227.248 59.7484 227.277C60.0545 227.78 60.5086 228.539 61.4367 228.627C62.4635 228.726 63.0855 227.869 63.4804 227.297C63.5298 227.218 63.5792 227.149 63.6384 227.08C63.8457 227.021 64.0235 226.922 64.1913 226.814C64.4381 227.228 64.7738 227.642 65.307 227.809C65.3366 227.839 65.3662 227.878 65.3958 227.908C65.7118 228.253 66.1857 228.785 66.9755 228.854C67.7061 228.913 68.259 228.519 68.6243 228.263C68.6638 228.233 68.6934 228.213 68.7329 228.184C69.1377 228.144 69.4833 227.977 69.7499 227.809C70.0559 228.144 70.5101 228.519 71.1519 228.558C71.7344 228.598 72.1984 228.371 72.5242 228.204C72.8303 228.45 73.2844 228.765 73.8966 228.805C74.3804 228.834 74.7852 228.706 75.0912 228.618C75.1801 228.588 75.2591 228.558 75.2887 228.549C75.9403 228.578 76.4044 228.263 76.7598 227.898C77.0659 228.233 77.4707 228.529 78.0433 228.558C78.5666 228.578 79.001 228.42 79.3169 228.292C79.6033 228.519 80.0278 228.844 80.6004 228.923C80.6399 228.953 80.6893 228.982 80.7288 229.012C81.0349 229.219 81.5088 229.534 82.1308 229.564C82.8713 229.593 83.4044 229.179 83.75 228.903C83.7895 228.874 83.8191 228.844 83.8586 228.825C84.1054 228.785 84.3226 228.696 84.5201 228.568C84.8261 229.485 85.2507 230.273 86.2479 230.303C87.1068 230.352 87.6597 229.741 88.025 229.347C88.0448 229.327 88.0645 229.298 88.0941 229.278C88.2719 229.258 88.4397 229.238 88.5977 229.219C88.7458 229.199 88.9037 229.17 89.0518 229.17C89.6837 229.189 90.1675 228.874 90.5131 228.608C90.7401 228.756 91.0166 228.923 91.3621 229.012C91.3918 229.041 91.4214 229.081 91.4411 229.11C91.7867 229.514 92.3001 230.126 93.1689 230.145C93.1689 230.145 93.1887 230.145 93.1985 230.145C93.9094 230.145 94.4129 229.741 94.7486 229.485C94.7783 229.465 94.8079 229.436 94.8375 229.406C95.1633 229.376 95.4398 229.288 95.657 229.229C95.7557 229.199 95.8544 229.16 95.9334 229.15C96.1802 229.15 96.4567 229.14 96.7134 229.12C96.9108 229.11 97.0984 229.101 97.3058 229.101C97.829 229.101 98.2832 228.844 98.5992 228.519C98.925 228.972 99.3791 229.347 100.06 229.347C100.426 229.347 100.751 229.248 101.008 229.13C101.364 229.761 101.867 230.52 102.825 230.52H102.835C103.447 230.52 103.921 230.234 104.237 230.047C104.247 230.047 104.256 230.037 104.276 230.027C104.296 230.027 104.316 230.047 104.335 230.057C104.642 230.185 105.056 230.372 105.57 230.372C105.57 230.372 105.589 230.372 105.599 230.372C106.754 230.362 107.189 229.288 107.544 228.44C107.584 228.351 107.623 228.243 107.673 228.135C108.077 229.288 108.512 230.49 109.736 230.461C110.003 230.461 110.259 230.431 110.526 230.411C110.723 230.392 110.921 230.372 111.108 230.372C111.938 230.352 112.461 229.771 112.777 229.426C112.777 229.426 112.787 229.416 112.797 229.406C112.846 229.406 112.905 229.416 112.965 229.426C113.251 229.455 113.547 229.485 113.833 229.465C114.594 229.445 115.107 228.943 115.423 228.618C115.719 228.716 116.104 228.834 116.558 228.815C117.585 228.775 118.069 227.888 118.385 227.297C118.405 227.297 118.415 227.297 118.434 227.297C118.503 227.455 118.563 227.622 118.622 227.75C119.056 228.844 119.501 229.968 120.735 229.909C121.446 229.879 121.87 229.455 122.166 228.943C122.492 229.258 122.897 229.495 123.46 229.455C124.072 229.426 124.536 229.11 124.842 228.903C124.881 228.874 124.931 228.844 124.97 228.815C125.573 228.716 125.958 228.312 126.234 227.859C126.56 228.144 126.975 228.361 127.518 228.332L128.89 228.243C129.186 228.223 129.482 228.164 129.769 228.105C129.927 228.075 130.085 228.036 130.252 228.016C130.746 227.977 131.141 227.79 131.427 227.652C131.487 227.622 131.536 227.593 131.566 227.573C131.615 227.593 131.674 227.612 131.724 227.632C132.039 227.74 132.454 227.888 132.987 227.849C133.52 227.809 133.896 227.543 134.182 227.218C134.557 227.662 135.051 228.036 135.762 227.977C136.265 227.928 136.621 227.691 136.887 227.366C137.262 227.957 137.766 228.411 138.556 228.332C139.109 228.273 139.484 227.987 139.75 227.612C140.126 228.105 140.609 228.47 141.33 228.391C142.12 228.302 142.515 227.78 142.762 227.1C143.078 227.366 143.463 227.533 143.946 227.474C144.035 227.474 144.124 227.504 144.213 227.533C144.519 227.602 144.944 227.711 145.418 227.642C145.605 227.622 145.803 227.612 145.99 227.602C146.257 227.593 146.533 227.573 146.8 227.533C147.846 227.395 148.212 226.42 148.449 225.631C148.705 225.7 149.001 225.74 149.327 225.69C149.466 225.671 149.614 225.69 149.752 225.69C149.9 225.69 150.068 225.7 150.245 225.7C150.275 225.72 150.295 225.749 150.324 225.769C150.739 226.144 151.361 226.725 152.25 226.577C152.911 226.469 153.346 226.055 153.632 225.789C153.662 225.759 153.691 225.74 153.711 225.71L154.096 225.651C154.244 225.631 154.392 225.602 154.55 225.582C154.57 225.602 154.6 225.611 154.619 225.631C155.024 225.897 155.626 226.311 156.406 226.163C156.762 226.094 157.078 225.976 157.325 225.887C157.463 225.838 157.601 225.779 157.739 225.749C157.907 225.72 158.085 225.7 158.262 225.69C158.559 225.671 158.845 225.641 159.121 225.582C159.822 225.434 160.168 224.961 160.365 224.35C160.751 224.685 161.215 224.872 161.807 224.724C162.32 224.606 162.696 224.32 162.962 224.123C163.347 224.291 163.94 224.527 164.611 224.35C165.638 224.074 165.855 223.069 165.954 222.152C166.23 222.201 166.556 222.211 166.882 222.103C167.316 221.965 167.632 221.689 167.849 221.423C168.343 221.768 169.004 222.122 169.784 221.817C170.377 221.59 170.673 221.107 170.831 220.644C171.315 220.871 171.887 221.009 172.5 220.693C172.648 220.614 172.806 220.555 172.964 220.486C173.26 220.368 173.605 220.22 173.911 220.023C174.672 219.53 174.711 218.732 174.593 218.013C175.146 218.042 175.768 217.914 176.162 217.263C176.597 216.554 176.459 215.834 175.748 215.135C176.32 214.642 176.933 213.843 176.33 212.848L176.271 212.779Z" fill="#E4EAF1"/>
<path d="M174.643 139.775C174.594 139.775 174.525 139.756 174.475 139.756C174.307 139.43 174.021 138.977 173.488 138.701C172.945 138.425 172.432 138.514 172.017 138.671C171.829 138.395 171.573 138.129 171.178 137.972C171.089 137.942 171.01 137.883 170.931 137.834C170.714 137.696 170.437 137.528 170.121 137.43C170.052 137.4 169.993 137.351 169.924 137.311C169.697 137.163 169.381 136.957 168.976 136.848C168.295 136.661 167.762 136.937 167.367 137.242C167.13 137.045 166.814 136.868 166.419 136.828C165.659 136.74 165.096 137.183 164.79 137.42C164.582 137.439 164.405 137.469 164.247 137.499C163.901 137.252 163.309 136.848 162.519 137.045L162.252 137.104C161.936 137.173 161.571 137.252 161.196 137.41C160.762 137.597 160.465 137.883 160.248 138.1C160.219 138.129 160.199 138.149 160.169 138.179C160.149 138.179 160.13 138.179 160.12 138.179C159.774 138.228 159.202 138.307 158.728 138.74C158.283 139.145 158.165 139.647 158.116 140.032C157.76 140.16 157.296 140.396 156.99 140.889C156.644 141.461 156.743 142.042 156.872 142.466C156.635 142.653 156.378 142.919 156.23 143.304C156.082 143.688 156.082 144.053 156.131 144.349C155.766 144.556 155.351 144.9 155.203 145.502C155.065 146.073 155.223 146.546 155.391 146.891C155.242 147.108 155.065 147.394 154.996 147.759C154.976 147.788 154.956 147.818 154.936 147.847C154.759 148.123 154.482 148.527 154.453 149.099C154.433 149.474 154.502 149.799 154.551 150.065C154.571 150.154 154.591 150.242 154.591 150.331C154.591 150.765 154.759 151.12 154.917 151.386C154.769 151.593 154.611 151.849 154.532 152.154C154.354 152.194 154.206 152.243 154.068 152.302L153.455 152.026C153.317 151.849 153.051 151.543 152.517 151.297C152.409 151.248 152.399 151.238 152.31 151.169C152.221 151.1 152.123 151.031 152.004 150.952C151.935 150.518 151.718 149.789 150.908 149.424C150.503 149.237 150.237 149.188 149.99 149.148C149.924 149.142 149.868 149.125 149.822 149.099C149.743 149.06 149.664 149.02 149.585 148.981C149.141 148.744 148.321 148.321 147.314 148.725C146.169 149.178 146.08 150.262 146.051 150.666C146.051 150.666 146.051 150.676 146.051 150.686C145.893 150.775 145.695 150.913 145.508 151.12C145.35 150.972 145.172 150.804 144.935 150.666C144.876 150.627 144.826 150.568 144.767 150.518C144.579 150.341 144.323 150.095 143.967 149.897C143.859 149.838 143.76 149.769 143.651 149.7C143.424 149.543 143.187 149.395 142.931 149.267C142.565 149.089 142.21 149.04 141.953 149.001C141.874 148.991 141.795 148.981 141.736 148.971C141.618 148.922 141.499 148.863 141.371 148.794C141.134 148.675 140.897 148.557 140.64 148.458C140.166 148.271 139.732 148.311 139.436 148.33C139.416 148.33 139.396 148.33 139.376 148.33L139.317 148.281C139.1 148.123 138.774 147.877 138.34 147.749C137.964 147.64 137.619 147.64 137.372 147.631H137.362C137.283 147.631 137.204 147.631 137.135 147.631L136.79 147.542C136.523 147.473 136.256 147.404 136.069 147.364C136.019 147.345 135.96 147.305 135.911 147.276C135.674 147.138 135.318 146.921 134.864 146.842C134.499 146.783 134.163 146.813 133.907 146.842C133.818 146.842 133.739 146.872 133.65 146.862C133.285 146.813 132.969 146.862 132.722 146.882C132.682 146.882 132.653 146.882 132.623 146.891C132.357 146.694 131.922 146.369 131.31 146.339C130.53 146.31 129.878 146.882 129.829 147.65C129.79 148.34 130.254 148.932 130.895 149.089C130.915 149.109 130.945 149.129 130.964 149.139C131.231 149.336 131.626 149.631 132.199 149.681C132.534 149.71 132.821 149.681 133.058 149.651C133.137 149.651 133.225 149.631 133.294 149.631C133.64 149.681 133.936 149.651 134.183 149.631C134.242 149.631 134.311 149.612 134.361 149.612C134.4 149.631 134.44 149.661 134.479 149.681C134.706 149.819 135.012 150.006 135.417 150.085C135.644 150.134 135.862 150.193 136.079 150.252L136.464 150.351C136.809 150.44 137.125 150.44 137.362 150.44H137.372C137.421 150.44 137.481 150.44 137.53 150.44C137.57 150.469 137.609 150.499 137.639 150.518C137.846 150.676 138.122 150.883 138.508 151.011C138.962 151.169 139.386 151.129 139.663 151.11C139.692 151.11 139.722 151.11 139.752 151.11C139.88 151.169 140.008 151.228 140.127 151.297C140.295 151.376 140.453 151.455 140.61 151.524C140.956 151.681 141.292 151.731 141.539 151.76C141.618 151.77 141.687 151.78 141.697 151.78C141.835 151.849 141.963 151.938 142.082 152.017C142.259 152.135 142.447 152.253 142.615 152.342C142.684 152.391 142.743 152.46 142.802 152.519C142.97 152.687 143.187 152.894 143.474 153.061C143.543 153.111 143.602 153.18 143.661 153.239C143.829 153.406 144.027 153.613 144.313 153.791C144.441 153.869 144.56 153.948 144.678 154.037C144.678 154.047 144.678 154.057 144.658 154.076C144.352 154.747 144.491 155.338 144.658 155.742C144.53 155.929 144.392 156.126 144.224 156.481C144.096 156.757 144.036 156.925 143.987 157.073C143.474 157.112 142.625 157.28 142.22 158.167C141.943 158.758 142.052 159.3 142.24 159.704C142.003 159.872 141.766 160.118 141.608 160.483C141.558 160.581 141.548 160.601 141.479 160.68C141.321 160.867 141.154 161.094 140.966 161.488C140.926 161.567 140.917 161.616 140.887 161.685C140.847 161.666 140.808 161.646 140.778 161.616C140.68 161.537 140.591 161.459 140.492 161.37C140.285 161.192 140.067 161.015 139.84 160.838C139.366 160.493 138.863 160.453 138.517 160.424C138.508 160.424 138.488 160.424 138.478 160.424C138.458 160.394 138.429 160.374 138.409 160.345C138.241 160.167 138.004 159.911 137.718 159.734C137.668 159.684 137.619 159.635 137.579 159.576C137.402 159.369 137.155 159.093 136.79 158.866C136.464 158.669 136.128 158.581 135.881 158.512C135.802 158.492 135.713 158.472 135.644 158.443C135.536 158.383 135.427 158.305 135.328 158.226C135.101 158.068 134.874 157.91 134.627 157.782L134.262 157.585C134.025 157.457 133.788 157.329 133.541 157.22C133.433 157.171 133.334 157.102 133.235 157.033C133.028 156.905 132.781 156.738 132.475 156.609C132.159 156.471 131.853 156.412 131.606 156.363C131.498 156.343 131.389 156.324 131.28 156.284C130.925 156.156 130.589 156.117 130.333 156.097C130.293 156.097 130.244 156.097 130.204 156.087C130.204 156.077 130.184 156.067 130.175 156.057C129.938 155.811 129.582 155.437 129.01 155.289C128.467 155.141 127.993 155.269 127.677 155.348C127.42 155.18 127.045 154.924 126.531 154.845C125.761 154.737 125.06 155.269 124.952 156.038C124.853 156.757 125.317 157.418 126.008 157.585C126.048 157.605 126.077 157.634 126.117 157.654C126.344 157.812 126.689 158.039 127.144 158.137C127.578 158.226 127.963 158.157 128.249 158.078C128.467 158.295 128.773 158.571 129.217 158.719C129.533 158.817 129.819 158.847 130.056 158.876C130.145 158.876 130.234 158.886 130.313 158.906C130.56 158.995 130.816 159.054 131.073 159.103C131.192 159.123 131.34 159.152 131.399 159.182C131.517 159.231 131.616 159.31 131.725 159.379C131.932 159.517 132.139 159.645 132.366 159.744C132.564 159.832 132.742 159.931 132.929 160.039C133.067 160.118 133.206 160.187 133.354 160.266C133.482 160.335 133.601 160.414 133.709 160.503C133.897 160.641 134.084 160.769 134.292 160.877C134.608 161.054 134.924 161.133 135.151 161.202C135.23 161.222 135.309 161.242 135.318 161.232C135.378 161.281 135.417 161.34 135.467 161.399C135.634 161.587 135.852 161.843 136.177 162.05C136.217 162.08 136.306 162.178 136.375 162.247C136.533 162.415 136.73 162.631 137.007 162.819C137.491 163.144 137.994 163.183 138.32 163.213C138.33 163.213 138.34 163.213 138.35 163.213C138.468 163.302 138.577 163.4 138.675 163.489C138.794 163.597 138.912 163.696 139.041 163.794C139.179 163.903 139.307 163.992 139.436 164.07C139.327 164.208 139.228 164.356 139.13 164.553C138.656 165.578 139.11 166.347 139.307 166.682C139.347 166.741 139.386 166.81 139.416 166.899C139.653 167.599 140.048 168.003 140.689 168.19C140.818 168.545 141.094 169.048 141.736 169.343C142.161 169.541 142.555 169.55 142.891 169.491C143.059 169.797 143.326 170.122 143.78 170.329C144.125 170.487 144.313 170.546 144.501 170.595C144.589 170.625 144.678 170.644 144.846 170.723C145.577 171.058 146.209 170.832 146.613 170.605C146.761 170.733 146.959 170.861 147.216 170.979C147.472 171.098 147.69 171.157 147.887 171.196C147.976 171.669 148.213 172.31 148.953 172.645C149.654 172.97 150.257 172.783 150.651 172.596C150.76 172.685 150.879 172.763 151.037 172.852C151.165 173.158 151.441 173.66 152.103 173.956C152.221 174.015 152.251 174.035 152.33 174.094C152.468 174.202 152.685 174.36 153.08 174.547C153.534 174.754 153.919 174.784 154.206 174.764C154.364 175.001 154.64 175.306 155.134 175.533C155.983 175.927 156.704 175.533 157.128 175.227C157.207 175.277 157.286 175.336 157.385 175.385C157.405 175.425 157.424 175.474 157.434 175.513C157.928 176.716 158.639 176.992 159.182 176.992C159.439 176.992 159.656 176.933 159.804 176.873C160.949 176.45 161.077 175.326 161.117 174.912C161.117 174.833 161.127 174.754 161.137 174.715C161.384 174.183 161.374 173.769 161.354 173.463C161.374 173.434 161.393 173.414 161.393 173.414C161.571 173.227 161.769 172.99 161.966 172.566C162.243 171.975 162.183 171.482 162.114 171.147C162.243 170.822 162.282 170.585 162.312 170.359C162.318 170.299 162.331 170.25 162.351 170.211C162.479 169.935 162.539 169.807 162.598 169.669L162.825 169.166C162.934 168.939 162.993 168.762 163.042 168.604C163.566 168.565 164.375 168.397 164.77 167.53C165.066 166.879 164.918 166.308 164.711 165.894C164.889 165.726 165.076 165.509 165.214 165.204C165.353 164.908 165.412 164.76 165.471 164.603C165.52 164.484 165.56 164.366 165.668 164.139C165.807 163.844 165.866 163.686 165.925 163.538C165.975 163.42 166.014 163.312 166.123 163.075C166.212 162.888 166.261 162.799 166.32 162.71C166.419 162.553 166.518 162.395 166.666 162.06C166.913 161.537 166.913 161.123 166.893 160.838C166.932 160.759 166.952 160.729 167.011 160.66C167.13 160.512 167.248 160.345 167.386 160.079C167.653 159.931 168.078 159.655 168.364 159.044C168.561 158.62 168.571 158.226 168.512 157.891C168.838 157.733 169.183 157.457 169.401 156.974C169.628 156.481 169.598 156.038 169.499 155.673C169.776 155.506 170.052 155.249 170.25 154.835C170.408 154.481 170.467 154.303 170.526 154.116C170.556 154.027 170.585 153.929 170.664 153.761C170.99 153.042 170.803 152.421 170.605 152.007C170.635 151.938 170.664 151.879 170.684 151.81C170.684 151.79 170.704 151.77 170.714 151.75C171.148 151.662 171.839 151.435 172.195 150.656C172.392 150.233 172.402 149.838 172.343 149.503C172.639 149.355 172.955 149.109 173.172 148.695C173.389 148.557 173.774 148.271 174.041 147.69C174.248 147.236 174.238 146.822 174.14 146.468C174.475 146.31 174.801 146.044 175.008 145.59C175.374 144.802 175.097 144.132 174.89 143.757C174.929 143.639 174.959 143.53 174.989 143.432C175.443 143.314 176.509 142.979 176.638 141.776C176.707 141.145 176.529 140.051 174.663 139.815L174.643 139.775Z" fill="#212121"/>
<path d="M29.9422 154.796C29.9718 155.052 30.0113 155.368 30.2087 155.811C30.4358 156.304 30.7814 156.58 31.1171 156.747C31.0776 157.043 31.0973 157.408 31.275 157.822C31.275 158.048 31.2652 158.462 31.512 159.014C31.7193 159.468 31.9365 159.704 32.1834 159.97C32.4006 160.443 32.7363 160.719 33.0522 160.887C33.0028 161.202 33.0127 161.606 33.22 162.04C33.4175 162.464 33.615 162.7 33.7828 162.888C33.7828 162.888 33.7828 162.888 33.8025 162.907C33.7631 163.183 33.7236 163.656 33.9901 164.218L34.4739 165.263C34.5529 165.43 34.5727 165.509 34.6023 165.598C34.6516 165.795 34.7109 165.982 34.8787 166.347C35.0466 166.702 35.1749 166.889 35.3033 167.076C35.323 167.106 35.3428 167.136 35.3724 167.175C35.3033 167.481 35.244 167.973 35.5205 168.584C35.7574 169.097 36.1326 169.383 36.4683 169.54C36.4485 169.826 36.4782 170.181 36.6658 170.585C36.8731 171.029 37.1693 171.295 37.4457 171.472C37.3865 171.797 37.3865 172.221 37.6037 172.685C37.7715 173.039 37.8703 173.207 37.9789 173.365C38.0282 173.443 38.0776 173.522 38.1566 173.69C38.3738 174.173 38.6305 174.419 38.8675 174.626C38.8675 174.646 38.8872 174.725 38.8971 174.784C38.9563 175.129 39.1143 176.065 40.2201 176.469C40.3682 176.528 40.6051 176.588 40.8816 176.588C41.3654 176.588 41.9676 176.39 42.4712 175.592C42.4712 175.592 42.4712 175.582 42.481 175.572C42.8463 175.375 43.0734 175.139 43.2314 174.942C43.4486 174.961 43.7645 174.961 44.1397 174.833C44.4557 174.932 45.0184 175.05 45.6799 174.744C45.9465 174.616 46.0847 174.557 46.2229 174.488L46.7067 174.261C47.3978 173.946 47.6545 173.365 47.7632 172.921C47.9705 172.891 48.2074 172.832 48.4938 172.704C48.7307 172.596 48.9183 172.468 49.0664 172.349C49.4909 172.625 50.1525 172.911 50.9226 172.556C51.357 172.359 51.6235 172.054 51.7914 171.738C52.137 171.827 52.5516 171.827 52.9959 171.62C53.7167 171.295 53.9635 170.694 54.082 170.25C54.1906 170.191 54.2695 170.142 54.3485 170.092C54.4275 170.043 54.5164 169.984 54.6941 169.905C55.0594 169.738 55.3062 169.521 55.4839 169.304C55.8394 169.402 56.3232 169.452 56.8662 169.205C57.1624 169.067 57.3006 168.998 57.4487 168.92C57.5573 168.86 57.6659 168.801 57.8831 168.703C58.0016 168.653 58.0312 168.644 58.1398 168.624C58.357 168.575 58.6039 168.515 58.9692 168.348C59.6603 168.032 60.0058 167.757 60.2428 166.988L60.302 166.8C60.5094 166.209 60.618 165.736 60.223 165.017C60.1934 164.967 60.1638 164.908 60.1243 164.819C60.0848 164.731 60.0848 164.731 60.0749 164.632C60.0749 164.612 60.0651 164.583 60.0651 164.563C60.3613 164.494 60.7562 164.376 61.1215 164.08C61.4769 163.794 61.6744 163.44 61.8027 163.203C61.8225 163.164 61.8422 163.134 61.862 163.095C61.9311 163.055 62.0002 163.035 62.0693 162.996C62.2767 162.897 62.5334 162.779 62.7901 162.602C63.1554 162.355 63.3627 162.04 63.5207 161.813C63.5404 161.784 63.5602 161.754 63.5799 161.725C63.6194 161.715 63.6589 161.705 63.7083 161.695C63.9551 161.626 64.2908 161.537 64.6265 161.34C64.7449 161.271 64.8832 161.212 65.0115 161.163C65.2188 161.074 65.4361 160.976 65.6335 160.867C65.9001 160.719 66.1173 160.542 66.295 160.404C66.3839 160.335 66.5024 160.236 66.5517 160.217C66.8973 160.039 67.1441 159.813 67.3218 159.645C67.3613 159.606 67.4008 159.566 67.4304 159.537C67.4699 159.537 67.5094 159.537 67.5588 159.537C67.8254 159.517 68.2005 159.497 68.5955 159.33C68.7534 159.261 68.9114 159.192 69.0694 159.123C69.2471 159.044 69.4248 158.955 69.6124 158.886C69.8197 158.807 70.0271 158.709 70.2245 158.62C70.3134 158.581 70.4022 158.531 70.4911 158.492C70.5108 158.492 70.5405 158.492 70.5602 158.502C70.8465 158.561 71.2908 158.64 71.7845 158.512C72.0017 158.452 72.209 158.383 72.4164 158.305C72.5447 158.255 72.6731 158.206 72.8113 158.176C73.147 158.107 73.4234 157.979 73.6406 157.881C73.7097 157.851 73.7789 157.812 73.8578 157.792C74.6082 157.674 75.1315 156.974 75.0229 156.215C74.9143 155.446 74.2034 154.914 73.4432 155.023C73.0384 155.082 72.7027 155.23 72.4657 155.348C72.3867 155.387 72.3176 155.427 72.2584 155.446C71.9326 155.515 71.6561 155.614 71.4389 155.703C71.3599 155.732 71.281 155.762 71.202 155.791C71.1723 155.791 71.1427 155.781 71.1131 155.772C70.7972 155.712 70.3233 155.624 69.7901 155.791C69.5235 155.88 69.2668 155.998 69.0101 156.117C68.8917 156.176 68.7732 156.235 68.6547 156.274C68.4079 156.363 68.161 156.481 67.9142 156.59C67.7859 156.649 67.6575 156.708 67.5983 156.737C67.5292 156.747 67.46 156.747 67.3909 156.757C67.1046 156.777 66.7097 156.806 66.2851 156.994C65.9001 157.171 65.6236 157.427 65.4262 157.615C65.3669 157.664 65.3176 157.723 65.288 157.743C64.972 157.9 64.7252 158.107 64.5277 158.265C64.4487 158.334 64.3796 158.403 64.2908 158.452C64.1723 158.521 64.0439 158.571 63.9156 158.63C63.6688 158.738 63.4219 158.847 63.2245 158.965C63.1554 158.995 63.0764 159.014 62.9974 159.034C62.7407 159.103 62.3853 159.192 62.0397 159.418C61.625 159.684 61.3881 160.039 61.2202 160.266C61.1906 160.305 61.1709 160.345 61.1412 160.374C61.0623 160.424 60.9635 160.463 60.8845 160.502C60.6673 160.601 60.3909 160.729 60.1342 160.926C59.7195 161.232 59.5023 161.626 59.3542 161.892C59.3542 161.892 59.3542 161.892 59.3443 161.892C59.2851 161.813 59.2259 161.734 59.1765 161.665C59.1074 161.577 59.0876 161.557 59.0383 161.449C58.9099 161.173 58.8408 161.035 58.7816 160.897C58.7223 160.769 58.6631 160.64 58.5347 160.384C58.2682 159.803 57.8239 159.527 57.4388 159.379C57.4586 159.093 57.4191 158.748 57.2414 158.374C57.2019 158.285 57.2019 158.275 57.1821 158.176C57.1426 157.92 57.0933 157.644 56.8958 157.23C56.6095 156.6 56.1356 156.314 55.8098 156.156C55.7308 156.018 55.6419 155.89 55.5531 155.791C55.8789 155.348 56.2442 154.638 55.8591 153.81C55.7999 153.682 55.7308 153.574 55.6518 153.475C55.6814 153.465 55.7011 153.455 55.7308 153.446C55.9776 153.347 56.2244 153.248 56.4614 153.11C56.6391 153.012 56.8069 152.884 56.9847 152.756C57.1031 152.667 57.2315 152.578 57.3401 152.509C57.4092 152.48 57.4882 152.47 57.5672 152.45C57.7844 152.401 58.0905 152.322 58.4064 152.174L58.7914 151.977C58.979 151.878 59.1666 151.78 59.374 151.691C59.7393 151.534 60.0058 151.297 60.1934 151.12C60.223 151.09 60.2527 151.06 60.2922 151.031C60.3415 151.031 60.381 151.031 60.4304 151.031C60.6772 151.011 61.003 150.991 61.3091 150.883C61.3782 150.873 61.4473 150.883 61.5164 150.883C61.7633 150.883 62.0891 150.873 62.4544 150.765C62.9579 150.617 63.2936 150.272 63.5108 150.016C63.7675 150.055 64.1131 150.095 64.4981 150.016C64.9325 149.927 65.2485 149.72 65.4854 149.562C65.5052 149.552 65.5249 149.533 65.5545 149.523C65.594 149.523 65.6236 149.533 65.6631 149.543C65.91 149.582 66.2457 149.631 66.6307 149.582C66.9763 149.533 67.2626 149.424 67.4897 149.336C67.5687 149.306 67.6378 149.267 67.6575 149.257C67.7266 149.257 67.8056 149.276 67.8747 149.296C68.1117 149.345 68.4375 149.414 68.8127 149.395C69.5828 149.345 70.185 148.685 70.1357 147.916C70.0962 147.148 69.4544 146.576 68.6646 146.606C68.5856 146.606 68.5066 146.576 68.4375 146.566C68.1808 146.517 67.8352 146.448 67.4403 146.477C67.0454 146.517 66.7097 146.645 66.4727 146.734C66.4036 146.763 66.3246 146.793 66.3049 146.803C66.2358 146.803 66.1568 146.783 66.0877 146.773C65.8211 146.734 65.4657 146.674 65.051 146.743C64.5672 146.822 64.2019 147.059 63.965 147.217C63.9551 147.217 63.9452 147.236 63.9255 147.236H63.8761C63.5898 147.177 63.1652 147.098 62.6913 147.217C62.0792 147.364 61.7139 147.788 61.4769 148.074C61.2202 148.074 60.8549 148.084 60.4896 148.212C60.4106 148.232 60.3316 148.232 60.2625 148.232C60.0058 148.251 59.6405 148.271 59.2654 148.419C58.8309 148.587 58.5249 148.863 58.3274 149.04C58.278 149.079 58.2583 149.119 58.2583 149.119C58.0016 149.227 57.7548 149.355 57.5178 149.483L57.192 149.651C57.113 149.69 57.0143 149.7 56.9254 149.72C56.6786 149.779 56.3626 149.858 56.0368 150.026C55.79 150.164 55.5629 150.321 55.3457 150.479C55.247 150.548 55.1483 150.627 55.0495 150.686C54.9409 150.745 54.8224 150.794 54.704 150.834C54.4868 150.922 54.2301 151.021 53.9734 151.179C53.7858 151.297 53.6475 151.435 53.5192 151.563C53.4698 151.494 53.4106 151.435 53.3612 151.376C53.5192 151.041 53.6673 150.558 53.4599 149.996C53.302 149.562 52.9564 149.217 52.5023 149.04C51.8506 148.784 51.12 148.567 50.0932 149.04C49.5798 149.276 49.3231 149.572 49.1454 149.779C48.7801 149.947 48.5826 150.104 48.4049 150.252C48.3259 150.311 48.3259 150.321 48.2371 150.361C47.6249 150.646 47.3584 151.129 47.23 151.543C46.9931 151.553 46.7166 151.612 46.4204 151.75C46.1736 151.859 46.0354 151.938 45.9169 152.007C45.6404 151.819 45.2258 151.593 44.7321 151.583C44.7321 151.563 44.7321 151.534 44.7321 151.504C44.7321 151.396 44.7617 151.287 44.7716 151.179C44.8111 150.903 44.8407 150.617 44.8506 150.311C44.8506 149.966 44.7617 149.671 44.6432 149.434C45.0283 149.089 45.4232 148.587 45.3442 147.867C45.3344 147.749 45.3245 147.631 45.3146 147.502C45.2949 147.217 45.2751 146.911 45.2258 146.635C45.0974 145.925 44.5741 145.531 44.2681 145.295C44.2681 145.295 44.2582 145.295 44.2483 145.285C44.199 145.137 44.1496 144.979 44.0904 144.831C44.0509 144.713 44.0015 144.595 43.962 144.467C43.8731 144.191 43.7645 143.925 43.6559 143.649L43.5769 143.452C43.5769 143.452 43.5769 143.383 43.5769 143.343C43.5769 143.047 43.5769 142.604 43.3696 142.141C43.0932 141.54 42.5798 141.254 42.2737 141.086C42.2539 141.086 42.2441 141.066 42.2243 141.057C42.0071 140.761 41.7603 140.564 41.5924 140.426C41.5431 140.386 41.4937 140.357 41.4641 140.327C41.2074 140.002 40.9309 139.795 40.7335 139.647C40.6644 139.598 40.5953 139.549 40.536 139.48C40.2793 139.253 40.0522 139.095 39.8449 138.967C39.756 138.543 39.5586 137.735 38.7391 137.39C38.1763 137.154 37.6728 137.262 37.2878 137.43C37.0311 137.144 36.646 136.858 36.103 136.799C35.6784 136.759 35.3131 136.828 35.0367 136.887C34.9972 136.887 34.9676 136.907 34.9281 136.907C34.9182 136.907 34.9083 136.897 34.8886 136.887C34.5924 136.74 34.0987 136.493 33.4866 136.562C33.0719 136.612 32.6276 136.671 32.2228 136.749C31.6107 136.868 31.2454 137.292 31.0183 137.686C30.7024 137.597 30.3272 137.558 29.9224 137.686C29.5472 137.814 29.2708 138.021 29.0733 138.198C28.6883 138.06 28.1255 137.912 27.5331 138.188C26.9901 138.435 26.7334 138.869 26.5952 139.302C26.2595 139.243 25.8744 139.263 25.4894 139.489C25.0944 139.716 24.0479 140.308 24.5119 141.608C24.5613 142.052 24.66 142.367 24.8674 142.673C24.7094 143.047 24.5613 143.629 24.8674 144.289C24.8674 144.516 24.8575 144.93 25.1142 145.482C25.361 146.014 25.6967 146.29 25.9435 146.468C25.9435 146.468 25.9435 146.468 25.9435 146.477C25.9633 146.743 26.0028 147.069 26.2101 147.522C26.3878 147.916 26.6445 148.163 26.9111 148.34C26.7926 148.715 26.7433 149.188 26.9901 149.71C27.0592 149.868 27.0888 149.957 27.1086 150.035C27.1579 150.203 27.2172 150.43 27.385 150.794C27.5923 151.248 27.8194 151.494 28.0663 151.75C28.2045 152.036 28.2736 152.184 28.3526 152.322C28.4118 152.44 28.4711 152.549 28.5797 152.785C28.8561 153.386 29.2905 153.672 29.6065 153.83C29.646 153.919 29.6657 153.988 29.6953 154.057C29.7546 154.214 29.8138 154.382 29.9619 154.697L29.9915 154.806L29.9422 154.796Z" fill="#212121"/>
<path d="M161.037 105.368C161.343 105.003 161.649 104.52 161.649 103.89V103.367C161.659 103.022 161.669 102.668 161.649 102.323C161.698 102.254 161.768 102.175 161.827 102.106C162.182 101.662 162.735 100.982 162.617 100.095C162.548 99.5826 162.35 99.1391 162.182 98.7843C162.103 98.597 162.005 98.39 161.985 98.2816C161.817 97.4143 161.106 96.9511 160.642 96.6357C160.622 96.616 160.593 96.6061 160.573 96.5864V96.5371C160.711 96.0936 160.879 95.5022 160.691 94.8419C160.691 94.7335 160.721 94.625 160.751 94.5068C160.84 94.0337 160.958 93.393 160.691 92.7425C160.316 91.8259 159.408 91.5795 158.737 91.3923C158.648 91.3726 158.529 91.3331 158.44 91.3036C158.292 91.0473 158.134 90.8206 157.986 90.6038C157.917 90.5052 157.848 90.3968 157.779 90.2982C157.799 90.2194 157.818 90.1406 157.838 90.0617C157.966 89.4999 158.174 88.6621 157.68 87.9131C157.177 87.1443 156.298 87.0162 155.705 86.9275C155.636 86.9176 155.557 86.9078 155.488 86.8979C155.449 86.8289 155.419 86.7501 155.38 86.6614C155.241 86.346 155.064 85.9616 154.768 85.6068C154.738 85.5181 154.728 85.4097 154.708 85.3111C154.619 84.838 154.501 84.1974 154.007 83.6947C153.968 83.6356 153.879 83.4483 153.83 83.3202C153.652 82.9161 153.435 82.4134 152.971 82.0093C152.813 81.8713 152.665 81.7235 152.507 81.5658C152.22 81.28 151.914 80.9843 151.569 80.7182C150.818 80.1367 149.94 80.324 149.298 80.4619C149.209 80.4816 149.09 80.5112 148.992 80.5211C148.666 80.3437 148.35 80.2451 148.083 80.1564C147.985 80.1268 147.876 80.0874 147.797 80.0578C147.758 79.7622 147.669 79.3482 147.373 78.8948C147.106 78.471 146.76 78.2246 146.464 78.0571C146.632 77.6628 146.839 77.1405 146.76 76.5195C146.751 76.4308 146.78 76.214 146.81 76.0464C146.869 75.6621 146.948 75.1791 146.849 74.6469C146.76 74.1837 146.602 73.7894 146.454 73.4445C146.375 73.2572 146.296 73.0798 146.247 72.8925C146.109 72.3504 145.832 71.9365 145.605 71.6112C145.556 71.5324 145.487 71.4338 145.437 71.355C145.457 71.286 145.487 71.2071 145.516 71.1381C145.674 70.6651 145.921 69.9456 145.635 69.2064C145.368 68.4967 144.766 68.1321 144.312 67.8955C144.598 67.2647 144.983 66.427 144.519 65.5695C144.44 65.4315 144.371 65.2147 144.292 64.988C144.164 64.6135 144.026 64.1897 143.779 63.7856C143.413 63.1942 142.841 62.8985 142.426 62.6817C142.327 62.6324 142.179 62.5536 142.11 62.5141C141.873 62.1889 141.607 61.9031 141.36 61.6468C141.212 61.4891 141.054 61.3314 140.925 61.1639C140.886 61.1047 140.807 60.8879 140.758 60.7499C140.609 60.3557 140.432 59.8629 140.047 59.4391C139.553 58.8871 138.892 58.7294 138.408 58.621C138.309 58.6013 138.21 58.5816 138.121 58.552C138.052 58.4633 137.963 58.3253 137.884 58.1972C137.687 57.872 137.43 57.4679 137.045 57.1327C136.315 56.4921 135.377 56.6597 134.755 56.7779C134.676 56.7976 134.587 56.8075 134.508 56.8272C134.439 56.7681 134.38 56.7188 134.31 56.6695C134.004 56.4133 133.698 56.1669 133.382 55.9599C133.343 55.9205 133.244 55.7628 133.175 55.6642C132.958 55.3291 132.652 54.856 132.109 54.5406C131.556 54.2154 130.993 54.1759 130.578 54.1464C130.509 54.1464 130.411 54.1365 130.341 54.1267C130.302 54.0675 130.272 54.0084 130.233 53.9493C130.025 53.5944 129.719 53.0819 129.167 52.7567C129.117 52.6778 129.078 52.5793 129.028 52.4906C128.781 52.0175 128.416 51.298 127.636 51.0023C127.518 50.953 127.32 50.8348 127.143 50.7165C126.797 50.4997 126.412 50.2533 125.938 50.1054C125.346 49.9181 124.793 49.997 124.358 50.066C124.22 50.0857 124.013 50.1153 123.973 50.1153C123.371 49.9674 122.739 49.8492 122.127 49.7407C121.515 49.6323 120.972 49.7802 120.567 49.8886C120.468 49.9181 120.32 49.9576 120.231 49.9674C120.152 49.928 120.044 49.8492 119.955 49.7999C119.58 49.5633 119.066 49.2381 118.454 49.2085C118.385 49.1888 118.207 49.1001 118.089 49.041C117.694 48.8438 117.161 48.5679 116.519 48.5679C115.453 48.5679 114.88 49.4746 114.475 50.1448C114.416 50.2434 114.337 50.3715 114.268 50.4799C113.922 50.5588 113.626 50.6869 113.379 50.7953C113.231 50.8643 113.044 50.9432 112.955 50.953C112.501 51.0122 112.086 51.091 111.642 51.1797L111.346 51.2389C111.267 51.2093 111.197 51.1699 111.118 51.1403C110.674 50.9432 110.003 50.6376 109.233 50.8348C108.798 50.9432 108.423 51.1206 108.097 51.2684C107.91 51.3571 107.722 51.4458 107.515 51.5148C106.774 51.7514 106.369 52.3427 106.103 52.737C106.063 52.7862 106.034 52.8454 105.994 52.8947C105.915 52.8947 105.826 52.8947 105.757 52.8947C105.422 52.8947 104.997 52.8947 104.543 53.0228C104.543 53.0228 104.523 53.0228 104.523 53.0129C104.109 52.7764 103.259 52.2737 102.154 52.7764C102.104 52.7764 102.075 52.7764 102.025 52.7764C101.719 52.7567 101.206 52.7271 100.505 53.0425C100.1 53.2298 99.8236 53.5156 99.6261 53.831C99.5076 53.7423 99.3694 53.6634 99.2213 53.5944C99.1917 53.5649 99.1818 53.5254 99.1621 53.4959C98.9942 53.2101 98.6783 52.6877 97.8983 52.3329C96.7037 51.7908 95.7262 52.6285 95.2622 53.0326C95.2424 53.0524 95.2128 53.0721 95.1931 53.0918C95.1437 53.0721 95.0943 53.0425 95.0548 53.0228C94.7093 52.8454 94.3637 52.6778 93.9984 52.53C93.6134 52.3821 93.2382 52.2836 92.863 52.1752C92.6656 52.1259 92.4681 52.0668 92.2706 52.0076C92.1521 51.9682 91.9843 51.8696 91.7967 51.7711C91.5301 51.6134 91.1945 51.4261 90.7995 51.298C90.7403 51.229 90.6811 51.1501 90.6218 51.0812C90.3158 50.6869 89.8616 50.1054 89.1014 49.9181C89.0322 49.8689 88.9039 49.7703 88.815 49.7013C88.4497 49.4056 87.9462 48.9917 87.2551 48.903C86.791 48.8438 86.2875 48.8143 85.8037 48.7847L85.3397 48.7551C84.7276 48.7157 84.0364 48.6861 83.4243 48.6861C82.2889 48.6861 81.7656 49.6816 81.3411 50.5095C80.956 50.2533 80.4722 49.997 79.8601 50.0266C79.7614 49.997 79.6626 49.9477 79.5639 49.8984C79.1097 49.6915 78.4976 49.4056 77.767 49.5338L77.6485 49.5535C77.0759 49.652 76.4638 49.7703 75.901 49.9083C74.8347 50.1744 74.5187 51.229 74.2917 51.9978C74.262 52.0865 74.2324 52.185 74.2028 52.2836L74.0448 52.3033C73.6993 52.3624 73.3043 52.4216 72.8699 52.5891C72.6725 52.6581 72.4849 52.7271 72.2874 52.7862C72.0603 52.8651 71.8332 52.9341 71.6062 53.0228C71.4976 52.9637 71.3791 52.8848 71.2902 52.8257C70.5991 52.4019 69.6612 51.8105 68.6936 52.323C67.7063 52.8355 67.6767 53.9394 67.6865 54.856C67.2225 54.7969 66.6696 54.787 66.1463 55.0827C66.0871 55.0827 66.018 55.0827 65.9489 55.0827C65.9094 55.0827 65.8699 55.0827 65.8304 55.0827C65.317 55.0827 64.616 55.1024 64.0137 55.5656C63.5299 55.9402 63.0264 56.3738 62.5624 56.7779C61.9404 57.32 61.8614 58.0986 61.8318 58.6703C61.2098 58.6506 60.3409 58.6703 59.7387 59.3306C58.9883 60.1684 59.3734 61.2624 59.6597 62.0509C59.6893 62.1396 59.7288 62.248 59.7683 62.3466C59.7485 62.3663 59.7189 62.386 59.6893 62.4156C59.4326 62.6423 59.1068 62.9281 58.8303 63.3223C58.7612 63.4209 58.623 63.549 58.465 63.687C58.2083 63.9235 57.8924 64.2094 57.6357 64.6036C57.5567 64.6627 57.458 64.712 57.3691 64.7613C56.9841 64.9781 56.4707 65.2738 56.1448 65.8356C56.0659 65.9046 55.9671 65.9539 55.8684 66.013C55.4537 66.2693 54.891 66.6241 54.5948 67.2844C54.4072 67.6984 54.3084 68.1124 54.2196 68.477C54.1702 68.6939 54.1209 68.9107 54.0419 69.1078C53.7852 69.778 53.9234 70.4187 54.032 70.8819C54.0517 70.9805 54.0814 71.079 54.0912 71.1776C54.0419 71.2663 53.953 71.4043 53.8839 71.5028C53.6568 71.8379 53.3804 72.2519 53.2421 72.794C53.1928 72.9812 53.1434 73.1783 53.0842 73.3755C52.9756 73.7599 52.8768 74.1442 52.7979 74.5385C52.7386 74.637 52.6596 74.7257 52.5905 74.8144C52.3042 75.1791 51.8994 75.6916 51.8204 76.3815C51.7118 77.2489 52.2153 77.8994 52.5905 78.3626C52.6596 78.4513 52.7287 78.5302 52.788 78.609C52.8077 78.9835 52.9262 79.3088 53.0546 79.5848C52.8176 79.6537 52.5412 79.7523 52.2548 79.9199C51.8303 80.1761 51.5143 80.4915 51.2675 80.7478C51.1589 80.866 51.0503 80.9745 50.9516 81.0533C50.8627 81.0632 50.7739 81.0632 50.6751 81.073C50.2308 81.1026 49.5496 81.142 48.977 81.5855C48.3549 82.0685 48.2068 82.7682 48.1377 83.3005C47.5355 83.2512 46.6864 83.2216 46.0644 83.8524C45.7089 84.2171 45.4819 84.6212 45.3041 84.9464C45.2054 85.1238 45.1067 85.3111 45.0277 85.3998C44.9783 85.4589 44.7809 85.5772 44.6525 85.6659C44.3168 85.8828 43.8923 86.1489 43.5566 86.5924C43.1419 87.1443 43.0728 87.7652 43.0333 88.2186C43.0235 88.327 43.0235 88.4355 42.9938 88.534C42.6878 89.0367 42.6187 89.5492 42.5693 89.9336C42.5594 90.0124 42.5397 90.1307 42.5298 90.1997C42.4706 90.2391 42.4014 90.2785 42.3323 90.318C41.9473 90.5446 41.3648 90.8797 41.0488 91.5302C40.8415 91.9639 40.7428 92.3976 40.6736 92.7425C40.644 92.8805 40.6144 93.0087 40.5848 93.1269C40.5157 93.1663 40.4466 93.2058 40.3676 93.2551C39.9233 93.5212 39.242 93.9154 38.9853 94.694C38.9261 94.8813 38.8471 95.0784 38.778 95.2755C38.6299 95.6698 38.4818 96.0739 38.3831 96.478C38.1856 97.2172 38.4522 97.848 38.6694 98.321C38.6694 98.321 38.6694 98.321 38.6497 98.321C38.1066 98.6759 37.3563 99.1687 37.2378 100.095C37.1391 100.903 37.5439 101.534 37.8499 101.987C37.9092 102.076 37.9684 102.155 38.0178 102.234C38.0178 102.608 38.0474 102.953 38.0869 103.269C38.1066 103.436 38.1264 103.614 38.1363 103.781C38.0968 103.87 38.0375 103.949 37.9783 104.038C37.7216 104.461 37.3662 105.033 37.4056 105.772C37.4155 105.969 37.4254 106.176 37.4254 106.383C37.4353 106.817 37.455 107.251 37.5044 107.655C37.5932 108.345 37.998 108.837 38.2844 109.202C38.3535 109.291 38.4324 109.379 38.4917 109.468C38.5707 109.853 38.6793 110.237 38.7879 110.611C38.8372 110.799 38.8965 110.986 38.9459 111.173C39.1729 112.041 39.9134 112.445 40.3972 112.721C40.4071 112.721 40.4169 112.731 40.4367 112.74C40.338 113.174 40.1899 113.834 40.4663 114.524C40.6539 114.978 40.9205 115.342 41.1377 115.628C41.1772 115.677 41.2167 115.737 41.2562 115.786C41.2167 115.865 41.1871 115.944 41.1574 116.003C40.8514 116.653 40.4268 117.55 40.9304 118.437C41.2265 118.969 41.6708 119.285 42.0361 119.541C42.1546 119.62 42.3126 119.738 42.3225 119.728C42.3521 119.787 42.3817 119.985 42.4014 120.123C42.4804 120.556 42.5792 121.148 42.9642 121.66C43.3394 122.153 43.8429 122.409 44.2378 122.616C44.3563 122.675 44.5439 122.774 44.5735 122.794C44.8796 123.148 45.2252 123.493 45.5608 123.828L45.8768 124.144C46.3013 124.577 46.7654 125.031 47.2294 125.445C47.5651 125.74 47.9205 125.957 48.2365 126.154C48.4241 126.263 48.6116 126.371 48.7696 126.499C49.3521 126.953 50.0334 126.933 50.5863 126.815C50.527 127.692 50.5468 128.697 51.4452 129.23C51.7217 129.397 51.9685 129.486 52.1956 129.535C52.3042 129.653 52.4128 129.752 52.5214 129.831C52.3634 130.235 52.1758 130.757 52.245 131.358C52.3536 132.245 53.0348 132.768 53.489 133.103C53.5383 133.142 53.5877 133.172 53.6272 133.211C53.6173 133.28 53.6075 133.349 53.5976 133.408C53.5383 133.734 53.4692 134.158 53.5285 134.631C53.489 134.719 53.4199 134.828 53.3804 134.916C53.0842 135.459 52.6695 136.198 52.9361 137.045C53.2816 138.159 54.4664 138.346 55.4044 138.484C55.4932 138.494 55.6018 138.514 55.7104 138.534C55.74 138.839 55.7697 139.214 55.9079 139.598C55.8783 139.687 55.8486 139.775 55.819 139.864C55.6314 140.406 55.355 141.224 55.7795 142.023C56.1547 142.732 56.8557 142.969 57.4382 143.097C57.1519 143.787 56.8656 144.654 57.4185 145.443C57.7245 145.876 58.1195 146.172 58.4354 146.409C58.5835 146.527 58.7711 146.665 58.8303 146.744C58.9291 146.862 59.0377 147.059 59.1463 147.266C59.3339 147.601 59.5511 147.986 59.867 148.34C60.3212 148.843 60.9037 149.03 61.3282 149.178C61.4467 149.218 61.6244 149.277 61.6146 149.257C62.1576 149.799 62.8684 149.878 63.3818 149.907C63.4115 150.509 63.4707 151.406 64.2013 151.967C64.8529 152.47 65.6231 152.371 66.2352 152.214C66.2549 152.953 66.3734 153.82 67.1731 154.303C67.8346 154.697 68.5257 154.619 69.0392 154.569C69.0688 154.569 69.1083 154.569 69.1379 154.559C69.1478 154.589 69.1675 154.619 69.1774 154.658C69.4143 155.151 69.7401 155.821 70.4806 156.156C71.4087 156.57 72.2479 156.048 72.8897 155.565C73.1266 156.087 73.4919 156.679 74.2127 156.895C74.7754 157.073 75.3185 157.014 75.7134 156.974C75.7628 156.974 75.8319 156.964 75.8911 156.954C75.9207 157.004 75.9503 157.063 75.9898 157.112C76.3058 157.625 76.7797 158.393 77.688 158.561C78.7741 158.758 79.5047 157.901 80.0378 157.26C80.1168 157.171 80.2155 157.043 80.3044 156.954C80.5808 156.954 80.8375 156.925 81.0547 156.895C81.0844 156.895 81.1239 156.895 81.1535 156.885C81.2029 156.974 81.2621 157.073 81.3016 157.152C81.7064 157.891 82.2593 158.906 83.3848 158.906C84.0858 158.906 84.6387 158.561 85.0336 158.305C85.1324 158.246 85.2311 158.167 85.3298 158.127C86.2381 158.029 86.7515 157.299 87.0971 156.807C87.1366 156.757 87.1662 156.698 87.2057 156.649C87.265 156.649 87.3341 156.659 87.4032 156.669C87.7685 156.708 88.2226 156.757 88.6472 156.669C88.7558 156.669 88.8644 156.718 88.9829 156.748C89.4074 156.866 89.9899 157.023 90.6416 156.856C90.7897 156.816 90.997 156.807 91.2142 156.787C91.5301 156.767 91.9152 156.738 92.32 156.629C92.4089 156.649 92.5076 156.688 92.6063 156.718C93.1098 156.876 93.8108 157.092 94.5415 156.807C94.9265 156.659 95.3313 156.462 95.7262 156.274C95.9039 156.186 96.0915 156.097 96.2692 156.018C97.3652 155.515 97.4935 154.461 97.5626 153.948C97.5626 153.939 97.5626 153.919 97.5626 153.909C97.9477 153.692 98.1649 153.475 98.3229 153.327C98.4413 153.209 98.471 153.189 98.6289 153.111L98.8758 152.992C99.1719 152.854 99.3299 152.785 99.4879 152.746C99.6755 153.16 100.021 153.781 100.762 154.126C101.512 154.471 102.163 154.313 102.608 154.126C102.756 154.579 103.072 155.171 103.822 155.506C104.257 155.703 104.671 155.791 105.046 155.87C105.244 155.91 105.441 155.949 105.619 156.018C106.419 156.324 107.149 156.018 107.663 155.762C107.91 156.186 108.275 156.738 108.927 156.994C108.986 157.073 109.045 157.161 109.114 157.25C109.45 157.733 109.914 158.393 110.763 158.551C111.563 158.699 112.224 158.334 112.698 158.068C112.787 158.019 112.866 157.97 112.955 157.93C113.093 157.95 113.241 157.97 113.379 157.999C113.794 158.068 114.209 158.127 114.623 158.157C114.821 158.167 115.018 158.226 115.226 158.265C115.601 158.354 116.016 158.443 116.489 158.443C116.697 158.443 116.904 158.482 117.121 158.512C117.496 158.561 117.921 158.62 118.375 158.6C118.889 158.571 119.343 158.403 119.708 158.275C119.906 158.206 120.103 158.127 120.221 158.117C120.705 158.058 121.11 157.911 121.465 157.773C121.673 157.694 121.87 157.615 122.018 157.595C122.739 157.467 123.203 157.014 123.549 156.679C123.618 156.61 123.687 156.531 123.766 156.472C124.22 156.343 124.585 156.127 124.872 155.959C125 155.88 125.119 155.811 125.217 155.772C125.296 155.791 125.375 155.811 125.464 155.841C125.889 155.949 126.53 156.117 127.202 155.89C127.31 155.89 127.419 155.91 127.528 155.929C127.982 155.989 128.604 156.067 129.186 155.801C129.255 155.782 129.463 155.782 129.591 155.782C130.025 155.782 130.618 155.772 131.19 155.476C131.931 155.092 132.198 154.372 132.405 153.85C132.435 153.781 132.454 153.712 132.484 153.643C132.563 153.623 132.662 153.603 132.741 153.594C133.155 153.515 133.669 153.406 134.162 153.081C134.34 152.963 134.528 152.845 134.725 152.736C135.061 152.539 135.406 152.322 135.752 152.066C136.581 151.425 136.502 150.41 136.423 149.651C136.808 149.612 137.272 149.523 137.697 149.237C137.806 149.237 137.944 149.247 138.042 149.257C138.734 149.306 139.681 149.365 140.333 148.646C140.827 148.094 140.916 147.414 140.975 146.921C140.985 146.813 140.995 146.704 141.014 146.606C141.123 146.478 141.261 146.359 141.38 146.241C141.656 145.985 141.972 145.689 142.239 145.305C142.653 144.713 142.663 144.063 142.683 143.59C142.683 143.481 142.683 143.373 142.693 143.274C142.791 143.126 142.9 142.989 143.019 142.841C143.246 142.555 143.502 142.23 143.71 141.825C143.996 141.283 144.026 140.722 144.045 140.308C144.045 140.288 144.045 140.268 144.045 140.249C144.095 140.229 144.154 140.219 144.193 140.209C144.875 140.012 145.803 139.756 146.168 138.819C146.514 137.923 146.05 137.134 145.674 136.543C146.119 136.247 146.691 135.813 146.879 135.064C147.037 134.424 146.879 133.842 146.77 133.418C146.741 133.3 146.691 133.113 146.681 133.113C146.81 132.413 146.563 131.822 146.385 131.398C146.346 131.309 146.306 131.211 146.277 131.122C146.306 130.944 146.346 130.777 146.395 130.609C146.484 130.264 146.583 129.87 146.602 129.427C146.612 129.269 146.602 129.111 146.593 128.963C147.076 129.062 147.629 129.052 148.153 128.737C148.607 128.471 148.923 128.116 149.179 127.83C149.308 127.692 149.456 127.524 149.535 127.465C150.206 127.002 150.384 126.273 150.483 125.74C151.055 125.809 151.875 125.859 152.516 125.287C152.674 125.149 152.852 125.031 153.03 124.903C153.336 124.686 153.682 124.449 153.988 124.134C154.353 123.769 154.57 123.355 154.758 123.02C154.827 122.902 154.886 122.774 154.945 122.685C155.024 122.656 155.123 122.646 155.212 122.616C155.735 122.488 156.446 122.32 156.92 121.68C157.631 120.743 157.088 119.689 156.653 118.841C156.604 118.753 156.545 118.644 156.495 118.536C156.495 118.536 156.515 118.516 156.515 118.506C156.752 118.26 157.058 117.944 157.295 117.521C157.512 117.136 157.65 116.771 157.769 116.446C157.838 116.259 157.907 116.072 157.996 115.884C158.085 115.707 158.164 115.54 158.253 115.372C158.361 115.165 158.47 114.958 158.569 114.741C158.697 114.712 158.845 114.692 158.954 114.672C159.783 114.524 160.918 114.317 161.274 113.253C161.481 112.642 161.373 112.041 161.304 111.607C161.284 111.508 161.264 111.38 161.254 111.311C161.313 111.242 161.392 111.154 161.452 111.085C161.768 110.74 162.192 110.267 162.33 109.586C162.37 109.399 162.409 109.202 162.449 109.005C162.548 108.571 162.636 108.128 162.696 107.714C162.844 106.551 161.837 105.91 161.017 105.388L161.037 105.368Z" fill="#20C6EC"/>
<path d="M97.2669 97.5818C97.4348 97.2369 97.6224 96.7244 97.4743 96.133C97.3064 95.4332 96.7634 95.0587 96.408 94.8419C96.3882 94.556 96.3487 94.1519 96.1315 93.738C95.8847 93.2846 95.5391 93.0087 95.3022 92.8312C95.2528 92.7918 95.2034 92.7623 95.2034 92.7721C95.164 92.7031 95.1343 92.6341 95.1146 92.5651C95.006 92.3089 94.8579 91.9541 94.5617 91.6189C94.4827 91.5302 94.4136 91.4514 94.3445 91.3627C94.1569 91.136 93.9496 90.8797 93.6731 90.6333C93.604 90.5644 93.5448 90.4855 93.4757 90.4165C93.2881 90.1898 93.061 89.9139 92.7154 89.6773C92.4094 89.4703 92.1033 89.3225 91.8367 89.2042C91.7281 89.1549 91.6294 89.1057 91.5208 89.0564C91.422 89.0071 91.3431 88.9381 91.2443 88.879C91.0074 88.7213 90.7112 88.5143 90.3459 88.3763C89.9411 88.2285 89.556 88.1989 89.2796 88.1792C89.1808 88.1792 89.092 88.1792 89.0031 88.1496C88.9143 88.1299 88.8254 88.0806 88.7366 88.0511C88.4799 87.9427 88.1244 87.7948 87.7097 87.7455C87.6209 87.7357 87.532 87.6963 87.4432 87.6667C87.1667 87.578 86.7915 87.4597 86.3473 87.4597H86.1597C85.7944 87.4597 85.3698 87.4597 84.965 87.509C84.5306 87.5583 84.1653 87.7258 83.8987 87.8441C83.8099 87.8835 83.7309 87.9229 83.6519 87.9525C83.5334 87.9821 83.4248 88.0018 83.3063 88.0215C83.0101 88.0806 82.6745 88.1398 82.319 88.2679C81.6575 88.5143 81.3514 89.0564 81.1639 89.3816C81.154 89.4013 81.1441 89.4211 81.1342 89.4408C80.8874 89.5886 80.6801 89.7365 80.4925 89.8744L80.374 89.9631H80.3049C79.9692 90.0124 79.3966 90.0716 78.9128 90.5052C78.5475 90.8305 78.3599 91.205 78.2315 91.4711C78.2019 91.5303 78.1723 91.5992 78.1526 91.6288C78.0736 91.7175 77.9946 91.7964 77.9057 91.8752C77.7083 92.0625 77.4614 92.299 77.2442 92.6144C77.0073 92.9594 76.8888 93.3142 76.7999 93.5704C76.7703 93.6591 76.7407 93.7577 76.7012 93.8366C76.5235 94.1717 76.4346 94.4871 76.3556 94.7433C76.3458 94.7827 76.3359 94.8222 76.3162 94.8616C76.3162 94.8616 76.2964 94.8714 76.2964 94.8813C75.9903 95.108 75.4671 95.4825 75.2992 96.1724C75.1906 96.616 75.2301 97.0201 75.2597 97.3157C75.2597 97.3946 75.2795 97.4833 75.2893 97.4931C75.2696 97.5621 75.24 97.6213 75.2104 97.6903C75.082 97.9859 74.9043 98.39 74.9043 98.8927C74.9043 99.5136 75.2104 99.967 75.4276 100.263C75.319 100.578 75.1807 101.061 75.319 101.603C75.4572 102.175 75.8324 102.549 76.0792 102.786C76.0496 103.121 76.02 103.643 76.2964 104.166C76.4939 104.55 76.7407 104.895 76.9579 105.201L77.0369 105.309C77.264 105.644 77.5305 105.93 77.7576 106.186L77.9156 106.354C78.2809 106.768 78.7449 106.915 79.0905 106.994C79.1892 107.379 79.3768 107.881 79.8902 108.236L80.1469 108.423C80.4036 108.611 80.6998 108.828 81.0355 109.005C81.4995 109.251 81.9735 109.271 82.2795 109.281C82.3486 109.281 82.4177 109.281 82.398 109.271C82.4671 109.301 82.5362 109.35 82.6053 109.399C82.8522 109.557 83.1878 109.784 83.6321 109.892C83.9974 109.981 84.343 110.01 84.6392 110.03C84.7577 110.03 84.8762 110.05 84.9848 110.06C85.4587 110.119 85.8536 110.01 86.1399 109.941C86.2189 109.922 86.288 109.902 86.3374 109.892C86.4559 109.892 86.5743 109.892 86.6928 109.912C86.9594 109.931 87.2457 109.951 87.5814 109.912C87.6308 109.922 87.6702 109.941 87.7196 109.951C87.9467 110.01 88.2528 110.099 88.6082 110.099C88.7662 110.099 88.9241 110.079 89.092 110.04C89.6153 109.912 89.9806 109.606 90.2274 109.399C90.2768 109.36 90.3459 109.311 90.3064 109.311C90.7605 109.133 91.0765 108.837 91.2937 108.65C91.3431 108.601 91.3924 108.552 91.422 108.532C91.7577 108.354 92.0144 108.147 92.2316 107.98C92.3205 107.911 92.3995 107.842 92.4982 107.773C92.8043 107.556 93.0412 107.339 93.2387 107.142C93.3177 107.063 93.3967 106.994 93.4757 106.915C93.5546 106.837 93.6435 106.768 93.7324 106.709C93.9496 106.531 94.2063 106.334 94.4432 106.058C94.4926 106.009 94.5617 105.959 94.6209 105.92C94.848 105.752 95.164 105.526 95.4305 105.151C95.4799 105.082 95.549 105.013 95.6181 104.954C95.8156 104.757 96.0822 104.481 96.2796 104.107C96.3191 104.028 96.3882 103.969 96.4376 103.9C96.6252 103.673 96.872 103.357 97.03 102.953C97.2176 102.47 97.1781 102.007 97.1583 101.702C97.1583 101.633 97.1485 101.564 97.1386 101.554C97.2571 101.091 97.3163 100.627 97.3558 100.282C97.3755 100.213 97.4052 100.154 97.4348 100.085C97.5533 99.7994 97.731 99.3954 97.731 98.8927C97.731 98.3309 97.4743 97.8972 97.2669 97.6016V97.5818Z" fill="white"/>
<path d="M93.1697 98.863C93.1697 98.7546 93.1796 98.6462 93.1895 98.5378C93.2191 98.2027 93.2586 97.7789 93.15 97.3157C93.0414 96.8327 92.834 96.4188 92.6662 96.0837L92.5576 95.8767C92.3502 95.443 92.0639 95.1375 91.827 94.8911C91.7579 94.8122 91.6887 94.7432 91.6196 94.6644C91.3136 94.28 90.968 93.935 90.5533 93.5999C90.4744 93.5408 90.4052 93.4619 90.3263 93.393C90.0992 93.1761 89.7832 92.8706 89.3389 92.6538C88.865 92.4271 88.4207 92.3975 88.0949 92.3876C88.0061 92.3876 87.9172 92.3876 87.8284 92.3679C87.3939 92.2694 86.9102 92.1807 86.2783 92.1807C85.8439 92.1807 85.3699 92.1807 84.8467 92.2989C84.2839 92.4271 83.8199 92.634 83.4348 92.8213C83.0103 93.0283 82.6153 93.2747 82.1711 93.6295C82.1019 93.6886 82.023 93.7281 81.944 93.7675C81.6576 93.9252 81.2726 94.1519 80.8875 94.625C80.6111 94.9699 80.305 95.3543 80.0681 95.8373L80.0187 95.9457C79.841 96.3202 79.6139 96.7736 79.4954 97.2959C79.377 97.8479 79.4954 98.3308 79.5744 98.6462C79.5942 98.7251 79.6139 98.7941 79.6238 98.8532C79.6238 98.9616 79.6238 99.07 79.604 99.1686C79.5843 99.5037 79.5547 99.9078 79.6633 100.371C79.7719 100.864 80.0088 101.228 80.1866 101.504C80.2359 101.583 80.2952 101.662 80.3347 101.741C80.3643 101.81 80.384 101.899 80.4038 101.978C80.4926 102.303 80.6012 102.746 80.9369 103.16C81.2923 103.604 81.6971 103.939 82.0526 104.225C82.4574 104.54 82.872 104.678 83.188 104.767C83.2768 104.796 83.3657 104.816 83.4546 104.856C83.8988 105.072 84.3333 105.22 84.7874 105.319C84.8467 105.348 84.896 105.378 84.9553 105.417C85.2613 105.605 85.7254 105.89 86.3573 105.89C86.8015 105.89 87.3841 105.871 87.937 105.752C88.4109 105.644 88.8255 105.437 89.1514 105.26L89.3883 105.141C89.8425 104.924 90.2177 104.619 90.5138 104.373L90.6619 104.254C91.0272 103.959 91.3827 103.604 91.7381 103.15C92.1034 102.697 92.3305 102.214 92.5181 101.82L92.6366 101.583C92.8044 101.268 93.0019 100.874 93.1203 100.391C93.2191 99.9275 93.1993 99.5037 93.1796 99.1686C93.1796 99.0602 93.1697 98.9518 93.1697 98.8532V98.863Z" fill="#212121"/>
<path d="M124.408 98.8632C124.408 98.8632 124.379 98.8041 124.369 98.7745C124.369 98.7154 124.389 98.6562 124.399 98.5971C124.448 98.331 124.507 97.9663 124.458 97.5524C124.399 97.0891 124.3 96.6752 124.201 96.2514C124.112 95.8769 123.964 95.5713 123.846 95.3249C123.816 95.2559 123.777 95.1869 123.747 95.1179C123.747 95.0785 123.747 95.0489 123.747 95.0095C123.767 94.6744 123.796 94.1619 123.52 93.6395C123.48 93.5607 123.461 93.472 123.431 93.3833C123.352 93.1073 123.234 92.7229 122.987 92.3583C122.77 92.0527 122.523 91.7866 122.305 91.5599C122.226 91.4811 122.147 91.3924 122.078 91.3135C121.723 90.9193 121.289 90.732 120.992 90.6137C120.933 90.5842 120.874 90.5645 120.884 90.5842C120.795 90.5053 120.716 90.4265 120.637 90.3476C120.42 90.1407 120.183 89.9041 119.877 89.6971C119.432 89.3916 118.968 89.3226 118.662 89.2832C118.662 89.2832 118.662 89.2832 118.652 89.2832C118.455 89.0072 118.129 88.5538 117.547 88.3271C117.191 88.1892 116.846 88.1399 116.559 88.0906C116.441 88.0709 116.322 88.0512 116.214 88.0216C115.631 87.8836 115.128 88.0413 114.822 88.1399C114.535 87.9822 114.111 87.7555 113.548 87.7555C113.459 87.7555 113.37 87.7259 113.272 87.7161C112.995 87.6668 112.61 87.5879 112.186 87.6471C111.633 87.7161 111.238 87.9822 110.971 88.1694C110.932 88.199 110.892 88.2286 110.843 88.2483C110.468 88.3567 110.171 88.5243 109.954 88.6524C109.875 88.7017 109.796 88.751 109.717 88.7805C109.332 88.9284 109.026 89.0861 108.73 89.2536L108.542 89.3522C108.217 89.5296 107.831 89.7366 107.417 90.0125C107.121 90.2195 106.765 90.4758 106.39 90.8109C106.025 91.1361 105.738 91.4121 105.462 91.7275C105.403 91.7965 105.334 91.8359 105.264 91.895C105.047 92.0626 104.751 92.2893 104.504 92.6539C104.277 92.9792 104.159 93.3044 104.06 93.5607C104.02 93.6592 103.991 93.7578 103.941 93.8465C103.892 93.9451 103.833 94.0338 103.774 94.1225C103.626 94.3492 103.438 94.635 103.3 94.9997C103.171 95.3446 103.102 95.6699 103.043 95.9557C103.023 96.0641 103.003 96.1725 102.974 96.2809C102.865 96.7146 102.816 97.1187 102.767 97.513C102.747 97.5524 102.727 97.6017 102.697 97.6411C102.559 97.917 102.342 98.3409 102.342 98.8928C102.342 98.9914 102.322 99.0998 102.303 99.2082C102.263 99.494 102.204 99.8587 102.253 100.263C102.312 100.785 102.559 101.179 102.727 101.436C102.767 101.495 102.786 101.554 102.806 101.534C102.895 101.899 103.043 102.214 103.161 102.461C103.211 102.559 103.26 102.668 103.29 102.746C103.31 102.815 103.31 102.894 103.319 102.963C103.349 103.259 103.398 103.673 103.616 104.087C103.833 104.491 104.129 104.767 104.346 104.964C104.366 104.984 104.396 105.004 104.415 105.033C104.415 105.053 104.415 105.063 104.415 105.082C104.455 105.427 104.524 106.009 104.949 106.492C105.195 106.768 105.472 106.994 105.709 107.192C105.798 107.27 105.896 107.339 105.975 107.418C106.489 107.872 107.091 107.911 107.456 107.931C107.486 107.931 107.506 107.931 107.535 107.931C107.782 108.088 108.029 108.207 108.236 108.315L108.345 108.364C108.345 108.364 108.365 108.394 108.374 108.414C108.562 108.719 108.888 109.222 109.52 109.458C110.033 109.656 110.507 109.577 110.843 109.498C111.109 109.794 111.524 110.168 112.156 110.247C112.235 110.247 112.304 110.257 112.373 110.257C112.926 110.257 113.37 110.01 113.647 109.853C113.647 109.853 113.657 109.853 113.666 109.843C113.686 109.843 113.716 109.853 113.736 109.863C114.022 109.932 114.417 110.03 114.881 109.981C115.444 109.912 115.848 109.616 116.105 109.429C116.431 109.508 116.964 109.616 117.527 109.399C117.616 109.37 117.714 109.35 117.813 109.33C118.109 109.271 118.475 109.202 118.85 109.005C119.393 108.719 119.65 108.246 119.808 107.901C120.153 107.852 120.647 107.753 121.071 107.379C121.417 107.073 121.733 106.728 122.029 106.393C122.098 106.314 122.187 106.245 122.276 106.167C122.503 105.969 122.779 105.733 123.006 105.398C123.313 104.964 123.382 104.491 123.431 104.176C123.431 104.107 123.451 104.028 123.431 104.047C123.717 103.505 123.668 102.963 123.638 102.638C123.638 102.618 123.638 102.589 123.638 102.569C123.658 102.53 123.688 102.49 123.717 102.451C123.856 102.214 124.053 101.899 124.132 101.534C124.162 101.475 124.191 101.426 124.231 101.367C124.389 101.11 124.616 100.726 124.685 100.213C124.754 99.632 124.537 99.1491 124.408 98.8632Z" fill="white"/>
<path d="M120.321 99.1293C120.301 99.0406 120.281 98.9519 120.281 98.8632C120.281 98.3606 120.172 97.9367 120.094 97.6016L120.044 97.3848C120.024 97.2961 120.024 97.2074 120.024 97.1187C120.005 96.7934 119.985 96.3401 119.758 95.8768C119.55 95.4432 119.264 95.1179 119.037 94.8617C118.978 94.7927 118.909 94.7138 118.85 94.6448L118.721 94.4773C118.484 94.1717 118.208 93.8268 117.823 93.5114C117.448 93.2157 117.062 93.058 116.747 92.9397C116.648 92.9003 116.559 92.8609 116.46 92.8215C116.065 92.6342 115.611 92.4075 115.048 92.2794C114.959 92.2597 114.861 92.2301 114.772 92.2104C114.446 92.1217 114.031 92.0034 113.548 92.0034C113.064 92.0034 112.62 92.1118 112.274 92.2005L112.047 92.2597C112.047 92.2597 111.958 92.2597 111.909 92.2597C111.869 92.2597 111.84 92.2597 111.8 92.2597C111.455 92.2597 110.971 92.2597 110.477 92.5061C109.964 92.7525 109.648 93.1566 109.45 93.4325C109.401 93.4917 109.361 93.5508 109.332 93.5902C109.253 93.6494 109.174 93.6987 109.085 93.7479C108.809 93.9155 108.423 94.1422 108.098 94.5364L107.959 94.704C107.713 94.9997 107.416 95.3643 107.199 95.8177C106.923 96.3795 106.982 96.9117 107.021 97.2764C107.021 97.3454 107.051 97.4045 107.051 97.3947C106.962 97.7988 106.864 98.2817 106.864 98.8336C106.854 98.9026 106.824 98.9716 106.804 99.0406C106.715 99.3659 106.567 99.8587 106.696 100.43L106.715 100.539C106.814 100.972 106.923 101.465 107.16 101.938C107.377 102.382 107.683 102.697 107.92 102.944C107.999 103.022 108.068 103.091 108.137 103.17C108.433 103.545 108.799 103.9 109.243 104.254C109.618 104.55 110.013 104.718 110.329 104.856C110.418 104.895 110.507 104.935 110.596 104.974C110.684 105.013 110.773 105.063 110.852 105.112C111.148 105.279 111.524 105.486 111.998 105.585C112.422 105.684 112.955 105.802 113.538 105.802C114.022 105.802 114.446 105.684 114.782 105.595C114.871 105.565 114.969 105.546 115.058 105.526L115.167 105.506C115.581 105.417 116.055 105.309 116.529 105.082C116.618 105.033 116.727 105.004 116.826 104.964C117.151 104.836 117.556 104.688 117.931 104.383C118.346 104.047 118.563 103.643 118.721 103.348C118.761 103.269 118.8 103.19 118.85 103.121C118.899 103.052 118.978 103.003 119.037 102.944C119.294 102.717 119.639 102.411 119.866 101.938C120.094 101.455 120.212 100.963 120.311 100.529L120.33 100.43C120.449 99.9178 120.37 99.4743 120.311 99.149L120.321 99.1293Z" fill="#212121"/>
<path d="M86.3564 49.0607L86.2182 48.7749L85.9713 48.6861C85.9713 48.6861 85.843 48.6369 85.7344 48.5876C85.6949 48.5087 85.7245 48.2229 85.7344 48.0455C85.7739 47.5921 85.843 46.9219 85.2802 46.577C84.6977 46.232 84.1448 46.6361 83.7301 46.9318C83.582 47.0402 83.3253 47.2275 83.2661 47.2373C83.1871 47.188 83.1674 47.1388 83.1377 46.8529C83.0982 46.5277 83.039 46.0447 82.5355 45.7392C82.2985 45.6012 82.2097 45.5027 82.1109 45.3844C81.9826 45.2365 81.8147 45.0591 81.4494 44.8423C81.2322 44.7142 81.173 44.6255 81.0743 44.4875C80.9459 44.3101 80.7879 44.0932 80.4029 43.8666C79.8697 43.5512 79.3761 43.7976 79.0404 43.9651C78.7936 44.0932 78.6948 44.1327 78.6257 44.0932C78.4776 44.0045 78.4579 43.9257 78.3888 43.7483C78.3098 43.5117 78.1814 43.1471 77.7273 42.881C77.3422 42.6543 77.0855 42.6148 76.8881 42.5754C76.7301 42.5458 76.6116 42.5261 76.3944 42.398C76.3352 42.3586 76.3154 42.2896 76.2957 41.9939C76.2759 41.649 76.2364 41.1167 75.7132 40.8112C75.1405 40.4761 74.5876 40.8506 74.2124 41.097C74.0742 41.1956 73.8274 41.3533 73.7583 41.3533C73.6299 41.2744 73.6003 41.2153 73.5411 40.9985C73.4621 40.7422 73.3535 40.3578 72.8796 40.0818C72.7907 40.0326 72.771 39.9734 72.7216 39.7172C72.6722 39.4215 72.5932 38.9583 72.0996 38.6724C71.7145 38.4457 71.448 38.4063 71.2406 38.3768C71.0728 38.357 70.9642 38.3373 70.747 38.2092C70.4606 38.0416 70.3224 37.9431 70.1842 37.8544C70.0361 37.7558 69.8781 37.6474 69.5622 37.4601C69.1475 37.2137 68.8414 37.2039 68.6242 37.2039C68.4465 37.2039 68.3478 37.2039 68.1602 37.0856C67.8344 36.8885 67.6468 36.8096 67.4691 36.7407C67.321 36.6815 67.1729 36.6224 66.9063 36.4548C66.4423 36.1789 66.0572 36.2577 65.8005 36.307C65.5833 36.3464 65.5241 36.3563 65.3859 36.2774C65.2279 36.1789 65.1983 36.1 65.1292 35.9325C65.0304 35.6959 64.9021 35.3707 64.4578 35.1046C64.2702 34.9961 64.2208 34.9074 64.132 34.7596C64.0234 34.5625 63.8654 34.2964 63.4606 34.05C62.9176 33.7247 62.3943 34.0204 62.0487 34.2175C61.9105 34.2964 61.6834 34.4245 61.6341 34.3949C61.5353 34.3358 61.5156 34.2767 61.4662 34.0303C61.407 33.7444 61.3181 33.3009 60.8343 33.0151C60.4295 32.7687 60.1235 32.7588 59.9063 32.749C59.7384 32.749 59.6298 32.7391 59.4422 32.6208C59.3731 32.5814 59.3534 32.5124 59.3336 32.2167C59.304 31.8718 59.2645 31.3593 58.7511 31.0439C58.4549 30.8665 58.3068 30.7778 58.1587 30.6891C58.0106 30.6004 57.8527 30.5018 57.5466 30.3244C57.1813 30.1076 56.9345 30.0484 56.7469 30.009C56.579 29.9696 56.4605 29.94 56.2236 29.802C55.6806 29.4768 55.1869 29.7429 54.8512 29.9104C54.6143 30.0287 54.4958 30.078 54.4366 30.0484C54.2391 29.9301 54.1897 29.8513 54.1107 29.6936C54.0021 29.4965 53.8442 29.2304 53.4295 28.9938C53.232 28.8756 53.1728 28.7869 53.0839 28.639C52.9655 28.4517 52.8075 28.2053 52.4027 27.9688C52.304 27.9097 52.146 27.7027 52.0275 27.5351C51.7511 27.1705 51.445 26.7664 50.981 26.7269C50.4478 26.6875 49.7172 26.9438 49.1446 27.1705C48.3646 27.4859 47.8314 27.8111 47.5451 28.1166C47.2292 28.4616 47.239 28.9741 47.239 29.4275C47.239 29.6246 47.239 29.8414 47.2094 29.9499C47.1798 30.0681 47.1008 30.1963 47.0317 30.3441C46.8441 30.7186 46.6072 31.1819 46.696 31.655C46.7553 31.9901 46.7849 32.1576 46.8145 32.3252C46.8441 32.5026 46.8737 32.68 46.933 33.0249C46.9922 33.3403 47.0021 33.498 47.012 33.6557C47.0218 33.843 47.0416 34.0401 47.1107 34.4048L47.3773 35.7748C47.4957 36.3661 47.9697 36.583 48.2856 36.7209C48.5522 36.8392 48.6114 36.8786 48.6312 36.9575C48.7003 37.3419 48.7694 37.5193 48.8385 37.7065C48.8879 37.8544 48.9471 38.0022 49.0063 38.3078C49.0458 38.495 49.0063 38.5739 48.9273 38.7414C48.8187 38.9681 48.6706 39.2737 48.7694 39.7763C48.8089 40.0129 48.7891 40.1114 48.7398 40.279C48.6805 40.4958 48.6114 40.7619 48.7003 41.2153C48.7496 41.4814 48.7398 41.5997 48.7101 41.7672C48.6805 41.9643 48.6509 42.2107 48.7299 42.6346C48.7891 42.9401 48.799 43.1076 48.8089 43.2653C48.8187 43.4625 48.8286 43.6497 48.8977 44.0243C49.0162 44.6353 49.5494 44.8423 49.9048 44.9704C50.1121 45.0493 50.28 45.1183 50.2898 45.1774C50.2997 45.2464 50.2602 45.3154 50.0529 45.5224C49.8061 45.7688 49.421 46.1433 49.5395 46.7445C49.5987 47.0599 49.6086 47.2176 49.6283 47.3852C49.6382 47.5724 49.658 47.7597 49.7271 48.1342C49.8357 48.7256 50.2997 48.9424 50.6058 49.0804C50.8822 49.2085 50.9217 49.2479 50.9316 49.3268C50.9513 49.4451 50.9316 49.4943 50.7736 49.7013C50.5959 49.9379 50.3293 50.2927 50.4379 50.8545C50.5465 51.4064 50.902 51.643 51.1389 51.7908C51.3463 51.9189 51.3858 51.9682 51.4154 52.0865C51.4351 52.1653 51.4154 52.2146 51.208 52.4314C50.9908 52.6778 50.6453 53.0425 50.7637 53.624C50.8329 53.9985 50.8921 54.176 50.9513 54.3632C51.0007 54.5111 51.0501 54.6687 51.1093 54.9841C51.1982 55.4474 51.3759 55.6741 51.5141 55.8515C51.6227 55.9895 51.6819 56.0683 51.7214 56.295C51.7708 56.5611 51.7511 56.6794 51.7214 56.8469C51.6918 57.044 51.6622 57.2905 51.7412 57.7143C51.8103 58.0691 51.8498 58.2465 51.8992 58.4239C51.9387 58.5914 51.9781 58.7491 52.0374 59.0842C52.146 59.6756 52.61 59.8924 52.9062 60.0403C53.1827 60.1684 53.2222 60.2078 53.232 60.2867C53.3011 60.6218 53.3209 60.7893 53.3505 60.9667C53.3801 61.1442 53.3999 61.3216 53.469 61.6665C53.5085 61.8636 53.469 61.9425 53.3999 62.11C53.3011 62.3367 53.1728 62.6324 53.2715 63.1252C53.3703 63.6673 53.7059 63.9038 53.933 64.0615C54.1107 64.1897 54.17 64.2389 54.1996 64.3769C54.2588 64.6825 54.2588 64.8303 54.2588 64.988C54.2588 65.1753 54.2588 65.3822 54.3378 65.7765C54.3773 65.9637 54.3378 66.0426 54.2588 66.2101C54.1502 66.4368 54.0021 66.7522 54.1009 67.2549C54.1305 67.4323 54.1009 67.5013 54.0021 67.6787C53.8837 67.8955 53.7158 68.2306 53.8047 68.7431C53.9034 69.2852 54.2391 69.5218 54.4662 69.6795C54.6439 69.8076 54.7031 69.8569 54.7327 69.9949C54.8315 70.5172 55.1277 70.9805 55.5325 71.2367C55.7497 71.3747 55.9866 71.4437 56.2335 71.4437C56.3322 71.4437 56.4408 71.4338 56.5494 71.4043C56.8061 71.3353 56.9937 71.1677 57.201 70.9805C57.3985 70.8031 57.6058 70.6158 57.8329 70.5665C57.981 70.5369 58.1488 70.5369 58.3266 70.5271C58.6228 70.5271 58.9486 70.5074 59.3139 70.4187C59.3929 70.399 59.6002 70.4384 59.768 70.4778C60.084 70.5468 60.4888 70.6256 60.8837 70.4975C61.249 70.3792 61.4761 70.054 61.6736 69.7682C61.7822 69.6006 61.9401 69.3838 62.0389 69.3444C62.3054 69.2458 62.5325 69.1078 62.7596 68.9698C62.9373 68.8614 63.1249 68.7431 63.3322 68.6643C63.4014 68.6446 63.6482 68.7037 63.7963 68.7333C64.1517 68.8121 64.5861 68.9206 64.9811 68.7333C65.3069 68.5756 65.5142 68.2898 65.6919 68.0237C65.8104 67.8462 65.9388 67.6688 66.0177 67.6196C66.1066 67.6097 66.3732 67.7083 66.5311 67.7575C66.9557 67.9152 67.4493 68.0828 67.864 67.8561C68.101 67.728 68.328 67.5703 68.5551 67.4126C68.7427 67.2845 68.9204 67.1563 69.1179 67.0479C69.4931 66.8311 69.6116 66.3876 69.7202 65.9933C69.7695 65.8258 69.8386 65.5399 69.8979 65.4808C69.967 65.4414 70.2237 65.4611 70.3817 65.4709C70.747 65.4907 71.1616 65.5202 71.5072 65.2935C71.754 65.1358 71.9515 64.9387 72.1489 64.7515C72.3069 64.6036 72.4649 64.4459 72.6426 64.3277C72.7611 64.2488 72.9585 64.1995 73.1659 64.1502C73.4621 64.0812 73.7879 64.0024 74.0742 63.8053C74.3408 63.618 74.5382 63.3618 74.7061 63.1351C74.8344 62.9675 74.9529 62.8098 75.0714 62.7211C75.4663 62.4353 75.4861 61.9031 75.5058 61.43C75.5058 61.2624 75.5256 60.9667 75.5256 60.9372C75.6934 60.8091 75.881 60.7006 76.0587 60.6021C76.2957 60.4739 76.5227 60.336 76.661 60.2078C76.7597 60.1881 77.0756 60.2768 77.2731 60.3261C77.7668 60.4542 78.2802 60.5922 78.6455 60.2867C78.8627 60.0994 79.0601 59.9023 79.2576 59.6953C79.3958 59.5475 79.534 59.3996 79.6821 59.2715C79.9586 59.0251 80.0968 58.7097 80.2153 58.4239C80.2943 58.2465 80.3733 58.0592 80.4523 57.9804C80.7682 57.6847 80.8274 57.251 80.8768 56.9061C80.8965 56.7681 80.9262 56.5315 80.9657 56.4724C81.0545 56.3837 81.2618 56.3246 81.4593 56.2654C81.7555 56.1767 82.0912 56.0782 82.338 55.8219C82.4861 55.6642 82.6441 55.5262 82.8021 55.3882C83.0094 55.2108 83.2167 55.0334 83.3747 54.8363C83.6808 54.4815 83.6413 53.9985 83.6215 53.6142C83.6215 53.4663 83.6018 53.2495 83.6117 53.2002C83.6709 53.1312 83.977 53.0819 84.1349 53.0524C84.5101 52.9834 84.9248 52.9045 85.1617 52.5694C85.4184 52.1949 85.4086 51.7612 85.3987 51.4163C85.3987 51.2881 85.3987 51.091 85.4086 51.0417C85.5764 50.7658 85.7048 50.5095 85.8232 50.273C85.922 50.0857 86.001 49.9182 86.0799 49.7999C86.1589 49.6915 86.2083 49.6323 86.2478 49.5929C86.3169 49.5141 86.4749 49.3366 86.4058 49.0705L86.3564 49.0607Z" fill="#212121"/>
<path d="M13.5913 94.1913C13.5913 94.1913 13.542 94.1913 13.5124 94.1716C13.4235 94.0927 13.3939 94.0533 13.3248 93.9646C13.1668 93.7576 12.999 93.5408 12.6534 93.255C12.3375 92.9889 12.1597 92.8706 11.9919 92.7622C11.8833 92.6932 11.7846 92.6242 11.6167 92.4961C11.597 92.4665 11.5772 92.4271 11.5673 92.3975C11.1329 91.5302 10.4418 91.1458 9.51374 91.2838C8.44744 91.4316 8.02289 91.9638 7.71683 92.4468C7.66746 92.5256 7.60822 92.6242 7.51936 92.7326C7.26266 93.0381 7.13431 93.1958 7.01583 93.3634C6.90723 93.5014 6.8085 93.6295 6.59129 93.8956C6.21611 94.3391 6.07789 94.6644 5.97916 94.8812C5.91992 95.0094 5.91004 95.0488 5.81131 95.167C5.70271 95.2952 5.67309 95.3149 5.55461 95.3937C5.35715 95.5219 5.06095 95.719 4.68578 96.1527C4.26123 96.6553 4.14275 97.0791 4.02428 97.5325C3.82681 97.7592 3.72808 97.8676 3.6096 97.9662C3.45163 98.1238 3.29366 98.2717 3.00734 98.6068C2.80001 98.8532 2.6914 98.9715 2.57293 99.0799C2.42483 99.2277 2.28661 99.3756 2.05952 99.6614C2.01016 99.691 1.95092 99.7107 1.90155 99.7304C1.54612 99.8782 0.460076 100.332 0.509442 101.731C0.529188 102.313 0.78589 103.318 2.30635 103.535C2.33597 103.535 2.36559 103.535 2.39521 103.545C2.44458 103.594 2.46432 103.624 2.51369 103.702C2.63216 103.87 2.81975 104.136 3.21468 104.471C3.6096 104.806 3.91567 104.944 4.19212 105.043C4.23161 105.062 4.26123 105.072 4.28098 105.082C4.28098 105.092 4.28098 105.112 4.29085 105.122C4.65616 106.383 5.51512 106.61 6.06801 106.61C6.17662 106.61 6.28522 106.61 6.36421 106.59C7.74645 106.393 8.05251 105.398 8.18086 104.974C8.21048 104.875 8.2401 104.747 8.31909 104.609L7.07507 103.968L8.3882 104.53C8.56592 104.412 8.87198 104.215 9.21754 103.811C9.55323 103.417 9.69145 103.131 9.8198 102.855C9.87904 102.727 9.89879 102.677 10.0173 102.539C10.0963 102.451 10.0963 102.451 10.2147 102.382C10.501 102.224 10.8071 102.027 11.1823 101.593C11.518 101.189 11.6661 100.913 11.7648 100.716C11.8339 100.578 11.8635 100.519 12.0018 100.361C12.14 100.194 12.1992 100.144 12.3276 100.056C12.5053 99.9176 12.7521 99.7304 13.0878 99.3361C13.463 98.8926 13.6012 98.5477 13.7098 98.2421C13.7361 98.1567 13.7592 98.1009 13.7789 98.0746C13.7789 98.0746 13.8678 98.0351 13.9172 98.0154C14.8551 97.6311 15.3191 96.9707 15.2796 96.0344C15.2599 95.4726 15.0229 94.4968 13.621 94.2209L13.5913 94.1913Z" fill="#20C6EC"/>
<path d="M188.474 51.2288C188.425 51.1303 188.356 51.0219 188.316 50.874V50.7656C188.356 50.5586 188.435 50.2038 188.385 49.6814C188.346 49.1689 188.247 48.8732 188.138 48.5874C188.089 48.4494 188.069 48.4002 188.059 48.2227C188.05 48.1045 188.059 48.0946 188.089 47.9566C188.168 47.6412 188.257 47.2963 188.208 46.7246C188.168 46.2023 188.069 45.9066 188 45.6898C187.961 45.5518 187.931 45.4729 187.911 45.2659C187.892 45.0491 187.911 44.9703 187.921 44.8224C187.951 44.6056 187.99 44.3001 187.941 43.7875C187.892 43.2159 187.753 42.8808 187.605 42.5851C187.546 42.457 187.546 42.457 187.526 42.4077C187.536 42.3584 187.566 42.3091 187.576 42.2697C187.961 41.3433 187.813 40.5449 187.131 39.9043C186.727 39.5199 185.858 38.9975 184.673 39.786C184.653 39.8057 184.633 39.8156 184.604 39.8353C184.485 39.8353 184.426 39.8353 184.318 39.8156C184.061 39.786 183.784 39.7564 183.34 39.7959C182.925 39.8353 182.728 39.8747 182.521 39.9141C182.392 39.9437 182.264 39.9634 182.057 39.993C182.017 39.993 181.978 39.9733 181.948 39.9634C181.02 39.6579 180.27 39.8747 179.707 40.6238C179.055 41.4812 179.134 42.1514 179.262 42.7132C179.282 42.8019 179.312 42.9104 179.322 43.0582C179.351 43.4524 179.381 43.6496 179.411 43.8467C179.43 44.0142 179.45 44.1916 179.48 44.5267C179.529 45.0984 179.657 45.4236 179.746 45.6503C179.796 45.7785 179.815 45.8179 179.825 45.9854C179.835 46.153 179.825 46.1924 179.806 46.3304C179.756 46.5571 179.687 46.902 179.736 47.4737C179.796 48.1242 180.003 48.5086 180.2 48.8141L180.24 48.9127C180.27 49.2084 180.26 49.366 180.26 49.5139C180.26 49.7307 180.26 49.9574 180.289 50.3911C180.319 50.7163 180.319 50.874 180.319 51.0317C180.319 51.2387 180.319 51.4457 180.368 51.8103C180.358 51.8695 180.329 51.9188 180.309 51.9779C180.161 52.3327 179.727 53.4169 180.743 54.3729C181 54.6094 181.415 54.8854 181.968 54.8854C182.343 54.8854 182.787 54.7573 183.291 54.3828C183.31 54.363 183.34 54.3433 183.36 54.3236C183.439 54.3236 183.478 54.3236 183.567 54.3433C183.775 54.3828 184.09 54.432 184.594 54.3926C185.107 54.3532 185.413 54.2349 185.69 54.1166C185.739 54.0969 185.759 54.0871 185.789 54.0772C185.799 54.0772 185.818 54.0969 185.828 54.0969C187.22 54.8559 188.04 54.0477 188.326 53.6633C189.165 52.5495 188.672 51.6329 188.464 51.2387L188.474 51.2288Z" fill="#20C6EC"/>
<path d="M105.086 7.23164C105.086 7.23164 105.036 7.2415 105.007 7.25135C104.908 7.21193 104.858 7.18236 104.77 7.13308C104.543 6.9951 104.306 6.85711 103.871 6.71913C103.476 6.591 103.269 6.55158 103.062 6.5023C102.943 6.47273 102.815 6.45302 102.617 6.39388C102.588 6.37417 102.558 6.3446 102.538 6.32489C101.808 5.67439 101.028 5.58569 100.218 6.04892C99.29 6.58115 99.0925 7.20208 98.9741 7.79344C98.9543 7.892 98.9346 8.00041 98.8951 8.12854C98.7667 8.51292 98.7174 8.70019 98.6581 8.89731C98.6088 9.06486 98.5693 9.22256 98.4607 9.54781C98.2928 10.0603 98.2731 10.4053 98.2731 10.7108C98.2731 10.8587 98.2731 10.8784 98.2237 11.0262C98.1743 11.174 98.1546 11.2036 98.0756 11.312C97.8979 11.5584 97.7103 11.8443 97.5425 12.3568C97.3351 12.9876 97.3845 13.4409 97.4635 13.8845C97.3746 14.1703 97.3055 14.2984 97.2463 14.4364C97.1574 14.6434 97.0685 14.8405 96.9303 15.2544C96.8316 15.56 96.7724 15.7078 96.7032 15.8557C96.6243 16.0528 96.5453 16.24 96.4367 16.585C96.3972 16.6343 96.3577 16.6737 96.3182 16.7131C96.0417 16.9792 95.2025 17.8071 95.7653 19.0884C96.0022 19.6207 96.6243 20.4584 98.1151 20.0839C98.1447 20.0839 98.1743 20.0642 98.204 20.0642C98.2533 20.0839 98.2928 20.1135 98.3619 20.1529C98.589 20.3007 98.8457 20.4584 99.3098 20.6161C99.8133 20.7837 100.149 20.7935 100.445 20.7837C100.475 20.7837 100.504 20.7837 100.524 20.7837C100.524 20.7935 100.544 20.8034 100.544 20.8132C101.067 21.4834 101.61 21.6806 102.074 21.6806C102.479 21.6806 102.825 21.5327 103.022 21.4145C104.236 20.7147 104.138 19.6798 104.098 19.2363C104.098 19.1279 104.069 18.9997 104.118 18.7632C104.246 18.5858 104.454 18.2901 104.621 17.7776C104.799 17.2355 104.809 16.8905 104.819 16.654C104.819 16.5062 104.819 16.4667 104.878 16.2992C104.905 16.2269 104.944 16.1579 104.997 16.0922C105.204 15.8359 105.431 15.5403 105.609 14.9883C105.767 14.5251 105.796 14.2294 105.826 13.9436C105.836 13.7958 105.846 13.7268 105.905 13.5296C105.974 13.3227 106.014 13.2635 106.083 13.1354C106.201 12.9383 106.359 12.682 106.517 12.1794C106.705 11.6176 106.695 11.2529 106.675 10.9178C106.675 10.8324 106.675 10.7765 106.675 10.7502C106.675 10.7502 106.744 10.6812 106.784 10.6418C107.514 9.94205 107.692 9.14371 107.317 8.28624C107.09 7.77372 106.497 6.95567 105.095 7.22179L105.086 7.23164Z" fill="#20C6EC"/>
<path d="M154.373 29.1711C154.274 29.1317 154.155 29.0923 154.017 29.0036L153.938 28.9247C153.839 28.7375 153.662 28.4221 153.296 28.0476C152.931 27.6829 152.665 27.5252 152.408 27.3675C152.279 27.2985 152.24 27.2689 152.102 27.1408C152.013 27.0521 152.013 27.0422 151.954 26.9141C151.815 26.6184 151.648 26.303 151.243 25.8989C150.877 25.5343 150.611 25.3667 150.423 25.2484C150.295 25.1696 150.236 25.1302 150.088 24.9823C149.93 24.8246 149.89 24.7556 149.801 24.6275C149.683 24.4403 149.515 24.184 149.15 23.8193C148.745 23.4152 148.419 23.2477 148.123 23.1097C147.995 23.0506 147.995 23.0506 147.945 23.021C147.925 22.9717 147.906 22.9224 147.896 22.883C147.59 21.9171 146.968 21.4145 146.03 21.3652C145.477 21.3356 144.48 21.4933 144.075 22.8534C144.075 22.883 144.065 22.9027 144.055 22.9323C143.966 23.021 143.917 23.0506 143.818 23.1097C143.601 23.2477 143.374 23.4054 143.058 23.7208C142.772 24.0066 142.643 24.1741 142.515 24.3318C142.436 24.4304 142.357 24.529 142.209 24.6867C142.169 24.7064 142.14 24.7162 142.11 24.7261C141.202 25.0908 140.767 25.7412 140.827 26.6776C140.886 27.7519 141.38 28.2151 141.834 28.5699C141.913 28.6291 142.002 28.6981 142.1 28.7966C142.387 29.0824 142.535 29.2204 142.683 29.3486C142.811 29.4668 142.939 29.5851 143.176 29.8216C143.581 30.2257 143.897 30.3933 144.104 30.5116C144.233 30.5806 144.262 30.6003 144.381 30.7185C144.499 30.8368 144.519 30.8762 144.588 31.0044C144.697 31.2113 144.875 31.5169 145.279 31.921C145.743 32.3842 146.148 32.5419 146.494 32.6503L146.593 32.6996C146.81 32.9164 146.899 33.0248 146.997 33.1431C147.136 33.3107 147.274 33.4782 147.59 33.7936C147.817 34.0203 147.925 34.1386 148.034 34.2667C148.172 34.4244 148.31 34.5821 148.567 34.8285C148.597 34.8876 148.607 34.9369 148.626 34.996C148.745 35.3607 149.11 36.4745 150.502 36.5434C150.542 36.5434 150.581 36.5434 150.621 36.5434C151.213 36.5434 152.131 36.3069 152.457 34.9172C152.457 34.8876 152.467 34.8581 152.477 34.8285C152.536 34.7792 152.576 34.7595 152.645 34.7102C152.822 34.6018 153.099 34.4441 153.454 34.0893C153.82 33.7246 153.978 33.4388 154.116 33.1727C154.136 33.1234 154.155 33.1037 154.165 33.084C154.185 33.084 154.195 33.084 154.215 33.084C155.765 32.7686 155.873 31.6253 155.844 31.1522C155.765 29.7625 154.797 29.3683 154.382 29.2106L154.373 29.1711Z" fill="#20C6EC"/>
<path d="M28.2434 37.47C28.1644 37.401 28.0656 37.3123 27.9373 37.1053C27.9077 36.8885 27.8682 36.5238 27.6411 36.0409C27.4041 35.5283 27.1771 35.2622 27.029 35.0848C26.9401 34.9764 26.9105 34.9468 26.8315 34.7891C26.7986 34.7234 26.7821 34.6446 26.7821 34.5526C26.7624 34.2175 26.7229 33.8528 26.4859 33.3206C26.2786 32.8771 26.1108 32.6307 25.9331 32.404C25.8442 32.2857 25.8047 32.2364 25.7158 32.0492C25.627 31.852 25.6171 31.7831 25.5875 31.6352C25.5381 31.4184 25.4789 31.1128 25.2617 30.6299C25.0149 30.0977 24.7582 29.8217 24.5212 29.595C24.462 29.5359 24.4225 29.4965 24.4027 29.4767C24.4027 29.4275 24.4027 29.3782 24.4027 29.3289C24.462 28.3137 24.0572 27.614 23.1982 27.2394C22.6749 27.0127 21.6876 26.8156 20.8385 27.9589C20.8188 27.9786 20.8089 27.9983 20.7892 28.0279C20.6904 28.0673 20.6411 28.0772 20.5325 28.0969C20.2758 28.1462 19.9993 28.2152 19.5846 28.4024C19.2095 28.57 19.0219 28.6784 18.8441 28.7967C18.7355 28.8657 18.6269 28.9248 18.4492 29.0135C18.4196 29.0135 18.3999 29.0135 18.3702 29.0135C18.3604 29.0135 18.3505 29.0135 18.3406 29.0135C17.3632 29.0332 16.7313 29.4965 16.445 30.3835C16.1192 31.4085 16.4055 31.99 16.7116 32.5025C16.7609 32.5814 16.8202 32.6799 16.8794 32.8081C17.0472 33.1728 17.1361 33.3502 17.225 33.5374C17.3039 33.6853 17.3829 33.843 17.5211 34.1485C17.7482 34.6413 17.9654 34.9074 18.1728 35.1341C18.2715 35.2425 18.2913 35.2622 18.3505 35.4002C18.4196 35.5382 18.4196 35.5678 18.4393 35.7156C18.4788 36.0211 18.5282 36.3562 18.7553 36.8392C19.0317 37.4503 19.3773 37.7361 19.7327 38.0219C19.8512 38.288 19.9006 38.4359 19.9499 38.5738C20.019 38.7808 20.0882 38.9977 20.2758 39.4018C20.4041 39.6876 20.4633 39.8453 20.5226 39.9931C20.5917 40.1902 20.6707 40.3874 20.8286 40.7027C20.8286 40.7619 20.8286 40.821 20.8286 40.8802C20.8089 41.2645 20.7497 42.4374 22.0332 42.9992C22.2405 43.0879 22.5071 43.1668 22.8131 43.1668C23.3167 43.1668 23.9091 42.9401 24.4323 42.1417C24.4521 42.122 24.462 42.0924 24.4817 42.0629C24.5311 42.0432 24.5804 42.0333 24.6594 42.0235C24.926 41.984 25.2222 41.9249 25.6665 41.7278C26.1503 41.5109 26.3971 41.2843 26.6143 41.0773C26.634 41.0576 26.6538 41.0379 26.6735 41.028C26.6834 41.028 26.6933 41.028 26.713 41.028C28.2927 41.2941 28.7963 40.2592 28.9345 39.796C29.3492 38.4654 28.5791 37.7657 28.2434 37.4601V37.47Z" fill="#20C6EC"/>
<path d="M11.0049 49.0705C10.8469 48.6763 10.5409 48.3215 10.2447 48.0357C9.94846 47.74 9.51404 47.6316 9.11912 47.4739C8.74394 47.3162 8.35889 47.1289 7.92447 47.1289C7.49005 47.1289 7.08526 47.2472 6.7002 47.4049C6.30528 47.5626 6.01896 47.8582 5.72276 48.1539C5.42657 48.4496 5.15012 48.7453 4.99215 49.1395C4.83418 49.5141 4.63672 49.9182 4.63672 50.3518C4.63672 50.7855 4.70583 51.2487 4.8638 51.6232C5.02177 52.0175 5.38708 52.3033 5.68327 52.599C5.97946 52.8947 6.31515 53.1411 6.71008 53.2988C7.08525 53.4565 7.49993 53.5452 7.93434 53.5452C8.36876 53.5452 8.75381 53.3875 9.12899 53.2298C9.52392 53.0721 9.90897 52.9045 10.2052 52.6088C10.5014 52.3132 10.8272 51.9978 10.9851 51.6035C11.1431 51.229 11.0345 50.7756 11.0345 50.342C11.0345 49.9083 11.1826 49.4451 11.0246 49.0705H11.0049Z" fill="#212121"/>
<path d="M45.0476 1.4856C44.7514 1.18992 44.3466 1.07165 43.9517 0.904097C43.5765 0.756256 43.2013 0.5 42.7669 0.5C42.3325 0.5 41.9376 0.687264 41.5525 0.844961C41.1576 1.00266 40.8219 1.2392 40.5257 1.53488C40.2295 1.83056 39.8741 2.11639 39.7161 2.51063C39.5581 2.88516 39.5976 3.33853 39.5976 3.7722C39.5976 4.20586 39.5384 4.6691 39.6865 5.04362C39.8445 5.43787 40.1308 5.81239 40.427 6.10807C40.7232 6.40375 41.1082 6.66001 41.5032 6.81771C41.8783 6.9754 42.3325 7.09368 42.7669 7.09368C43.2013 7.09368 43.6555 6.9754 44.0307 6.82756C44.4256 6.66987 44.702 6.29534 44.9982 5.99966C45.2944 5.70398 45.4722 5.34916 45.64 4.95492C45.798 4.58039 46.025 4.19601 46.025 3.76234C46.025 3.32868 45.7782 2.95415 45.6202 2.57962C45.4623 2.18538 45.3339 1.78128 45.0377 1.4856H45.0476Z" fill="#212121"/>
<path d="M177.288 8.67064C176.992 8.37496 176.597 8.24684 176.202 8.08914C175.827 7.93144 175.462 7.84274 175.017 7.84274C174.573 7.84274 174.158 7.79346 173.783 7.95116C173.388 8.10885 173.102 8.42424 172.806 8.71992C172.509 9.01561 172.203 9.31129 172.036 9.69567C171.878 10.0702 171.818 10.494 171.818 10.9277C171.818 11.3613 171.907 11.7753 172.065 12.1498C172.223 12.5441 172.539 12.8102 172.835 13.1059C173.131 13.4015 173.418 13.6676 173.813 13.8253C174.188 13.983 174.583 14.1999 175.017 14.1999C175.452 14.1999 175.837 13.9633 176.212 13.8056C176.607 13.6479 176.903 13.3917 177.199 13.096C177.495 12.8003 177.89 12.5638 178.048 12.1695C178.206 11.795 178.266 11.3515 178.266 10.9178C178.266 10.4842 178.196 10.0406 178.038 9.6661C177.88 9.27186 177.574 8.95647 177.278 8.66079L177.288 8.67064Z" fill="#212121"/>
<path d="M185.315 78.9245C185.157 78.5302 184.891 78.1951 184.594 77.8994C184.298 77.6037 183.972 77.3179 183.577 77.1602C183.202 77.0025 182.768 76.9927 182.333 76.9927C181.899 76.9927 181.524 77.1504 181.149 77.3081C180.754 77.4658 180.3 77.5446 180.003 77.8403C179.707 78.136 179.52 78.5499 179.362 78.9343C179.204 79.3088 179.065 79.7326 179.065 80.1663C179.065 80.6 179.243 81.0041 179.401 81.3786C179.559 81.7728 179.776 82.1277 180.072 82.4233C180.369 82.719 180.734 82.926 181.119 83.0837C181.494 83.2414 181.899 83.4188 182.333 83.4188C182.768 83.4188 183.202 83.3301 183.577 83.1724C183.972 83.0147 184.357 82.7782 184.654 82.4825C184.95 82.1868 185.197 81.8123 185.364 81.418C185.522 81.0435 185.661 80.6 185.661 80.1663C185.661 79.7326 185.463 79.3088 185.315 78.9343V78.9245Z" fill="#212121"/>
</g>
<defs>
<clipPath id="clip0_937_8830">
<rect width="200" height="230" fill="white" transform="translate(0.5 0.5)"/>
</clipPath>
</defs>
</svg>
