<svg width="24" height="24" viewBox="0 0 24 24" fill="none" xmlns="http://www.w3.org/2000/svg">
<path fill-rule="evenodd" clip-rule="evenodd" d="M5.99269 5.07693C4.86023 5.77548 4.16549 6.52941 3.86944 7.48907C3.56734 8.46829 3.63842 9.79561 4.33836 11.7224C6.11417 15.7861 9.55554 18.152 11.9103 19.2007C11.9685 19.2266 12.0316 19.2263 12.0883 19.2009C14.4515 18.1424 17.9547 15.6836 19.7284 11.6977C20.94 8.97505 20.1576 6.37603 18.0632 5.07681C17.3684 4.72806 16.6144 4.61408 15.8513 4.77721C15.0769 4.94275 14.2448 5.40451 13.4324 6.28783C12.6757 7.11067 11.3247 7.12385 10.5599 6.29517C9.7369 5.40345 8.91904 4.94218 8.16534 4.77712C7.42479 4.61494 6.69089 4.72614 5.99269 5.07693ZM8.46484 3.40953C9.55648 3.6486 10.6155 4.29124 11.5887 5.34567C11.7919 5.56581 12.1925 5.56782 12.4019 5.34014C13.374 4.28318 14.4519 3.64474 15.5586 3.40815C16.6678 3.17103 17.7572 3.34843 18.724 3.84217L18.7482 3.85454L18.7714 3.86875C21.5653 5.58109 22.4676 8.98563 21.0075 12.2669C19.0505 16.6646 15.2264 19.3293 12.6606 20.4785C12.2393 20.6672 11.761 20.6667 11.3408 20.4796C8.7803 19.3393 5.00321 16.7594 3.04615 12.2616L3.03767 12.2421L3.0304 12.2221C2.27336 10.1466 2.10079 8.47298 2.53165 7.07636C2.96753 5.66345 3.97834 4.66942 5.28481 3.86871L5.30798 3.85452L5.33218 3.84215C6.29677 3.34946 7.36842 3.16941 8.46484 3.40953Z" fill="#222222"/>
</svg>
