<svg width="16" height="16" viewBox="0 0 16 16" fill="none" xmlns="http://www.w3.org/2000/svg">
<path fill-rule="evenodd" clip-rule="evenodd" d="M10.827 4.22839C11.0873 3.96809 11.509 3.96819 11.7694 4.22839C12.0297 4.48874 12.0297 4.91042 11.7694 5.17077L8.94127 7.99889L11.7704 10.828C12.0306 11.0883 12.0305 11.51 11.7704 11.7704C11.51 12.0307 11.0883 12.0307 10.828 11.7704L7.99889 8.94128L5.16979 11.7704C4.90944 12.0307 4.48775 12.0307 4.22741 11.7704C3.96722 11.51 3.96712 11.0883 4.22741 10.828L7.05651 7.99889L4.22838 5.17077C3.96803 4.91042 3.96803 4.48874 4.22838 4.22839C4.48875 3.96822 4.91048 3.9681 5.17076 4.22839L7.99889 7.05651L10.827 4.22839Z" fill="#919DA9"/>
</svg>
