<svg width="24" height="24" viewBox="0 0 24 24" fill="none" xmlns="http://www.w3.org/2000/svg">
<path fill-rule="evenodd" clip-rule="evenodd" d="M18.5054 5.77758C18.8178 6.09 18.7545 6.65984 18.3639 7.05037L7.05023 18.3641C6.6597 18.7546 6.08986 18.8179 5.77744 18.5055C5.46502 18.1931 5.52833 17.6232 5.91886 17.2327L17.2326 5.919C17.6231 5.52847 18.1929 5.46516 18.5054 5.77758Z" fill="#222222"/>
<path fill-rule="evenodd" clip-rule="evenodd" d="M18.2366 18.4912C17.9163 18.8114 17.3402 18.7545 16.9496 18.3639L5.63592 7.05023C5.2454 6.6597 5.18842 6.08352 5.50865 5.76329C5.82888 5.44306 6.40506 5.50005 6.79558 5.89057L18.1093 17.2043C18.4998 17.5948 18.5568 18.171 18.2366 18.4912Z" fill="#222222"/>
</svg>
