<svg width="24" height="24" viewBox="0 0 24 24" fill="none" xmlns="http://www.w3.org/2000/svg">
<path fill-rule="evenodd" clip-rule="evenodd" d="M11.8001 3C12.2419 3 12.6001 3.44772 12.6001 4L12.6001 20C12.6001 20.5523 12.2419 21 11.8001 21C11.3583 21 11.0001 20.5523 11.0001 20L11.0001 4C11.0001 3.44772 11.3583 3 11.8001 3Z" fill="#222222"/>
<path fill-rule="evenodd" clip-rule="evenodd" d="M21 11.8001C21 12.2419 20.5523 12.6001 20 12.6001L4 12.6001C3.44772 12.6001 3 12.2419 3 11.8001C3 11.3583 3.44772 11.0001 4 11.0001L20 11.0001C20.5523 11.0001 21 11.3583 21 11.8001Z" fill="#222222"/>
</svg>
