<svg width="24" height="24" viewBox="0 0 24 24" fill="none" xmlns="http://www.w3.org/2000/svg">
<path fill-rule="evenodd" clip-rule="evenodd" d="M3.30005 11.9999C3.30005 11.8023 3.38356 11.6139 3.52998 11.4813L11.2541 4.48125C11.5406 4.22164 11.9833 4.24342 12.2429 4.52988C12.5025 4.81635 12.4807 5.25903 12.1942 5.51864L5.81487 11.2999L20 11.2999C20.3866 11.2999 20.7001 11.6133 20.7001 11.9999C20.7001 12.3865 20.3866 12.6999 20 12.6999L5.81487 12.6999L12.1943 18.4813C12.4807 18.7409 12.5025 19.1835 12.2429 19.47C11.9833 19.7565 11.5406 19.7782 11.2541 19.5186L3.52998 12.5186C3.38356 12.3859 3.30005 12.1975 3.30005 11.9999Z" fill="#222222"/>
</svg>
