<svg width="16" height="16" viewBox="0 0 16 16" fill="none" xmlns="http://www.w3.org/2000/svg">
<rect width="16" height="16" rx="8" fill="#7D7D7D"/>
<path fill-rule="evenodd" clip-rule="evenodd" d="M12.2425 3.75736C12.5028 4.0177 12.5028 4.43981 12.2425 4.70016L4.69999 12.2426C4.43964 12.503 4.01753 12.503 3.75718 12.2426C3.49683 11.9823 3.49683 11.5602 3.75718 11.2998L11.2997 3.75736C11.56 3.49701 11.9821 3.49701 12.2425 3.75736Z" fill="#FEFEFE"/>
<path fill-rule="evenodd" clip-rule="evenodd" d="M12.2429 12.2427C11.9825 12.5031 11.5604 12.5031 11.3001 12.2427L3.75761 4.70023C3.49726 4.43988 3.49726 4.01777 3.75761 3.75742C4.01796 3.49707 4.44007 3.49707 4.70042 3.75742L12.2429 11.2999C12.5032 11.5602 12.5032 11.9824 12.2429 12.2427Z" fill="#FEFEFE"/>
</svg>
