<svg width="24" height="24" viewBox="0 0 24 24" fill="none" xmlns="http://www.w3.org/2000/svg">
<path d="M5.07178 7.99992C5.80947 6.7222 6.88612 5.67337 8.18271 4.96938C9.4793 4.26539 10.9453 3.93367 12.4187 4.01088C13.892 4.0881 15.3153 4.57125 16.5312 5.40691C17.7471 6.24257 18.7083 7.3982 19.3083 8.74603" stroke="#212121" stroke-width="2" stroke-linecap="round"/>
<path d="M3.23187 5.51531L3.96128 8.67485C4.08551 9.21298 4.62246 9.54851 5.16059 9.42428L8.32013 8.69487" stroke="#212121" stroke-width="2" stroke-linecap="round"/>
<path d="M18.9282 15.9998C18.1905 17.2776 17.1139 18.3264 15.8173 19.0304C14.5207 19.7344 13.0547 20.0661 11.5813 19.9889C10.108 19.9117 8.68467 19.4285 7.46877 18.5928C6.25287 17.7572 5.29175 16.6016 4.69166 15.2537" stroke="#212121" stroke-width="2" stroke-linecap="round"/>
<path d="M20.7681 18.4844L20.0387 15.3249C19.9145 14.7868 19.3775 14.4512 18.8394 14.5755L15.6799 15.3049" stroke="#212121" stroke-width="2" stroke-linecap="round"/>
</svg>
