<svg width="24" height="24" viewBox="0 0 24 24" fill="none" xmlns="http://www.w3.org/2000/svg">
<path fill-rule="evenodd" clip-rule="evenodd" d="M10.0699 4.70005C9.85597 4.70002 9.6453 4.7528 9.45663 4.85372C9.268 4.9546 9.10718 5.10048 8.98844 5.27841C8.98841 5.27846 8.98847 5.27837 8.98844 5.27841L8.17678 6.4979C7.93014 6.86757 7.59563 7.1713 7.20376 7.3809C6.81192 7.59047 6.37441 7.7001 5.93005 7.70005C5.93001 7.70005 5.93008 7.70005 5.93005 7.70005H5.00005C4.65527 7.70005 4.32461 7.83701 4.08081 8.08081C3.83701 8.32461 3.70005 8.65527 3.70005 9.00005V18C3.70005 18.3448 3.83701 18.6755 4.08081 18.9193C4.32461 19.1631 4.65527 19.3 5.00005 19.3H19C19.3448 19.3 19.6755 19.1631 19.9193 18.9193C20.1631 18.6755 20.3 18.3448 20.3 18V9.00005C20.3 8.65527 20.1631 8.32461 19.9193 8.08081C19.6755 7.83701 19.3448 7.70005 19 7.70005H18.0702C18.0701 7.70005 18.0702 7.70005 18.0702 7.70005C17.6258 7.7001 17.1882 7.59047 16.7963 7.3809C16.4045 7.1713 16.0704 6.86822 15.8238 6.49855L15.0118 5.27855C15.0117 5.27842 15.0118 5.27868 15.0118 5.27855C14.893 5.10073 14.732 4.95456 14.5435 4.85372C14.3548 4.7528 14.1441 4.70002 13.9302 4.70005H10.0699ZM10.07 3.30005C9.62569 3.3 9.18818 3.40963 8.79634 3.6192C8.40447 3.8288 8.07039 4.13188 7.82375 4.50155L7.01175 5.72155C7.01172 5.72159 7.01178 5.7215 7.01175 5.72155C6.89301 5.89948 6.7321 6.04549 6.54347 6.14638C6.35479 6.2473 6.14412 6.30008 5.93015 6.30005H5.00005C4.28396 6.30005 3.59721 6.58451 3.09086 7.09086C2.58451 7.59721 2.30005 8.28396 2.30005 9.00005V18C2.30005 18.7161 2.58451 19.4029 3.09086 19.9092C3.59721 20.4156 4.28396 20.7001 5.00005 20.7001H19C19.7161 20.7001 20.4029 20.4156 20.9092 19.9092C21.4156 19.4029 21.7001 18.7161 21.7001 18V9.00005C21.7001 8.28396 21.4156 7.59721 20.9092 7.09086C20.4029 6.58451 19.7161 6.30005 19 6.30005H18.07C17.8561 6.30008 17.6453 6.2473 17.4566 6.14638C17.2681 6.04554 17.1073 5.89975 16.9886 5.72193C16.9885 5.7218 16.9887 5.72206 16.9886 5.72193L16.1768 4.5022C15.9301 4.13253 15.5956 3.8288 15.2038 3.6192C14.8119 3.40963 14.3744 3.3 13.93 3.30005C13.93 3.30005 13.9301 3.30005 13.93 3.30005H10.07Z" fill="#222222"/>
<path fill-rule="evenodd" clip-rule="evenodd" d="M12 10.7C10.7298 10.7 9.70005 11.7298 9.70005 13C9.70005 14.2703 10.7298 15.3 12 15.3C13.2703 15.3 14.3 14.2703 14.3 13C14.3 11.7298 13.2703 10.7 12 10.7ZM8.30005 13C8.30005 10.9566 9.9566 9.30005 12 9.30005C14.0435 9.30005 15.7 10.9566 15.7 13C15.7 15.0435 14.0435 16.7 12 16.7C9.9566 16.7 8.30005 15.0435 8.30005 13Z" fill="#222222"/>
</svg>
