<svg width="24" height="24" viewBox="0 0 24 24" fill="none" xmlns="http://www.w3.org/2000/svg">
<path d="M10.1109 4.43489C10.7335 2.64377 13.2666 2.64377 13.8891 4.43489L14.5996 6.47866C14.8742 7.2688 15.6116 7.80454 16.4479 7.82159L18.6112 7.86567C20.5071 7.9043 21.2898 10.3134 19.7787 11.459L18.0545 12.7662C17.3879 13.2716 17.1063 14.1384 17.3485 14.9391L17.9751 17.0101C18.5242 18.8251 16.4749 20.314 14.9184 19.2309L13.1424 17.995C12.4557 17.5172 11.5443 17.5172 10.8577 17.995L9.08162 19.2309C7.52514 20.314 5.47585 18.8251 6.02495 17.0101L6.65151 14.9391C6.89375 14.1384 6.61209 13.2716 5.9455 12.7662L4.22129 11.459C2.71022 10.3134 3.49298 7.9043 5.38883 7.86567L7.5521 7.82159C8.38844 7.80454 9.12582 7.2688 9.40048 6.47866L10.1109 4.43489Z" fill="#0BC7F2"/>
</svg>
