<svg width="24" height="24" viewBox="0 0 24 24" fill="none" xmlns="http://www.w3.org/2000/svg">
<path d="M3 19.0618V15V9C3 6.79086 4.79086 5 7 5H18C19.6569 5 21 6.34315 21 8V14C21 15.6569 19.6569 17 18 17H9.26361C8.8482 17 8.4431 17.1294 8.10456 17.3701L4.57952 19.8768C3.91745 20.3476 3 19.8742 3 19.0618Z" fill="#0BC7F2"/>
<path fill-rule="evenodd" clip-rule="evenodd" d="M7 5.5C5.067 5.5 3.5 7.067 3.5 9V19.0618C3.5 19.468 3.95872 19.7047 4.28976 19.4693L7.8148 16.9626C8.23797 16.6617 8.74435 16.5 9.26361 16.5H18C19.3807 16.5 20.5 15.3807 20.5 14V8C20.5 6.61929 19.3807 5.5 18 5.5H7ZM2.5 9C2.5 6.51472 4.51472 4.5 7 4.5H18C19.933 4.5 21.5 6.067 21.5 8V14C21.5 15.933 19.933 17.5 18 17.5H9.26361C8.95205 17.5 8.64823 17.597 8.39432 17.7776L4.86929 20.2843C3.87617 20.9905 2.5 20.2804 2.5 19.0618V9Z" fill="#0BC7F2"/>
</svg>
