<svg width="24" height="24" viewBox="0 0 24 24" fill="none" xmlns="http://www.w3.org/2000/svg">
<path d="M10.5596 2.49512C11.3462 1.67863 12.6538 1.67863 13.4404 2.49512L13.4697 2.52637C13.9839 3.0601 14.7517 3.26559 15.4639 3.06055L15.5049 3.04785C16.5943 2.7341 17.7269 3.38804 18 4.48828L18.0107 4.53027C18.1892 5.24962 18.7504 5.81176 19.4697 5.99023L19.5117 6C20.612 6.27306 21.2659 7.40568 20.9521 8.49512L20.9395 8.53613C20.7344 9.24836 20.9409 10.016 21.4746 10.5303L21.5049 10.5596C22.3214 11.3462 22.3214 12.6538 21.5049 13.4404L21.4746 13.4697C20.9409 13.9839 20.7344 14.7517 20.9395 15.4639L20.9521 15.5049C21.2659 16.5943 20.612 17.7269 19.5117 18L19.4697 18.0107C18.7505 18.1893 18.1893 18.7505 18.0107 19.4697L18 19.5117C17.7269 20.612 16.5943 21.2659 15.5049 20.9521L15.4639 20.9395C14.7517 20.7344 13.9839 20.9409 13.4697 21.4746L13.4404 21.5049C12.6538 22.3214 11.3462 22.3214 10.5596 21.5049L10.5303 21.4746C10.016 20.9409 9.24836 20.7344 8.53613 20.9395L8.49512 20.9521C7.40568 21.2659 6.27306 20.612 6 19.5117L5.99023 19.4697C5.81176 18.7504 5.24962 18.1892 4.53027 18.0107L4.48828 18C3.38804 17.7269 2.7341 16.5943 3.04785 15.5049L3.06055 15.4639C3.26559 14.7517 3.0601 13.9839 2.52637 13.4697L2.49512 13.4404C1.67863 12.6538 1.67863 11.3462 2.49512 10.5596L2.52637 10.5303C3.06008 10.016 3.26564 9.24834 3.06055 8.53613L3.04785 8.49512C2.73409 7.40572 3.38803 6.27311 4.48828 6L4.53027 5.99023C5.24967 5.81176 5.81176 5.24967 5.99023 4.53027L6 4.48828C6.27311 3.38803 7.40572 2.73409 8.49512 3.04785L8.53613 3.06055C9.24834 3.26564 10.016 3.06008 10.5303 2.52637L10.5596 2.49512ZM15.791 9.40918C15.4982 9.11637 15.0234 9.11655 14.7305 9.40918L11.2607 12.8789L9.79102 11.4092C9.49814 11.1163 9.02336 11.1164 8.73047 11.4092C8.43759 11.7021 8.43761 12.1768 8.73047 12.4697L10.7305 14.4697C11.0234 14.7624 11.4982 14.7626 11.791 14.4697L15.791 10.4697C16.0836 10.1769 16.0836 9.702 15.791 9.40918Z" fill="#212121"/>
</svg>
