<svg width="24" height="24" viewBox="0 0 24 24" fill="none" xmlns="http://www.w3.org/2000/svg">
<path d="M14.7422 1.1095C16.142 0.854513 17.5865 1.03269 18.8828 1.61926C19.1817 1.75463 19.3952 2.02795 19.4541 2.35071C19.5129 2.67359 19.4098 3.00533 19.1777 3.23743L15.417 6.99719L15.4141 6.99915L17 8.58508L20.7637 4.82239L20.8545 4.74133C21.0777 4.56698 21.367 4.49462 21.6494 4.54602C21.9723 4.60485 22.2465 4.81835 22.3818 5.11731C22.9684 6.41354 23.1456 7.85819 22.8906 9.25793C22.6356 10.6577 21.9601 11.9471 20.9541 12.9532C19.948 13.9594 18.6586 14.6347 17.2588 14.8898C16.0912 15.1025 14.8932 15.0133 13.7754 14.6378L7.32715 21.087C6.74181 21.6723 5.94785 22.0011 5.12012 22.0011C4.29237 22.001 3.49839 21.6723 2.91309 21.087C2.32784 20.5017 1.99906 19.7077 1.99902 18.88C1.99907 18.0523 2.32789 17.2583 2.91309 16.673L9.36133 10.2238C8.98625 9.1064 8.89771 7.90837 9.11035 6.74133C9.36547 5.34158 10.0408 4.05211 11.0469 3.04602C12.053 2.04 13.3424 1.36454 14.7422 1.1095Z" fill="#212121"/>
</svg>
