<svg width="24" height="24" viewBox="0 0 24 24" fill="none" xmlns="http://www.w3.org/2000/svg">
<path fill-rule="evenodd" clip-rule="evenodd" d="M12 22C17.5228 22 22 17.5228 22 12C22 6.47715 17.5228 2 12 2C6.47715 2 2 6.47715 2 12C2 17.5228 6.47715 22 12 22ZM11 12.5858V8C11 7.44772 11.4477 7 12 7C12.5523 7 13 7.44772 13 8V12.0858C13 12.351 13.1054 12.6054 13.2929 12.7929L15.7376 15.2376C16.132 15.632 16.067 16.2887 15.6029 16.5981C15.2523 16.8318 14.7855 16.7855 14.4876 16.4876L11.2929 13.2929C11.1054 13.1054 11 12.851 11 12.5858Z" fill="#0BC7F2"/>
</svg>
