<svg width="24" height="24" viewBox="0 0 24 24" fill="none" xmlns="http://www.w3.org/2000/svg">
<path d="M4 17V7C4 5.34315 5.34315 4 7 4H17C18.6569 4 20 5.34315 20 7V17C20 18.6569 18.6569 20 17 20H7C5.34315 20 4 18.6569 4 17Z" stroke="black" stroke-width="2"/>
<mask id="path-2-inside-1_233_135" fill="white">
<path d="M9 11H11V9C11 8.44772 11.4477 8 12 8C12.5523 8 13 8.44772 13 9V11H15C15.5523 11 16 11.4477 16 12C16 12.5523 15.5523 13 15 13H13V15C13 15.5523 12.5523 16 12 16C11.4477 16 11 15.5523 11 15V13H9C8.44772 13 8 12.5523 8 12C8 11.4477 8.44772 11 9 11Z"/>
</mask>
<path d="M11 11V13H13V11H11ZM11 13H13V11H11V13ZM13 13V11H11V13H13ZM13 11H11V13H13V11ZM11 9H9V13H11V9ZM9 15H11V11H9V15ZM9 13V15H13V13H9ZM15 15V13H11V15H15ZM13 15H15V11H13V15ZM15 9H13V13H15V9ZM15 11V9H11V11H15ZM9 9V11H13V9H9ZM12 6C10.3431 6 9 7.34315 9 9H13C13 9.55228 12.5523 10 12 10V6ZM15 9C15 7.34315 13.6569 6 12 6V10C11.4477 10 11 9.55228 11 9H15ZM18 12C18 10.3431 16.6569 9 15 9V13C14.4477 13 14 12.5523 14 12H18ZM12 18C13.6569 18 15 16.6569 15 15H11C11 14.4477 11.4477 14 12 14V18ZM9 15C9 16.6569 10.3431 18 12 18V14C12.5523 14 13 14.4477 13 15H9ZM15 15C16.6569 15 18 13.6569 18 12H14C14 11.4477 14.4477 11 15 11V15ZM6 12C6 13.6569 7.34315 15 9 15V11C9.55228 11 10 11.4477 10 12H6ZM9 9C7.34315 9 6 10.3431 6 12H10C10 12.5523 9.55228 13 9 13V9Z" fill="black" mask="url(#path-2-inside-1_233_135)"/>
</svg>
