<svg width="24" height="24" viewBox="0 0 24 24" fill="none" xmlns="http://www.w3.org/2000/svg">
<path fill-rule="evenodd" clip-rule="evenodd" d="M8.00005 4.70005C6.17751 4.70005 4.70005 6.17751 4.70005 8.00005V16C4.70005 17.8226 6.17751 19.3 8.00005 19.3H16C17.8226 19.3 19.3 17.8226 19.3 16V8.00005C19.3 6.17751 17.8226 4.70005 16 4.70005H8.00005ZM3.30005 8.00005C3.30005 5.40431 5.40431 3.30005 8.00005 3.30005H16C18.5958 3.30005 20.7001 5.40431 20.7001 8.00005V16C20.7001 18.5958 18.5958 20.7001 16 20.7001H8.00005C5.40431 20.7001 3.30005 18.5958 3.30005 16V8.00005Z" fill="#222222"/>
<path fill-rule="evenodd" clip-rule="evenodd" d="M12 8.30005C12.3866 8.30005 12.7 8.61345 12.7 9.00005V15C12.7 15.3866 12.3866 15.7 12 15.7C11.6134 15.7 11.3 15.3866 11.3 15V9.00005C11.3 8.61345 11.6134 8.30005 12 8.30005Z" fill="#222222"/>
<path fill-rule="evenodd" clip-rule="evenodd" d="M8.30005 12C8.30005 11.6134 8.61345 11.3 9.00005 11.3H15C15.3866 11.3 15.7 11.6134 15.7 12C15.7 12.3866 15.3866 12.7 15 12.7H9.00005C8.61345 12.7 8.30005 12.3866 8.30005 12Z" fill="#222222"/>
</svg>
