<svg width="24" height="24" viewBox="0 0 24 24" fill="none" xmlns="http://www.w3.org/2000/svg">
<path d="M17.29 2.73596C19.117 1.84125 21.2498 3.17149 21.25 5.20569V19.526C21.2497 21.5602 19.117 22.8905 17.29 21.9957L11.7168 19.2653C11.2391 20.2887 10.204 20.9996 9 20.9996C7.34319 20.9996 6.00007 19.6564 6 17.9996C6 17.745 6.03501 17.4984 6.09473 17.2623H5.5C3.70513 17.2623 2.25009 15.8072 2.25 14.0123V10.7194C2.25 8.92445 3.70508 7.46937 5.5 7.46936H7.33691C7.52736 7.4693 7.71568 7.42519 7.88672 7.34143L17.29 2.73596ZM7.66895 17.3082C7.56127 17.5151 7.5 17.7502 7.5 17.9996C7.50007 18.828 8.17162 19.4996 9 19.4996C9.61223 19.4996 10.137 19.1319 10.3701 18.6061L7.88672 17.3893C7.81677 17.355 7.74363 17.3287 7.66895 17.3082Z" fill="#212121"/>
</svg>
