<svg width="220" height="130" viewBox="0 0 220 130" fill="none" xmlns="http://www.w3.org/2000/svg">
<g clip-path="url(#clip0_4259_16351)">
<path d="M110.554 44.6804C110.367 44.29 110.086 44.0184 109.882 43.8147C109.814 43.7553 109.755 43.6959 109.704 43.6279C109.653 43.5685 109.619 43.4921 109.577 43.4158C109.432 43.1611 109.237 42.8216 108.888 42.5415C108.523 42.2444 108.124 42.1511 107.835 42.0747C107.767 42.0577 107.691 42.0407 107.631 42.0237L107.436 41.9304C107.164 41.7861 106.816 41.6163 106.399 41.523C106.315 41.506 106.23 41.472 106.145 41.4466C105.873 41.3532 105.499 41.2344 105.074 41.2344C104.65 41.2344 104.293 41.3447 104.004 41.4381C103.919 41.4635 103.834 41.489 103.749 41.5145C103.316 41.6163 102.993 41.8285 102.764 41.9813C102.696 42.0237 102.636 42.0747 102.568 42.1086C102.509 42.1341 102.432 42.1511 102.364 42.168C102.084 42.2444 101.693 42.3378 101.336 42.6264L101.269 42.6773C100.971 42.915 100.631 43.1781 100.343 43.5431C100.028 43.9335 99.9518 44.3664 99.9008 44.655C99.8923 44.7144 99.8838 44.7823 99.9008 44.7653C99.8668 44.8078 99.8244 44.8502 99.7819 44.8926C99.578 45.1133 99.2722 45.4528 99.1533 45.9621C99.0343 46.4884 99.1957 46.9297 99.2977 47.2268C99.3147 47.2777 99.3402 47.3371 99.3487 47.3117C99.3487 47.6682 99.3656 48.101 99.4761 48.5849C99.4931 48.6612 99.4931 48.7376 99.4931 48.814C99.5101 49.0941 99.5271 49.4846 99.7394 49.9259C99.9093 50.2739 100.096 50.6729 100.394 51.0378C100.606 51.301 100.929 51.6914 101.328 52.0055C101.642 52.2601 102.016 52.5487 102.449 52.7524C102.823 52.9306 103.205 53.007 103.511 53.0664L103.749 53.1174C104.14 53.2023 104.514 53.2107 104.845 53.2107C104.887 53.2107 104.921 53.2107 104.964 53.2107H105.074C105.558 53.2107 105.983 53.1683 106.391 53.0749C106.476 53.058 106.569 53.041 106.663 53.0325C106.96 52.9901 107.325 52.9391 107.699 52.7524C108.149 52.5402 108.54 52.294 108.855 52.0479C109.228 51.7508 109.543 51.3858 109.789 51.0718C110.035 50.7577 110.273 50.3758 110.494 49.9259C110.681 49.527 110.715 49.1451 110.74 48.865C110.74 48.7801 110.749 48.6952 110.766 48.6103C110.783 48.5339 110.817 48.4575 110.842 48.3811C110.936 48.118 111.072 47.753 111.072 47.3117V47.108C111.072 46.76 111.08 46.3695 110.995 45.9621C110.902 45.5377 110.74 45.0794 110.545 44.6804H110.554Z" fill="#E4EAF1"/>
<path d="M133.949 44.6804C133.762 44.29 133.482 44.0184 133.278 43.8147C133.218 43.7553 133.15 43.6959 133.099 43.628C133.048 43.5685 133.014 43.4921 132.972 43.4158C132.827 43.1611 132.632 42.8216 132.284 42.5415C131.918 42.2444 131.519 42.1511 131.23 42.0747C131.162 42.0577 131.086 42.0407 131.026 42.0237L130.831 41.9304C130.559 41.7861 130.211 41.6163 129.795 41.523C129.71 41.506 129.625 41.472 129.54 41.4466C129.268 41.3532 128.894 41.2344 128.469 41.2344C128.045 41.2344 127.688 41.3447 127.399 41.4381C127.314 41.4635 127.229 41.489 127.144 41.5145C126.711 41.6163 126.388 41.8285 126.159 41.9813C126.091 42.0237 126.031 42.0747 125.963 42.1086C125.904 42.1341 125.828 42.1511 125.76 42.168C125.479 42.2444 125.088 42.3378 124.732 42.6264L124.655 42.6858C124.375 42.9065 124.027 43.1866 123.738 43.5431C123.423 43.9335 123.347 44.3664 123.288 44.655C123.279 44.7144 123.271 44.7823 123.288 44.7653C123.254 44.8078 123.211 44.8502 123.169 44.8926C122.965 45.1133 122.65 45.4528 122.54 45.9621C122.421 46.4968 122.582 46.9382 122.684 47.2268C122.701 47.2777 122.727 47.3371 122.735 47.3117C122.735 47.6682 122.752 48.0926 122.863 48.5933C122.88 48.6697 122.88 48.7461 122.88 48.8225C122.897 49.1026 122.914 49.4931 123.126 49.9259C123.296 50.2824 123.491 50.6814 123.789 51.0548C124.018 51.3434 124.332 51.7084 124.723 52.0224C125.055 52.2856 125.42 52.5657 125.845 52.7694C126.218 52.9476 126.601 53.024 126.906 53.0834L127.144 53.1343C127.535 53.2192 127.909 53.2277 128.24 53.2277C128.283 53.2277 128.317 53.2277 128.359 53.2277H128.469C128.954 53.2277 129.378 53.1853 129.786 53.0919C129.871 53.0749 129.965 53.058 130.058 53.0495C130.355 53.007 130.721 52.9561 131.094 52.7694C131.545 52.5572 131.927 52.3195 132.25 52.0564C132.624 51.7593 132.929 51.3943 133.184 51.0803C133.431 50.7662 133.668 50.3843 133.889 49.9259C134.076 49.5355 134.11 49.1451 134.136 48.865C134.136 48.7801 134.144 48.6952 134.161 48.6188C134.178 48.5424 134.212 48.466 134.238 48.3896C134.34 48.1265 134.467 47.7615 134.467 47.3202V47.1249C134.467 46.7769 134.475 46.3865 134.382 45.9706C134.28 45.5462 134.127 45.0879 133.932 44.6889L133.949 44.6804Z" fill="#E4EAF1"/>
<path d="M32.0443 49.7822C32.2567 49.8331 32.3671 49.8756 32.4691 49.9095C32.6135 49.952 32.7154 50.1557 33.0127 50.2321C33.2251 50.283 33.2761 50.4952 33.3865 50.5292C33.5309 50.5716 33.7688 50.283 34.0661 50.3594C34.304 50.4188 34.4144 50.5037 34.5248 50.5292C34.6608 50.5631 34.7542 50.7413 35.026 50.8093C35.2639 50.8687 35.4423 50.6904 35.5612 50.7159C35.6972 50.7498 35.7481 51.0724 36.02 51.1403C36.3598 51.2252 36.5891 51.2167 36.7845 51.2421C36.861 51.2506 36.9289 51.2252 37.0648 51.2676C37.2432 51.31 37.3537 51.2676 37.4386 51.2931C37.6 51.3525 37.719 51.5816 38.0418 51.6665C38.3646 51.7514 38.5515 51.7175 38.7129 51.7514C38.8063 51.7684 38.9167 51.709 39.1036 51.7514C39.6048 51.8787 40.14 51.8108 40.5478 51.5732C40.9555 51.327 41.4398 50.9366 41.5672 50.4358C41.6946 49.935 41.5842 49.2814 41.3378 48.874C41.0915 48.4666 40.4798 48.4072 39.9786 48.2799C39.6558 48.2035 39.5539 47.9319 39.3925 47.8979C39.299 47.8809 39.2226 47.7961 39.0357 47.7451C38.8573 47.7027 38.7129 47.864 38.6279 47.8385C38.4665 47.7791 38.3476 47.5669 38.0163 47.482C37.6765 47.3971 37.4471 47.4396 37.2432 47.4141C37.1668 47.4056 37.1073 47.3886 36.9629 47.3547C36.725 47.2953 36.6061 47.2528 36.4872 47.2189C36.3513 47.1849 36.1729 47.3462 35.901 47.2783C35.6632 47.2189 35.5697 47.0831 35.4508 47.0491C35.3149 47.0152 35.145 47.1255 34.8731 47.0491C34.6608 46.9982 34.5843 46.8284 34.4739 46.7945C34.3295 46.7521 34.219 46.5823 33.9302 46.5059C33.7178 46.455 33.6244 46.4041 33.5224 46.3701C33.378 46.3277 33.1572 46.5653 32.8598 46.4889C32.7494 46.4635 32.639 46.4295 32.571 46.3362C32.5115 46.2682 32.6899 46.1579 32.7154 46.073C32.7664 45.8608 32.605 45.6996 32.6305 45.5977C32.6729 45.4534 32.7324 45.3176 32.8004 45.0205C32.8513 44.8083 32.8768 44.6895 32.9108 44.5792C32.9533 44.4349 33.0042 44.2991 33.0807 44.0105C33.1402 43.7728 33.5479 43.7558 33.5734 43.637C33.6074 43.5012 33.6414 43.3569 33.7093 43.0853C33.7688 42.8476 33.429 42.627 33.463 42.5081C33.497 42.3723 33.7008 42.2874 33.7688 42.0243C33.8537 41.6848 34.1341 41.5151 34.1596 41.3113C34.1681 41.235 33.9472 41.1331 33.9812 40.9973C34.0236 40.819 34.1171 40.7511 34.1426 40.6578C34.202 40.4965 34.4229 40.3777 34.4994 40.0466C34.5843 39.7241 34.2445 39.4865 34.27 39.3167C34.287 39.2233 34.4144 39.1385 34.4569 38.9517C34.5843 38.4509 34.4569 38.0181 34.2105 37.6106C33.9642 37.2032 33.6499 36.8552 33.1487 36.7279C32.6475 36.6006 32.2227 36.7788 31.815 37.0165C31.4072 37.2626 30.9485 37.5258 30.821 38.0265C30.7361 38.3491 30.9485 38.5613 30.9145 38.7225C30.8975 38.8159 30.6511 38.8668 30.6087 39.0536C30.5662 39.2318 30.7701 39.3931 30.7361 39.4865C30.6851 39.6477 30.4303 39.7411 30.3453 40.0721C30.2604 40.4116 30.3198 40.6323 30.2944 40.8275C30.2859 40.9039 30.3198 40.9888 30.2944 41.1331C30.2349 41.3708 30.0565 41.4556 30.0225 41.5745C29.9885 41.7103 30.1924 41.897 30.1245 42.1686C30.065 42.4063 29.8611 42.4827 29.8271 42.6015C29.7932 42.7373 29.6997 42.8561 29.6317 43.1193C29.5808 43.3315 29.5553 43.4418 29.5213 43.5521C29.4788 43.6964 29.4534 43.8407 29.3769 44.1378C29.3259 44.35 29.2919 44.4518 29.2665 44.5622C29.224 44.7065 29.1305 44.8423 29.0541 45.1394C29.0286 45.2327 29.1815 45.377 29.0966 45.4195C29.0031 45.4704 28.9097 45.4449 28.8077 45.4195C28.5954 45.3685 28.5614 45.0715 28.4594 45.046C28.315 45.0036 28.1876 44.8678 27.8903 44.7999C27.576 44.7235 27.3381 45.029 27.1767 45.0036C27.0833 44.9866 27.0153 44.8168 26.8284 44.7744C26.5311 44.698 26.3697 44.7319 26.2168 44.698C26.1148 44.681 25.9874 44.715 25.7835 44.664C25.5457 44.6046 25.4267 44.5877 25.3078 44.5537C25.1719 44.5198 25.053 44.4434 24.7811 44.3755C24.5687 44.3245 24.4328 44.3924 24.3224 44.367C24.178 44.3245 24.076 44.1293 23.7872 44.0529C23.5833 44.002 23.4219 44.1378 23.32 44.1038C23.1756 44.0614 23.0906 43.7983 22.7933 43.7304C22.5554 43.671 22.4535 43.5861 22.3346 43.5606C22.1986 43.5267 22.0627 43.4842 21.7994 43.4163C21.2982 43.289 20.8819 43.62 20.4742 43.8662C20.0664 44.1123 19.7861 44.3755 19.6587 44.8678C19.5312 45.3685 19.3104 45.9372 19.5567 46.3446C19.8031 46.7521 20.3722 46.9727 20.8649 47.1001C21.1113 47.1595 21.2047 47.2868 21.3237 47.3207C21.4511 47.3547 21.5955 47.3632 21.8588 47.4311C22.0712 47.482 22.2411 47.2868 22.3431 47.3207C22.4875 47.3632 22.5809 47.5839 22.8782 47.6603C23.0906 47.7112 23.218 47.6687 23.32 47.7027C23.4644 47.7451 23.5409 48.0507 23.8297 48.1271C24.0675 48.1865 24.2035 48.1526 24.3224 48.1865C24.4583 48.2205 24.6537 47.9998 24.9255 48.0677C25.2229 48.1441 25.3163 48.4327 25.4607 48.4581C25.5711 48.4836 25.6986 48.3563 25.9109 48.4157C26.2253 48.4921 26.4206 48.3308 26.5821 48.3563C26.6755 48.3732 26.752 48.543 26.9388 48.5854C27.1512 48.6364 27.2447 48.7128 27.3551 48.7467C27.4995 48.7891 27.6609 48.7637 27.9497 48.8316C28.0602 48.857 27.9667 48.9419 28.0177 49.0438C28.0772 49.1541 28.0602 49.0862 28.0262 49.2135C27.9752 49.4257 27.8223 49.4936 27.7968 49.5955C27.7544 49.7398 27.8733 49.935 27.7968 50.2236C27.7204 50.5461 27.8478 50.7329 27.8138 50.8941C27.7968 50.9875 27.5505 51.0384 27.508 51.2167C27.4315 51.5137 27.5505 51.7005 27.5165 51.8448C27.4995 51.9466 27.3381 52.023 27.2786 52.2352C27.2192 52.4729 27.2786 52.6172 27.2447 52.736C27.2107 52.8718 26.9898 52.9567 26.9218 53.2198C26.8709 53.432 26.9898 53.5763 26.9643 53.6781C26.9218 53.8224 27.0917 54.0177 27.0153 54.3147C26.9643 54.5269 26.6585 54.5524 26.6245 54.6543C26.5821 54.7985 26.667 54.9853 26.5905 55.2824C26.5311 55.52 26.6075 55.6643 26.5736 55.7831C26.5396 55.9189 26.4631 56.0378 26.3952 56.3094C26.2677 56.8102 26.2847 57.2515 26.5226 57.659C26.7689 58.0664 27.1002 58.4992 27.593 58.6266C28.0942 58.7539 28.5359 58.4568 28.9521 58.2107C29.3599 57.9645 29.7167 57.6844 29.8356 57.1836C29.8951 56.9375 29.8186 56.7932 29.8526 56.6659C29.8866 56.5386 30.1329 56.4622 30.2009 56.199C30.2519 55.9868 30.3538 55.9105 30.3793 55.8086C30.4218 55.6643 30.5407 55.5285 30.6172 55.2314C30.6681 55.0192 30.5662 54.8834 30.6002 54.7816C30.6426 54.6373 30.7786 54.51 30.8465 54.2214C30.906 53.9837 30.8805 53.8564 30.906 53.7376C30.94 53.6018 30.906 53.449 30.974 53.1774C31.0504 52.8803 31.2543 52.7699 31.2883 52.6172C31.3137 52.5068 30.9655 52.3201 31.0164 52.1079C31.0929 51.7938 31.2968 51.675 31.3222 51.5137C31.3392 51.4204 31.2883 51.31 31.3307 51.1148C31.3817 50.9026 31.5006 50.8177 31.5261 50.7159C31.5686 50.5716 31.713 50.4528 31.7895 50.1642C31.8234 50.0369 31.6196 49.935 31.73 49.8501C31.815 49.7822 31.8914 49.7398 31.9933 49.7652L32.0443 49.7822Z" fill="#E4EAF1"/>
<path d="M47.2086 64.5679C47.3021 64.6443 47.3106 64.6443 47.3615 64.7377C47.6164 65.1621 47.8372 65.3658 47.9817 65.5016C48.0411 65.5525 48.0751 65.5865 48.1091 65.6374C48.0496 65.9345 47.9562 66.5032 48.3469 67.1482C48.6103 67.5896 48.8566 67.7933 49.0945 67.9716C49.1568 68.0168 49.2021 68.0649 49.2304 68.1159C49.4428 68.4639 49.5872 68.6421 49.6976 68.7864C49.7741 68.8798 49.8506 68.9731 49.9695 69.1684C50.1903 69.5418 50.3602 69.737 50.4877 69.8728C50.5132 69.9068 50.5386 69.9323 50.5641 69.9662C50.4027 70.3227 50.1394 71.0357 50.5896 71.7911C50.9464 72.3937 51.4646 72.589 51.8129 72.6823C51.8129 72.9624 51.8384 73.3868 52.1272 73.8706C52.2206 74.0234 52.2291 74.0743 52.2716 74.1932C52.3481 74.4308 52.4245 74.6855 52.6539 75.0589C53.0447 75.704 53.6563 75.8653 54.1065 75.9077C54.0895 76.1878 54.132 76.5443 54.3359 76.9263C54.3359 76.9687 54.3189 77.0366 54.3189 77.096C54.3699 77.113 54.4293 77.1215 54.4718 77.13C54.5738 77.1554 54.7352 77.1979 54.7861 77.1979C54.9051 77.1809 55.0495 77.1385 55.2024 77.1045C55.5422 77.0196 55.9329 76.9263 56.4002 76.9263C56.4257 76.9263 56.5871 76.8584 56.689 76.8159C56.706 76.8159 56.7315 76.7989 56.7485 76.7905C56.7485 76.5443 56.6975 76.2472 56.5276 75.9247C56.5956 75.6276 56.706 75.042 56.3067 74.3714C55.831 73.5736 55.007 73.5141 54.5737 73.5141C54.5737 73.5141 54.5737 73.5141 54.5737 73.5056C54.5058 73.2765 54.4208 73.0388 54.217 72.6908C54.217 72.6908 54.217 72.6908 54.217 72.6738C54.234 72.4022 54.2679 71.9099 53.9111 71.3073C53.6308 70.8405 53.257 70.6113 52.9427 70.4925C53.0701 70.102 53.1381 69.5503 52.7983 68.9731C52.5774 68.5997 52.4075 68.4044 52.2801 68.2686C52.1867 68.1668 52.1357 68.1074 52.0338 67.9376C51.8214 67.5896 51.677 67.4114 51.5665 67.2671C51.4901 67.1737 51.4136 67.0803 51.2947 66.8851C51.0314 66.4438 50.785 66.24 50.5471 66.0618C50.5217 66.0363 50.4962 66.0279 50.4877 66.0109C50.5471 65.7138 50.6321 65.1451 50.2498 64.5085C49.995 64.0841 49.7741 63.8804 49.6297 63.7361C49.5362 63.6513 49.5108 63.6258 49.4343 63.49C49.1794 63.0571 48.9416 62.8534 48.7122 62.6751C48.6188 62.5988 48.6103 62.5988 48.5593 62.5054C48.4404 62.3102 48.3979 62.1998 48.3554 62.098C48.2875 61.9367 48.211 61.733 48.0156 61.4105C48.0411 61.1388 48.0921 60.6211 47.7183 60.01L47.0642 58.8981C46.9623 58.7283 46.8518 58.601 46.7329 58.4906C46.8348 58.4567 46.9538 58.4227 47.0727 58.3633C47.4125 58.5076 48.1091 58.7622 48.8566 58.3209C49.2474 58.0917 49.4428 57.888 49.6127 57.7013C49.6891 57.6164 49.7061 57.5994 49.8166 57.5315C50.2413 57.2769 50.4537 56.9289 50.5641 56.5894C50.9804 56.7506 51.5071 56.827 52.0677 56.496C52.484 56.2498 52.6879 56.0207 52.8578 55.8085C52.9031 55.7519 52.954 55.7066 53.0107 55.6727C53.4524 55.4095 53.6733 55.1379 53.8347 54.9003L53.9281 54.8069C54.3359 54.5608 54.5398 54.3486 54.6757 54.2043C54.7606 54.1194 54.7776 54.0939 54.8966 54.026C55.1089 53.8987 55.2194 53.8478 55.3298 53.7968C55.4997 53.7205 55.6696 53.6441 55.9924 53.4488C56.5531 53.1178 56.7655 52.6765 56.8929 52.3709C57.0288 52.2945 57.1137 52.2605 57.1987 52.2266C57.3176 52.1757 57.4535 52.1247 57.6404 52.0229C57.9887 52.1672 58.6768 52.4133 59.4159 51.972C60.002 51.624 60.1889 51.0043 60.2994 50.6394C60.3164 50.5969 60.3248 50.546 60.3418 50.5036C60.3843 50.4696 60.4353 50.4272 60.4862 50.3932C60.7326 50.198 61.0724 49.9349 61.3103 49.5105C61.6161 48.9673 61.4972 48.4325 61.3527 48.0506C61.7605 47.7874 62.2787 47.3631 62.2617 46.6161C62.2617 46.1408 62.1173 45.6825 62.0068 45.309L61.9474 45.1053C61.9304 45.0289 61.9304 44.9355 61.9219 44.8422C61.9049 44.4772 61.8709 43.9849 61.5991 43.5265C61.3527 43.1191 61.1404 42.9069 60.9365 42.7287C60.843 42.6438 60.8176 42.6268 60.7496 42.508C60.6137 42.2873 60.5627 42.1685 60.5117 42.0497C60.4268 41.8714 60.3503 41.6932 60.1465 41.3537C59.7472 40.6916 59.1865 40.5049 58.8892 40.42C58.7448 40.1908 58.6598 40.0635 58.5749 39.9277C58.5239 39.8513 58.4644 39.7664 58.3965 39.6561C58.5239 39.3166 58.7448 38.6291 58.303 37.8906C57.8698 37.1607 57.1307 37.0503 56.655 37.0418C56.6465 36.7702 56.5786 36.4222 56.3407 36.0233C56.0434 35.5225 55.7206 35.3018 55.5337 35.166C55.5082 35.149 55.4827 35.1321 55.4148 35.0472C55.3468 34.9283 55.3383 34.9029 55.3128 34.7841C55.2618 34.5719 55.2024 34.3342 55.0495 34.0286C55.1684 33.7061 55.3808 33.0186 54.939 32.2886C54.5143 31.5672 53.8092 31.4398 53.4099 31.3974C53.3845 31.1852 53.325 30.8796 53.1211 30.4977C53.1806 30.2006 53.2825 29.6149 52.8833 28.9529C52.467 28.2484 51.8299 28.0956 51.4986 28.0192C51.3287 27.7561 51.2013 27.6118 51.0908 27.4845C50.9974 27.3826 50.9464 27.3147 50.836 27.128C50.6236 26.78 50.4792 26.6018 50.3687 26.4575C50.3348 26.415 50.3008 26.3811 50.2668 26.3302C50.4452 25.9652 50.785 25.2098 50.3008 24.4034C49.9015 23.7414 49.2644 23.5886 48.7802 23.5716C48.8142 23.2491 48.7802 22.8416 48.5168 22.4172C48.2025 21.8825 47.6928 21.6703 47.387 21.543C47.336 21.526 47.2936 21.509 47.2511 21.4836C46.8263 21.1016 46.3506 21.0337 46.0618 21.0083C45.8834 20.7112 45.5691 20.2019 44.9065 20.0322C44.3883 19.9048 43.9635 20.0322 43.6662 20.151C43.3179 19.8454 42.7063 19.3277 41.8993 19.5568C41.2367 19.7436 40.9478 20.2953 40.7949 20.7197C40.4381 20.6348 39.9454 20.6178 39.4272 20.9234C39.3423 20.9743 39.3423 20.9743 39.2233 20.9913C38.9515 21.0422 38.6457 21.1101 38.2294 21.3648C37.6858 21.6873 37.4734 22.1371 37.3714 22.4682C37.0741 22.4427 36.6324 22.4682 36.1397 22.7568C35.7064 23.0114 35.5025 23.2575 35.3242 23.4782C35.2788 23.5348 35.2307 23.5773 35.1797 23.6055C34.9249 23.7583 34.7975 23.8262 34.67 23.9026C34.5256 23.9875 34.3812 24.0639 34.0924 24.2336C33.8545 24.3779 33.7356 24.4374 33.6082 24.5053C33.4468 24.5901 33.2939 24.6665 32.988 24.8448C32.3849 25.2098 32.1895 25.719 32.0961 26.0501C31.7902 26.067 31.4335 26.118 30.9832 26.3896C30.465 26.6951 30.2442 27.1025 30.1082 27.4081C29.8449 27.3911 29.4117 27.4081 28.8935 27.6967C28.8935 27.6967 28.8935 27.6967 28.8765 27.6967C28.6131 27.6882 28.1374 27.6627 27.5598 28.0107C27.3474 28.1381 27.2284 28.189 27.118 28.2484C26.9481 28.3248 26.7697 28.4097 26.4469 28.6049C25.7079 29.0463 25.5974 29.7762 25.5634 30.1751C25.5464 30.1751 25.538 30.1751 25.521 30.1836C25.2916 30.2515 25.0622 30.3364 24.7139 30.5401C24.7139 30.5401 24.7139 30.5401 24.697 30.5401C24.4421 30.5316 23.9664 30.5147 23.3972 30.8542C22.7346 31.2531 22.5562 31.8303 22.4798 32.1528C22.3438 32.2292 22.2589 32.2716 22.1654 32.3226C22.004 32.399 21.8511 32.4838 21.5453 32.6621C21.2395 32.8403 21.0951 32.9422 20.9507 33.044C20.8402 33.1204 20.7213 33.1968 20.4919 33.3411C20.2456 33.4854 20.1267 33.5533 19.9992 33.6212C19.9228 33.6637 19.8548 33.6976 19.7614 33.7485C19.3791 33.5109 18.5636 33.044 17.6886 33.5618C17.3913 33.74 17.2469 33.8334 17.1109 33.9268C16.992 34.0032 16.8731 34.088 16.6267 34.2323C15.9386 34.6482 15.8112 35.3273 15.8027 35.8111C15.5903 35.8111 15.344 35.8535 15.0722 35.9724C14.7408 35.845 14.0528 35.6159 13.3222 36.0572C12.6511 36.4562 12.4812 37.0758 12.4132 37.4153C12.3962 37.4153 12.3708 37.4238 12.3538 37.4323C12.1244 37.4832 11.878 37.5596 11.5467 37.7378C11.2664 37.6869 10.7057 37.6105 10.0771 37.984C9.32955 38.4338 9.23611 39.1893 9.2446 39.6646C8.98975 39.6985 8.69243 39.7749 8.33564 39.9871C7.96186 40.2078 7.76648 40.3945 7.58808 40.5728C7.50313 40.6661 7.46915 40.6916 7.33323 40.7765C7.28227 40.8048 7.21997 40.8246 7.14635 40.8359C6.86601 40.8868 6.5517 40.9462 6.11845 41.2094C5.69371 41.464 5.47284 41.7271 5.28595 42.0157C4.95464 41.9393 4.40247 41.8629 3.79083 42.2279C3.27264 42.5335 3.06027 42.9748 2.95833 43.3143C2.61003 43.2464 2.13431 43.238 1.62462 43.5435C1.01298 43.9085 0.877059 44.5281 0.826089 44.961C0.443815 45.0459 -0.0828729 45.2326 -0.388692 45.7928C-0.652036 46.2596 -0.652036 46.735 -0.660531 47.049C-0.660531 47.1254 -0.660531 47.2018 -0.660531 47.2612C-0.77946 47.7195 -0.728491 48.1185 -0.694511 48.4071C-0.694511 48.4665 -0.677521 48.5259 -0.677521 48.5853C-0.694511 48.6193 -0.711501 48.6532 -0.728491 48.6956C-0.872905 49.0097 -1.11076 49.5444 -0.93237 50.181C-0.736985 50.877 -0.150833 51.1571 0.248431 51.3014C0.222946 51.6155 0.231441 52.0653 0.53726 52.5661C0.622209 52.7104 0.639199 52.7528 0.673179 52.8802C0.741139 53.1348 0.826089 53.3894 1.05545 53.7799C1.23385 54.0769 1.32729 54.2297 1.42074 54.374C1.50569 54.5013 1.58214 54.6287 1.74355 54.8833C1.93043 55.2058 2.04087 55.3586 2.1513 55.5114C2.23625 55.6217 2.31271 55.7406 2.45712 55.9782C2.63552 56.2753 2.72047 56.4196 2.81391 56.5639C2.89886 56.6997 2.98381 56.827 3.13672 57.0986C3.23016 57.2599 3.24715 57.3193 3.28963 57.4466C3.34909 57.6418 3.43404 57.905 3.6719 58.3039C4.0117 58.8641 4.42796 59.0848 4.73377 59.2376C4.95464 59.6025 5.13304 59.7978 5.26046 59.9336C5.29444 59.976 5.32842 60.01 5.35391 60.0439C5.21799 60.3919 4.99712 61.0794 5.43886 61.8094C5.46717 61.8547 5.48416 61.9112 5.48983 61.9791C5.51531 62.1998 5.56628 62.5818 5.86361 63.0741C6.27986 63.7701 6.95946 63.9059 7.41818 63.9313C7.41818 64.2114 7.48614 64.5849 7.7325 64.9923C7.99584 65.4337 8.2337 65.6459 8.38661 65.7817C8.48006 65.8666 8.50554 65.8836 8.5735 66.0109C8.83684 66.4522 9.0747 66.6644 9.23611 66.8002C9.32955 66.8851 9.35504 66.9021 9.423 67.0209C9.60989 67.335 9.71183 67.4793 9.81377 67.6321C9.89872 67.7509 9.97517 67.8697 10.1281 68.1243C10.2385 68.3026 10.264 68.3875 10.315 68.5148C10.3829 68.693 10.4679 68.9392 10.6972 69.3126C10.9946 69.8049 11.3089 70.0256 11.5892 70.1954L11.6232 70.2209C11.5892 70.5094 11.5467 71.0272 11.912 71.6383C12.2263 72.1561 12.6341 72.3853 12.9229 72.5041C12.8889 72.903 12.8804 73.5226 13.3817 74.0149C13.4496 74.0828 13.5176 74.1677 13.5855 74.2441C13.8064 74.4987 14.0867 74.8213 14.4945 75.0504C14.9447 75.3051 15.4544 75.5088 15.9216 75.6191C16.7542 75.8313 17.3488 75.2796 17.6631 74.9825C17.6631 74.9825 17.6716 74.974 17.6801 74.9656C17.867 74.991 18.1303 75.025 18.4277 74.9825C18.4701 75.008 18.5126 75.0335 18.5636 75.0589C19.0223 75.3305 19.7954 75.7719 20.5854 75.3051C21.18 74.9486 21.3754 74.4478 21.4689 74.1338C21.7577 74.1083 22.0975 74.0489 22.5392 73.7857C22.8705 73.5905 23.0234 73.4632 23.1763 73.3444C23.2698 73.2765 23.3547 73.2001 23.5501 73.0813C24.0853 72.7587 24.2977 72.3004 24.3911 71.9439C24.6969 71.9693 25.1132 71.9439 25.5719 71.6723C25.9712 71.4346 26.1836 71.1885 26.3195 71.0187C26.6848 71.163 27.3134 71.3328 27.993 70.9253C28.4008 70.6792 28.6046 70.4585 28.7745 70.2463C28.8425 70.1614 28.851 70.1529 28.9359 70.102C29.4286 69.8049 29.641 69.389 29.743 69.0326C30.0997 69.1089 30.567 69.1174 31.0512 68.8288C31.6119 68.4978 31.8157 68.0734 31.9517 67.7594C32.5378 67.3774 32.6992 66.8512 32.7757 66.5456C32.8266 66.7493 32.9031 66.987 33.056 67.2331C33.3108 67.6575 33.5402 67.8612 33.7611 68.0395C33.7696 68.0395 33.7781 68.0564 33.7866 68.0564C33.6846 68.3875 33.5402 69.0156 33.9395 69.6946C34.2283 70.1784 34.5341 70.3991 34.7125 70.5349C34.7692 70.5745 34.8088 70.6283 34.8314 70.6962C34.8314 70.9423 34.8314 71.4007 35.1712 71.9609C35.5535 72.5974 36.0887 72.7927 36.3436 72.886C36.6069 73.285 36.9297 73.4972 37.21 73.6245C37.1166 73.981 37.0571 74.5327 37.4054 75.1183C37.7197 75.6531 38.119 75.8738 38.4418 76.0096C38.4248 76.2897 38.4163 76.7565 38.7476 77.3082C39.045 77.809 39.3678 78.0297 39.5547 78.157C39.5547 78.157 39.5631 78.157 39.5716 78.1655C39.5037 78.4795 39.4272 79.0397 39.801 79.6678C40.1493 80.2535 40.6165 80.4657 40.9478 80.593C41.2282 81.0089 41.5765 81.2211 41.8738 81.3315C41.7548 81.7134 41.6869 82.2566 42.0352 82.8338C42.375 83.394 42.7912 83.6147 43.0971 83.759C43.3859 84.2258 43.7002 84.438 44.0315 84.6417C44.1419 84.8285 44.1674 84.9048 44.2184 85.0322C44.2863 85.2104 44.3713 85.4396 44.5922 85.8046C44.6516 85.9064 44.6601 85.9234 44.6771 86.0422C44.6856 86.0847 44.6941 86.1356 44.7111 86.1865C44.813 85.9913 44.9235 85.8215 45.0169 85.6772C45.0849 85.5754 45.1783 85.4311 45.2038 85.3717C45.2038 85.3547 45.1868 85.1849 45.1698 85.0831C45.1273 84.6926 45.0764 84.1579 45.3227 83.6147C45.4417 83.3601 45.5861 83.1479 45.7305 82.9526C45.5436 82.7574 45.3397 82.6216 45.1358 82.4943C44.881 82.0699 44.5837 81.8407 44.3203 81.6964C44.4647 81.3145 44.6007 80.7034 44.2099 80.0498C43.7936 79.3538 43.1735 79.1925 42.8422 79.1246C42.5704 78.7511 42.2391 78.5559 41.9757 78.4371C42.0352 78.1146 42.0607 77.6053 41.7294 77.0366C41.432 76.5358 41.1092 76.3151 40.9223 76.1878C40.9053 76.1708 40.8884 76.1623 40.8459 76.1199C40.8629 75.8483 40.8969 75.3475 40.5401 74.7534C40.2682 74.295 39.9284 74.0659 39.6396 73.9216C39.733 73.5736 39.8095 73.0049 39.4527 72.4107C39.1044 71.8251 38.6372 71.6129 38.3059 71.4855C37.9576 70.9593 37.5159 70.7641 37.244 70.6622C37.244 70.4076 37.227 69.9662 36.9042 69.4315C36.6239 68.9562 36.3266 68.7355 36.1397 68.5997C36.2416 68.2602 36.3775 67.6405 35.9783 66.9785C35.7234 66.5541 35.4941 66.3419 35.2732 66.1721C35.1797 66.0957 35.1712 66.0873 35.1203 66.0024C35.1118 65.9769 35.0948 65.8836 35.0863 65.8157C35.0353 65.4592 34.8909 64.5085 33.7526 64.203C32.7502 63.9313 32.0961 64.1435 31.374 64.5764C30.7114 64.9754 30.5415 65.5525 30.465 65.8666C30.1677 66.0788 29.9893 66.3249 29.8704 66.5456C29.4966 66.4183 28.9274 66.3249 28.3243 66.6814C27.5852 67.1228 27.4748 67.8527 27.4408 68.2177C27.22 68.379 27.084 68.5318 26.9566 68.6761C26.5913 68.5318 25.9542 68.3535 25.2661 68.7609C24.7989 69.041 24.5865 69.3211 24.4591 69.4909C24.4591 69.4909 24.4506 69.5079 24.4421 69.5164C24.1363 69.4569 23.5926 69.389 22.9895 69.7455C22.2929 70.1614 22.1485 70.815 22.0975 71.1545C21.9106 71.2733 21.8002 71.3667 21.6812 71.4516C21.5878 71.5195 21.5028 71.5959 21.231 71.7317C20.9252 71.7572 20.5684 71.7996 20.1012 72.0797C19.7614 72.2834 19.549 72.538 19.4131 72.7757C19.0563 72.5974 18.623 72.4532 18.1558 72.589C18.0794 72.589 18.0454 72.5805 17.9859 72.572C17.8075 72.5465 17.6121 72.5295 17.4083 72.5295C16.8136 72.5295 16.3974 72.8775 16.1085 73.1407C15.9641 73.0813 15.8112 73.0134 15.6838 72.937C15.6243 72.903 15.4969 72.7502 15.4119 72.6484C15.3865 72.6229 15.361 72.5974 15.344 72.5635C15.378 72.2325 15.4204 71.7147 15.1316 71.2309C14.7918 70.6622 14.3331 70.4415 14.0443 70.3312C14.0697 70.0341 14.0782 69.5588 13.7469 69.0071C13.4496 68.5148 13.1353 68.2941 12.855 68.1243L12.7785 68.0649C12.6681 67.8867 12.6426 67.8018 12.5916 67.6745C12.5237 67.4963 12.4387 67.2501 12.2093 66.8766C12.0225 66.5626 11.9205 66.4098 11.8186 66.2655C11.7336 66.1467 11.6572 66.0278 11.5043 65.7732C11.2579 65.3658 11.0455 65.1536 10.8417 64.9754C10.7482 64.8905 10.7227 64.8735 10.6548 64.7547C10.3914 64.3133 10.1536 64.1011 10.0007 63.9653C9.9242 63.8974 9.89872 63.8719 9.84775 63.7955C9.87323 63.5154 9.9242 62.9977 9.55042 62.3781C9.09169 61.6142 8.31016 61.5208 7.86842 61.5123C7.84293 61.3341 7.78347 61.0964 7.64755 60.7993C7.77497 60.4683 8.02982 59.7553 7.57959 58.9999C7.34173 58.6095 7.16333 58.4142 7.02742 58.2699C6.93397 58.1681 6.883 58.1172 6.78956 57.9474C6.44976 57.3872 6.0335 57.1665 5.72769 57.0137C5.65123 56.8779 5.62575 56.8185 5.59177 56.6997C5.5323 56.5045 5.44735 56.2498 5.20949 55.8424C5.0311 55.5538 4.94615 55.4095 4.8527 55.2652C4.76775 55.1294 4.6828 55.0021 4.5214 54.7305C4.33451 54.408 4.22408 54.2552 4.11364 54.1024C4.02869 53.9921 3.95224 53.8732 3.80782 53.6356C3.62943 53.3385 3.53598 53.1942 3.44254 53.0499C3.35759 52.9226 3.27264 52.7953 3.11973 52.5322C3.03478 52.3879 3.01779 52.3454 2.98381 52.2181C2.91585 51.9889 2.84789 51.7513 2.661 51.4202C2.70348 51.1402 2.79692 50.563 2.40615 49.9179C2.20227 49.5784 1.91344 49.3747 1.63311 49.2474C1.69258 49.0691 1.73505 48.8569 1.72656 48.6277C1.72656 48.4495 1.70107 48.2713 1.68408 48.1015C1.67559 47.9996 1.6586 47.8723 1.6586 47.8299C1.71806 47.6007 1.72656 47.397 1.73505 47.2103C2.03237 47.1424 2.39766 47.0151 2.70348 46.701C2.96682 46.4294 3.08575 46.1069 3.14522 45.8183C3.46802 45.8522 3.88428 45.8183 4.31752 45.5636C4.8527 45.2411 5.06508 44.7827 5.16702 44.4347C5.49832 44.4857 5.94855 44.4687 6.44126 44.1801C6.92548 43.8915 7.13785 43.586 7.35872 43.2549C7.40969 43.2266 7.47199 43.2068 7.54561 43.1955C7.82594 43.1446 8.14026 43.0852 8.5735 42.8221C8.94728 42.6014 9.14266 42.4146 9.32106 42.2364C9.40601 42.1515 9.43999 42.1176 9.63537 42.0327C9.95818 42.0242 10.3405 41.9818 10.8332 41.6847C11.5128 41.2773 11.6487 40.6152 11.6657 40.1399C11.946 40.1399 12.2943 40.072 12.6681 39.8513C12.7785 39.7834 12.8125 39.7749 12.9229 39.7494C13.1693 39.69 13.4496 39.6052 13.8404 39.376C14.3246 39.0874 14.5455 38.68 14.6559 38.349C14.9872 38.4253 15.4374 38.4593 15.9216 38.2131C16.202 38.2641 16.7626 38.3405 17.3998 37.967C18.2663 37.4492 18.2408 36.5071 18.2153 36.0657C18.3002 36.0148 18.3682 35.9639 18.4362 35.9214C18.4786 35.896 18.5211 35.862 18.5721 35.8365C18.9544 36.0742 19.7699 36.5326 20.6279 36.0148C20.8742 35.8705 20.9931 35.8026 21.1206 35.7347C21.2735 35.6498 21.4264 35.5734 21.7237 35.3952C22.0295 35.2169 22.1739 35.1151 22.3184 35.0132C22.4288 34.9368 22.5477 34.8604 22.7856 34.7162C23.0234 34.5719 23.1424 34.5124 23.2698 34.453C23.4312 34.3766 23.5841 34.2918 23.8899 34.1135C24.4761 33.7655 24.68 33.2647 24.7734 32.9337C25.0452 32.9337 25.4445 32.8913 25.9202 32.6112C26.0646 32.5263 26.1156 32.5093 26.2345 32.4754C26.4724 32.399 26.7103 32.3226 27.0755 32.1019C27.8316 31.652 27.9335 30.8966 27.959 30.5062C28.0185 30.4722 28.0779 30.4468 28.1289 30.4213C28.2903 30.3449 28.4602 30.2685 28.7575 30.0903C28.7575 30.0903 28.7575 30.0903 28.7745 30.0903C29.0209 30.0988 29.4796 30.1242 30.0403 29.8017C30.3036 29.8187 30.7878 29.8441 31.3825 29.4961C31.9262 29.1736 32.147 28.7492 32.2745 28.4351C32.5973 28.4267 32.9795 28.3842 33.4638 28.0956C34.1264 27.6967 34.2963 27.1195 34.3812 26.8055C34.5171 26.7291 34.6106 26.6782 34.6955 26.6357C34.8569 26.5508 35.0098 26.4744 35.3157 26.2962C35.5705 26.1434 35.7064 26.067 35.8339 25.9991C35.9783 25.9227 36.1227 25.8379 36.403 25.6681C36.8278 25.4135 37.0401 25.1758 37.21 24.9466C37.2355 24.9127 37.2525 24.8957 37.261 24.8787C37.5413 24.9212 38.0765 24.9806 38.6882 24.6156C39.3253 24.2337 39.5122 23.6819 39.5886 23.3594C39.5971 23.3594 39.6141 23.3594 39.6311 23.3594C39.852 23.317 40.0813 23.266 40.3787 23.1217C40.71 23.2406 41.3811 23.4528 42.1031 23.0199C42.358 22.8671 42.5364 22.6549 42.6723 22.4342C42.9017 22.5615 43.182 22.6634 43.4793 22.6464C43.7342 22.6464 43.9635 22.587 44.1419 22.5276C44.2863 22.7313 44.4817 22.9605 44.7791 23.1302C45.1443 23.3339 45.5011 23.3679 45.7305 23.3934H45.7475C45.9174 23.5292 46.0958 23.614 46.2487 23.6904C46.1637 24.0469 46.1128 24.5817 46.4611 25.1588C46.8094 25.736 47.3445 25.9227 47.7948 25.9821C47.7013 26.3556 47.7013 26.8224 47.9902 27.3063C48.2025 27.6627 48.3469 27.841 48.4574 27.9853C48.5338 28.0786 48.6103 28.1805 48.7377 28.3842C48.9586 28.7577 49.12 28.9444 49.2559 29.0887C49.3493 29.1906 49.4003 29.2585 49.5108 29.4452C49.8506 30.0139 50.3348 30.2261 50.6831 30.3279C50.6491 30.6505 50.6576 31.1343 50.9889 31.703C50.9974 31.7369 50.9974 31.7709 51.0059 31.7963C51.0314 32.0255 51.0823 32.4075 51.3796 32.8998C51.7194 33.4599 52.2206 33.6637 52.6114 33.7485C52.5435 34.105 52.5435 34.5719 52.8408 35.0642C52.9087 35.183 52.9172 35.2084 52.9427 35.3273C53.0022 35.5904 53.0786 35.8875 53.325 36.2949C53.6223 36.7957 53.9451 37.0164 54.132 37.1522C54.1575 37.1691 54.1745 37.1776 54.2255 37.237C54.2255 37.237 54.2255 37.237 54.2255 37.2455C54.2085 37.5171 54.1745 38.0094 54.5398 38.6121C54.9051 39.2232 55.4827 39.4014 55.9414 39.4439C55.8905 39.7919 55.9075 40.2248 56.1793 40.6746C56.3662 40.9887 56.4681 41.1415 56.5701 41.2858C56.655 41.4046 56.7315 41.5234 56.8844 41.7696C57.2752 42.4316 57.8443 42.6183 58.1331 42.7032C58.2181 42.8475 58.2606 42.9494 58.303 43.0427C58.388 43.221 58.4644 43.4077 58.6683 43.7387C58.9147 44.1462 59.1271 44.3499 59.3309 44.5281C59.4074 44.596 59.4329 44.6215 59.4838 44.6979C59.5008 44.7827 59.5008 44.8846 59.5093 44.978C59.5263 45.2071 59.5348 45.4788 59.6198 45.7504L59.6962 46.005C59.7132 46.0644 59.7387 46.1323 59.7557 46.2002C59.3904 46.4209 58.9317 46.7434 58.7788 47.3376C58.6598 47.8214 58.7873 48.2373 58.9317 48.5514C58.7958 48.6617 58.6513 48.7805 58.5324 48.8994C58.3115 49.1285 58.1841 49.3832 58.0992 49.6208C57.7254 49.519 57.2157 49.4765 56.672 49.7991C56.4851 49.9094 56.3832 49.9519 56.2812 49.9943C56.1113 50.0622 55.9075 50.1471 55.5592 50.3508C54.9985 50.6818 54.7861 51.1232 54.6587 51.4287C54.4973 51.5221 54.4039 51.5645 54.3104 51.607C54.1405 51.6834 53.9706 51.7598 53.6478 51.955C53.24 52.2011 53.0362 52.4133 52.9002 52.5576C52.8153 52.6425 52.7983 52.668 52.6794 52.7359C52.2376 52.999 52.0168 53.2706 51.8554 53.5083L51.7619 53.6016C51.4476 53.7884 51.2522 53.9666 51.0993 54.1364C50.6831 53.8817 49.927 53.5083 49.1285 53.9921C48.3384 54.4589 48.279 55.2652 48.2705 55.6642C48.0751 55.8085 47.9477 55.9443 47.8372 56.0716C47.472 55.9273 46.8263 55.7321 46.1298 56.148L45.9938 56.1904C45.7135 56.2244 45.3822 56.2923 44.949 56.5469C44.04 57.0901 43.9126 57.7692 43.8106 58.2699L43.7597 58.4991C43.6322 59.0593 43.8021 59.4582 43.9635 59.7044C44.3118 60.2137 44.8555 60.3155 45.1358 60.3665L45.6286 61.1983C45.6031 61.4784 45.5521 61.9876 45.9259 62.5988C46.0448 62.794 46.0873 62.9043 46.1298 63.0062C46.1977 63.1844 46.2827 63.3966 46.5035 63.7531C46.7584 64.186 46.9962 64.3897 47.2256 64.5679H47.2086Z" fill="#E4EAF1"/>
<path d="M65.8973 88.6906C65.8973 88.3766 65.9398 88.088 65.9822 87.8419C66.0162 87.6381 66.0502 87.4175 66.0332 87.3071C66.0162 87.2477 65.9143 87.0695 65.8378 86.9591C65.6934 86.7215 65.515 86.4159 65.4046 86.0509C65.2941 85.6775 65.1497 85.2955 64.9204 84.8032C64.7335 84.3958 64.6995 83.9884 64.674 83.6658C64.674 83.581 64.657 83.4621 64.6485 83.3857C64.5806 83.3433 64.4786 83.2839 64.4022 83.233C64.1218 83.0717 63.782 82.8765 63.4932 82.5454C63.1789 82.1805 63.043 81.7646 62.9325 81.425C62.9071 81.3402 62.8646 81.2128 62.8306 81.1449C62.6182 80.9752 62.3464 80.8054 62.0745 80.6442L61.7093 80.415C61.3695 80.1943 60.9362 79.9651 60.469 79.7529C60.3161 79.685 60.1632 79.6086 60.0103 79.5323C59.7129 79.388 59.4326 79.2437 59.1863 79.1758C58.8889 79.0909 58.4982 79.04 58.1244 78.989L57.8695 78.9551C57.8016 78.9721 57.6742 79.023 57.5892 79.0569C57.2664 79.1842 56.8756 79.3455 56.3999 79.3455C56.23 79.3455 56.0176 79.3964 55.7798 79.4559C55.5504 79.5153 55.321 79.5662 55.0917 79.6002C54.616 79.6681 54.1827 79.5577 53.8684 79.4728C53.8174 79.4559 53.758 79.4389 53.6985 79.4304C53.6645 79.4728 53.6221 79.5238 53.5881 79.5577C53.3672 79.8124 53.0699 80.1688 52.6112 80.381C52.2034 80.5678 51.8126 80.6017 51.4898 80.6272C51.3794 80.6357 51.218 80.6526 51.167 80.6611C51.0056 80.7715 50.7592 80.8903 50.5129 81.0091C50.309 81.1025 50.0966 81.2044 49.9947 81.2977C50.0117 81.2977 49.9607 81.4505 49.9182 81.5608C49.8078 81.8664 49.6634 82.2569 49.3661 82.5964C49.1537 82.834 48.9328 83.0208 48.7289 83.182C48.576 83.3093 48.4146 83.4367 48.3552 83.53C48.2192 83.7422 48.0663 83.9374 47.8964 84.1327C47.7605 84.3024 47.6331 84.4637 47.5566 84.591C47.5566 84.6589 47.5736 84.7862 47.5821 84.8796C47.6161 85.2191 47.6586 85.635 47.5227 86.0934C47.4037 86.4838 47.1999 86.7979 47.0384 87.044C46.9705 87.1459 46.8686 87.2986 46.8516 87.358C46.8516 87.375 46.911 87.5618 46.945 87.6806C47.0215 87.9607 47.1149 88.3087 47.1149 88.7076C47.1149 88.9538 47.1659 89.2169 47.2168 89.514C47.2508 89.6837 47.2763 89.845 47.3018 90.0148C47.3528 90.3882 47.3188 90.7362 47.2933 91.0078C47.2763 91.1351 47.2593 91.3304 47.2678 91.3898C47.3443 91.6529 47.4802 91.9415 47.6331 92.2386C47.6926 92.3659 47.752 92.4932 47.8115 92.6205C47.8625 92.7309 47.9984 92.8836 48.1343 93.0449C48.2957 93.2232 48.4741 93.4354 48.644 93.69C48.7884 93.9107 48.9753 94.1144 49.1877 94.352C49.2896 94.4624 49.3916 94.5727 49.4935 94.6916C49.8673 95.1244 49.9607 95.6507 50.0287 96.0411C50.0287 96.0666 50.0287 96.0921 50.0372 96.1175C50.0712 96.1175 50.1051 96.1175 50.1306 96.126C50.4789 96.1684 50.9546 96.2279 51.3794 96.508C51.8381 96.7966 52.0845 97.2464 52.2629 97.5689C52.2798 97.6029 52.2968 97.6368 52.3223 97.6708C52.3648 97.6708 52.4073 97.6538 52.4497 97.6453C52.6536 97.6114 52.9 97.5689 53.1718 97.5689C53.3672 97.5689 53.5711 97.5944 53.775 97.6538C54.0893 97.7472 54.4291 97.7896 54.8198 97.849L55.0917 97.883C55.3975 97.9254 55.6608 98.0103 55.8987 98.0782C56.1026 98.1461 56.298 98.2055 56.4169 98.2055C56.9861 98.2055 57.4023 98.1801 57.7761 98.1291C58.1499 98.0782 58.5067 98.1122 58.787 98.1461C58.9314 98.1631 59.1353 98.1801 59.2117 98.1716C59.2712 98.1461 59.4496 98.0103 59.5685 97.9169C59.7979 97.7387 60.0527 97.535 60.384 97.3907C60.384 97.3907 60.4775 97.2549 60.5454 97.17C60.7408 96.9239 60.9787 96.6098 61.344 96.3722C61.7687 96.1005 62.2275 96.0326 62.5588 95.9902C62.6437 95.9817 62.7372 95.9732 62.8136 95.9478C62.992 95.8035 63.1874 95.6677 63.3828 95.5403C63.5782 95.413 63.782 95.2772 63.8755 95.1669C63.9689 95.0565 64.0794 94.8359 64.1813 94.6237C64.3002 94.386 64.4192 94.1483 64.5551 93.9361C64.759 93.6221 64.9289 93.2401 65.1157 92.8412L65.1752 92.7054C65.1752 92.7054 65.1752 92.5017 65.1752 92.3829C65.1752 92.0858 65.1667 91.7038 65.2771 91.3049C65.4301 90.7956 65.7699 90.4391 66.0162 90.176C66.0672 90.1251 66.1181 90.0742 66.1606 90.0232C66.1436 89.9469 66.1097 89.828 66.0842 89.7431C66.0077 89.4546 65.9058 89.0981 65.9058 88.6991L65.8973 88.6906Z" fill="#E4EAF1"/>
<path d="M166.213 36.3707C166.213 36.2688 166.238 36.0991 166.264 35.9293C166.315 35.6407 166.374 35.2842 166.34 34.8853C166.366 34.8004 166.408 34.724 166.451 34.6392C166.629 34.2487 166.884 33.714 166.765 33.0774C166.621 32.3389 166.026 31.9485 165.567 31.6854C165.814 31.244 166.128 30.6244 165.899 29.9369C165.763 29.521 165.525 29.1815 165.338 28.9014C165.236 28.7486 165.125 28.5958 165.091 28.5024C164.794 27.7555 164.064 27.5009 163.579 27.3311C163.528 27.3141 163.477 27.2972 163.418 27.2802C163.409 27.2208 163.393 27.1614 163.384 27.0935C163.325 26.7709 163.248 26.3805 163.027 25.9731C162.849 25.6505 162.653 25.3534 162.45 25.0564C162.365 24.929 162.271 24.7932 162.186 24.6574C161.94 24.2755 161.634 24.0208 161.396 23.8171C161.345 23.7747 161.286 23.7238 161.235 23.6813C161.235 23.6304 161.252 23.571 161.26 23.5116C161.328 23.0108 161.439 22.2639 160.971 21.7121C160.946 21.6612 160.903 21.5 160.878 21.3896C160.785 21.0161 160.649 20.4984 160.249 20.0825C159.978 19.7939 159.672 19.5817 159.4 19.395C159.247 19.2846 159.094 19.1828 158.967 19.0639C158.44 18.5801 157.786 18.5716 157.31 18.5547C157.234 18.5547 157.157 18.5547 157.081 18.5547C156.996 18.4698 156.919 18.3849 156.843 18.3C156.631 18.0624 156.384 17.7908 156.053 17.5531C155.518 17.1711 154.915 17.2051 154.473 17.2645C154.371 16.7298 154.201 15.9828 153.487 15.6094C153.097 15.4057 152.689 15.3293 152.366 15.2614C152.196 15.2274 152.009 15.1935 151.924 15.151C151.236 14.8455 150.582 15.1086 150.132 15.3208C149.902 14.9134 149.571 14.3786 148.96 14.2004C148.909 14.1749 148.79 14.0646 148.713 13.9967C148.424 13.7505 148.034 13.411 147.481 13.2837C146.768 13.1224 146.165 13.4789 145.774 13.7166C145.706 13.759 145.63 13.81 145.562 13.8439C145.111 13.8184 144.729 13.9373 144.44 14.0222C144.338 14.0561 144.194 14.0985 144.168 14.0985C143.803 14.0646 143.472 14.0816 143.183 14.0901C143.005 14.0901 142.835 14.107 142.639 14.0985C142.418 14.0985 142.215 14.0985 142.028 14.107C141.654 14.124 141.577 14.1155 141.467 14.0561C141.425 14.0306 141.34 13.8609 141.272 13.7166C141.178 13.5214 141.076 13.3177 140.94 13.114L140.889 13.0376C140.618 12.6217 140.371 12.2312 140.099 11.8662C140.074 11.8153 140.048 11.671 140.023 11.5692C139.946 11.2212 139.844 10.7374 139.496 10.313C139.182 9.931 138.783 9.71032 138.494 9.55754C138.392 9.49813 138.239 9.41325 138.196 9.37929C138.145 9.31988 138.061 9.1671 137.993 9.03129C137.84 8.74271 137.653 8.37773 137.321 8.05519C137.033 7.77509 136.727 7.58836 136.463 7.42709C136.319 7.34221 136.175 7.24884 136.047 7.14699C135.775 6.91782 135.495 6.7226 135.206 6.52738C135.113 6.45947 135.019 6.40006 134.926 6.33215C134.909 6.26425 134.892 6.18786 134.875 6.11996C134.764 5.67859 134.586 5.02502 134 4.63458C133.949 4.59214 133.847 4.44785 133.771 4.346C133.55 4.04892 133.269 3.67546 132.819 3.42082C132.216 3.08131 131.587 3.19165 131.129 3.27653C131.044 3.2935 130.959 3.31048 130.882 3.31897C130.542 3.17467 130.211 3.11526 129.931 3.06433C129.795 3.03887 129.659 3.0134 129.566 2.98794C129.515 2.92852 129.464 2.86062 129.421 2.79272C129.175 2.46169 128.835 2.00335 128.24 1.79964C127.671 1.60442 127.153 1.71476 126.762 1.79964C126.754 1.77418 126.737 1.74871 126.728 1.72325C126.473 1.18851 126.117 0.45007 125.293 0.271825C124.902 0.186947 124.511 0.186947 124.188 0.186947C124.001 0.186947 123.823 0.186947 123.645 0.169971C122.761 0.0341654 122.175 0.662267 121.742 1.12061C121.682 1.18003 121.614 1.25642 121.546 1.32432C121.291 1.32432 121.079 1.3413 120.875 1.35827C120.807 1.35827 120.731 1.36676 120.663 1.37525C120.612 1.31583 120.569 1.24793 120.527 1.197C120.179 0.730169 119.643 0.0426532 118.777 0.0596289C118.089 0.0766046 117.63 0.526461 117.307 0.942366C116.883 0.433095 116.313 -0.135592 115.489 -0.00827392C114.631 0.119044 114.241 0.865975 113.952 1.41769C113.952 1.43466 113.935 1.45164 113.926 1.46861C113.544 1.3413 113.034 1.18851 112.457 1.3413C111.786 1.52803 111.437 2.06276 111.208 2.48716C110.741 2.23252 110.078 1.90998 109.39 2.19008C109.331 2.20706 109.152 2.19857 109.042 2.19857C108.668 2.19857 108.167 2.19857 107.674 2.42774C106.952 2.77574 106.774 3.5057 106.68 4.10834C106.179 3.94707 105.516 3.81126 104.913 4.19321C104.599 4.39692 104.293 4.6261 103.987 4.86376C103.851 4.96561 103.724 5.06746 103.605 5.15234C103.545 5.18629 103.359 5.24571 103.24 5.28815C102.883 5.39849 102.45 5.5343 102.059 5.85683C101.515 6.30669 101.413 6.96026 101.337 7.42709C101.32 7.52045 101.311 7.61382 101.294 7.6987C100.827 8.24192 100.87 8.94641 100.895 9.43022C100.895 9.46417 100.895 9.49812 100.895 9.53208C100.878 9.53208 100.861 9.54905 100.844 9.55754C100.547 9.68486 100.147 9.85462 99.8077 10.2026C99.7397 10.2281 99.6548 10.2451 99.5783 10.2705C99.1705 10.3809 98.5504 10.5421 98.1427 11.0938C97.5565 11.8832 97.8198 12.6896 97.9473 13.0715C97.8538 13.1988 97.7774 13.2752 97.7094 13.3601C97.5735 13.5129 97.4461 13.6657 97.1997 13.9967L97.0298 14.2343C96.8769 14.4381 96.8004 14.5484 96.707 14.6418C96.3757 14.4041 95.8745 14.0985 95.1864 14.1495C94.4049 14.2089 93.9886 14.6078 93.7593 14.82C93.7593 14.82 93.7508 14.82 93.7423 14.8115C93.5129 14.6842 93.0966 14.4465 92.4425 14.4635C92.3661 14.4296 92.2811 14.3786 92.2047 14.3277C91.8139 14.107 91.2872 13.8015 90.6246 13.8948C90.1064 13.9627 89.7072 14.2089 89.3928 14.4126C89.2909 14.4805 89.1295 14.5739 89.087 14.5908C88.6453 14.6757 88.2885 14.8709 87.9912 15.0237C87.8383 15.1086 87.6768 15.1935 87.5834 15.2189C87.0822 15.3463 86.7169 15.6433 86.4451 15.8555C86.3771 15.9065 86.2837 15.9744 86.2242 16.0168C86.1478 16.0083 86.0798 15.9828 86.0033 15.9659C85.5956 15.8725 85.0349 15.7452 84.4488 15.9744C84.2704 16.0423 84.092 16.1017 83.9136 16.1611C83.5908 16.2629 83.2595 16.3733 82.9282 16.5346C82.41 16.7807 82.1041 17.2051 81.8748 17.5191C81.8153 17.604 81.7219 17.7398 81.7304 17.7398C81.1527 18.0539 80.8979 18.6141 80.728 18.9791C80.694 19.0555 80.66 19.1318 80.626 19.1913C80.3372 19.3865 80.1163 19.5987 79.9124 19.7939C79.8615 19.8363 79.819 19.8873 79.768 19.9297C79.7001 19.9127 79.6236 19.8957 79.5642 19.8788C79.0035 19.726 78.1625 19.5053 77.4914 20.057C77.1941 20.3032 76.9562 20.5748 76.7523 20.8209C76.6334 20.9652 76.506 21.1095 76.3785 21.2283C75.8688 21.6952 75.8094 22.3403 75.7924 22.8156C75.2572 22.8071 74.5097 22.8241 74.0084 23.4182C73.5837 23.919 73.5837 24.5301 73.6517 25.0224C72.9721 24.9885 72.1226 25.0054 71.6384 25.7269C71.2731 26.2871 71.3155 26.8982 71.3495 27.3481C71.3495 27.4415 71.3665 27.5348 71.3665 27.6282C71.1032 28.1799 71.1881 28.7486 71.2391 29.1305C71.2476 29.2069 71.2646 29.2918 71.2731 29.3682C71.1202 29.6822 70.9927 29.9963 70.8568 30.3188L70.7039 30.6838C70.4915 31.1846 70.517 31.6599 70.534 32.0079C70.534 32.0758 70.534 32.1692 70.5425 32.2286C70.5 32.271 70.4491 32.305 70.3981 32.3474C70.1008 32.5936 69.642 32.9586 69.4636 33.5697C69.3447 33.9686 69.3277 34.3506 69.3192 34.6561C69.3192 34.8429 69.3022 35.0126 69.2768 35.1399C69.1918 35.5049 69.1663 35.8444 69.1408 36.1415C69.1323 36.2943 69.1153 36.4386 69.0984 36.5914C69.0559 36.6508 68.9964 36.7102 68.9454 36.7781C68.6906 37.0752 68.3083 37.525 68.2404 38.1531C68.1809 38.7133 68.4018 39.1886 68.5802 39.5282C68.5632 39.5366 68.5547 39.5451 68.5377 39.5536C67.9685 39.9186 67.1955 40.4279 67.221 41.3446C67.238 42.3207 68.1469 42.779 68.8095 43.11C68.8095 43.11 68.818 43.11 68.8265 43.11C68.6396 43.458 68.4357 43.9164 68.5207 44.4596C68.6141 45.1386 69.0899 45.5715 69.3957 45.8516C69.4297 45.8771 69.4636 45.911 69.4891 45.9365C69.4806 45.9789 69.4636 46.0214 69.4551 46.0638C69.3532 46.4288 69.2173 46.9296 69.3702 47.4983C69.4127 47.6595 69.4212 47.8208 69.4382 47.9906C69.4721 48.3131 69.5061 48.6696 69.6335 49.0346C69.642 49.094 69.6335 49.2637 69.6335 49.3741C69.6165 49.7221 69.5996 50.2059 69.7949 50.6982C69.9479 51.0801 70.1602 51.3772 70.3471 51.6403C70.4575 51.8016 70.568 51.9544 70.6274 52.0732C70.6614 52.1496 70.6869 52.2005 70.7124 52.2515L70.6869 52.591C70.6699 52.8371 70.6869 53.0154 70.6869 53.2106C70.6784 53.2276 70.6614 53.253 70.6529 53.2785C70.6105 53.3294 70.483 53.4313 70.3981 53.5077C70.1262 53.7283 69.761 54.0254 69.5316 54.4838C69.4721 54.5941 69.3617 54.7469 69.2428 54.8997C69.0389 55.1628 68.8095 55.4684 68.6481 55.8503C68.6056 55.9437 68.4952 56.1049 68.3848 56.2492C68.1894 56.5208 67.9515 56.8519 67.7986 57.2678C67.5438 57.9977 67.8836 58.6598 68.1299 59.1096C67.7561 59.3728 67.238 59.7717 67.0935 60.4507C66.9236 61.2486 67.4248 61.8342 67.9006 62.2756C67.4758 62.5557 67.0171 62.9631 66.9406 63.6167C66.9067 63.6846 66.8387 63.7949 66.7877 63.8798C66.5754 64.2193 66.278 64.6946 66.2695 65.2888C66.2695 66.0188 66.7198 66.5195 67.0596 66.8845C67.119 66.9524 67.187 67.0118 67.238 67.0797C67.3314 67.5805 67.6372 67.937 67.9345 68.2001C67.3739 68.65 66.6943 69.2526 66.8642 70.1608C67.0086 70.9078 67.6117 71.3152 68.011 71.5868C68.0705 71.6207 68.1299 71.6632 68.1809 71.6971C68.1809 71.782 68.1894 71.8754 68.1979 71.9772C68.2149 72.2913 68.2319 72.6902 68.3678 73.0976C68.5292 73.5984 68.8605 73.9464 69.0984 74.201C69.1748 74.2774 69.2852 74.3963 69.2852 74.3793C69.2937 74.4302 69.2852 74.5915 69.2852 74.6933C69.2683 75.0583 69.2513 75.5591 69.4891 76.0599C69.7355 76.5777 70.1602 76.8747 70.466 77.0954C70.4915 77.1124 70.517 77.1294 70.5425 77.1463C70.5425 77.1803 70.5255 77.2142 70.517 77.2482C70.4066 77.7235 70.2452 78.4365 70.6529 79.0731C70.9757 79.5739 71.46 79.8115 71.8252 79.9898C71.9102 80.0322 72.0036 80.0662 72.0716 80.1171C72.1395 80.2189 72.2075 80.3547 72.284 80.5075C72.4284 80.7961 72.5983 81.1271 72.8616 81.4497C72.9296 81.5346 73.023 81.6958 73.108 81.8571C73.2609 82.1372 73.4478 82.4937 73.7451 82.8077C74.0934 83.1727 74.5012 83.351 74.8325 83.4953C74.9429 83.5462 75.1128 83.6226 75.1553 83.648C75.2657 83.7499 75.3846 83.8602 75.4951 83.9706C75.7244 84.1913 75.9538 84.4119 76.2001 84.6157C76.2256 84.692 76.2426 84.7769 76.2596 84.8618C76.37 85.3286 76.523 85.9737 77.1091 86.3811C77.9331 86.9583 78.8251 86.466 79.5472 86.0671C79.6406 86.0161 79.768 85.9482 79.8785 85.8888C80.1078 86.0246 80.3287 86.1604 80.5666 86.2878C80.5835 86.3557 80.6005 86.4236 80.626 86.4915C80.7704 86.9922 80.9828 87.7477 81.7304 88.0787C81.7983 88.1042 81.9512 88.2315 82.0617 88.3248C82.325 88.5455 82.6563 88.8171 83.0981 88.9784C83.9136 89.2755 84.6357 88.7832 85.1114 88.4606C85.1623 88.4267 85.2218 88.3843 85.2813 88.3418C85.3322 88.3673 85.3917 88.3927 85.4427 88.4182C85.706 88.5455 86.0458 88.6983 86.4366 88.7917C86.6065 88.8341 86.7764 88.885 86.9378 88.936C87.2266 89.0293 87.5494 89.1397 87.8892 89.1821C87.9402 89.1991 88.0676 89.284 88.1526 89.3349C88.4074 89.4962 88.7472 89.7084 89.1805 89.8017C89.2399 89.8611 89.2909 89.929 89.3504 89.9969C89.6817 90.3789 90.1914 90.9476 90.9644 90.9731C91.4656 90.9731 91.8394 90.8203 92.1027 90.6166C92.2302 90.642 92.3576 90.6505 92.468 90.659C92.4935 90.7184 92.519 90.7693 92.5445 90.8288C92.6719 91.1173 92.8163 91.4484 93.0542 91.7709C93.1391 91.8813 93.2156 92.051 93.309 92.2208C93.4534 92.5094 93.6148 92.8319 93.8782 93.1459C94.3794 93.7571 95.1354 93.791 95.6281 93.8165C95.6706 93.8165 95.7216 93.8165 95.7641 93.8165C95.7895 93.8674 95.8065 93.9183 95.832 93.9523C95.934 94.1815 96.0699 94.47 96.2907 94.7501C96.2907 94.835 96.2907 94.9454 96.2907 95.0218C96.2653 95.5735 96.2313 96.4138 96.8854 96.957C97.2677 97.2795 97.6924 97.4153 98.0322 97.5342C98.1511 97.5766 98.338 97.636 98.389 97.67C98.5249 97.7718 98.6693 97.8822 98.8053 97.9925C98.9497 98.1029 99.0941 98.2047 99.247 98.315C99.196 98.5442 99.1705 98.7564 99.1536 98.9347C99.1536 99.0111 99.1536 99.0959 99.1281 99.1638C99.0941 99.2827 99.0601 99.4015 99.0176 99.5203C98.9497 99.7325 98.8817 99.9362 98.8307 100.148C98.8053 100.259 98.7628 100.361 98.7288 100.462C98.6524 100.683 98.5759 100.904 98.5334 101.125C98.5164 101.192 98.4825 101.252 98.4485 101.32C98.355 101.515 98.2361 101.795 98.1851 102.126C98.1172 102.559 98.2276 102.932 98.3041 103.179C98.3041 103.204 98.321 103.238 98.3295 103.263C98.3126 103.331 98.2956 103.391 98.2786 103.45C98.2191 103.654 98.1511 103.9 98.1257 104.206C98.1087 104.52 98.1511 104.791 98.1936 105.012C98.2106 105.088 98.2276 105.156 98.2361 105.156C98.2191 105.207 98.2021 105.258 98.1766 105.309C98.0917 105.53 97.9558 105.861 97.9643 106.268C97.9643 106.387 97.9558 106.497 97.9473 106.608C97.9218 106.845 97.9133 107.075 97.9218 107.304C97.9218 107.423 97.9218 107.533 97.9218 107.652C97.9133 107.889 97.9048 108.119 97.9218 108.339C97.9558 108.645 98.0407 108.899 98.1172 109.103C97.9897 109.154 97.8878 109.213 97.7944 109.264C97.0723 109.264 96.775 109.392 96.2058 109.935C96.1888 109.952 96.1208 109.986 96.0784 110.011C95.8065 110.164 95.076 110.58 95.076 111.599C95.076 112.278 95.4582 112.702 95.7471 112.94C95.7895 113.143 95.866 113.322 95.9509 113.466C95.7726 113.704 95.6112 114.035 95.6112 114.484C95.6112 114.866 95.7046 115.146 95.798 115.359C95.6451 115.579 95.4667 115.927 95.4667 116.411C95.4667 116.445 95.4667 116.479 95.4667 116.513C95.3903 116.505 95.3223 116.496 95.2629 116.488C95.2204 116.488 95.1779 116.488 95.1354 116.471C94.6002 116.207 94.0736 116.343 93.7762 116.428C93.6998 116.403 93.6318 116.377 93.5639 116.36C93.4704 115.885 93.2665 115.138 92.502 114.892C91.8309 114.671 91.2702 115.011 90.9644 115.189C90.854 115.172 90.7435 115.155 90.6331 115.138C90.5312 115.121 90.4207 115.113 90.3103 115.096C90.1149 115.062 89.9195 115.036 89.7156 115.028C89.4948 114.671 89.0955 114.102 88.3565 114.06C87.9402 114.043 87.5919 114.179 87.3455 114.298C87.0737 114.128 86.649 113.899 86.1223 113.958C85.6126 114.018 85.2388 114.289 85.0009 114.476C84.967 114.501 84.933 114.527 84.9075 114.544C84.5422 114.663 84.2789 114.883 84.1005 115.079C83.7182 114.968 83.1745 114.866 82.6478 115.206C82.1381 115.528 82.0107 116.029 82.0022 116.488C81.6369 116.513 81.2462 116.632 80.9403 117.014C80.7365 117.268 80.592 117.54 80.4731 117.786C80.4306 117.871 80.3882 117.964 80.3372 118.041C80.1758 118.321 80.0823 118.61 80.0059 118.839C79.9804 118.932 79.9549 119.025 79.9124 119.11C79.7086 119.569 79.7935 120.002 79.9124 120.324C79.6916 120.511 79.4622 120.774 79.3518 121.147C79.3263 121.19 79.3008 121.224 79.2753 121.266C79.1394 121.47 78.9355 121.784 78.8591 122.208C78.7826 122.692 78.961 123.083 79.1734 123.371C78.9695 123.6 78.7911 123.897 78.7741 124.288C78.7656 124.356 78.7401 124.415 78.7147 124.483C78.6467 124.695 78.5448 124.992 78.5448 125.34C78.5448 125.748 78.6807 126.087 78.7826 126.316C78.6467 126.571 78.4513 126.945 78.4938 127.428C78.5533 128.124 78.961 128.837 79.9549 128.88C80.2862 129.398 80.7535 129.652 81.3396 129.652C81.6369 129.652 81.7813 129.644 81.9258 129.627C82.0277 129.627 82.1296 129.61 82.3335 129.61C82.9536 129.61 83.3444 129.321 83.5993 129.075C83.6248 129.075 83.6502 129.075 83.6672 129.084C83.8371 129.109 83.9985 129.126 84.3298 129.126C84.7461 129.126 85.0094 129.041 85.2813 128.948C85.4767 129.058 85.808 129.219 86.3262 129.219C86.5725 129.219 86.7424 129.202 86.8868 129.177C87.1077 129.533 87.5409 130.043 88.314 130.043C88.9596 130.043 89.3674 129.703 89.6052 129.432C89.7836 129.482 90.0045 129.525 90.3018 129.525C90.6501 129.525 90.9219 129.432 91.1428 129.313C91.3892 129.559 91.7629 129.788 92.2896 129.788C92.434 129.788 92.502 129.805 92.57 129.813C92.7568 129.847 92.9522 129.873 93.275 129.873C93.8442 129.873 94.218 129.635 94.4558 129.448C94.5238 129.448 94.5663 129.457 94.6172 129.465C94.7786 129.482 94.9401 129.508 95.2629 129.508C95.6706 129.508 95.9255 129.44 96.1293 129.364L96.2483 129.338C96.741 129.338 97.0638 129.194 97.2762 129.092C97.4631 129.092 97.6245 129.067 97.7689 129.041C97.9897 129.465 98.4145 130.034 99.23 130.034C100.046 130.034 100.504 129.44 100.708 129.092C100.768 129.084 100.819 129.067 100.87 129.058C101.107 129.364 101.515 129.754 102.178 129.754C102.348 129.839 102.67 129.992 103.197 129.992C103.902 129.992 104.327 129.584 104.573 129.279C104.964 129.194 105.236 128.999 105.423 128.829H105.967C106.179 129.007 106.57 129.27 107.164 129.27C107.3 129.27 107.368 129.287 107.436 129.296C107.623 129.33 107.827 129.364 108.158 129.364C108.668 129.364 108.982 129.219 109.152 129.143C109.5 129.143 109.738 129.092 109.934 129.033C110.163 129.245 110.554 129.508 111.14 129.508C111.216 129.508 111.276 129.508 111.318 129.525C111.854 129.593 112.312 129.525 112.864 128.973C113.077 128.769 113.688 128.04 113.085 127.08C113.085 126.919 113.06 126.792 113.043 126.681C113.383 126.452 113.841 126.028 113.841 125.298C113.841 124.797 113.637 124.441 113.408 124.186C113.519 123.974 113.603 123.694 113.603 123.346C113.603 123.3 113.612 123.255 113.629 123.21C113.697 122.998 113.756 122.76 113.756 122.37C113.756 121.784 113.459 121.394 113.145 121.147C113.204 121.012 113.255 120.859 113.281 120.689C113.476 120.477 113.782 120.078 113.782 119.45C113.782 119.229 113.782 119.119 113.782 119.008C113.782 118.873 113.79 118.745 113.79 118.482C113.79 117.913 113.561 117.54 113.383 117.311C113.349 116.946 113.213 116.666 113.077 116.471C113.179 116.275 113.281 115.987 113.289 115.605C113.374 115.427 113.536 115.104 113.536 114.586C113.536 114.247 113.476 114.001 113.4 113.797C113.604 113.568 113.841 113.194 113.841 112.634C113.841 112.074 113.561 111.683 113.247 111.437C113.315 111.301 113.357 111.14 113.366 110.962C113.383 110.724 113.34 110.266 112.915 109.85C112.695 109.638 111.921 109.035 110.894 109.774C110.868 109.774 110.843 109.774 110.817 109.782C110.766 109.68 110.715 109.57 110.681 109.468C110.664 109.392 110.664 109.315 110.656 109.222C110.639 108.993 110.613 108.755 110.554 108.517C110.486 108.229 110.358 108 110.265 107.821C110.231 107.754 110.189 107.686 110.163 107.626C110.146 107.524 110.146 107.414 110.138 107.304C110.129 107.091 110.112 106.871 110.078 106.65C110.061 106.548 110.061 106.438 110.061 106.319C110.061 106.141 110.061 105.963 110.036 105.776C110.044 105.742 110.053 105.708 110.07 105.674C110.138 105.445 110.239 105.097 110.197 104.689C110.163 104.409 110.095 104.172 110.027 103.985C110.002 103.909 109.968 103.832 109.959 103.747C109.959 103.671 109.976 103.586 109.993 103.501C110.027 103.306 110.061 103.06 110.053 102.78C110.036 102.415 109.908 102.126 109.806 101.905C109.866 101.888 109.925 101.863 109.976 101.846C109.985 101.863 109.993 101.888 110.002 101.905C110.299 102.534 110.707 103.382 111.641 103.476C111.735 103.476 111.82 103.484 111.904 103.484C112.227 103.484 112.525 103.433 112.788 103.391C112.975 103.357 113.179 103.323 113.289 103.331C114.173 103.331 114.682 102.695 115.039 102.262C115.09 102.202 115.15 102.126 115.209 102.058C115.464 102.033 115.693 101.99 115.906 101.948C116.076 101.914 116.254 101.88 116.407 101.863C116.458 101.863 116.611 101.914 116.713 101.948C117.044 102.05 117.503 102.194 118.029 102.118C118.556 102.041 119.057 101.939 119.507 101.838C119.558 101.838 119.711 101.88 119.813 101.905C120.162 101.99 120.637 102.109 121.156 101.99C121.249 102.007 121.334 102.033 121.436 102.058C121.844 102.169 122.404 102.321 122.999 102.118C123.432 101.973 123.704 101.668 123.882 101.328C123.848 101.481 123.823 101.651 123.823 101.838C123.823 102.262 123.976 102.601 124.069 102.831C124.078 102.848 124.086 102.873 124.095 102.89C124.086 102.941 124.061 103.009 124.052 103.06C124.001 103.246 123.933 103.484 123.916 103.764C123.891 104.053 123.925 104.299 123.95 104.503C123.95 104.562 123.967 104.622 123.976 104.672C123.959 104.698 123.942 104.732 123.925 104.757C123.806 104.961 123.628 105.267 123.568 105.657C123.551 105.776 123.509 105.886 123.475 105.997C123.415 106.192 123.356 106.387 123.322 106.591C123.305 106.71 123.254 106.82 123.22 106.93C123.152 107.125 123.092 107.321 123.05 107.507C122.982 107.83 122.999 108.119 123.007 108.331C123.007 108.39 123.016 108.458 123.024 108.467C123.007 108.543 122.948 108.662 122.889 108.781C122.821 108.916 122.77 109.044 122.719 109.18L122.651 109.196C122.566 109.196 122.498 109.196 122.43 109.196C122.039 109.179 121.427 109.146 120.765 109.782C120.382 110.147 119.847 110.656 119.847 111.666C119.847 112.303 120.196 112.702 120.544 112.948C120.467 113.135 120.416 113.356 120.416 113.619C120.416 114.06 120.518 114.332 120.62 114.578C120.535 114.748 120.408 115.028 120.391 115.461C120.272 115.647 120.085 115.995 120.085 116.538C120.085 117.107 120.323 117.489 120.51 117.718C120.561 118.16 120.748 118.465 120.901 118.669C120.901 118.779 120.901 118.856 120.901 118.932C120.901 119.017 120.901 119.102 120.901 119.212C120.739 119.39 120.518 119.679 120.442 120.12C120.213 120.333 119.864 120.74 119.864 121.419C119.864 122.191 120.382 122.616 120.765 122.845C120.748 122.938 120.731 123.049 120.722 123.176C120.561 123.38 120.306 123.762 120.306 124.356C120.306 124.704 120.408 124.984 120.544 125.205C120.306 125.451 120.094 125.807 120.094 126.308C120.094 126.664 120.136 126.877 120.187 127.072C120.204 127.157 120.213 127.182 120.213 127.284C120.213 127.36 120.196 127.428 120.187 127.488C120.136 127.836 120.017 128.557 120.697 129.228C120.994 129.525 121.606 129.924 122.515 129.516C122.753 129.712 123.118 129.924 123.636 129.924C124.052 129.924 124.316 129.847 124.528 129.771L124.63 129.754C125.14 129.754 125.454 129.61 125.624 129.533C125.76 129.533 125.828 129.55 125.896 129.559C126.04 129.584 126.193 129.61 126.405 129.627C126.618 129.796 127.009 130.068 127.603 130.068H128.597C129.217 130.068 129.608 129.788 129.854 129.567C130.296 129.499 130.61 129.262 130.831 129.033C130.916 129.067 131.018 129.092 131.137 129.117C131.349 129.432 131.783 129.949 132.573 129.949C132.989 129.949 133.252 129.873 133.465 129.796L133.558 129.78C133.915 129.78 134.195 129.669 134.425 129.525C134.68 129.797 135.036 130.026 135.546 130.026C136.005 130.026 136.285 129.924 136.54 129.813C137.033 129.813 137.355 129.669 137.568 129.567C137.95 129.567 138.196 129.491 138.4 129.432L138.528 129.406C138.706 129.406 138.791 129.415 138.876 129.432C139.037 129.449 139.199 129.474 139.522 129.474C140.082 129.474 140.465 129.245 140.702 129.058C140.736 129.058 140.77 129.067 140.804 129.075C140.889 129.092 140.974 129.109 141.076 129.117C141.289 129.432 141.722 129.932 142.495 129.932C143.064 129.932 143.438 129.686 143.693 129.465C143.888 129.533 144.134 129.593 144.483 129.593C144.831 129.593 145.137 129.482 145.366 129.338C145.613 129.584 145.969 129.796 146.479 129.796C146.81 129.796 147.006 129.763 147.193 129.729C147.252 129.72 147.303 129.703 147.405 129.703C147.6 129.813 147.932 129.992 148.475 129.992C148.917 129.992 149.189 129.898 149.469 129.796C149.639 129.796 149.724 129.805 149.801 129.822C149.97 129.847 150.132 129.864 150.463 129.864C151.092 129.864 151.491 129.559 151.746 129.313C151.873 129.313 151.958 129.304 152.052 129.296C152.086 129.296 152.111 129.296 152.145 129.296C152.392 129.584 153.046 130.289 154.023 129.958C154.447 129.813 154.762 129.499 154.889 129.084C155.11 128.379 154.694 127.836 154.422 127.471C154.405 127.445 154.388 127.42 154.371 127.394C154.524 127.157 154.694 126.834 154.702 126.418C154.719 126.011 154.583 125.68 154.498 125.459C154.49 125.434 154.473 125.408 154.464 125.383C154.464 125.357 154.481 125.332 154.49 125.298C154.532 125.162 154.575 124.992 154.6 124.797C154.855 124.526 155.339 124.033 155.263 123.312C155.195 122.65 154.728 122.293 154.354 122.073C154.371 121.928 154.388 121.767 154.371 121.589L154.388 121.546C154.524 121.241 154.745 120.723 154.558 120.129C154.345 119.467 153.768 119.212 153.428 119.051C153.428 119.051 153.411 119.051 153.402 119.042C153.3 118.873 153.199 118.737 153.105 118.618C153.054 118.55 153.003 118.482 152.961 118.414C152.825 118.185 152.672 118.007 152.536 117.854C152.629 117.404 152.782 116.615 152.162 116.055C151.652 115.596 151.049 115.673 150.591 115.817C150.446 115.554 150.217 115.282 149.852 115.129C149.35 114.917 148.875 115.019 148.603 115.079C148.577 115.079 148.552 115.087 148.518 115.096C148.161 115.036 147.855 115.113 147.626 115.189C147.379 114.985 147.006 114.739 146.496 114.739C146.199 114.739 145.952 114.815 145.748 114.909C145.46 114.62 145.018 114.289 144.406 114.366C144.168 114.391 143.922 114.45 143.684 114.51C143.582 114.535 143.48 114.561 143.378 114.578C143.141 114.62 142.903 114.697 142.665 114.765C142.563 114.798 142.461 114.832 142.367 114.858C142.028 114.943 141.781 115.138 141.594 115.342C141.229 115.121 140.77 114.968 140.235 115.18C139.963 115.291 139.734 115.435 139.547 115.554C139.462 115.605 139.377 115.656 139.301 115.698C138.715 115.987 138.502 116.538 138.383 116.861V116.878C138.383 116.878 138.341 116.912 138.324 116.92C138.273 116.751 138.196 116.606 138.12 116.479C138.256 116.258 138.383 115.944 138.383 115.537C138.383 115.206 138.315 114.951 138.239 114.756C138.443 114.518 138.672 114.153 138.672 113.619C138.672 113.016 138.4 112.634 138.188 112.396C138.145 112.133 138.052 111.921 137.933 111.743C138.162 111.514 138.375 111.191 138.4 110.75C138.417 110.351 138.264 109.969 137.959 109.68C137.61 109.349 136.871 108.908 135.818 109.663C135.801 109.672 135.784 109.68 135.775 109.697C135.631 109.706 135.512 109.731 135.402 109.765C135.427 109.655 135.453 109.544 135.47 109.409C135.512 109.103 135.47 108.831 135.444 108.619C135.436 108.543 135.419 108.433 135.419 108.399C135.427 108.305 135.453 108.212 135.47 108.119C135.512 107.923 135.571 107.677 135.588 107.397C135.588 107.304 135.614 107.202 135.631 107.108C135.665 106.922 135.707 106.701 135.716 106.455C135.724 106.421 135.741 106.379 135.758 106.345C135.852 106.115 135.988 105.767 135.979 105.351C135.979 105.054 135.911 104.791 135.86 104.579C135.835 104.494 135.809 104.409 135.809 104.324C135.809 104.248 135.818 104.163 135.826 104.078C135.852 103.858 135.886 103.586 135.852 103.28C135.809 102.856 135.614 102.534 135.487 102.321C135.47 102.296 135.453 102.27 135.444 102.245C135.444 102.202 135.453 102.16 135.461 102.118C135.487 101.897 135.512 101.591 135.453 101.243C135.436 101.142 135.427 101.04 135.419 100.929C135.402 100.692 135.376 100.446 135.325 100.216C135.3 100.106 135.283 99.9872 135.257 99.8768C135.215 99.6561 135.172 99.427 135.113 99.2063C135.036 98.9177 134.909 98.68 134.807 98.4933C134.764 98.4169 134.713 98.3405 134.697 98.2556C134.595 97.9416 134.442 97.6869 134.323 97.5087C134.306 97.4747 134.28 97.4493 134.263 97.4238C134.263 97.4153 134.263 97.3984 134.263 97.3899C134.297 97.1183 134.357 96.7024 134.178 96.2525C134.051 95.9215 133.788 95.6838 133.482 95.5735C133.66 95.4462 133.83 95.3103 134 95.1406C134.442 94.6738 134.518 94.0881 134.578 93.6552C134.578 93.5958 134.595 93.5364 134.603 93.477C134.654 93.46 134.713 93.4345 134.764 93.4176C135.147 93.2733 135.673 93.0696 136.039 92.5773C136.514 91.9322 136.472 91.338 136.455 91.0155C136.455 91.007 136.455 90.99 136.455 90.9815C136.71 90.6081 136.778 90.2346 136.761 89.9036C137.152 89.98 137.585 89.963 138.035 89.7169C138.477 89.4707 138.723 89.1567 138.876 88.885C139.343 88.8002 139.624 88.6219 139.81 88.5116C139.844 88.4946 139.87 88.4691 139.98 88.4437C140.388 88.4097 140.592 88.3758 140.796 88.3503C140.949 88.3248 141.102 88.2994 141.416 88.2739C141.543 88.2654 141.722 88.2739 141.909 88.2994C142.147 88.3248 142.427 88.3503 142.733 88.3333C142.801 88.3843 142.886 88.4437 142.945 88.4861C143.353 88.7917 143.981 89.267 144.755 89.1057C145.57 88.9445 145.952 88.2145 146.207 87.7392C146.241 87.6713 146.284 87.5949 146.326 87.527C146.683 87.4251 147.014 87.3148 147.363 87.2044L147.524 87.145C147.583 87.1365 147.745 87.145 147.864 87.145C148.212 87.162 148.688 87.1875 149.18 86.9922C149.257 86.9583 149.444 86.9413 149.605 86.9159C149.936 86.8734 150.353 86.8225 150.76 86.6358C150.82 86.6103 151.007 86.5933 151.134 86.5848C151.5 86.5509 151.958 86.5 152.4 86.2623C152.561 86.1774 152.74 86.1095 152.918 86.0416C153.224 85.9228 153.572 85.787 153.904 85.5748C154.643 85.1079 154.694 84.2676 154.736 83.648C154.736 83.6311 154.736 83.6141 154.736 83.5886C155.135 83.5462 155.671 83.4783 156.129 83.1048C156.495 82.8077 156.715 82.4428 156.894 82.1542C156.97 82.0353 157.072 81.8656 157.072 81.8571C157.123 81.8316 157.276 81.7807 157.378 81.7467C157.735 81.6364 158.228 81.4751 158.627 81.0677C158.678 81.0168 158.856 80.9065 158.984 80.8301C159.281 80.6518 159.655 80.4311 159.952 80.0831C160.071 79.9473 160.215 79.82 160.351 79.6842C160.589 79.4635 160.861 79.2089 161.09 78.9033C161.507 78.3516 161.473 77.715 161.456 77.2482C161.456 77.1973 161.456 77.1378 161.447 77.0869C161.498 77.0615 161.549 77.0275 161.592 77.002C161.931 76.8068 162.39 76.5437 162.679 76.0344L162.747 75.9241C162.993 75.4997 163.257 75.0498 163.469 74.617C163.511 74.5321 163.639 74.3793 163.758 74.2435C163.979 73.9889 164.251 73.6663 164.42 73.2589C164.582 72.8939 164.65 72.5205 164.718 72.1979C164.752 72.0112 164.786 71.8329 164.845 71.6717C165.1 70.9672 164.794 70.3051 164.59 69.8638C164.573 69.8213 164.556 69.7874 164.531 69.7449C164.556 69.711 164.582 69.6855 164.607 69.66C164.862 69.38 165.202 68.9895 165.329 68.4378C165.508 67.6739 165.066 67.0713 164.709 66.6469C165.092 66.3498 165.567 65.9254 165.635 65.2379C165.695 64.6862 165.508 64.2278 165.38 63.8883C165.346 63.7864 165.287 63.6422 165.278 63.6252C165.278 63.5573 165.346 63.379 165.389 63.2517C165.499 62.9292 165.635 62.5303 165.627 62.0549C165.618 61.4353 165.295 60.977 165.066 60.6459C165.015 60.578 164.964 60.5101 164.93 60.4422C164.93 60.3064 164.939 60.1621 164.947 60.0263C164.973 59.7123 164.998 59.3558 164.947 59.0163C164.947 58.9653 164.998 58.8211 165.024 58.7192C165.134 58.3627 165.287 57.8704 165.176 57.3102C165.075 56.8179 164.828 56.4529 164.624 56.1644C164.607 56.1389 164.59 56.1134 164.565 56.0795C164.599 56.037 164.624 55.9861 164.65 55.9522C164.99 55.4514 165.448 54.7723 165.176 53.966C164.905 53.1597 164.115 52.905 163.511 52.7353C163.647 52.3024 163.775 51.7167 163.503 51.1395L163.46 51.0462C163.46 50.9783 163.469 50.9019 163.477 50.817C163.52 50.0446 163.061 49.5184 162.713 49.1704C162.815 49.0346 162.917 48.8818 163.019 48.712C163.112 48.695 163.231 48.6781 163.316 48.6611C163.979 48.5592 164.879 48.4234 165.244 47.5746C165.287 47.4813 165.397 47.32 165.508 47.1757C165.703 46.9041 165.95 46.5646 166.094 46.1487C166.323 45.5121 166.111 44.9179 165.966 44.4851C165.941 44.4002 165.907 44.3238 165.882 44.2389C165.958 43.9418 166.009 43.6278 166.06 43.3222C166.085 43.1525 166.119 42.9827 166.153 42.813C166.272 42.2612 166.128 41.7774 166.017 41.4209C166 41.353 165.966 41.2597 165.95 41.1918C165.983 41.1239 166.034 41.0645 166.077 41.005C166.289 40.691 166.587 40.2581 166.629 39.6809C166.638 39.5536 166.68 39.3754 166.731 39.1886C166.807 38.8661 166.901 38.5096 166.909 38.0937C166.909 37.525 166.672 37.0667 166.493 36.7357C166.442 36.6508 166.374 36.515 166.366 36.515L166.213 36.3707ZM107.844 109.969C107.623 109.884 107.343 109.791 106.875 109.782C106.706 109.714 106.51 109.646 106.247 109.612C106.034 109.366 105.601 108.967 104.896 108.967C104.429 108.967 104.098 109.112 103.868 109.239C103.664 109.129 103.342 108.984 102.857 108.984C102.322 108.984 101.94 109.222 101.694 109.451C101.473 109.332 101.175 109.239 100.776 109.23C100.691 109.196 100.589 109.163 100.487 109.129C100.487 109.086 100.487 109.052 100.487 109.018C100.453 108.73 100.36 108.5 100.292 108.305C100.266 108.237 100.232 108.161 100.215 108.093C100.207 107.991 100.215 107.881 100.215 107.771C100.224 107.567 100.232 107.363 100.215 107.151C100.215 107.041 100.215 106.93 100.232 106.82C100.249 106.65 100.258 106.48 100.266 106.302C100.275 106.268 100.292 106.234 100.309 106.2C100.394 105.988 100.521 105.666 100.53 105.284C100.53 105.02 100.496 104.791 100.462 104.613C100.445 104.52 100.428 104.401 100.428 104.367C100.428 104.29 100.462 104.214 100.487 104.129C100.538 103.942 100.606 103.713 100.632 103.45C100.674 103.06 100.572 102.72 100.504 102.5C100.504 102.483 100.496 102.457 100.487 102.44C100.504 102.406 100.521 102.372 100.53 102.338C100.615 102.152 100.734 101.897 100.785 101.6C100.802 101.49 100.844 101.388 100.887 101.286C100.954 101.099 101.022 100.904 101.065 100.709C101.099 100.564 101.141 100.429 101.192 100.293C101.243 100.14 101.294 99.9872 101.337 99.8259C101.405 99.5713 101.422 99.3336 101.439 99.1469C101.439 99.0535 101.456 98.9347 101.464 98.8922C101.481 98.8243 101.49 98.7649 101.507 98.697C101.532 98.6885 101.558 98.68 101.583 98.6715C101.609 98.6715 101.634 98.6546 101.66 98.6461C101.66 98.6461 101.66 98.6461 101.66 98.6546C101.821 98.8837 102.033 99.1808 102.356 99.4185C102.382 99.5118 102.407 99.6392 102.424 99.7325C102.56 100.352 102.738 101.209 103.554 101.549C104.123 101.787 104.684 101.685 105.092 101.608C105.193 101.591 105.287 101.566 105.38 101.557C106.102 101.761 106.748 101.405 107.181 101.158C107.19 101.158 107.198 101.15 107.207 101.142C107.224 101.167 107.258 101.192 107.275 101.218C107.232 101.396 107.19 101.591 107.19 101.821C107.19 102.279 107.368 102.627 107.487 102.865C107.496 102.89 107.513 102.915 107.521 102.941C107.521 103 107.504 103.051 107.496 103.111C107.462 103.323 107.419 103.594 107.445 103.9C107.47 104.223 107.555 104.486 107.623 104.698C107.64 104.749 107.666 104.808 107.674 104.859C107.666 104.893 107.657 104.927 107.64 104.961C107.572 105.199 107.462 105.555 107.521 105.971C107.538 106.081 107.538 106.2 107.538 106.311C107.538 106.548 107.547 106.786 107.589 107.015C107.606 107.134 107.615 107.253 107.615 107.363C107.623 107.609 107.64 107.847 107.691 108.068C107.767 108.424 107.912 108.704 108.022 108.908C108.056 108.967 108.09 109.018 108.099 109.052C108.124 109.163 108.133 109.281 108.141 109.392C108.15 109.511 108.167 109.646 108.192 109.782C108.039 109.85 107.912 109.918 107.81 109.994L107.844 109.969ZM114.487 48.4913C114.563 48.7629 114.665 49.1704 114.555 49.6457L114.521 49.79C114.444 50.0955 114.36 50.4435 114.232 50.7831L114.139 51.0462C114.045 51.3008 113.943 51.5979 113.799 51.8865C113.62 52.2175 113.408 52.5316 113.221 52.8032L113.162 52.888C112.924 53.236 112.618 53.4313 112.397 53.5756C112.346 53.6095 112.287 53.6435 112.236 53.6859C111.989 53.9575 111.709 54.2122 111.429 54.4668C111.352 54.5347 111.284 54.6026 111.216 54.679C111.047 54.8572 110.843 55.0694 110.571 55.2562C110.503 55.2986 110.443 55.3665 110.384 55.4259C110.197 55.6042 109.968 55.8248 109.645 55.9946C109.365 56.1474 109.076 56.2407 108.821 56.3256C108.727 56.3596 108.634 56.385 108.54 56.419C108.235 56.5378 107.92 56.6057 107.649 56.6736L107.411 56.733C107.096 56.8094 106.808 56.8264 106.553 56.8434C106.451 56.8434 106.349 56.8519 106.247 56.8689C105.737 56.9283 105.329 56.7415 105.083 56.6312C105.049 56.6142 105.024 56.6057 104.998 56.5887C104.718 56.5887 104.471 56.5548 104.242 56.5293C104.242 56.5293 104.234 56.5293 104.225 56.5378C103.987 56.6821 103.588 56.9368 103.095 56.9368C102.985 56.9368 102.866 56.9198 102.738 56.8943C102.229 56.767 101.923 56.4275 101.719 56.1559C101.405 56.2153 100.971 56.2407 100.53 56.0116C100.241 55.8588 100.003 55.6636 99.8077 55.5108C99.7312 55.4429 99.6463 55.3835 99.5698 55.3241C99.1366 55.0185 98.9497 54.5856 98.8477 54.314C98.5929 54.2206 98.2021 54.0763 97.8793 53.7114C97.8538 53.6859 97.7944 53.6519 97.7349 53.618C97.514 53.4737 97.2082 53.27 96.9703 52.9305C96.724 52.574 96.6475 52.209 96.5966 51.9374C96.5796 51.878 96.5711 51.8101 96.5541 51.7507C96.4097 51.4791 96.3417 51.182 96.2823 50.9443C96.2738 50.8934 96.2653 50.851 96.2483 50.8C96.2313 50.7831 96.2143 50.7746 96.1973 50.7576C95.9764 50.5624 95.6027 50.2313 95.4667 49.6881C95.3478 49.2043 95.4667 48.7884 95.5432 48.5083C95.5432 48.4913 95.5517 48.4659 95.5602 48.4489C95.5517 48.4319 95.5432 48.4149 95.5262 48.3895C95.4073 48.1433 95.2289 47.7784 95.2289 47.32C95.2289 46.9211 95.2544 46.5052 95.2968 46.1317C95.3393 45.7667 95.4667 45.4697 95.5687 45.232C95.6027 45.1556 95.6366 45.0792 95.6621 45.0028C95.6876 44.901 95.7046 44.8076 95.7216 44.7057C95.7726 44.4511 95.8235 44.1625 95.9425 43.857C96.1633 43.2713 96.6645 43.0082 96.9534 42.8554C96.9618 42.8299 96.9704 42.8045 96.9788 42.779C97.0468 42.5923 97.1402 42.3631 97.2847 42.1254C97.2847 42.1 97.2847 42.066 97.2932 42.0406C97.3271 41.752 97.3951 41.2682 97.7519 40.8523C98.0917 40.4703 98.5079 40.3345 98.7883 40.2496C98.8223 40.2411 98.8562 40.2242 98.8902 40.2157C99.1451 40.012 99.4084 39.8931 99.5953 39.8083C99.6463 39.7828 99.6972 39.7658 99.7482 39.7404C99.7652 39.7149 99.7822 39.6809 99.8077 39.6555C99.9606 39.4348 100.19 39.0953 100.615 38.8746C100.98 38.6794 101.32 38.5266 101.668 38.3993C101.753 38.3653 101.846 38.3229 101.931 38.2889C102.169 38.1871 102.433 38.0682 102.747 37.9919C103.163 37.89 103.545 37.9579 103.792 37.9919C103.834 37.9919 103.868 38.0088 103.911 38.0088C103.945 37.9919 103.979 37.9749 104.013 37.9664C104.251 37.8645 104.599 37.7033 105.041 37.7033C105.567 37.7033 105.958 37.9494 106.196 38.0937C106.221 38.1107 106.247 38.1277 106.264 38.1362C106.595 38.1871 106.875 38.255 107.156 38.3229H107.181C107.181 38.3229 107.249 38.3229 107.292 38.3229C107.564 38.2889 107.971 38.2295 108.422 38.3993C108.49 38.4162 108.557 38.4247 108.634 38.4417C108.88 38.4841 109.22 38.5351 109.56 38.7133C109.636 38.7558 109.73 38.7812 109.815 38.8152C110.053 38.9001 110.35 39.0104 110.647 39.2056C110.928 39.4008 111.14 39.6385 111.301 39.8252C111.369 39.9016 111.429 39.978 111.497 40.0374C111.811 40.3175 112.091 40.5976 112.329 40.8607C112.542 41.1069 112.712 41.3615 112.856 41.5822C112.907 41.6586 112.958 41.7435 113.009 41.8199C113.221 42.1254 113.434 42.4734 113.612 42.8214C113.816 43.2034 113.841 43.5854 113.858 43.84C113.858 43.8994 113.858 43.9588 113.875 44.0182C113.901 44.0692 113.943 44.154 113.977 44.2474C114.079 44.4596 114.207 44.7312 114.283 45.0453C114.36 45.3593 114.385 45.6394 114.402 45.894C114.402 45.9874 114.419 46.0893 114.428 46.1826C114.428 46.1996 114.461 46.2505 114.487 46.31C114.589 46.5476 114.733 46.8956 114.733 47.3285C114.733 47.7953 114.546 48.1603 114.428 48.4065C114.428 48.4234 114.411 48.4404 114.402 48.4574L114.419 48.5083L114.487 48.4913ZM133.363 105.037C133.38 105.097 133.397 105.156 133.405 105.216C133.388 105.25 133.38 105.284 133.363 105.318C133.278 105.53 133.159 105.827 133.15 106.2C133.15 106.319 133.125 106.438 133.099 106.557C133.065 106.743 133.031 106.939 133.023 107.125C133.023 107.244 132.989 107.363 132.964 107.473C132.921 107.66 132.879 107.855 132.862 108.042C132.828 108.356 132.862 108.636 132.896 108.84C132.904 108.908 132.921 108.967 132.921 108.993C132.904 109.103 132.87 109.205 132.836 109.307C132.819 109.366 132.811 109.426 132.794 109.485C132.564 109.332 132.224 109.154 131.723 109.154C131.137 109.154 130.746 109.434 130.5 109.68C130.305 109.595 130.041 109.527 129.693 109.527C129.345 109.527 129.056 109.612 128.843 109.706C128.597 109.477 128.198 109.222 127.595 109.213C127.365 109.12 127.085 109.018 126.584 109.01C126.354 108.916 126.066 108.815 125.615 108.815C125.488 108.815 125.378 108.823 125.276 108.84C125.318 108.577 125.318 108.331 125.31 108.152C125.31 108.085 125.293 108.008 125.31 107.932C125.327 107.838 125.361 107.745 125.395 107.652C125.462 107.456 125.547 107.219 125.598 106.93C125.615 106.837 125.649 106.735 125.675 106.642C125.726 106.463 125.794 106.251 125.836 106.014C125.853 105.98 125.87 105.946 125.896 105.912C126.023 105.691 126.219 105.36 126.269 104.927C126.303 104.622 126.27 104.35 126.236 104.129C126.227 104.036 126.21 103.917 126.21 103.875C126.21 103.79 126.244 103.713 126.269 103.628C126.329 103.416 126.397 103.153 126.414 102.831C126.431 102.381 126.27 102.024 126.168 101.787C126.159 101.761 126.151 101.744 126.134 101.719C126.142 101.685 126.159 101.651 126.168 101.608C126.227 101.388 126.312 101.082 126.303 100.726C126.303 100.624 126.312 100.513 126.32 100.412C126.337 100.225 126.354 99.9872 126.337 99.741C126.575 99.6986 126.83 99.6222 127.085 99.4864C127.612 99.1893 127.85 98.68 128.002 98.2811C128.631 98.5357 129.472 98.8583 130.203 98.3235C130.814 97.8737 130.916 97.1692 130.993 96.6514C130.993 96.626 130.993 96.592 131.001 96.5666C131.018 96.5666 131.035 96.5666 131.044 96.5666C131.239 96.5411 131.468 96.4986 131.698 96.4307C131.681 96.5666 131.689 96.7108 131.723 96.8466C131.723 96.8806 131.715 96.9061 131.706 96.94C131.672 97.1946 131.621 97.5851 131.766 98.001C131.868 98.2896 132.021 98.5188 132.123 98.6885C132.157 98.7479 132.199 98.7989 132.216 98.8413C132.292 99.0959 132.411 99.3166 132.496 99.4864C132.539 99.5628 132.581 99.6307 132.607 99.7071C132.649 99.8598 132.675 100.013 132.7 100.165C132.726 100.318 132.76 100.479 132.794 100.624C132.819 100.743 132.828 100.861 132.836 100.98C132.853 101.175 132.87 101.379 132.904 101.54C132.904 101.608 132.904 101.676 132.887 101.744C132.87 101.948 132.836 102.211 132.887 102.508C132.947 102.907 133.125 103.221 133.252 103.425C133.261 103.442 133.278 103.467 133.286 103.484C133.286 103.544 133.269 103.62 133.269 103.679C133.252 103.866 133.218 104.095 133.235 104.341C133.252 104.613 133.312 104.851 133.354 105.037H133.363ZM137.882 48.4828C137.959 48.7545 138.069 49.1619 137.95 49.6372L137.925 49.7475C137.848 50.0616 137.763 50.4181 137.627 50.7661L137.534 51.0292C137.44 51.2923 137.338 51.5809 137.186 51.8695C137.007 52.209 136.795 52.5231 136.599 52.7947L136.548 52.8626C136.311 53.2021 136.005 53.4058 135.784 53.5501C135.733 53.584 135.673 53.618 135.622 53.6604C135.385 53.932 135.104 54.1867 134.815 54.4413C134.739 54.5092 134.671 54.5771 134.603 54.6535C134.433 54.8233 134.229 55.044 133.957 55.2307C133.889 55.2816 133.83 55.341 133.762 55.4004C133.575 55.5787 133.346 55.7994 133.031 55.9606C132.743 56.1134 132.462 56.2068 132.207 56.2917C132.114 56.3256 132.021 56.3511 131.927 56.385C131.621 56.5039 131.307 56.5718 131.035 56.6397L130.797 56.6991C130.483 56.7755 130.194 56.7925 129.939 56.8094C129.837 56.8094 129.735 56.8179 129.634 56.8349C129.124 56.8943 128.716 56.7076 128.47 56.5972C128.436 56.5803 128.41 56.5718 128.385 56.5548C128.104 56.5548 127.858 56.5208 127.629 56.4954C127.629 56.4954 127.62 56.4954 127.612 56.4954C127.374 56.6397 126.975 56.8943 126.482 56.8943C126.371 56.8943 126.253 56.8773 126.125 56.8519C125.615 56.7246 125.31 56.385 125.106 56.1134C124.783 56.1728 124.358 56.1983 123.916 55.9691C123.628 55.8164 123.39 55.6211 123.194 55.4684C123.118 55.4004 123.033 55.341 122.956 55.2816C122.523 54.9761 122.336 54.5432 122.234 54.2716C121.98 54.1782 121.589 54.0339 121.274 53.6774C121.24 53.652 121.19 53.618 121.13 53.584C120.909 53.4398 120.603 53.236 120.365 52.8965C120.119 52.54 120.043 52.1751 119.992 51.9035C119.983 51.844 119.975 51.7761 119.949 51.7252C119.805 51.4536 119.737 51.1565 119.677 50.9104C119.669 50.8594 119.66 50.817 119.643 50.7661C119.626 50.7491 119.609 50.7406 119.592 50.7236C119.372 50.5284 118.998 50.1889 118.862 49.6542C118.743 49.1788 118.862 48.7545 118.938 48.4828C118.938 48.4659 118.947 48.4404 118.955 48.4234C118.947 48.4065 118.938 48.3895 118.921 48.364C118.802 48.1179 118.624 47.7529 118.624 47.2945C118.624 46.8956 118.65 46.4797 118.692 46.1062C118.734 45.7413 118.862 45.4442 118.964 45.2065C118.998 45.1301 119.04 45.0537 119.057 44.9689C119.083 44.8755 119.1 44.7737 119.117 44.6803C119.168 44.4256 119.219 44.1371 119.338 43.8315C119.558 43.2374 120.06 42.9827 120.357 42.8214C120.357 42.8214 120.374 42.7705 120.382 42.7451C120.459 42.5583 120.544 42.3292 120.688 42.0915C120.688 42.066 120.688 42.0321 120.697 42.0066C120.731 41.718 120.799 41.2257 121.164 40.8183C121.495 40.4364 121.92 40.309 122.192 40.2157C122.226 40.2072 122.26 40.1987 122.294 40.1817C122.549 39.978 122.812 39.8592 122.999 39.7743C123.05 39.7488 123.101 39.7319 123.152 39.7064C123.169 39.6809 123.186 39.647 123.211 39.6215C123.364 39.4008 123.594 39.0613 124.018 38.8406C124.384 38.6454 124.723 38.4926 125.072 38.3653C125.157 38.3314 125.25 38.2889 125.335 38.255C125.573 38.1531 125.836 38.0343 126.151 37.9579C126.575 37.856 126.949 37.924 127.195 37.9579C127.238 37.9579 127.272 37.9749 127.314 37.9749C127.348 37.9579 127.382 37.9409 127.416 37.9324C127.654 37.8306 128.002 37.6693 128.444 37.6693C128.971 37.6693 129.362 37.9155 129.6 38.0598C129.625 38.0767 129.65 38.0937 129.667 38.1022C129.999 38.1446 130.279 38.221 130.559 38.2889H130.585C130.585 38.2889 130.653 38.2889 130.695 38.2889C130.967 38.255 131.375 38.1956 131.825 38.3653C131.885 38.3823 131.961 38.3908 132.038 38.3993C132.284 38.4417 132.624 38.4926 132.964 38.6709C133.04 38.7133 133.133 38.7388 133.218 38.7727C133.456 38.8576 133.754 38.968 134.042 39.1632C134.323 39.3584 134.535 39.5961 134.705 39.7828C134.773 39.8592 134.832 39.9356 134.9 39.995C135.223 40.2751 135.504 40.5552 135.733 40.8183C135.945 41.056 136.115 41.3191 136.26 41.5398C136.311 41.6162 136.362 41.701 136.412 41.7774C136.633 42.0915 136.846 42.4395 137.016 42.779C137.22 43.161 137.245 43.5429 137.262 43.7975C137.262 43.857 137.262 43.9164 137.279 43.9758C137.304 44.0267 137.347 44.1116 137.381 44.1965C137.483 44.4087 137.61 44.6803 137.687 45.0028C137.763 45.3084 137.789 45.597 137.806 45.8516C137.806 45.945 137.823 46.0468 137.831 46.1402C137.831 46.1572 137.865 46.2081 137.891 46.2675C137.993 46.5052 138.137 46.8532 138.137 47.2861C138.137 47.7529 137.95 48.1179 137.831 48.364C137.831 48.381 137.814 48.398 137.806 48.4149L137.823 48.4659L137.882 48.4828ZM155.756 63.2602C155.688 63.7016 155.543 64.2024 155.365 64.6267C155.186 65.0681 154.872 65.3652 154.643 65.5859C154.575 65.6453 154.515 65.7047 154.464 65.7726C154.15 66.18 153.751 66.4856 153.411 66.7317C153.351 66.7742 153.292 66.8251 153.233 66.876C152.978 67.0797 152.655 67.3344 152.222 67.5041L152.018 67.589C151.72 67.7163 151.347 67.8691 150.913 67.937C150.811 67.954 150.718 67.9625 150.633 67.9625C150.31 67.9625 150.038 67.8861 149.826 67.8267C149.75 67.8097 149.673 67.7757 149.597 67.7673C149.512 67.7588 149.401 67.7673 149.299 67.7673C148.994 67.7842 148.62 67.8012 148.22 67.7078C147.796 67.606 147.303 67.4787 146.844 67.241C146.411 67.0203 145.961 66.7657 145.587 66.4092C145.128 65.9678 145.06 65.4076 145.018 65.0766C145.018 65.0342 145.018 65.0002 145.001 64.9578C144.984 64.9408 144.95 64.9069 144.924 64.8814C144.712 64.6607 144.364 64.2787 144.253 63.7101C144.168 63.2517 144.253 62.8443 144.33 62.5472C144.347 62.4539 144.372 62.369 144.381 62.2671C144.415 61.8597 144.525 61.5117 144.627 61.2061L144.67 61.0873C144.67 61.0873 144.661 61.0279 144.653 60.9939C144.593 60.6629 144.483 60.1027 144.772 59.5425C144.924 59.237 145.145 59.0078 145.298 58.838C145.349 58.7786 145.409 58.7277 145.451 58.6683C145.553 58.4052 145.723 58.159 145.859 57.9723C145.91 57.8959 145.969 57.828 146.012 57.7516C146.114 57.4206 146.224 57.0556 146.309 56.6991C146.318 56.6482 146.309 56.4869 146.309 56.385C146.309 56.1559 146.301 55.8758 146.36 55.5702C146.36 55.5193 146.36 55.3665 146.352 55.2731C146.335 55.044 146.309 54.7554 146.36 54.4413C146.411 54.1358 146.496 53.8811 146.572 53.6689C146.606 53.5586 146.657 53.4143 146.666 53.3549C146.7 53.0833 146.768 52.8201 146.827 52.5825C146.861 52.4636 146.895 52.3533 146.904 52.2515C146.895 52.226 146.87 52.192 146.853 52.1581C146.751 51.9459 146.521 51.4536 146.759 50.8764C146.87 50.6133 147.125 50.2568 147.685 50.0531C148.144 49.8918 148.56 49.9173 148.934 50.1125C149.486 50.4096 149.605 50.9358 149.673 51.1905C149.699 51.3093 149.716 51.3602 149.741 51.3942C149.852 51.5385 149.962 51.7082 150.089 51.8865C150.191 52.0308 150.302 52.192 150.412 52.3533C150.489 52.4552 150.582 52.557 150.676 52.6674C150.837 52.8541 151.007 53.0408 151.16 53.253C151.228 53.3549 151.321 53.4398 151.406 53.5246C151.559 53.6859 151.754 53.8896 151.933 54.1442C152.009 54.2546 152.103 54.3564 152.196 54.4583C152.366 54.6535 152.536 54.8487 152.68 55.0609C152.986 55.5193 152.986 56.0031 152.969 56.3511C153.233 56.4954 153.606 56.7161 153.853 57.132C153.929 57.2593 154.014 57.3781 154.099 57.4885C154.252 57.7007 154.405 57.9129 154.524 58.1335C154.77 58.5919 154.779 59.0587 154.779 59.3643C154.779 59.4067 154.779 59.4576 154.779 59.5001C154.94 59.8736 154.999 60.2131 155.042 60.4677C155.059 60.5441 155.067 60.6205 155.084 60.6969C155.084 60.6714 155.118 60.7223 155.152 60.7648C155.322 61.0194 155.569 61.3929 155.594 61.9276C155.594 61.9955 155.628 62.0719 155.645 62.1483C155.722 62.4454 155.824 62.8443 155.756 63.3026V63.2602Z" fill="#E4EAF1"/>
</g>
<defs>
<clipPath id="clip0_4259_16351">
<rect width="220" height="130" fill="white"/>
</clipPath>
</defs>
</svg>
