<svg width="24" height="24" viewBox="0 0 24 24" fill="none" xmlns="http://www.w3.org/2000/svg">
<path fill-rule="evenodd" clip-rule="evenodd" d="M12.797 4.70005C12.4644 4.70005 12.1444 4.82755 11.9029 5.05631L4.38285 12.1806C3.87464 12.662 3.83895 13.4595 4.30213 13.9844L9.15208 19.481C9.63951 20.0335 10.4881 20.0708 11.0222 19.5634L18.8954 12.0839C19.1538 11.8385 19.3 11.4978 19.3 11.1414V5.00005C19.3 4.83436 19.1657 4.70005 19 4.70005H12.797ZM10.9401 4.03998C11.4416 3.56486 12.1061 3.30005 12.797 3.30005H19C19.9389 3.30005 20.7 4.06116 20.7 5.00005V11.1414C20.7 11.8815 20.3962 12.5892 19.8597 13.0989L11.9865 20.5784C10.8772 21.6323 9.11466 21.5546 8.10231 20.4073L3.25236 14.9107C2.29037 13.8204 2.36449 12.1642 3.42001 11.1642L10.9401 4.03998Z" fill="#222222"/>
<path d="M18 7.5C18 8.32843 17.3284 9 16.5 9C15.6716 9 15 8.32843 15 7.5C15 6.67157 15.6716 6 16.5 6C17.3284 6 18 6.67157 18 7.5Z" fill="#222222"/>
</svg>
