<svg width="201" height="33" viewBox="0 0 201 33" fill="none" xmlns="http://www.w3.org/2000/svg">
<g clip-path="url(#clip0_260_3560)">
<path d="M0.5 30.3834L1.69901 19.7478C5.96526 21.3145 12.9602 22.7392 16.4098 22.5971C18.7083 22.5024 18.7083 20.7936 16.5054 20.5568C5.62667 19.3689 0.404398 17.2339 0.595602 10.2054C0.786807 3.93843 6.15647 0.331398 15.406 0.0472555C21.6361 -0.142173 27.8184 0.615541 32.0806 2.0402L30.8338 13.623C27.1452 12.1983 20.7717 11.1525 17.8 11.4879C15.5494 11.7247 15.5494 13.0547 17.8 13.3388C29.83 14.7635 33.9489 16.6617 33.7576 23.1181C33.5664 29.3376 28.4398 32.8499 17.322 32.992C10.8529 33.0867 4.95746 32.0409 0.5 30.3795L0.5 30.3834Z" fill="white"/>
<path d="M36.3907 16.4724C36.3907 6.55106 43.4334 0 55.32 0C67.2066 0 74.2493 6.55106 74.2493 16.4724C74.2493 26.3937 67.2066 32.9921 55.32 32.9921C43.4334 32.9921 36.3907 26.3937 36.3907 16.4724ZM60.1121 16.4724C60.1121 12.4825 58.2438 10.6317 55.32 10.6317C52.3962 10.6317 50.5279 12.4825 50.5279 16.4724C50.5279 20.4622 52.3962 22.3604 55.32 22.3604C58.2438 22.3604 60.1121 20.5096 60.1121 16.4724Z" fill="white"/>
<path d="M76.8743 16.4724C76.8743 6.55106 83.921 0 95.8035 0C107.686 0 114.733 6.55106 114.733 16.4724C114.733 26.3937 107.69 32.9921 95.8035 32.9921C83.917 32.9921 76.8743 26.3937 76.8743 16.4724ZM100.596 16.4724C100.596 12.4825 98.7274 10.6317 95.8035 10.6317C92.8797 10.6317 91.0115 12.4825 91.0115 16.4724C91.0115 20.4622 92.8797 22.3604 95.8035 22.3604C98.7274 22.3604 100.596 20.5096 100.596 16.4724Z" fill="white"/>
<path d="M139.55 28.6272C137.06 31.1924 133.272 32.7078 129.149 32.7078C115.876 32.7078 116.593 15.4738 118.222 0.947021H131.4C130.921 16.2355 131.786 18.8914 134.18 19.3216C136 19.6531 137.534 19.2742 139.115 18.3231C138.972 12.5771 138.972 6.78773 139.259 0.947021H153.3C154.165 11.3932 153.874 21.5987 152.532 32.0448H139.785L139.546 28.6272H139.55Z" fill="white"/>
<path d="M172.198 13.9586C171.238 13.6744 170.473 13.9112 169.804 14.4795C169.708 20.2728 169.517 26.3464 169.326 32.045H157.682C156.34 21.5988 156.053 11.3934 156.913 0.947209H169.66L169.756 3.46503C171.433 1.47208 173.731 0.189495 176.751 0.284209C179.675 0.378923 181.925 1.70887 183.22 3.98596C185.232 1.65757 188.394 0.189495 191.987 0.284209C201.811 0.520995 200.855 15.1464 199.99 32.045H188.442C188.924 16.7566 188.777 14.3848 187.004 13.9112C186.044 13.6271 185.279 13.8639 184.558 14.4321C184.797 19.7006 184.511 25.7308 184.224 32.045H173.488C173.871 16.7566 173.871 14.3848 172.194 13.9586H172.198Z" fill="white"/>
</g>
<defs>
<clipPath id="clip0_260_3560">
<rect width="200" height="33" fill="white" transform="translate(0.5)"/>
</clipPath>
</defs>
</svg>
