<svg width="24" height="24" viewBox="0 0 24 24" fill="none" xmlns="http://www.w3.org/2000/svg">
<path d="M11.4214 4.54809L3.90138 11.6724C3.11951 12.4131 3.06461 13.6399 3.77719 14.4475L8.62714 19.9441C9.37703 20.794 10.6826 20.8515 11.5043 20.0709L19.3775 12.5914C19.7749 12.2138 20 11.6896 20 11.1414V5C20 4.44772 19.5523 4 19 4H12.7969C12.2852 4 11.7929 4.19615 11.4214 4.54809Z" fill="#0BC7F2"/>
<path fill-rule="evenodd" clip-rule="evenodd" d="M12.7969 4.5C12.4131 4.5 12.0439 4.64712 11.7653 4.91107L4.24525 12.0353C3.65885 12.5909 3.61768 13.511 4.15211 14.1167L9.00207 19.6133C9.56448 20.2507 10.5437 20.2939 11.1599 19.7084L19.0331 12.2289C19.3312 11.9457 19.5 11.5525 19.5 11.1414V5C19.5 4.72386 19.2761 4.5 19 4.5H12.7969ZM11.0776 4.18512C11.5419 3.74519 12.1573 3.5 12.7969 3.5H19C19.8284 3.5 20.5 4.17157 20.5 5V11.1414C20.5 11.8267 20.2187 12.4819 19.7219 12.9539L11.8487 20.4334C10.8215 21.4092 9.18959 21.3373 8.25223 20.2749L3.40227 14.7783C2.51155 13.7688 2.58017 12.2353 3.55751 11.3094L11.0776 4.18512Z" fill="#0BC7F2"/>
<path d="M18 7.5C18 8.32843 17.3284 9 16.5 9C15.6716 9 15 8.32843 15 7.5C15 6.67157 15.6716 6 16.5 6C17.3284 6 18 6.67157 18 7.5Z" fill="#FEFEFE"/>
</svg>
