<svg width="24" height="24" viewBox="0 0 24 24" fill="none" xmlns="http://www.w3.org/2000/svg">
<path fill-rule="evenodd" clip-rule="evenodd" d="M12 4.70005C7.96837 4.70005 4.70005 7.96837 4.70005 12C4.70005 16.0317 7.96837 19.3 12 19.3C13.7343 19.3 15.3257 18.6961 16.578 17.6865C18.2849 16.1867 18.7842 13.4899 18.3136 11.1373C18.2378 10.7582 18.4837 10.3895 18.8628 10.3136C19.2419 10.2378 19.6106 10.4837 19.6865 10.8628C20.215 13.5057 19.7171 16.8031 17.4893 18.7494L17.4794 18.7581L17.4691 18.7664C15.9751 19.9754 14.0712 20.7001 12 20.7001C7.19517 20.7001 3.30005 16.8049 3.30005 12C3.30005 7.19517 7.19517 3.30005 12 3.30005C14.3797 3.30005 16.3694 3.80787 18.0055 5.51582C18.273 5.79499 18.2635 6.2381 17.9843 6.50554C17.7051 6.77297 17.262 6.76345 16.9946 6.48428C15.7182 5.15193 14.163 4.70005 12 4.70005Z" fill="#222222"/>
<path fill-rule="evenodd" clip-rule="evenodd" d="M16.505 12.6163C16.2316 12.3429 16.2316 11.8997 16.505 11.6264L18.3435 9.78789C18.773 9.35831 19.4695 9.35831 19.8991 9.78789L21.7376 11.6264C22.0109 11.8997 22.0109 12.3429 21.7376 12.6163C21.4642 12.8897 21.021 12.8897 20.7476 12.6163L19.1213 10.99L17.4949 12.6163C17.2216 12.8897 16.7784 12.8897 16.505 12.6163Z" fill="#222222"/>
</svg>
