<svg width="24" height="24" viewBox="0 0 24 24" fill="none" xmlns="http://www.w3.org/2000/svg">
<g clip-path="url(#clip0_994_12864)">
<path d="M12 24C12.2652 24 12.5196 23.8946 12.7071 23.7071C12.8946 23.5196 13 23.2652 13 23C13 22.7348 12.8946 22.4804 12.7071 22.2929C12.5196 22.1054 12.2652 22 12 22C9.34783 22 6.8043 20.9464 4.92893 19.0711C3.05357 17.1957 2 14.6522 2 12C2 9.34784 3.05357 6.8043 4.92893 4.92893C6.80429 3.05357 9.34783 2 12 2C12.2652 2 12.5196 1.89464 12.7071 1.70711C12.8946 1.51957 13 1.26522 13 1C13 0.734784 12.8946 0.48043 12.7071 0.292893C12.5196 0.105357 12.2652 1.02589e-06 12 1.04907e-06C8.8174 1.3273e-06 5.76515 1.26428 3.51472 3.51472C1.26428 5.76516 -1.3273e-06 8.8174 -1.04907e-06 12C-7.70842e-07 15.1826 1.26428 18.2348 3.51472 20.4853C5.76516 22.7357 8.8174 24 12 24ZM22.173 17.216C22.3708 17.216 22.5641 17.1574 22.7286 17.0475C22.893 16.9376 23.0212 16.7814 23.0969 16.5987C23.1726 16.416 23.1924 16.2149 23.1538 16.0209C23.1152 15.8269 23.02 15.6487 22.8801 15.5089C22.7403 15.369 22.5621 15.2738 22.3681 15.2352C22.1741 15.1966 21.973 15.2164 21.7903 15.2921C21.6076 15.3678 21.4514 15.496 21.3415 15.6604C21.2316 15.8249 21.173 16.0182 21.173 16.216C21.173 16.4812 21.2784 16.7356 21.4659 16.9231C21.6534 17.1106 21.9078 17.216 22.173 17.216ZM22 12C22 12.1978 22.0586 12.3911 22.1685 12.5556C22.2784 12.72 22.4346 12.8482 22.6173 12.9239C22.8 12.9996 23.0011 13.0194 23.1951 12.9808C23.3891 12.9422 23.5673 12.847 23.7071 12.7071C23.847 12.5673 23.9422 12.3891 23.9808 12.1951C24.0194 12.0011 23.9996 11.8 23.9239 11.6173C23.8482 11.4346 23.72 11.2784 23.5556 11.1685C23.3911 11.0586 23.1978 11 23 11C22.7348 11 22.4804 11.1054 22.2929 11.2929C22.1054 11.4804 22 11.7348 22 12ZM19.779 20.793C19.9768 20.793 20.1701 20.7344 20.3346 20.6245C20.499 20.5146 20.6272 20.3584 20.7029 20.1757C20.7786 19.993 20.7984 19.7919 20.7598 19.5979C20.7212 19.4039 20.626 19.2257 20.4861 19.0859C20.3463 18.946 20.1681 18.8508 19.9741 18.8122C19.7801 18.7736 19.579 18.7934 19.3963 18.8691C19.2136 18.9448 19.0574 19.073 18.9475 19.2374C18.8376 19.4019 18.779 19.5952 18.779 19.793C18.779 20.0582 18.8844 20.3126 19.0719 20.5001C19.2594 20.6876 19.5138 20.793 19.779 20.793ZM16.221 23.159C16.4188 23.159 16.6121 23.1004 16.7766 22.9905C16.941 22.8806 17.0692 22.7244 17.1449 22.5417C17.2206 22.359 17.2404 22.1579 17.2018 21.9639C17.1632 21.7699 17.068 21.5917 16.9281 21.4519C16.7883 21.312 16.6101 21.2168 16.4161 21.1782C16.2221 21.1396 16.021 21.1594 15.8383 21.2351C15.6556 21.3108 15.4994 21.439 15.3895 21.6034C15.2796 21.7679 15.221 21.9612 15.221 22.159C15.221 22.4242 15.3264 22.6786 15.5139 22.8661C15.7014 23.0536 15.9558 23.159 16.221 23.159ZM22.173 8.784C22.3708 8.784 22.5641 8.72535 22.7286 8.61547C22.893 8.50559 23.0212 8.34941 23.0969 8.16668C23.1726 7.98396 23.1924 7.78289 23.1538 7.58891C23.1152 7.39493 23.02 7.21675 22.8801 7.07689C22.7403 6.93704 22.5621 6.8418 22.3681 6.80322C22.1741 6.76463 21.973 6.78443 21.7903 6.86012C21.6076 6.93581 21.4514 7.06398 21.3415 7.22843C21.2316 7.39288 21.173 7.58622 21.173 7.784C21.173 8.04922 21.2784 8.30357 21.4659 8.49111C21.6534 8.67864 21.9078 8.784 22.173 8.784ZM19.779 5.207C19.9768 5.207 20.1701 5.14835 20.3346 5.03847C20.499 4.92859 20.6272 4.77241 20.7029 4.58968C20.7786 4.40696 20.7984 4.20589 20.7598 4.01191C20.7212 3.81793 20.626 3.63975 20.4861 3.49989C20.3463 3.36004 20.1681 3.2648 19.9741 3.22622C19.7801 3.18763 19.579 3.20743 19.3963 3.28312C19.2136 3.35881 19.0574 3.48698 18.9475 3.65143C18.8376 3.81588 18.779 4.00922 18.779 4.207C18.779 4.47222 18.8844 4.72657 19.0719 4.91411C19.2594 5.10164 19.5138 5.207 19.779 5.207ZM16.221 2.841C16.4188 2.841 16.6121 2.78235 16.7766 2.67247C16.941 2.56259 17.0692 2.40641 17.1449 2.22368C17.2206 2.04096 17.2404 1.83989 17.2018 1.64591C17.1632 1.45193 17.068 1.27375 16.9281 1.13389C16.7883 0.994042 16.6101 0.8988 16.4161 0.860215C16.2221 0.82163 16.021 0.841433 15.8383 0.917121C15.6556 0.992808 15.4994 1.12098 15.3895 1.28543C15.2796 1.44988 15.221 1.64322 15.221 1.841C15.221 2.10622 15.3264 2.36057 15.5139 2.54811C15.7014 2.73564 15.9558 2.841 16.221 2.841Z" fill="#212121"/>
<path d="M13.736 13.0022C13.9105 12.6971 14.0016 12.3515 14 12C13.999 11.6503 13.9061 11.3071 13.7306 11.0047C13.5551 10.7023 13.3031 10.4513 13 10.277V7C13 6.73478 12.8946 6.48043 12.7071 6.29289C12.5195 6.10536 12.2652 6 12 6C11.7348 6 11.4804 6.10536 11.2929 6.29289C11.1053 6.48043 11 6.73478 11 7V10.277C10.6956 10.4527 10.4429 10.7056 10.2674 11.01C10.0918 11.3145 9.9996 11.6599 10 12.0113C10.0004 12.3628 10.0934 12.7079 10.2697 13.012C10.4459 13.3161 10.6992 13.5683 11.0039 13.7434C11.3087 13.9184 11.6542 14.01 12.0057 14.009C12.3571 14.008 12.7021 13.9144 13.0059 13.7377C13.3096 13.5609 13.5615 13.3072 13.736 13.0022Z" fill="#212121"/>
</g>
<defs>
<clipPath id="clip0_994_12864">
<rect width="24" height="24" fill="white"/>
</clipPath>
</defs>
</svg>
