<svg width="93" height="18" viewBox="0 0 93 18" fill="none" xmlns="http://www.w3.org/2000/svg">
<g clip-path="url(#clip0_444_13346)">
<path d="M7.63076 17.875C5.1285 17.875 2.15195 17.3999 0.95086 16.7247C0.300272 16.3497 0 15.7746 0 15.1994C0 14.0742 1.07597 12.949 2.50226 13.4241C3.85348 13.8742 5.3048 14.2493 7.30547 14.2493C9.30614 14.2493 10.8075 13.8742 10.8075 12.574C10.8075 9.37448 0.750679 12.2989 0.750679 5.29871C0.750679 0.700111 5.07846 0.0499878 7.85597 0.0499878C10.2832 0.0499878 12.2338 0.625097 13.2097 1.12519C13.9103 1.47526 14.2356 2.10038 14.2356 2.72549C14.2356 3.62567 13.56 4.50083 12.434 4.50083C12.1837 4.50083 11.8835 4.45082 11.5832 4.3508C10.4322 3.95073 9.53135 3.67567 7.68081 3.67567C5.97927 3.67567 4.82937 3.90072 4.82937 5.15095C4.82937 8.40043 14.8612 5.35099 14.8612 12.4512C14.8612 17.201 10.4083 17.8761 7.63076 17.8761V17.875Z" fill="#0BC7F2"/>
<path d="M43.2835 18C38.2062 18 34.7178 14.8005 34.7178 9.02557C34.7178 3.25062 38.205 0 43.2835 0C48.3619 0 51.8719 3.22447 51.8719 9.02444C51.8719 14.8244 48.3619 17.9989 43.2835 17.9989V18ZM43.2835 3.74957C40.7448 3.74957 38.9125 5.54991 38.9125 9.02444C38.9125 12.499 40.7448 14.2493 43.2835 14.2493C45.8221 14.2493 47.6772 12.4239 47.6772 9.02444C47.6772 5.62493 45.8233 3.74957 43.2835 3.74957Z" fill="#0BC7F2"/>
<path d="M65.0304 2.25041C65.0304 1.00017 65.9312 0.250031 67.1573 0.250031C68.3834 0.250031 69.2842 1.00017 69.2842 2.25041V10.3508C69.2842 15.3256 66.4328 18.0011 61.2531 18.0011C56.0734 18.0011 53.222 15.3256 53.222 10.3508V2.25041C53.222 1.00017 54.0978 0.250031 55.3489 0.250031C56.6 0.250031 57.4758 1.00017 57.4758 2.25041V10.3758C57.4758 13.6003 59.4526 14.2504 61.2531 14.2504C63.0536 14.2504 65.0304 13.6003 65.0304 10.3758V2.25041Z" fill="#0BC7F2"/>
<path d="M88.6961 6.87517C88.6961 5.09984 87.8954 4.12579 86.4191 4.12579C84.9427 4.12579 84.142 5.10097 84.142 6.87517V15.7496C84.142 16.9498 83.3663 17.75 81.965 17.75C80.6388 17.75 79.8381 16.9498 79.8381 15.7496V6.87517C79.8381 5.09984 79.0374 4.12579 77.5611 4.12579C76.0847 4.12579 75.284 5.10097 75.284 6.87517V15.7496C75.284 16.9498 74.5583 17.75 73.1571 17.75C71.7558 17.75 70.9801 16.9498 70.9801 15.7496V6.87517C70.9801 1.65032 73.5324 0.125031 77.5599 0.125031C79.3615 0.125031 80.8868 0.700139 81.9878 2.25043C83.0888 0.700139 84.6152 0.125031 86.4157 0.125031C90.5933 0.125031 92.9955 2.12541 92.9955 6.87517V15.7496C92.9955 16.9498 92.2198 17.75 90.8185 17.75C89.4172 17.75 88.6916 16.9498 88.6916 15.7496V6.87517H88.6961Z" fill="#0BC7F2"/>
<path d="M28.7351 2.2095H20.6824C19.4511 2.2095 18.4531 3.20688 18.4531 4.4372V13.3934C18.4531 14.6238 19.4511 15.6211 20.6824 15.6211H28.7351C29.9663 15.6211 30.9644 14.6238 30.9644 13.3934V4.4372C30.9644 3.20688 29.9663 2.2095 28.7351 2.2095Z" stroke="#0BC7F2" stroke-width="3.86437" stroke-miterlimit="10"/>
</g>
<defs>
<clipPath id="clip0_444_13346">
<rect width="93" height="18" fill="white"/>
</clipPath>
</defs>
</svg>
