<svg width="24" height="24" viewBox="0 0 24 24" fill="none" xmlns="http://www.w3.org/2000/svg">
<path fill-rule="evenodd" clip-rule="evenodd" d="M3.30005 20C3.30005 19.6134 3.61345 19.3 4.00005 19.3L20 19.3C20.3867 19.3 20.7001 19.6134 20.7001 20C20.7001 20.3866 20.3867 20.7 20 20.7L4.00005 20.7C3.61345 20.7 3.30005 20.3866 3.30005 20Z" fill="#222222"/>
<path fill-rule="evenodd" clip-rule="evenodd" d="M12 4.70005C8.64641 4.70005 6.67381 6.79374 5.86613 7.94731C5.76077 8.09778 5.70005 8.30096 5.70005 8.54075V19.3H18.3V8.81202C18.3 8.46916 18.1685 8.12323 17.931 7.84372C16.8679 6.59252 15.1959 4.70005 12 4.70005ZM4.71929 7.14434C5.65226 5.81184 7.9943 3.30005 12 3.30005C15.8667 3.30005 17.9034 5.64906 18.9979 6.93722C19.4347 7.45129 19.7 8.11353 19.7 8.81202V20.7001H4.30005V8.54075C4.30005 8.07232 4.41845 7.57402 4.71929 7.14434Z" fill="#222222"/>
<path fill-rule="evenodd" clip-rule="evenodd" d="M12 7.30005C12.3866 7.30005 12.7 7.61345 12.7 8.00005V13C12.7 13.3866 12.3866 13.7 12 13.7C11.6134 13.7 11.3 13.3866 11.3 13V8.00005C11.3 7.61345 11.6134 7.30005 12 7.30005Z" fill="#222222"/>
<path d="M13 16C13 16.5523 12.5523 17 12 17C11.4477 17 11 16.5523 11 16C11 15.4477 11.4477 15 12 15C12.5523 15 13 15.4477 13 16Z" fill="#222222"/>
<path fill-rule="evenodd" clip-rule="evenodd" d="M12 15.6C11.7791 15.6 11.6 15.7791 11.6 16C11.6 16.2209 11.7791 16.4 12 16.4C12.2209 16.4 12.4 16.2209 12.4 16C12.4 15.7791 12.2209 15.6 12 15.6ZM12 17C12.5523 17 13 16.5523 13 16C13 15.4477 12.5523 15 12 15C11.4477 15 11 15.4477 11 16C11 16.5523 11.4477 17 12 17Z" fill="#222222"/>
</svg>
